*
G04 Job   : E:\PCBDESIGN\PROJECT\XDX\JOHNENGLISH\JOHNENGLISH\PCB\Board1.pcb*
G04 User  : BES-WIN7-VM:BES*
G04 Layer : EtchLayer3.gdo*
G04 Date  : Sun Nov 23 15:41:45 2014*
G04 Mentor Graphics Example Gerber Output Definition*
%ICAS*%
%MOIN*%
%FSLAX24Y24*%
%OFA0.0000B0.0000*%
G90*
G74*
%AMVB_RCRECTANGLE*
$3=$3X2*
21,1,$1-$3,$2,0,0,0*
21,1,$1,$2-$3,0,0,0*
$1=$1/2*
$2=$2/2*
$3=$3/2*
$1=$1-$3*
$2=$2-$3*
1,1,$3X2,0-$1,0-$2*
1,1,$3X2,0-$1,$2*
1,1,$3X2,$1,$2*
1,1,$3X2,$1,0-$2*
%
%ADD10C,0.00500*%
%ADD14C,0.02000*%
%ADD12C,0.02500*%
%ADD13C,0.02600*%
%ADD11C,0.03000*%
%ADD18C,0.05709*%
%ADD16C,0.06000*%
%ADD70C,0.07874*%
%ADD17C,0.20000*%
%ADD15C,0.27500*%
%ADD19VB_RCRECTANGLE,0.07480X0.07874X0.00984*%
G01*
G36*
Y31620D02*
G02X30Y31650I30D01*
G01X525*
Y2000*
G03X2000Y525I1475*
X3475Y2000J1475*
X2000Y3475I1475*
X525Y2000J1475*
G01Y31650*
X750*
Y5000*
G03X1000Y4750I250*
X1250Y5000J250*
X1000Y5250I250*
X750Y5000J250*
G01Y8000*
G03X1000Y7750I250*
X1250Y8000J250*
X1000Y8250I250*
X750Y8000J250*
G01Y11000*
G03X1000Y10750I250*
X1250Y11000J250*
X1000Y11250I250*
X750Y11000J250*
G01Y14000*
G03X1000Y13750I250*
X1250Y14000J250*
X1000Y14250I250*
X750Y14000J250*
G01Y17000*
G03X1000Y16750I250*
X1250Y17000J250*
X1000Y17250I250*
X750Y17000J250*
G01Y20000*
G03X1000Y19750I250*
X1250Y20000J250*
X1000Y20250I250*
X750Y20000J250*
G01Y23000*
G03X1000Y22750I250*
X1250Y23000J250*
X1000Y23250I250*
X750Y23000J250*
G01Y26000*
G03X1000Y25750I250*
X1250Y26000J250*
X1000Y26250I250*
X750Y26000J250*
G01Y29000*
G03X1000Y28750I250*
X1250Y29000J250*
X1000Y29250I250*
X750Y29000J250*
G01Y31650*
X1025*
Y30000*
G03X1250Y29775I225*
X1475Y30000J225*
X1250Y30225I225*
X1025Y30000J225*
G01Y31650*
X2965*
Y5984*
G03X4440Y4509I1475*
X4750Y4542J1475*
G01Y1000*
G03X5000Y750I250*
X5250Y1000J250*
X5000Y1250I250*
X4750Y1000J250*
G01Y4542*
G03X5915Y5984I310J1442*
X4440Y7459I1475*
X2965Y5984J1475*
G01Y25984*
G03X4440Y24509I1475*
X5915Y25984J1475*
X4440Y27459I1475*
X2965Y25984J1475*
G01Y31650*
X5127*
G02X5153Y31636J30*
G03X5349Y31525I196J119*
X5545Y31636J230*
G02X5571Y31650I26J16*
G01X6750*
Y5000*
G03X7000Y4750I250*
X7250Y5000J250*
X7000Y5250I250*
X6750Y5000J250*
G01Y28000*
G03X7000Y27750I250*
X7250Y28000J250*
X7000Y28250I250*
X6750Y28000J250*
G01Y31650*
X7283*
G02X7309Y31636J30*
G03X7504Y31528I195J122*
X7699Y31636J230*
G02X7724Y31650I25J16*
G01X7750*
Y1000*
G03X8000Y750I250*
X8250Y1000J250*
X8000Y1250I250*
X7750Y1000J250*
G01Y31650*
X8750*
Y28000*
G03X9000Y27750I250*
X9250Y28000J250*
X9000Y28250I250*
X8750Y28000J250*
G01Y30000*
G03X9000Y29750I250*
X9250Y30000J250*
X9000Y30250I250*
X8750Y30000J250*
G01Y31650*
X10250*
Y18000*
G03X10387Y17777I250*
G02X10404Y17750I13J27*
X10387Y17723I30*
G03X10250Y17500I113J223*
X10500Y17250I250*
X10723Y17387J250*
G02X10750Y17404I27J13*
G01Y1000*
G03X11000Y750I250*
X11250Y1000J250*
X11000Y1250I250*
X10750Y1000J250*
G01Y17404*
G02X10777Y17387J30*
G03X11000Y17250I223J113*
X11223Y17387J250*
G02X11250Y17404I27J13*
X11277Y17387J30*
G03X11500Y17250I223J113*
X11723Y17387J250*
G02X11750Y17404I27J13*
X11777Y17387J30*
G03X12000Y17250I223J113*
X12223Y17387J250*
G02X12250Y17404I27J13*
X12277Y17387J30*
G03X12500Y17250I223J113*
X12723Y17387J250*
G02X12750Y17404I27J13*
X12777Y17387J30*
G03X13000Y17250I223J113*
X13223Y17387J250*
G02X13250Y17404I27J13*
X13277Y17387J30*
G03X13500Y17250I223J113*
X13723Y17387J250*
G02X13750Y17404I27J13*
G01Y1000*
G03X14000Y750I250*
X14250Y1000J250*
X14000Y1250I250*
X13750Y1000J250*
G01Y17404*
G02X13777Y17387J30*
G03X14000Y17250I223J113*
X14223Y17387J250*
G02X14250Y17404I27J13*
X14277Y17387J30*
G03X14500Y17250I223J113*
X14723Y17387J250*
G02X14750Y17404I27J13*
X14777Y17387J30*
G03X14900Y17271I223J113*
G01Y1500*
G03X16000Y400I1100*
X17100Y1500J1100*
X16000Y2600I1100*
X14900Y1500J1100*
G01Y17271*
G03X15000Y17250I100J229*
X15223Y17387J250*
G02X15250Y17404I27J13*
X15277Y17387J30*
G03X15500Y17250I223J113*
X15750Y17500J250*
X15613Y17723I250*
G02X15596Y17750I13J27*
X15613Y17777I30*
G03X15750Y18000I113J223*
X15500Y18250I250*
X15277Y18113J250*
G02X15250Y18096I27J13*
X15223Y18113J30*
G03X15000Y18250I223J113*
X14777Y18113J250*
G02X14750Y18096I27J13*
X14723Y18113J30*
G03X14500Y18250I223J113*
X14277Y18113J250*
G02X14250Y18096I27J13*
X14223Y18113J30*
G03X14000Y18250I223J113*
X13777Y18113J250*
G02X13750Y18096I27J13*
X13723Y18113J30*
G03X13500Y18250I223J113*
X13277Y18113J250*
G02X13250Y18096I27J13*
X13223Y18113J30*
G03X13000Y18250I223J113*
X12777Y18113J250*
G02X12750Y18096I27J13*
X12723Y18113J30*
G03X12500Y18250I223J113*
X12277Y18113J250*
G02X12250Y18096I27J13*
X12223Y18113J30*
G03X12000Y18250I223J113*
X11777Y18113J250*
G02X11750Y18096I27J13*
X11723Y18113J30*
G03X11500Y18250I223J113*
X11277Y18113J250*
G02X11250Y18096I27J13*
X11223Y18113J30*
G03X11000Y18250I223J113*
X10777Y18113J250*
G02X10750Y18096I27J13*
X10723Y18113J30*
G03X10500Y18250I223J113*
X10250Y18000J250*
G01Y31650*
X10750*
Y28000*
G03X11000Y27750I250*
X11250Y28000J250*
X11000Y28250I250*
X10750Y28000J250*
G01Y30000*
G03X11000Y29750I250*
X11250Y30000J250*
X11000Y30250I250*
X10750Y30000J250*
G01Y31650*
X11275*
Y28750*
G03X11456Y28529I225*
G02X11480Y28500I6J29*
X11456Y28471I30*
G03X11275Y28250I44J221*
X11456Y28029I225*
G02X11480Y28000I6J29*
X11456Y27971I30*
G03X11275Y27750I44J221*
X11496Y27525I225*
G02X11525Y27496I1J30*
G03X11750Y27275I225J4*
X11975Y27500J225*
X11794Y27721I225*
G02X11770Y27750I6J29*
X11794Y27779I30*
G03X11975Y28000I44J221*
X11794Y28221I225*
G02X11770Y28250I6J29*
X11794Y28279I30*
G03X11975Y28496I44J221*
G02X12004Y28525I30J1*
G03X12221Y28706I4J225*
G02X12250Y28730I29J6*
X12279Y28706J30*
G03X12500Y28525I221J44*
X12721Y28706J225*
G02X12750Y28730I29J6*
X12779Y28706J30*
G03X13000Y28525I221J44*
X13221Y28706J225*
G02X13250Y28730I29J6*
X13279Y28706J30*
G03X13500Y28525I221J44*
X13721Y28706J225*
G02X13750Y28730I29J6*
X13779Y28706J30*
G03X14000Y28525I221J44*
X14225Y28746J225*
G02X14254Y28775I30J1*
G03X14475Y29000I4J225*
X14250Y29225I225*
X14029Y29044J225*
G02X14000Y29020I29J6*
X13971Y29044J30*
G03X13750Y29225I221J44*
X13529Y29044J225*
G02X13500Y29020I29J6*
X13471Y29044J30*
G03X13250Y29225I221J44*
X13029Y29044J225*
G02X13000Y29020I29J6*
X12971Y29044J30*
G03X12750Y29225I221J44*
X12529Y29044J225*
G02X12500Y29020I29J6*
X12471Y29044J30*
G03X12250Y29225I221J44*
X12029Y29044J225*
G02X12000Y29020I29J6*
X11971Y29044J30*
G03X11750Y29225I221J44*
X11525Y29004J225*
G02X11496Y28975I30J1*
G03X11275Y28750I4J225*
G01Y31650*
X12750*
Y30000*
G03X13000Y29750I250*
X13250Y30000J250*
X13000Y30250I250*
X12750Y30000J250*
G01Y31650*
X14750*
Y30000*
G03X15000Y29750I250*
X15250Y30000J250*
X15000Y30250I250*
X14750Y30000J250*
G01Y31650*
X16750*
Y5000*
G03X16887Y4777I250*
G02X16904Y4750I13J27*
X16887Y4723I30*
G03X16750Y4500I113J223*
X16887Y4277I250*
G02X16904Y4250I13J27*
X16887Y4223I30*
G03X16750Y4000I113J223*
X17000Y3750I250*
X17223Y3887J250*
G02X17250Y3904I27J13*
X17277Y3887J30*
G03X17500Y3750I223J113*
X17750Y4000J250*
G01Y1000*
G03X18000Y750I250*
X18250Y1000J250*
X18000Y1250I250*
X17750Y1000J250*
G01Y4000*
G03X17613Y4223I250*
G02X17596Y4250I13J27*
X17613Y4277I30*
G03X17750Y4500I113J223*
X17613Y4723I250*
G02X17596Y4750I13J27*
X17613Y4777I30*
G03X17750Y5000I113J223*
X17500Y5250I250*
X17277Y5113J250*
G02X17250Y5096I27J13*
X17223Y5113J30*
G03X17000Y5250I223J113*
X16750Y5000J250*
G01Y30000*
G03X16768Y29908I250*
G01Y24735*
G03X16919Y24519I230*
G01Y16260*
G03X17149Y16030I230*
X17379Y16260J230*
X17149Y16490I230*
X16919Y16260J230*
G01Y24519*
G03X16998Y24505I79J216*
X17228Y24735J230*
X16998Y24965I230*
X16768Y24735J230*
G01Y29908*
G03X17000Y29750I232J92*
X17250Y30000J250*
X17000Y30250I250*
X16750Y30000J250*
G01Y31650*
X17750*
Y17500*
G03X17887Y17277I250*
G02X17904Y17250I13J27*
X17887Y17223I30*
G03X17750Y17000I113J223*
X18000Y16750I250*
X18223Y16887J250*
G02X18250Y16904I27J13*
X18277Y16887J30*
G03X18500Y16750I223J113*
X18723Y16887J250*
G02X18750Y16904I27J13*
X18777Y16887J30*
G03X19000Y16750I223J113*
X19223Y16887J250*
G02X19250Y16904I27J13*
X19277Y16887J30*
G03X19500Y16750I223J113*
X19723Y16887J250*
G02X19750Y16904I27J13*
X19777Y16887J30*
G03X20000Y16750I223J113*
X20223Y16887J250*
G02X20250Y16904I27J13*
X20277Y16887J30*
G03X20500Y16750I223J113*
X20723Y16887J250*
G02X20750Y16904I27J13*
G01Y1000*
G03X21000Y750I250*
X21250Y1000J250*
X21000Y1250I250*
X20750Y1000J250*
G01Y16904*
G02X20777Y16887J30*
G03X21000Y16750I223J113*
X21223Y16887J250*
G02X21250Y16904I27J13*
X21277Y16887J30*
G03X21500Y16750I223J113*
X21723Y16887J250*
G02X21750Y16904I27J13*
X21777Y16887J30*
G03X21900Y16771I223J113*
G01Y1500*
G03X23000Y400I1100*
X24100Y1500J1100*
X23000Y2600I1100*
X21900Y1500J1100*
G01Y16771*
G03X22000Y16750I100J229*
X22223Y16887J250*
G02X22250Y16904I27J13*
X22277Y16887J30*
G03X22500Y16750I223J113*
X22750Y17000J250*
X22613Y17223I250*
G02X22596Y17250I13J27*
X22613Y17277I30*
G03X22750Y17500I113J223*
X22500Y17750I250*
X22277Y17613J250*
G02X22250Y17596I27J13*
X22223Y17613J30*
G03X22000Y17750I223J113*
X21777Y17613J250*
G02X21750Y17596I27J13*
X21723Y17613J30*
G03X21500Y17750I223J113*
X21277Y17613J250*
G02X21250Y17596I27J13*
X21223Y17613J30*
G03X21000Y17750I223J113*
X20777Y17613J250*
G02X20750Y17596I27J13*
X20723Y17613J30*
G03X20500Y17750I223J113*
X20277Y17613J250*
G02X20250Y17596I27J13*
X20223Y17613J30*
G03X20000Y17750I223J113*
X19777Y17613J250*
G02X19750Y17596I27J13*
X19723Y17613J30*
G03X19500Y17750I223J113*
X19277Y17613J250*
G02X19250Y17596I27J13*
X19223Y17613J30*
G03X19000Y17750I223J113*
X18777Y17613J250*
G02X18750Y17596I27J13*
X18723Y17613J30*
G03X18500Y17750I223J113*
X18277Y17613J250*
G02X18250Y17596I27J13*
X18223Y17613J30*
G03X18000Y17750I223J113*
X17750Y17500J250*
G01Y31650*
X18275*
Y24500*
G03X18500Y24275I225*
X18721Y24456J225*
G02X18750Y24480I29J6*
X18779Y24456J30*
G03X19000Y24275I221J44*
X19221Y24456J225*
G02X19250Y24480I29J6*
X19279Y24456J30*
G03X19500Y24275I221J44*
X19721Y24456J225*
G02X19750Y24480I29J6*
X19779Y24456J30*
G03X19929Y24286I221J44*
G02X19950Y24258I9J28*
G01Y24242*
G02X19929Y24214I30*
G03X19775Y24000I71J214*
X19929Y23786I225*
G02X19950Y23758I9J28*
G01Y23742*
G02X19929Y23714I30*
G03X19775Y23500I71J214*
X19929Y23286I225*
G02X19950Y23258I9J28*
G01Y23242*
G02X19929Y23214I30*
G03X19775Y23000I71J214*
X20000Y22775I225*
X20225Y23000J225*
X20071Y23214I225*
G02X20050Y23242I9J28*
G01Y23258*
G02X20071Y23286I30*
G03X20225Y23500I71J214*
X20071Y23714I225*
G02X20050Y23742I9J28*
G01Y23758*
G02X20071Y23786I30*
G03X20225Y24000I71J214*
X20071Y24214I225*
G02X20050Y24242I9J28*
G01Y24258*
G02X20071Y24286I30*
G03X20221Y24456I71J214*
G02X20250Y24480I29J6*
X20279Y24456J30*
G03X20500Y24275I221J44*
X20721Y24456J225*
G02X20750Y24480I29J6*
X20779Y24456J30*
G03X21000Y24275I221J44*
X21221Y24456J225*
G02X21250Y24480I29J6*
X21279Y24456J30*
G03X21500Y24275I221J44*
X21725Y24500J225*
X21504Y24725I225*
G02X21475Y24754I1J30*
G03X21250Y24975I225J4*
X21029Y24794J225*
G02X21000Y24770I29J6*
X20971Y24794J30*
G03X20750Y24975I221J44*
X20529Y24794J225*
G02X20500Y24770I29J6*
X20471Y24794J30*
G03X20250Y24975I221J44*
X20029Y24794J225*
G02X20000Y24770I29J6*
X19971Y24794J30*
G03X19750Y24975I221J44*
X19529Y24794J225*
G02X19500Y24770I29J6*
X19471Y24794J30*
G03X19250Y24975I221J44*
X19029Y24794J225*
G02X19000Y24770I29J6*
X18971Y24794J30*
G03X18750Y24975I221J44*
X18525Y24754J225*
G02X18496Y24725I30J1*
G03X18275Y24500I4J225*
G01Y31650*
X18525*
G02X18555Y31620J30*
X18551Y31606I30*
G03X18525Y31500I199J106*
X18679Y31286I225*
G02X18700Y31258I9J28*
G01Y31242*
G02X18679Y31214I30*
G03X18525Y31000I71J214*
X18679Y30786I225*
G02X18700Y30758I9J28*
G01Y30742*
G02X18679Y30714I30*
G03X18525Y30500I71J214*
X18750Y30275I225*
X18975Y30500J225*
X18821Y30714I225*
G02X18800Y30742I9J28*
G01Y30758*
G02X18821Y30786I30*
G03X18975Y31000I71J214*
X18821Y31214I225*
G02X18800Y31242I9J28*
G01Y31258*
G02X18821Y31286I30*
G03X18975Y31500I71J214*
X18949Y31606I225*
G02X18945Y31620I26J14*
X18975Y31650I30*
G01X21100*
Y26008*
G03X21325Y25783I225*
X21550Y26008J225*
X21325Y26233I225*
X21100Y26008J225*
G01Y31650*
X21525*
Y31149*
G03X21750Y30924I225*
X21924Y31006J225*
G02X21942Y31017I24J19*
G01Y30016*
G03X22167Y29791I225*
X22170J225*
G01Y28024*
G03X22330Y27805I230*
G01Y21273*
G03X22560Y21043I230*
X22770Y21180J230*
G01Y16500*
G03X23000Y16270I230*
X23230Y16500J230*
X23000Y16730I230*
X22770Y16500J230*
G01Y21180*
G03X22790Y21273I210J93*
X22560Y21503I230*
X22330Y21273J230*
G01Y27805*
G03X22400Y27794I70J219*
X22508Y27821J230*
G01Y24886*
G03X22738Y24656I230*
X22968Y24886J230*
X22738Y25116I230*
X22508Y24886J230*
G01Y27821*
G03X22630Y28024I108J203*
X22400Y28254I230*
X22170Y28024J230*
G01Y29791*
G03X22392Y30016I3J225*
X22167Y30241I225*
X21942Y30016J225*
G01Y31017*
G02X21948I6J30*
X21970Y31007J30*
G03X22141Y30929I171J147*
X22366Y31154J225*
X22141Y31379I225*
X21967Y31296J225*
G02X21943Y31285I24J19*
X21921Y31296J30*
G03X21750Y31374I171J147*
X21525Y31149J225*
G01Y31650*
X22719*
Y30001*
G03X22944Y29776I225*
X23045Y29800J225*
G01Y27023*
G03X23275Y26793I230*
X23505Y27023J230*
X23275Y27253I230*
X23045Y27023J230*
G01Y29800*
G03X23169Y30001I101J201*
X22944Y30226I225*
X22719Y30001J225*
G01Y31650*
X23540*
Y28056*
G03X23770Y27826I230*
X24000Y28056J230*
X23770Y28286I230*
X23540Y28056J230*
G01Y31650*
X23569*
Y29850*
G03X23794Y29625I225*
X24019Y29850J225*
X23794Y30075I225*
X23569Y29850J225*
G01Y31650*
X24025*
Y24500*
G03X24179Y24286I225*
G02X24200Y24258I9J28*
G01Y24242*
G02X24179Y24214I30*
G03X24025Y24000I71J214*
X24179Y23786I225*
G02X24200Y23758I9J28*
G01Y23742*
G02X24179Y23714I30*
G03X24025Y23500I71J214*
X24250Y23275I225*
X24464Y23429J225*
G02X24492Y23450I28J9*
G01X24508*
G02X24536Y23429J30*
G03X24750Y23275I214J71*
G01Y5000*
G03X24887Y4777I250*
G02X24904Y4750I13J27*
X24887Y4723I30*
G03X24750Y4500I113J223*
X24887Y4277I250*
G02X24904Y4250I13J27*
X24887Y4223I30*
G03X24750Y4000I113J223*
G01Y1000*
G03X25000Y750I250*
X25250Y1000J250*
X25000Y1250I250*
X24750Y1000J250*
G01Y4000*
G03X25000Y3750I250*
X25223Y3887J250*
G02X25250Y3904I27J13*
X25277Y3887J30*
G03X25500Y3750I223J113*
X25750Y4000J250*
X25613Y4223I250*
G02X25596Y4250I13J27*
X25613Y4277I30*
G03X25750Y4500I113J223*
X25613Y4723I250*
G02X25596Y4750I13J27*
X25613Y4777I30*
G03X25750Y5000I113J223*
X25500Y5250I250*
X25277Y5113J250*
G02X25250Y5096I27J13*
X25223Y5113J30*
G03X25000Y5250I223J113*
X24750Y5000J250*
G01Y23275*
G03X24964Y23429J225*
G02X24992Y23450I28J9*
G01X25008*
G02X25036Y23429J30*
G03X25250Y23275I214J71*
X25475Y23500J225*
X25250Y23725I225*
X25036Y23571J225*
G02X25008Y23550I28J9*
G01X24992*
G02X24964Y23571J30*
G03X24750Y23725I214J71*
X24536Y23571J225*
G02X24508Y23550I28J9*
G01X24492*
G02X24464Y23571J30*
G03X24321Y23714I214J71*
G02X24300Y23742I9J28*
G01Y23758*
G02X24321Y23786I30*
G03X24475Y24000I71J214*
X24321Y24214I225*
G02X24300Y24242I9J28*
G01Y24258*
G02X24321Y24286I30*
G03X24475Y24500I71J214*
X24250Y24725I225*
X24025Y24500J225*
G01Y31650*
X24275*
Y29965*
G03Y29956I225*
G01Y25750*
G03X24500Y25525I225*
X24714Y25679J225*
G02X24742Y25700I28J9*
G01X24758*
G02X24786Y25679J30*
G03X25000Y25525I214J71*
X25214Y25679J225*
G02X25242Y25700I28J9*
G01X25258*
G02X25286Y25679J30*
G03X25500Y25525I214J71*
X25725Y25750J225*
X25500Y25975I225*
X25286Y25821J225*
G02X25258Y25800I28J9*
G01X25242*
G02X25214Y25821J30*
G03X25000Y25975I214J71*
X24786Y25821J225*
G02X24758Y25800I28J9*
G01X24742*
G02X24714Y25821J30*
G03X24500Y25975I214J71*
X24275Y25750J225*
G01Y29956*
G03X24285Y29897I225J9*
G01Y27037*
G03X24515Y26807I230*
X24745Y27037J230*
X24515Y27267I230*
X24285Y27037J230*
G01Y29897*
G03X24500Y29740I215J68*
X24704Y29871J225*
G01Y29688*
G03X24798Y29505I225*
G01Y28028*
G03X25028Y27798I230*
X25258Y28028J230*
X25028Y28258I230*
X24798Y28028J230*
G01Y29505*
G03X24929Y29463I131J183*
X25154Y29688J225*
X24929Y29913I225*
X24704Y29688J225*
G01Y29871*
G03X24725Y29965I204J94*
X24500Y30190I225*
X24275Y29965J225*
G01Y31650*
X25708*
Y28049*
G03X25938Y27819I230*
X26168Y28049J230*
X25938Y28279I230*
X25708Y28049J230*
G01Y31650*
X26889*
Y30018*
G03X27114Y29793I225*
X27267Y29854J225*
G02X27288Y29862I21J22*
X27316Y29842J30*
G03X27527Y29694I211J77*
X27750Y29889J225*
G01Y1000*
G03X28000Y750I250*
X28250Y1000J250*
X28000Y1250I250*
X27750Y1000J250*
G01Y29889*
G03X27752Y29919I223J30*
X27527Y30144I225*
X27374Y30084J225*
G02X27353Y30076I21J22*
X27325Y30095J30*
G03X27114Y30243I211J77*
X26889Y30018J225*
G01Y31650*
X28020*
Y28064*
G03X28250Y27834I230*
X28480Y28064J230*
X28250Y28294I230*
X28020Y28064J230*
G01Y31650*
X28623*
Y28056*
G03X28750Y27851I230*
G01Y16500*
G03X28887Y16277I250*
G02X28904Y16250I13J27*
X28887Y16223I30*
G03X28750Y16000I113J223*
X28900Y15771I250*
G01Y1500*
G03X30000Y400I1100*
X31100Y1500J1100*
X30000Y2600I1100*
X28900Y1500J1100*
G01Y15771*
G03X29000Y15750I100J229*
X29223Y15887J250*
G02X29250Y15904I27J13*
X29277Y15887J30*
G03X29500Y15750I223J113*
X29723Y15887J250*
G02X29750Y15904I27J13*
X29777Y15887J30*
G03X30000Y15750I223J113*
X30223Y15887J250*
G02X30250Y15904I27J13*
X30277Y15887J30*
G03X30500Y15750I223J113*
X30723Y15887J250*
G02X30750Y15904I27J13*
X30777Y15887J30*
G03X31000Y15750I223J113*
X31223Y15887J250*
G02X31250Y15904I27J13*
X31277Y15887J30*
G03X31500Y15750I223J113*
X31723Y15887J250*
G02X31750Y15904I27J13*
G01Y1000*
G03X32000Y750I250*
X32250Y1000J250*
X32000Y1250I250*
X31750Y1000J250*
G01Y15904*
G02X31777Y15887J30*
G03X32000Y15750I223J113*
X32223Y15887J250*
G02X32250Y15904I27J13*
X32277Y15887J30*
G03X32500Y15750I223J113*
X32723Y15887J250*
G02X32750Y15904I27J13*
X32777Y15887J30*
G03X33000Y15750I223J113*
X33223Y15887J250*
G02X33250Y15904I27J13*
X33277Y15887J30*
G03X33500Y15750I223J113*
X33750Y16000J250*
X33613Y16223I250*
G02X33596Y16250I13J27*
X33613Y16277I30*
G03X33750Y16500I113J223*
X33500Y16750I250*
X33277Y16613J250*
G02X33250Y16596I27J13*
X33223Y16613J30*
G03X33000Y16750I223J113*
X32777Y16613J250*
G02X32750Y16596I27J13*
X32723Y16613J30*
G03X32500Y16750I223J113*
X32277Y16613J250*
G02X32250Y16596I27J13*
X32223Y16613J30*
G03X32000Y16750I223J113*
X31777Y16613J250*
G02X31750Y16596I27J13*
X31723Y16613J30*
G03X31500Y16750I223J113*
X31277Y16613J250*
G02X31250Y16596I27J13*
X31223Y16613J30*
G03X31000Y16750I223J113*
X30777Y16613J250*
G02X30750Y16596I27J13*
X30723Y16613J30*
G03X30500Y16750I223J113*
X30277Y16613J250*
G02X30250Y16596I27J13*
X30223Y16613J30*
G03X30000Y16750I223J113*
X29777Y16613J250*
G02X29750Y16596I27J13*
X29723Y16613J30*
G03X29500Y16750I223J113*
X29277Y16613J250*
G02X29250Y16596I27J13*
X29223Y16613J30*
G03X29000Y16750I223J113*
X28750Y16500J250*
G01Y27851*
G03X28853Y27826I103J205*
X29082Y28040J230*
G01Y24914*
G03X29099Y24829I230*
G01Y21822*
G03X29329Y21592I230*
X29559Y21822J230*
X29329Y22052I230*
X29099Y21822J230*
G01Y24829*
G03X29312Y24684I213J85*
X29542Y24914J230*
X29312Y25144I230*
X29082Y24914J230*
G01Y28040*
G03X29083Y28056I229J16*
X28853Y28286I230*
X28623Y28056J230*
G01Y31650*
X32120*
G02X32150Y31620J30*
G01Y29225*
G02X32120Y29195I30*
X32106Y29199J30*
G03X32000Y29225I106J199*
X31779Y29044J225*
G02X31750Y29020I29J6*
X31721Y29044J30*
G03X31500Y29225I221J44*
X31279Y29044J225*
G02X31250Y29020I29J6*
X31221Y29044J30*
G03X31000Y29225I221J44*
X30779Y29044J225*
G02X30750Y29020I29J6*
X30721Y29044J30*
G03X30500Y29225I221J44*
X30279Y29044J225*
G02X30250Y29020I29J6*
X30221Y29044J30*
G03X30000Y29225I221J44*
X29775Y29000J225*
X29996Y28775I225*
G02X30025Y28746I1J30*
G03X30250Y28525I225J4*
X30471Y28706J225*
G02X30500Y28730I29J6*
X30529Y28706J30*
G03X30750Y28525I221J44*
X30971Y28706J225*
G02X31000Y28730I29J6*
X31029Y28706J30*
G03X31250Y28525I221J44*
X31471Y28706J225*
G02X31500Y28730I29J6*
X31529Y28706J30*
G03X31750Y28525I221J44*
X31971Y28706J225*
G02X32000Y28730I29J6*
X32029Y28706J30*
G03X32135Y28556I221J44*
G02X32150Y28531I15J25*
G01Y28250*
G03X32250Y28150I100*
G01X32525*
G02X32555Y28120J30*
X32551Y28106I30*
G03X32525Y28000I199J106*
X32679Y27786I225*
G02X32700Y27758I9J28*
G01Y27742*
G02X32679Y27714I30*
G03X32525Y27500I71J214*
X32750Y27275I225*
X32975Y27500J225*
X32821Y27714I225*
G02X32800Y27742I9J28*
G01Y27758*
G02X32821Y27786I30*
G03X32975Y28000I71J214*
X32949Y28106I225*
G02X32945Y28120I26J14*
X32975Y28150I30*
G01X33171*
Y24026*
G03X33401Y23796I230*
X33631Y24026J230*
X33401Y24256I230*
X33171Y24026J230*
G01Y28150*
X34247*
Y15784*
G03X34250Y15744I230*
G01Y5000*
G03X34387Y4777I250*
G02X34404Y4750I13J27*
X34387Y4723I30*
G03X34250Y4500I113J223*
X34387Y4277I250*
G02X34404Y4250I13J27*
X34387Y4223I30*
G03X34250Y4000I113J223*
X34500Y3750I250*
X34723Y3887J250*
G02X34750Y3904I27J13*
G01Y1000*
G03X35000Y750I250*
X35250Y1000J250*
X35000Y1250I250*
X34750Y1000J250*
G01Y3904*
G02X34777Y3887J30*
G03X35000Y3750I223J113*
X35250Y4000J250*
X35113Y4223I250*
G02X35096Y4250I13J27*
X35113Y4277I30*
G03X35250Y4500I113J223*
X35113Y4723I250*
G02X35096Y4750I13J27*
X35113Y4777I30*
G03X35250Y5000I113J223*
X35000Y5250I250*
X34777Y5113J250*
G02X34750Y5096I27J13*
X34723Y5113J30*
G03X34500Y5250I223J113*
X34250Y5000J250*
G01Y15744*
G03X34477Y15554I227J40*
X34707Y15784J230*
X34477Y16014I230*
X34247Y15784J230*
G01Y28150*
X35750*
Y5000*
G03X35887Y4777I250*
G02X35904Y4750I13J27*
X35887Y4723I30*
G03X35750Y4500I113J223*
X35887Y4277I250*
G02X35904Y4250I13J27*
X35887Y4223I30*
G03X35750Y4000I113J223*
X36000Y3750I250*
X36250Y4000J250*
X36113Y4223I250*
G02X36096Y4250I13J27*
X36113Y4277I30*
G03X36250Y4500I113J223*
X36113Y4723I250*
G02X36096Y4750I13J27*
X36113Y4777I30*
G03X36250Y5000I113J223*
X36000Y5250I250*
X35750Y5000J250*
G01Y28150*
X37275*
Y27750*
G03X37500Y27525I225*
X37714Y27679J225*
G02X37742Y27700I28J9*
G01X37750*
Y1000*
G03X38000Y750I250*
X38250Y1000J250*
X38000Y1250I250*
X37750Y1000J250*
G01Y27700*
X37758*
G02X37786Y27679J30*
G03X38000Y27525I214J71*
X38214Y27679J225*
G02X38242Y27700I28J9*
G01X38258*
G02X38286Y27679J30*
G03X38500Y27525I214J71*
X38725Y27750J225*
X38500Y27975I225*
X38286Y27821J225*
G02X38258Y27800I28J9*
G01X38242*
G02X38214Y27821J30*
G03X38000Y27975I214J71*
X37786Y27821J225*
G02X37758Y27800I28J9*
G01X37742*
G02X37714Y27821J30*
G03X37500Y27975I214J71*
X37275Y27750J225*
G01Y28150*
X38750*
Y5000*
G03X38887Y4777I250*
G02X38904Y4750I13J27*
X38887Y4723I30*
G03X38750Y4500I113J223*
X38887Y4277I250*
G02X38904Y4250I13J27*
X38887Y4223I30*
G03X38750Y4000I113J223*
X39000Y3750I250*
X39250Y4000J250*
X39113Y4223I250*
G02X39096Y4250I13J27*
X39113Y4277I30*
G03X39250Y4500I113J223*
X39113Y4723I250*
G02X39096Y4750I13J27*
X39113Y4777I30*
G03X39250Y5000I113J223*
X39000Y5250I250*
X38750Y5000J250*
G01Y28150*
X40747*
G02X40777Y28120J30*
X40774Y28107I30*
G03X40750Y28000I226J107*
G01Y1000*
G03X41000Y750I250*
X41250Y1000J250*
X41000Y1250I250*
X40750Y1000J250*
G01Y20000*
G03X41000Y19750I250*
X41250Y20000J250*
X41000Y20250I250*
X40750Y20000J250*
G01Y22000*
G03X41000Y21750I250*
X41250Y22000J250*
X41000Y22250I250*
X40750Y22000J250*
G01Y24000*
G03X41000Y23750I250*
X41250Y24000J250*
X41000Y24250I250*
X40750Y24000J250*
G01Y26000*
G03X41000Y25750I250*
X41250Y26000J250*
X41000Y26250I250*
X40750Y26000J250*
G01Y28000*
G03X41000Y27750I250*
X41250Y28000J250*
X41226Y28107I250*
G02X41223Y28120I27J13*
X41253Y28150I30*
G01X41750*
Y5000*
G03X41887Y4777I250*
G02X41904Y4750I13J27*
X41887Y4723I30*
G03X41750Y4500I113J223*
X41887Y4277I250*
G02X41904Y4250I13J27*
X41887Y4223I30*
G03X41750Y4000I113J223*
X42000Y3750I250*
X42250Y4000J250*
X42113Y4223I250*
G02X42096Y4250I13J27*
X42113Y4277I30*
G03X42250Y4500I113J223*
X42113Y4723I250*
G02X42096Y4750I13J27*
X42113Y4777I30*
G03X42250Y5000I113J223*
X42000Y5250I250*
X41750Y5000J250*
G01Y28150*
X43747*
G02X43777Y28120J30*
X43774Y28107I30*
G03X43750Y28000I226J107*
G01Y1000*
G03X44000Y750I250*
X44250Y1000J250*
X44000Y1250I250*
X43750Y1000J250*
G01Y20000*
G03X44000Y19750I250*
X44250Y20000J250*
X44000Y20250I250*
X43750Y20000J250*
G01Y28000*
G03X44000Y27750I250*
X44250Y28000J250*
X44226Y28107I250*
G02X44223Y28120I27J13*
X44253Y28150I30*
G01X44973*
Y5984*
G03X46448Y4509I1475*
X46750Y4540J1475*
G01Y1000*
G03X47000Y750I250*
X47250Y1000J250*
X47000Y1250I250*
X46750Y1000J250*
G01Y4540*
G03X47923Y5984I302J1444*
X46448Y7459I1475*
X44973Y5984J1475*
G01Y25984*
G03X46275Y24519I1475*
G01Y9750*
G03X46456Y9529I225*
G02X46480Y9500I6J29*
X46456Y9471I30*
G03X46275Y9250I44J221*
X46429Y9036I225*
G02X46450Y9008I9J28*
G01Y8992*
G02X46429Y8964I30*
G03X46275Y8750I71J214*
X46456Y8529I225*
G02X46480Y8500I6J29*
X46456Y8471I30*
G03X46275Y8250I44J221*
X46456Y8029I225*
G02X46480Y8000I6J29*
X46456Y7971I30*
G03X46275Y7750I44J221*
X46500Y7525I225*
X46725Y7746J225*
G02X46754Y7775I30J1*
G03X46975Y8000I4J225*
X46794Y8221I225*
G02X46770Y8250I6J29*
X46794Y8279I30*
G03X46975Y8500I44J221*
X46754Y8725I225*
G02X46725Y8754I1J30*
G03X46571Y8964I225J4*
G02X46550Y8992I9J28*
G01Y9008*
G02X46571Y9036I30*
G03X46725Y9246I71J214*
G02X46754Y9275I30J1*
G03X46975Y9500I4J225*
X46754Y9725I225*
G02X46725Y9754I1J30*
G03X46500Y9975I225J4*
X46275Y9750J225*
G01Y24519*
G03X46448Y24509I173J1465*
X47923Y25984J1475*
X46448Y27459I1475*
X44973Y25984J1475*
G01Y28150*
X49247*
G02X49277Y28120J30*
X49274Y28107I30*
G03X49250Y28000I226J107*
G01Y26000*
G03X49500Y25750I250*
X49750Y26000J250*
G01Y1000*
G03X50000Y750I250*
X50250Y1000J250*
X50000Y1250I250*
X49750Y1000J250*
G01Y6000*
G03X50000Y5750I250*
X50250Y6000J250*
X50000Y6250I250*
X49750Y6000J250*
G01Y26000*
G03X49500Y26250I250*
X49250Y26000J250*
G01Y28000*
G03X49500Y27750I250*
X49750Y28000J250*
X49726Y28107I250*
G02X49723Y28120I27J13*
X49753Y28150I30*
G01X52750*
Y1000*
G03X53000Y750I250*
X53250Y1000J250*
X53000Y1250I250*
X52750Y1000J250*
G01Y6000*
G03X53000Y5750I250*
X53250Y6000J250*
X53000Y6250I250*
X52750Y6000J250*
G01Y28150*
X54570*
Y7000*
G03X55024Y6546I454*
X55477Y7000J454*
X55024Y7454I453*
X54570Y7000J454*
G01Y13750*
G03X55024Y13296I454*
X55477Y13750J454*
X55024Y14204I453*
X54570Y13750J454*
G01Y20500*
G03X55024Y20046I454*
X55477Y20500J454*
X55024Y20954I453*
X54570Y20500J454*
G01Y28150*
X55750*
Y1000*
G03X56000Y750I250*
X56250Y1000J250*
X56000Y1250I250*
X55750Y1000J250*
G01Y28150*
X56525*
Y2000*
G03X58000Y525I1475*
X59475Y2000J1475*
X58000Y3475I1475*
X56525Y2000J1475*
G01Y28150*
X57372*
Y25398*
G03X57483Y24918I1100*
G01Y7000*
G03X57976Y6506I493*
X58470Y7000J494*
X57976Y7494I494*
X57483Y7000J494*
G01Y13750*
G03X57976Y13256I493*
X58470Y13750J494*
X57976Y14244I494*
X57483Y13750J494*
G01Y20500*
G03X57976Y20006I493*
X58470Y20500J494*
X57976Y20994I494*
X57483Y20500J494*
G01Y24918*
G03X58472Y24298I989J480*
X58750Y24333J1100*
G01Y4000*
G03X59000Y3750I250*
X59250Y4000J250*
X59000Y4250I250*
X58750Y4000J250*
G01Y6000*
G03X59000Y5750I250*
X59250Y6000J250*
X59000Y6250I250*
X58750Y6000J250*
G01Y9000*
G03X59000Y8750I250*
X59250Y9000J250*
X59000Y9250I250*
X58750Y9000J250*
G01Y12000*
G03X59000Y11750I250*
X59250Y12000J250*
X59000Y12250I250*
X58750Y12000J250*
G01Y15000*
G03X59000Y14750I250*
X59250Y15000J250*
X59000Y15250I250*
X58750Y15000J250*
G01Y18000*
G03X59000Y17750I250*
X59250Y18000J250*
X59000Y18250I250*
X58750Y18000J250*
G01Y21000*
G03X59000Y20750I250*
X59250Y21000J250*
X59000Y21250I250*
X58750Y21000J250*
G01Y24333*
G03X59572Y25398I278J1065*
X58472Y26498I1100*
X57372Y25398J1100*
G01Y28150*
X58747*
G02X58777Y28120J30*
X58774Y28107I30*
G03X58750Y28000I226J107*
X59000Y27750I250*
X59250Y28000J250*
X59226Y28107I250*
G02X59223Y28120I27J13*
X59253Y28150I30*
G01X59970*
G02X60000Y28120J30*
G01Y30*
G02X59970Y0I30*
G01X30*
G02X0Y30J30*
G01Y31620*
Y39970D02*
G02X30Y40000I30D01*
G01X525*
Y38000*
G03X750Y37217I1475*
G01Y36000*
G03X1000Y35750I250*
X1025Y35751J250*
G01Y34500*
G03X1250Y34275I225*
X1475Y34500J225*
X1250Y34725I225*
X1025Y34500J225*
G01Y35751*
G03X1250Y36000I25J249*
X1000Y36250I250*
X750Y36000J250*
G01Y37217*
G03X2000Y36525I1250J783*
X3475Y38000J1475*
X2000Y39475I1475*
X525Y38000J1475*
G01Y40000*
X4775*
Y38000*
G03X5000Y37775I225*
X5082Y37790J225*
G01Y33756*
G03X5312Y33526I230*
X5542Y33756J230*
X5312Y33986I230*
X5082Y33756J230*
G01Y37790*
G03X5225Y38000I82J210*
X5000Y38225I225*
X4775Y38000J225*
G01Y40000*
X6775*
Y38000*
G03X7000Y37775I225*
X7225Y38000J225*
X7000Y38225I225*
X6775Y38000J225*
G01Y40000*
X7852*
Y39249*
G03X8252Y38849I400*
X8652Y39249J400*
X8252Y39649I400*
X7852Y39249J400*
G01Y40000*
X9775*
Y38000*
G03X10000Y37775I225*
X10225Y38000J225*
X10000Y38225I225*
X9775Y38000J225*
G01Y40000*
X10250*
Y34500*
G03X10500Y34250I250*
X10750Y34500J250*
X10500Y34750I250*
X10250Y34500J250*
G01Y40000*
X11775*
Y38000*
G03X12000Y37775I225*
X12225Y38000J225*
X12000Y38225I225*
X11775Y38000J225*
G01Y40000*
X12852*
Y39249*
G03X13228Y38849I400*
G01Y37542*
G03X13458Y37312I230*
X13688Y37542J230*
X13458Y37772I230*
X13228Y37542J230*
G01Y38849*
G03X13252I24J400*
X13652Y39249J400*
X13252Y39649I400*
X12852Y39249J400*
G01Y40000*
X15140*
Y39000*
G03X15500Y38640I360*
X15860Y39000J360*
X15500Y39360I360*
X15140Y39000J360*
G01Y40000*
X16100*
Y39000*
G03X16500Y38600I400*
X16900Y39000J400*
X16500Y39400I400*
X16100Y39000J400*
G01Y40000*
X17100*
Y39000*
G03X17500Y38600I400*
X17900Y39000J400*
X17500Y39400I400*
X17100Y39000J400*
G01Y40000*
X18100*
Y39000*
G03X18500Y38600I400*
X18900Y39000J400*
X18500Y39400I400*
X18100Y39000J400*
G01Y40000*
X19100*
Y39000*
G03X19500Y38600I400*
X19900Y39000J400*
X19500Y39400I400*
X19100Y39000J400*
G01Y40000*
X20025*
Y34500*
G03X20250Y34275I225*
X20475Y34500J225*
X20250Y34725I225*
X20025Y34500J225*
G01Y40000*
X20100*
Y39000*
G03X20500Y38600I400*
X20900Y39000J400*
X20500Y39400I400*
X20100Y39000J400*
G01Y40000*
X20943*
Y32674*
G03X21168Y32449I225*
X21282Y32480J225*
G02X21297Y32484I15J26*
X21323Y32469J30*
G03X21519Y32353I196J109*
X21593Y32366J225*
G02X21603Y32367I10J29*
X21631Y32348J30*
G03X21840Y32207I209J84*
X22060Y32386J225*
G02X22089Y32410I29J6*
X22095J30*
G03X22141Y32405I46J220*
X22366Y32630J225*
X22141Y32855I225*
X21921Y32675J225*
G02X21891Y32651I30J6*
X21885Y32652J30*
G03X21840Y32657I45J220*
X21766Y32644J225*
G02X21756Y32643I10J29*
X21728Y32662J30*
G03X21519Y32803I209J84*
X21406Y32773J225*
G02X21391Y32769I15J26*
X21365Y32784J30*
G03X21168Y32899I197J110*
X20943Y32674J225*
G01Y40000*
X21275*
Y35250*
G03X21483Y35026I225*
G01Y34093*
G03X21708Y33868I225*
X21933Y34093J225*
X21708Y34318I225*
X21483Y34093J225*
G01Y35026*
G03X21500Y35025I17J224*
X21725Y35250J225*
X21500Y35475I225*
X21275Y35250J225*
G01Y40000*
X21640*
Y39000*
G03X22000Y38640I360*
X22068Y38647J360*
G01Y34227*
G03X22293Y34002I225*
X22369Y34016J225*
G02X22379Y34017I10J29*
X22406Y34001J30*
G03X22607Y33877I201J101*
X22832Y34102J225*
X22766Y34261I225*
G02X22757Y34282I21J21*
X22763Y34300I30*
G03X22809Y34436I179J136*
X22776Y34554I225*
G02X22771Y34570I25J16*
X22797Y34599I30*
G03X22828Y34606I29J223*
G02X22836Y34607I8J29*
X22866Y34577J30*
G01Y34576*
G03Y34572I225J4*
X23025Y34357I225*
G01Y32250*
G03X23250Y32025I225*
X23464Y32179J225*
G02X23492Y32200I28J9*
G01X23508*
G02X23536Y32179J30*
G03X23750Y32025I214J71*
X23975Y32250J225*
X23750Y32475I225*
X23536Y32321J225*
G02X23508Y32300I28J9*
G01X23492*
G02X23464Y32321J30*
G03X23250Y32475I214J71*
X23025Y32250J225*
G01Y34357*
G03X23091Y34347I66J215*
X23316Y34572J225*
X23091Y34797I225*
X23031Y34789J225*
G02X23023Y34788I8J29*
X22993Y34818J30*
G01Y34819*
G03Y34822I225J3*
X22768Y35047I225*
X22543Y34822J225*
X22577Y34705I225*
G02X22581Y34689I26J16*
X22555Y34659I30*
G03X22362Y34474I29J223*
G02X22333Y34449I29J5*
X22328Y34450J30*
G03X22293Y34452I35J223*
X22068Y34227J225*
G01Y38647*
G03X22285Y38780I68J353*
G01Y37480*
G03X22510Y37255I225*
X22735Y37480J225*
X22510Y37705I225*
X22285Y37480J225*
G01Y38780*
G03X22360Y39000I285J220*
X22000Y39360I360*
X21640Y39000J360*
G01Y40000*
X22600*
Y39000*
G03X22883Y38618I400*
G01Y35500*
G03X23113Y35270I230*
X23343Y35500J230*
X23113Y35730I230*
X22883Y35500J230*
G01Y38618*
G03X23000Y38600I117J382*
X23305Y38741J400*
G01Y37480*
G03X23479Y37261I225*
G01Y33942*
G03X23704Y33717I225*
X23929Y33942J225*
X23704Y34167I225*
X23479Y33942J225*
G01Y37261*
G03X23530Y37255I51J219*
X23755Y37480J225*
X23530Y37705I225*
X23305Y37480J225*
G01Y38741*
G03X23400Y39000I305J259*
X23000Y39400I400*
X22600Y39000J400*
G01Y40000*
X23600*
Y39000*
G03X24000Y38600I400*
X24199Y38653J400*
G01Y37480*
G03X24424Y37255I225*
X24649Y37480J225*
X24424Y37705I225*
X24199Y37480J225*
G01Y38653*
G03X24400Y39000I199J347*
X24000Y39400I400*
X23600Y39000J400*
G01Y40000*
X24600*
Y39000*
G03X24708Y38727I400*
G01Y34243*
G03X24928Y34018I225*
G02X24958Y33989J30*
G03X25183Y33768I225J4*
X25408Y33993J225*
X25187Y34218I225*
G02X25158Y34248I1J30*
G03X24933Y34468I225J5*
X24708Y34243J225*
G01Y38727*
G03X24832Y38637I292J273*
G01Y35790*
G03X25057Y35565I225*
X25282Y35790J225*
X25057Y36015I225*
X24832Y35790J225*
G01Y38637*
G03X24977Y38601I168J363*
G01Y36315*
G03X25202Y36090I225*
X25427Y36315J225*
X25376Y36458I225*
G02X25369Y36477I23J19*
X25377Y36497I30*
G03X25433Y36645I169J148*
X25208Y36870I225*
X24983Y36645J225*
X25034Y36503I225*
G02X25041Y36484I23J19*
X25033Y36464I30*
G03X24977Y36315I169J149*
G01Y38601*
G03X25000Y38600I23J399*
X25275Y38710J400*
G01Y37250*
G03X25500Y37025I225*
X25662Y37094J225*
G01Y34095*
G03X25748Y33919I225*
G01Y32672*
G03X25973Y32447I225*
X26198Y32672J225*
X25973Y32897I225*
X25748Y32672J225*
G01Y33919*
G03X25887Y33870I139J176*
X26112Y34095J225*
X25887Y34320I225*
X25662Y34095J225*
G01Y37094*
G03X25725Y37250I162J156*
X25500Y37475I225*
X25275Y37250J225*
G01Y38710*
G03X25400Y39000I275J290*
X25000Y39400I400*
X24600Y39000J400*
G01Y40000*
X25600*
Y39000*
G03X26000Y38600I400*
X26400Y39000J400*
X26000Y39400I400*
X25600Y39000J400*
G01Y40000*
X26408*
Y34527*
G03X26633Y34302I225*
X26858Y34527J225*
X26633Y34752I225*
X26408Y34527J225*
G01Y40000*
X27140*
Y39000*
G03X27500Y38640I360*
X27525Y38641J360*
G01Y34000*
G03X27750Y33775I225*
X27975Y34000J225*
X27750Y34225I225*
X27525Y34000J225*
G01Y35000*
G03X27750Y34775I225*
X27975Y35000J225*
X27750Y35225I225*
X27525Y35000J225*
G01Y38641*
G03X27860Y39000I25J359*
X27500Y39360I360*
X27140Y39000J360*
G01Y40000*
X28100*
Y39000*
G03X28500Y38600I400*
X28525Y38601J400*
G01Y37000*
G03X28750Y36775I225*
X28975Y37000J225*
X28750Y37225I225*
X28525Y37000J225*
G01Y38601*
G03X28900Y39000I25J399*
X28500Y39400I400*
X28100Y39000J400*
G01Y40000*
X29100*
Y39000*
G03X29500Y38600I400*
X29525Y38601J400*
G01Y34500*
G03X29750Y34275I225*
X29975Y34500J225*
X29750Y34725I225*
X29525Y34500J225*
G01Y38601*
G03X29578Y38608I25J399*
G01Y37488*
G03X29808Y37258I230*
X30038Y37488J230*
X29808Y37718I230*
X29578Y37488J230*
G01Y38608*
G03X29900Y39000I78J392*
X29500Y39400I400*
X29100Y39000J400*
G01Y40000*
X30640*
Y39000*
G03X31000Y38640I360*
X31224Y38719J360*
G01Y36277*
G03X31454Y36047I230*
X31684Y36277J230*
X31454Y36507I230*
X31224Y36277J230*
G01Y38719*
G03X31360Y39000I224J281*
X31000Y39360I360*
X30640Y39000J360*
G01Y40000*
X31600*
Y39000*
G03X32000Y38600I400*
X32400Y39000J400*
X32000Y39400I400*
X31600Y39000J400*
G01Y40000*
X32600*
Y39000*
G03X33000Y38600I400*
X33400Y39000J400*
X33000Y39400I400*
X32600Y39000J400*
G01Y40000*
X34025*
Y29750*
G03X34250Y29525I225*
X34475Y29750J225*
X34250Y29975I225*
X34025Y29750J225*
G01Y40000*
X34140*
Y39000*
G03X34275Y38719I360*
G01Y35000*
G03X34500Y34775I225*
X34725Y35000J225*
X34500Y35225I225*
X34275Y35000J225*
G01Y38719*
G03X34500Y38640I225J281*
X34860Y39000J360*
X34500Y39360I360*
X34140Y39000J360*
G01Y40000*
X35100*
Y39000*
G03X35271Y38672I400*
G01Y36778*
G03X35275Y36737I230*
G01Y35000*
G03X35500Y34775I225*
X35725Y35000J225*
X35500Y35225I225*
X35275Y35000J225*
G01Y36737*
G03X35501Y36548I226J41*
X35731Y36778J230*
X35501Y37008I230*
X35271Y36778J230*
G01Y38672*
G03X35500Y38600I229J328*
X35900Y39000J400*
X35500Y39400I400*
X35100Y39000J400*
G01Y40000*
X36025*
Y32750*
G03X36250Y32525I225*
X36464Y32679J225*
G02X36492Y32700I28J9*
G01X36508*
G02X36536Y32679J30*
G03X36750Y32525I214J71*
X36964Y32679J225*
G02X36992Y32700I28J9*
G01X37008*
G02X37025Y32695J30*
G01Y29750*
G03X37250Y29525I225*
X37464Y29679J225*
G02X37492Y29700I28J9*
G01X37508*
G02X37536Y29679J30*
G03X37750Y29525I214J71*
X37964Y29679J225*
G02X37992Y29700I28J9*
G01X38008*
G02X38036Y29679J30*
G03X38250Y29525I214J71*
X38475Y29750J225*
X38250Y29975I225*
X38036Y29821J225*
G02X38008Y29800I28J9*
G01X37992*
G02X37964Y29821J30*
G03X37750Y29975I214J71*
X37536Y29821J225*
G02X37508Y29800I28J9*
G01X37492*
G02X37464Y29821J30*
G03X37250Y29975I214J71*
X37025Y29750J225*
G01Y32695*
G02X37036Y32679I17J25*
G03X37250Y32525I214J71*
X37475Y32750J225*
X37250Y32975I225*
X37036Y32821J225*
G02X37008Y32800I28J9*
G01X36992*
G02X36964Y32821J30*
G03X36750Y32975I214J71*
X36536Y32821J225*
G02X36508Y32800I28J9*
G01X36492*
G02X36464Y32821J30*
G03X36250Y32975I214J71*
X36025Y32750J225*
G01Y40000*
X36100*
Y39000*
G03X36500Y38600I400*
X36900Y39000J400*
X36500Y39400I400*
X36100Y39000J400*
G01Y40000*
X37025*
Y33500*
G03X37250Y33275I225*
X37475Y33500J225*
X37250Y33725I225*
X37025Y33500J225*
G01Y40000*
X37470*
G02X37500Y39970J30*
G01Y39750*
X37872*
Y38758*
G03X38071Y38559I199*
G01X38119*
Y38000*
G03X38504Y37615I385*
X38775Y37726J385*
G01Y37500*
G03X39000Y37275I225*
X39140Y37324J225*
G01Y35000*
G03X39500Y34640I360*
X39525Y34641J360*
G01Y29500*
G03X39750Y29275I225*
X39975Y29500J225*
X39750Y29725I225*
X39525Y29500J225*
G01Y34641*
G03X39860Y35000I25J359*
X39500Y35360I360*
X39140Y35000J360*
G01Y37324*
G03X39176Y37360I140J176*
G01Y36924*
G03X39406Y36694I230*
X39636Y36924J230*
X39406Y37154I230*
X39176Y36924J230*
G01Y37360*
G03X39225Y37500I176J140*
X39000Y37725I225*
X38775Y37500J225*
G01Y37726*
G03X38889Y38000I271J274*
X38504Y38385I385*
X38119Y38000J385*
G01Y38559*
X38622*
G03X38820Y38758J199*
G01Y39348*
G03X38622Y39547I198*
G01X38071*
G03X37872Y39348J199*
G01Y39750*
X39501*
Y37373*
G03X39731Y37143I230*
X39961Y37373J230*
X39731Y37603I230*
X39501Y37373J230*
G01Y39750*
X40087*
Y38000*
G03X40100Y37901I385*
G01Y35000*
G03X40500Y34600I400*
X40900Y35000J400*
X40500Y35400I400*
X40100Y35000J400*
G01Y37901*
G03X40472Y37615I372J99*
X40858Y38000J385*
X40472Y38385I386*
X40087Y38000J385*
G01Y39750*
X40156*
Y38756*
G03X40354Y38557I198*
G01X40906*
G03X41100Y38717J199*
G01Y35000*
G03X41500Y34600I400*
X41900Y35000J400*
X41500Y35400I400*
X41100Y35000J400*
G01Y38717*
G03X41104Y38756I194J39*
G01Y39346*
G03X40906Y39545I198*
G01X40354*
G03X40156Y39346J199*
G01Y39750*
X41750*
Y39000*
G03X42000Y38750I250*
X42250Y39000J250*
X42000Y39250I250*
X41750Y39000J250*
G01Y39750*
X42775*
Y38750*
G03X43000Y38525I225*
X43101Y38549J225*
G01Y30002*
G03X43501Y29602I400*
X43901Y30002J400*
X43501Y30402I400*
X43101Y30002J400*
G01Y33502*
G03X43501Y33102I400*
X43899Y33460J400*
G01Y32046*
G03X44124Y31821I225*
X44308Y31917J225*
G02X44333Y31930I25J17*
X44353Y31922J30*
G03X44502Y31866I149J169*
X44727Y32091J225*
X44502Y32316I225*
X44317Y32220J225*
G02X44293Y32207I24J17*
X44273Y32215J30*
G03X44124Y32271I149J169*
X43899Y32046J225*
G01Y33460*
G03X43901Y33502I398J42*
X43501Y33902I400*
X43101Y33502J400*
G01Y35002*
G03X43501Y34602I400*
X43901Y35002J400*
X43501Y35402I400*
X43101Y35002J400*
G01Y38549*
G03X43225Y38750I101J201*
X43000Y38975I225*
X42775Y38750J225*
G01Y39750*
X44498*
G02X44528Y39720J30*
X44522Y39703I30*
G03X44483Y39576I186J127*
X44514Y39461I225*
G01Y32668*
G03X44739Y32443I225*
X44881Y32493J225*
G02X44900Y32500I19J23*
X44920Y32493J30*
G03X45069Y32436I149J168*
X45294Y32661J225*
X45069Y32886I225*
X44927Y32836J225*
G02X44908Y32829I19J23*
X44888Y32836J30*
G03X44739Y32893I149J168*
X44514Y32668J225*
G01Y39461*
G03X44557Y39409I194J115*
G01Y33547*
G03X44787Y33317I230*
X45017Y33547J230*
X44787Y33777I230*
X44557Y33547J230*
G01Y39409*
G03X44708Y39351I151J167*
X44933Y39576J225*
X44893Y39703I225*
G02X44888Y39720I25J17*
X44918Y39750I30*
G01X45077*
Y33969*
G03X45302Y33744I225*
X45527Y33969J225*
X45302Y34194I225*
X45077Y33969J225*
G01Y39750*
X45306*
Y36449*
G03X45531Y36224I225*
X45756Y36449J225*
X45531Y36674I225*
X45306Y36449J225*
G01Y39750*
X45813*
Y37822*
G03X46038Y37597I225*
X46241Y37725J225*
G02X46258Y37740I27J13*
G01Y32374*
G03X46483Y32149I225*
X46708Y32374J225*
Y32377I225*
G01Y32378*
G02X46738Y32408I30*
G03X46960Y32633I3J225*
X46735Y32858I225*
X46510Y32633J225*
Y32629I225*
G02X46481Y32599I30*
G03X46258Y32374I2J225*
G01Y37740*
G02X46268Y37742I10J28*
X46272J30*
G01X46293Y37739*
G02X46319Y37715I4J30*
G03X46329Y37678I226J42*
G01Y33451*
G03X46554Y33226I225*
X46727Y33307J225*
G02X46750Y33318I23J19*
X46775Y33304J30*
G03X46964Y33201I189J122*
X47189Y33426J225*
X46964Y33651I225*
X46791Y33570J225*
G02X46768Y33559I23J19*
X46743Y33573J30*
G03X46554Y33676I189J122*
X46329Y33451J225*
G01Y37678*
G03X46545Y37527I216J79*
X46775Y37757J230*
X46545Y37987I230*
X46337Y37855J230*
G02X46309Y37838I28J13*
X46306J30*
G01X46285Y37841*
G02X46259Y37865I3J30*
G03X46038Y38047I221J43*
X45813Y37822J225*
G01Y39750*
X46957*
Y34029*
G03X47182Y33804I225*
X47392Y33948J225*
G02X47420Y33967I28J11*
X47429Y33966J30*
G03X47503Y33953I74J212*
X47507J225*
G01X47508*
G02X47537Y33929J30*
G03X47759Y33744I222J40*
X47824Y33754J225*
G01Y33512*
G03X48049Y33287I225*
X48274Y33512J225*
X48049Y33737I225*
X47824Y33512J225*
G01Y33754*
G03X47984Y33969I65J215*
X47962Y34067I225*
G02X47959Y34079I27J12*
X47989Y34109I30*
X48000Y34107J30*
G03X48086Y34090I86J208*
X48275Y34192J225*
G01Y32000*
G03X48392Y31802I225*
G01Y31520*
G03X48462Y31368I200*
G01Y29900*
G03X48692Y29670I230*
X48914Y29838J230*
G02X48941Y29860I29J8*
G01X48957Y29861*
X48958*
G02X48986Y29842J30*
G03X49170Y29719I184J77*
X49370Y29919J200*
X49364Y29968I200*
G02X49363Y29975I29J7*
X49393Y30005I30*
X49397J30*
G03X49420Y30003I23J198*
X49620Y30203J200*
X49420Y30403I200*
X49220Y30203J200*
X49226Y30155I200*
G02X49227Y30148I29J7*
X49197Y30118I30*
X49194J30*
G03X49170Y30119I24J199*
X48980Y29981J200*
G02X48953Y29961I28J10*
G01X48937Y29960*
X48936*
G02X48908Y29980J30*
G03X48692Y30130I216J80*
X48462Y29900J230*
G01Y31368*
G03X48592Y31320I130J152*
X48792Y31520J200*
X48592Y31720I200*
X48392Y31520J200*
G01Y31802*
G03X48500Y31775I108J198*
X48725Y32000J225*
X48500Y32225I225*
X48275Y32000J225*
G01Y34192*
G03X48311Y34315I189J123*
X48086Y34540I225*
X47861Y34315J225*
X47884Y34218I225*
G02X47887Y34205I27J13*
X47857Y34175I30*
X47845Y34177J30*
G03X47759Y34194I86J208*
X47755J225*
G01X47754*
G02X47725Y34219J30*
G03X47503Y34403I222J41*
X47294Y34259J225*
G02X47266Y34240I28J11*
X47256Y34242J30*
G03X47182Y34254I74J213*
X46957Y34029J225*
G01Y39750*
X46996*
Y39335*
G03X47226Y39105I230*
X47456Y39335J230*
X47226Y39565I230*
X46996Y39335J230*
G01Y39750*
X47833*
Y35686*
G03X48058Y35461I225*
X48257Y35582J225*
G02X48284Y35598I27J14*
X48293Y35596J30*
G03X48364Y35585I71J214*
X48376J225*
G01Y33662*
G03X48601Y33437I225*
X48772Y33516J225*
G01Y32738*
G03X48972Y32538I200*
X49025Y32545J200*
G01Y31500*
G03X49250Y31275I225*
X49475Y31500J225*
X49250Y31725I225*
X49025Y31500J225*
G01Y32545*
G03X49172Y32738I53J193*
X48972Y32938I200*
X48772Y32738J200*
G01Y33516*
G03X48826Y33662I171J146*
X48601Y33887I225*
X48376Y33662J225*
G01Y35585*
G03X48589Y35810I12J225*
X48364Y36035I225*
X48165Y35914J225*
G02X48138Y35898I27J14*
X48129Y35900J30*
G03X48058Y35911I71J214*
X47833Y35686J225*
G01Y39750*
X48270*
Y37696*
G03X48500Y37466I230*
X48730Y37696J230*
X48500Y37926I230*
X48270Y37696J230*
G01Y39750*
X48805*
Y37288*
G03X48996Y37061I230*
G01Y34231*
G03X49001Y34187I225*
G01Y33156*
G03X49201Y32956I200*
X49401Y33156J200*
X49201Y33356I200*
X49001Y33156J200*
G01Y34187*
G03X49221Y34006I220J44*
X49260Y34010J225*
G01Y33538*
G03X49460Y33338I200*
X49660Y33538J200*
X49460Y33738I200*
X49260Y33538J200*
G01Y34010*
G03X49446Y34231I39J221*
X49221Y34456I225*
X48996Y34231J225*
G01Y37061*
G03X49035Y37058I39J227*
X49265Y37288J230*
X49035Y37518I230*
X48805Y37288J230*
G01Y39750*
X49775*
Y38250*
G03X50000Y38025I225*
X50225Y38250J225*
X50000Y38475I225*
X49775Y38250J225*
G01Y39750*
X50577*
Y33575*
G03X50732Y33361I225*
G01Y31958*
G03X50957Y31733I225*
X51182Y31958J225*
X50957Y32183I225*
X50732Y31958J225*
G01Y33361*
G03X50802Y33350I70J214*
X51027Y33575J225*
X50802Y33800I225*
X50577Y33575J225*
G01Y39750*
X50750*
Y39000*
G03X51000Y38750I250*
X51015J250*
G01Y33858*
G03X51240Y33633I225*
X51465Y33858J225*
X51440Y33961I225*
G02X51437Y33974I27J13*
X51449Y33998I30*
G03X51540Y34179I134J181*
X51315Y34404I225*
X51090Y34179J225*
X51115Y34077I225*
G02X51118Y34063I27J14*
X51106Y34039I30*
G03X51015Y33858I134J181*
G01Y38750*
G03X51250Y39000I15J250*
X51000Y39250I250*
X50750Y39000J250*
G01Y39750*
X51275*
Y36500*
G03X51429Y36286I225*
G02X51450Y36258I9J28*
G01Y36242*
G02X51429Y36214I30*
G03X51275Y36000I71J214*
X51500Y35775I225*
X51725Y36000J225*
X51571Y36214I225*
G02X51550Y36242I9J28*
G01Y36258*
G02X51571Y36286I30*
G03X51725Y36500I71J214*
X51500Y36725I225*
X51275Y36500J225*
G01Y39750*
X52100*
Y39000*
G03X52500Y38600I400*
X52821Y38761J400*
G01Y32996*
G03X52902Y32821I230*
G01Y30001*
G03X53025Y29797I230*
G01Y29000*
G03X53250Y28775I225*
X53475Y29000J225*
X53250Y29225I225*
X53025Y29000J225*
G01Y29797*
G03X53132Y29771I107J204*
X53362Y30001J230*
X53132Y30231I230*
X52902Y30001J230*
G01Y32821*
G03X53051Y32766I149J175*
X53281Y32996J230*
X53051Y33226I230*
X52821Y32996J230*
G01Y38761*
G03X52900Y39000I321J239*
X52500Y39400I400*
X52100Y39000J400*
G01Y39750*
X53100*
Y39000*
G03X53500Y38600I400*
X53900Y39000J400*
X53500Y39400I400*
X53100Y39000J400*
G01Y39750*
X54100*
Y39000*
G03X54275Y38669I400*
G01Y29250*
G03X54500Y29025I225*
X54714Y29179J225*
G02X54742Y29200I28J9*
G01X54758*
G02X54786Y29179J30*
G03X55000Y29025I214J71*
X55214Y29179J225*
G02X55242Y29200I28J9*
G01X55258*
G02X55286Y29179J30*
G03X55500Y29025I214J71*
X55714Y29179J225*
G02X55742Y29200I28J9*
G01X55758*
G02X55786Y29179J30*
G03X56000Y29025I214J71*
X56214Y29179J225*
G02X56242Y29200I28J9*
G01X56258*
G02X56286Y29179J30*
G03X56500Y29025I214J71*
X56725Y29250J225*
X56500Y29475I225*
X56286Y29321J225*
G02X56258Y29300I28J9*
G01X56242*
G02X56214Y29321J30*
G03X56000Y29475I214J71*
X55786Y29321J225*
G02X55758Y29300I28J9*
G01X55742*
G02X55714Y29321J30*
G03X55500Y29475I214J71*
X55286Y29321J225*
G02X55258Y29300I28J9*
G01X55242*
G02X55214Y29321J30*
G03X55000Y29475I214J71*
X54786Y29321J225*
G02X54758Y29300I28J9*
G01X54742*
G02X54714Y29321J30*
G03X54500Y29475I214J71*
X54275Y29250J225*
G01Y38669*
G03X54500Y38600I225J331*
X54900Y39000J400*
X54500Y39400I400*
X54100Y39000J400*
G01Y39750*
X55140*
Y39000*
G03X55500Y38640I360*
X55860Y39000J360*
X55500Y39360I360*
X55140Y39000J360*
G01Y39750*
X56525*
Y38000*
G03X57775Y36542I1475*
G01Y35000*
G03X58000Y34775I225*
X58225Y35000J225*
X58000Y35225I225*
X57775Y35000J225*
G01Y36542*
G03X58000Y36525I225J1458*
X58600Y36653J1475*
G01Y33000*
G03X58640Y32826I400*
G01Y32000*
G03X59000Y31640I360*
X59360Y32000J360*
X59000Y32360I360*
X58640Y32000J360*
G01Y32826*
G03X59000Y32600I360J174*
X59400Y33000J400*
X59000Y33400I400*
X58600Y33000J400*
G01Y34000*
G03X59000Y33600I400*
X59400Y34000J400*
X59000Y34400I400*
X58600Y34000J400*
G01Y35000*
G03X59000Y34600I400*
X59400Y35000J400*
X59000Y35400I400*
X58600Y35000J400*
G01Y36653*
G03X59475Y38000I600J1347*
X58000Y39475I1475*
X56525Y38000J1475*
G01Y39750*
X59970*
G02X60000Y39720J30*
G01Y28280*
G02X59970Y28250I30*
G01X58639*
G02X58609Y28280J30*
X58635Y28310I30*
G03X59572Y29398I163J1088*
X58472Y30498I1100*
X57372Y29398J1100*
X58310Y28310I1100*
G02X58336Y28280I4J30*
X58306Y28250I30*
G01X32280*
G02X32250Y28280J30*
G01Y28497*
G02X32276Y28527I30*
G03X32475Y28750I26J223*
X32276Y28973I225*
G02X32250Y29003I4J30*
G01Y31750*
X18879*
G02X18849Y31780J30*
X18864Y31806I30*
G03X18975Y32000I114J194*
X18821Y32214I225*
G02X18800Y32242I9J28*
G01Y32258*
G02X18821Y32286I30*
G03X18975Y32500I71J214*
X18750Y32725I225*
X18525Y32500J225*
X18679Y32286I225*
G02X18700Y32258I9J28*
G01Y32242*
G02X18679Y32214I30*
G03X18525Y32000I71J214*
X18636Y31806I225*
G02X18651Y31780I15J26*
X18621Y31750I30*
G01X7763*
G02X7733Y31777J30*
G03X7504Y31988I229J19*
X7274Y31777J230*
G02X7245Y31750I29J3*
G01X5608*
G02X5578Y31777J30*
G03X5349Y31985I229J22*
X5120Y31777J230*
G02X5090Y31750I30J3*
G01X30*
G02X0Y31780J30*
G01Y39970*
G37*
G54D10*
X15500Y39000D02*
Y39390D01*
Y39000D02*
Y38610D01*
Y39000D02*
X15890D01*
X15500D02*
X15110D01*
X22000D02*
X21610D01*
X22000D02*
Y39390D01*
Y39000D02*
X22390D01*
X22000D02*
Y38610D01*
X27500Y39000D02*
X27110D01*
X27500D02*
Y39390D01*
Y39000D02*
X27890D01*
X27500D02*
Y38610D01*
X31000Y39000D02*
Y38610D01*
Y39000D02*
X31390D01*
X31000D02*
Y39390D01*
Y39000D02*
X30610D01*
X34500D02*
Y39390D01*
Y39000D02*
Y38610D01*
Y39000D02*
X34890D01*
X34500D02*
X34110D01*
X39500Y35000D02*
X39890D01*
X39500D02*
X39110D01*
X39500D02*
Y35390D01*
Y35000D02*
Y34610D01*
X55024Y7000D02*
Y7484D01*
Y7000D02*
X54540D01*
X55024D02*
X55507D01*
X55024D02*
Y6516D01*
Y13750D02*
X54540D01*
X55024D02*
X55507D01*
X55024D02*
Y14234D01*
Y13750D02*
Y13266D01*
Y20500D02*
Y20016D01*
Y20500D02*
X54540D01*
X55024D02*
Y20984D01*
Y20500D02*
X55507D01*
X55500Y39000D02*
Y39390D01*
Y39000D02*
X55110D01*
X55500D02*
X55890D01*
X55500D02*
Y38610D01*
X59000Y32000D02*
Y32390D01*
Y32000D02*
Y31610D01*
Y32000D02*
X59390D01*
X59000D02*
X58610D01*
G54D11*
X1000Y5000D03*
Y8000D03*
Y11000D03*
Y14000D03*
Y17000D03*
Y20000D03*
Y23000D03*
Y26000D03*
Y29000D03*
Y36000D03*
X5000Y1000D03*
X7000Y5000D03*
Y28000D03*
X8000Y1000D03*
X9000Y28000D03*
Y30000D03*
X10500Y17500D03*
Y18000D03*
Y34500D03*
X11000Y1000D03*
Y17500D03*
Y18000D03*
Y28000D03*
Y30000D03*
X11500Y17500D03*
Y18000D03*
X12000Y17500D03*
Y18000D03*
X12500Y17500D03*
Y18000D03*
X13000Y17500D03*
Y18000D03*
Y30000D03*
X13500Y17500D03*
Y18000D03*
X14000Y1000D03*
Y17500D03*
Y18000D03*
X14500Y17500D03*
Y18000D03*
X15000Y17500D03*
Y18000D03*
Y30000D03*
X15500Y17500D03*
Y18000D03*
X17000Y4000D03*
Y4500D03*
Y5000D03*
Y9500D03*
Y10000D03*
Y10500D03*
Y11000D03*
Y11500D03*
Y12000D03*
Y12500D03*
Y13000D03*
Y30000D03*
X17500Y4000D03*
Y4500D03*
Y5000D03*
Y9500D03*
Y10000D03*
Y10500D03*
Y11000D03*
Y11500D03*
Y12000D03*
Y12500D03*
Y13000D03*
X18000Y1000D03*
Y17000D03*
Y17500D03*
X18500Y17000D03*
Y17500D03*
X19000Y17000D03*
Y17500D03*
X19500Y17000D03*
Y17500D03*
X20000Y17000D03*
Y17500D03*
X20500Y17000D03*
Y17500D03*
X21000Y1000D03*
Y17000D03*
Y17500D03*
X21500Y17000D03*
Y17500D03*
X22000Y17000D03*
Y17500D03*
X22500Y17000D03*
Y17500D03*
X25000Y1000D03*
Y4000D03*
Y4500D03*
Y5000D03*
Y9000D03*
Y13000D03*
X25500Y4000D03*
Y4500D03*
Y5000D03*
Y9000D03*
Y13000D03*
X28000Y1000D03*
X29000Y16000D03*
Y16500D03*
X29500Y16000D03*
Y16500D03*
X30000Y16000D03*
Y16500D03*
X30500Y16000D03*
Y16500D03*
X31000Y16000D03*
Y16500D03*
X31500Y16000D03*
Y16500D03*
X32000Y1000D03*
Y16000D03*
Y16500D03*
X32500Y16000D03*
Y16500D03*
X33000Y16000D03*
Y16500D03*
X33500Y16000D03*
Y16500D03*
X34500Y4000D03*
Y4500D03*
Y5000D03*
Y9500D03*
Y10000D03*
Y10500D03*
Y11000D03*
Y11500D03*
Y12000D03*
Y12500D03*
Y13000D03*
X35000Y1000D03*
Y4000D03*
Y4500D03*
Y5000D03*
Y9500D03*
Y10000D03*
Y10500D03*
Y11000D03*
Y11500D03*
Y12000D03*
Y12500D03*
Y13000D03*
X36000Y4000D03*
Y4500D03*
Y5000D03*
X38000Y1000D03*
X39000Y4000D03*
Y4500D03*
Y5000D03*
X41000Y1000D03*
Y20000D03*
Y22000D03*
Y24000D03*
Y26000D03*
Y28000D03*
X41500Y10500D03*
Y11000D03*
Y11500D03*
Y12000D03*
Y15500D03*
Y16000D03*
Y16500D03*
Y17000D03*
X42000Y4000D03*
Y4500D03*
Y5000D03*
Y10500D03*
Y11000D03*
Y11500D03*
Y12000D03*
Y15500D03*
Y16000D03*
Y16500D03*
Y17000D03*
Y39000D03*
X42500Y10500D03*
Y11000D03*
Y15500D03*
Y16000D03*
X43000Y10500D03*
Y11000D03*
Y15500D03*
Y16000D03*
X43500Y10500D03*
Y11000D03*
Y15500D03*
Y16000D03*
X44000Y1000D03*
Y20000D03*
Y28000D03*
X47000Y1000D03*
X49500Y26000D03*
Y28000D03*
X50000Y1000D03*
Y6000D03*
X51000Y39000D03*
X53000Y1000D03*
Y6000D03*
X56000Y1000D03*
X59000Y4000D03*
Y6000D03*
Y9000D03*
Y12000D03*
Y15000D03*
Y18000D03*
Y21000D03*
Y28000D03*
G54D12*
X1250Y30000D03*
Y34500D03*
X5000Y38000D03*
X7000D03*
X10000D03*
X11500Y27750D03*
Y28250D03*
Y28750D03*
X11750Y27500D03*
Y28000D03*
Y28500D03*
Y29000D03*
X12000Y28750D03*
Y38000D03*
X12250Y29000D03*
X12500Y28750D03*
X12750Y29000D03*
X13000Y28750D03*
X13250Y29000D03*
X13500Y28750D03*
X13750Y29000D03*
X14000Y28750D03*
X14250Y29000D03*
X18500Y24500D03*
X18750Y24750D03*
Y30500D03*
Y31000D03*
Y31500D03*
Y32000D03*
Y32500D03*
X19000Y24500D03*
X19250Y24750D03*
X19500Y24500D03*
X19750Y24750D03*
X20000Y23000D03*
Y23500D03*
Y24000D03*
Y24500D03*
X20250Y24750D03*
Y34500D03*
X20500Y24500D03*
X20750Y24750D03*
X21000Y24500D03*
X21168Y32674D03*
X21250Y24750D03*
X21325Y26008D03*
X21500Y24500D03*
Y35250D03*
X21519Y32578D03*
X21708Y34093D03*
X21750Y31149D03*
X21840Y32432D03*
X22141Y31154D03*
Y32630D03*
X22167Y30016D03*
X22293Y34227D03*
X22510Y37480D03*
X22584Y34436D03*
X22607Y34102D03*
X22768Y34822D03*
X22944Y30001D03*
X23091Y34572D03*
X23250Y32250D03*
X23530Y37480D03*
X23704Y33942D03*
X23750Y32250D03*
X23794Y29850D03*
X24250Y23500D03*
Y24000D03*
Y24500D03*
X24424Y37480D03*
X24500Y29965D03*
Y25750D03*
X24750Y23500D03*
X24929Y29688D03*
X24933Y34243D03*
X25000Y25750D03*
X25057Y35790D03*
X25183Y33993D03*
X25202Y36315D03*
X25208Y36645D03*
X25250Y23500D03*
X25500Y25750D03*
Y37250D03*
X25887Y34095D03*
X25973Y32672D03*
X26633Y34527D03*
X27114Y30018D03*
X27527Y29919D03*
X27750Y34000D03*
Y35000D03*
X27778Y30603D03*
X28750Y37000D03*
X29750Y34500D03*
X30000Y29000D03*
X30250Y28750D03*
X30500Y29000D03*
X30750Y28750D03*
X31000Y29000D03*
X31250Y28750D03*
X31500Y29000D03*
X31750Y28750D03*
X32000Y29000D03*
X32250Y28750D03*
X32750Y27500D03*
Y28000D03*
X34250Y29750D03*
X34500Y35000D03*
X35500D03*
X36250Y32750D03*
X36750D03*
X37250Y29750D03*
Y32750D03*
Y33500D03*
X37500Y27750D03*
X37750Y29750D03*
X38000Y27750D03*
X38250Y29750D03*
X38500Y27750D03*
X39000Y37500D03*
X39750Y29500D03*
X43000Y38750D03*
X44124Y32046D03*
X44502Y32091D03*
X44708Y39576D03*
X44739Y32668D03*
X45069Y32661D03*
X45302Y33969D03*
X45531Y36449D03*
X46038Y37822D03*
X46483Y32374D03*
X46500Y7750D03*
Y8250D03*
Y8750D03*
Y9250D03*
Y9750D03*
X46554Y33451D03*
X46735Y32633D03*
X46750Y8000D03*
Y8500D03*
Y9500D03*
X46964Y33426D03*
X47182Y34029D03*
X47503Y34178D03*
X47759Y33969D03*
X48049Y33512D03*
X48058Y35686D03*
X48086Y34315D03*
X48364Y35810D03*
X48500Y32000D03*
X48601Y33662D03*
X49221Y34231D03*
X49250Y31500D03*
X50000Y38250D03*
X50802Y33575D03*
X50957Y31958D03*
X51240Y33858D03*
X51315Y34179D03*
X51500Y36000D03*
Y36500D03*
X53250Y29000D03*
X54500Y29250D03*
X55000D03*
X55500D03*
X56000D03*
X56500D03*
X58000Y35000D03*
G54D13*
X5312Y33756D03*
X5349Y31755D03*
X6526Y34314D03*
X7504Y31758D03*
X13458Y37542D03*
X16998Y24735D03*
X17149Y16260D03*
X20630Y30463D03*
X22400Y28024D03*
X22560Y21273D03*
X22738Y24886D03*
X23000Y16500D03*
X23113Y35500D03*
X23275Y27023D03*
X23770Y28056D03*
X24515Y27037D03*
X25028Y28028D03*
X25938Y28049D03*
X28250Y28064D03*
X28853Y28056D03*
X29312Y24914D03*
X29329Y21822D03*
X29808Y37488D03*
X31454Y36277D03*
X32818Y28370D03*
X33401Y24026D03*
X34477Y15784D03*
X35501Y36778D03*
X39406Y36924D03*
X39731Y37373D03*
X44570Y30474D03*
X44787Y33547D03*
X46079Y36709D03*
X46545Y37757D03*
X47226Y39335D03*
X48500Y37696D03*
X48692Y29900D03*
X49035Y37288D03*
X50523Y35474D03*
X51453Y31276D03*
X53051Y32996D03*
X53132Y30001D03*
X56234Y32000D03*
G54D14*
X48592Y31520D03*
X48607Y30204D03*
X48972Y32738D03*
X49170Y29919D03*
X49201Y33156D03*
X49420Y30203D03*
X49460Y33538D03*
G54D15*
X2000Y2000D03*
Y38000D03*
X4440Y5984D03*
Y25984D03*
X46448Y5984D03*
Y25984D03*
X58000Y2000D03*
Y38000D03*
G54D16*
X8252Y39249D03*
X13252D03*
X15500Y39000D03*
X16500D03*
X17500D03*
X18500D03*
X19500D03*
X20500D03*
X22000D03*
X23000D03*
X24000D03*
X25000D03*
X26000D03*
X27500D03*
X28500D03*
X29500D03*
X31000D03*
X32000D03*
X33000D03*
X34500D03*
X35500D03*
X36500D03*
X39500Y35000D03*
X40500D03*
X41500D03*
X43501Y30002D03*
Y33502D03*
Y35002D03*
X52500Y39000D03*
X53500D03*
X54500D03*
X55500D03*
X59000Y32000D03*
Y33000D03*
Y34000D03*
Y35000D03*
G54D17*
X16000Y1500D03*
X23000D03*
X30000D03*
X58472Y25398D03*
Y29398D03*
G54D18*
X38504Y38000D03*
X40472D03*
G54D19*
X38346Y39053D03*
X40630Y39051D03*
G54D70*
X55024Y7000D03*
Y13750D03*
Y20500D03*
X57976Y7000D03*
Y13750D03*
Y20500D03*
M02*
