*
G04 Job   : E:\PCBDESIGN\PROJECT\XDX\JOHNENGLISH\JOHNENGLISH\PCB\Board1.pcb*
G04 User  : BES-WIN7-VM:BES*
G04 Layer : EtchLayer1Top.gdo*
G04 Date  : Sun Nov 23 15:41:46 2014*
G04 Mentor Graphics Example Gerber Output Definition*
%ICAS*%
%MOIN*%
%FSLAX24Y24*%
%OFA0.0000B0.0000*%
G90*
G74*
%AMVB_RECTANGLE*
21,1,$1,$2,0,0,$3*
%
%AMVB_RCRECTANGLE*
$3=$3X2*
21,1,$1-$3,$2,0,0,0*
21,1,$1,$2-$3,0,0,0*
$1=$1/2*
$2=$2/2*
$3=$3/2*
$1=$1-$3*
$2=$2-$3*
1,1,$3X2,0-$1,0-$2*
1,1,$3X2,0-$1,$2*
1,1,$3X2,$1,$2*
1,1,$3X2,$1,0-$2*
%
%ADD10C,0.00500*%
%ADD12C,0.01000*%
%ADD11C,0.02000*%
%ADD14C,0.02500*%
%ADD15C,0.02600*%
%ADD13C,0.03000*%
%ADD40C,0.05709*%
%ADD71C,0.06000*%
%ADD44C,0.07874*%
%ADD38C,0.20000*%
%ADD70C,0.27500*%
%ADD19VB_RECTANGLE,0.04724X0.04724X180.00000*%
%ADD39VB_RECTANGLE,0.01575X0.05315X180.00000*%
%ADD72VB_RECTANGLE,0.01969X0.02362X180.00000*%
%ADD26VB_RECTANGLE,0.03150X0.03937X0.00000*%
%ADD18VB_RECTANGLE,0.03150X0.03937X270.00000*%
%ADD46VB_RECTANGLE,0.03504X0.09606X0.00000*%
%ADD20VB_RECTANGLE,0.03937X0.13583X180.00000*%
%ADD35VB_RECTANGLE,0.05118X0.06693X0.00000*%
%ADD42VB_RECTANGLE,0.05118X0.06693X90.00000*%
%ADD43VB_RECTANGLE,0.05512X0.19685X90.00000*%
%ADD16VB_RECTANGLE,0.05709X0.03937X180.00000*%
%ADD32VB_RECTANGLE,0.05906X0.09843X270.00000*%
%ADD73VB_RECTANGLE,0.06102X0.00984X270.00000*%
%ADD29VB_RECTANGLE,0.06299X0.01378X0.00000*%
%ADD28VB_RECTANGLE,0.06299X0.01378X90.00000*%
%ADD33VB_RECTANGLE,0.06693X0.09843X180.00000*%
%ADD34VB_RECTANGLE,0.06693X0.09843X90.00000*%
%ADD24VB_RECTANGLE,0.07874X0.14961X180.00000*%
%ADD36VB_RECTANGLE,0.07874X0.14961X270.00000*%
%ADD17VB_RECTANGLE,0.08504X0.05984X180.00000*%
%ADD25VB_RECTANGLE,0.09843X0.06693X0.00000*%
%ADD22VB_RECTANGLE,0.11024X0.02913X270.00000*%
%ADD23VB_RECTANGLE,0.20000X0.07000X0.00000*%
%ADD45VB_RECTANGLE,0.22047X0.09606X0.00000*%
%ADD30VB_RECTANGLE,0.25394X0.14567X180.00000*%
%ADD31VB_RECTANGLE,0.27559X0.27559X270.00000*%
%ADD21VB_RECTANGLE,0.42402X0.30984X180.00000*%
%ADD37VB_RECTANGLE,0.42402X0.30984X270.00000*%
%ADD41VB_RCRECTANGLE,0.07480X0.07874X0.00984*%
%ADD27VB_RCRECTANGLE,0.10630X0.31496X0.03937*%
G01*
G36*
X250Y39720D02*
G02X280Y39750I30D01*
G01X525*
Y2000*
G03X2000Y525I1475*
X3475Y2000J1475*
X2000Y3475I1475*
X525Y2000J1475*
G01Y38000*
G03X601Y37533I1475*
G01Y30451*
G03X701Y30351I100*
G01X1551*
G03X1651Y30451J100*
G01Y31049*
G03X1551Y31149I100*
G01X701*
G03X601Y31049J100*
G01Y31451*
G03X701Y31351I100*
G01X1551*
G03X1651Y31451J100*
G01Y32049*
G03X1551Y32149I100*
G01X701*
G03X601Y32049J100*
G01Y32451*
G03X701Y32351I100*
G01X1551*
G03X1651Y32451J100*
G01Y33049*
G03X1551Y33149I100*
G01X701*
G03X601Y33049J100*
G01Y33451*
G03X701Y33351I100*
G01X1551*
G03X1651Y33451J100*
G01Y34049*
G03X1551Y34149I100*
G01X701*
G03X601Y34049J100*
G01Y37533*
G03X2000Y36525I1399J467*
X2965Y36885J1475*
G01Y5984*
G03X4440Y4509I1475*
X5915Y5984J1475*
X4440Y7459I1475*
X2965Y5984J1475*
G01Y25984*
G03X4440Y24509I1475*
X5915Y25984J1475*
X4440Y27459I1475*
X2965Y25984J1475*
G01Y36885*
G03X3475Y38000I965J1115*
X2000Y39475I1475*
X525Y38000J1475*
G01Y39750*
X3849*
Y33451*
G03X3949Y33351I100*
G01X4799*
G03X4899Y33451J100*
G01Y33570*
G02X4929Y33600I30*
G01X4983*
G03X5021Y33605J150*
G02X5028Y33606I7J29*
G01X5104*
G02X5119Y33602J30*
G01X5197Y33557*
G03X5312Y33526I115J199*
X5427Y33557J230*
G01X5505Y33602*
G02X5520Y33606I15J26*
G01X5592*
G02X5599Y33605J30*
G03X5637Y33600I38J145*
G01X5687*
G02X5717Y33570J30*
G01Y33553*
G03X5817Y33453I100*
G01X6132*
G03X6223Y33511J100*
G02X6250Y33529I27J12*
X6277Y33511J30*
G03X6351Y33455I91J42*
G02X6376Y33425I5J30*
G01Y33075*
G02X6351Y33045I30*
G03X6277Y32989I17J98*
G02X6250Y32971I27J12*
X6223Y32989J30*
G03X6132Y33047I91J42*
G01X5817*
G03X5717Y32947J100*
G01Y32930*
G02X5687Y32900I30*
G01X4929*
G02X4899Y32930J30*
G01Y33049*
G03X4799Y33149I100*
G01X3949*
G03X3849Y33049J100*
G01Y32451*
G03X3949Y32351I100*
G01X4799*
G03X4899Y32451J100*
G01Y32570*
G02X4929Y32600I30*
G01X5687*
G02X5717Y32570J30*
G01Y32553*
G03X5817Y32453I100*
G01X6132*
G03X6223Y32511J100*
G02X6250Y32529I27J12*
X6277Y32511J30*
G03X6351Y32455I91J42*
G02X6376Y32425I5J30*
G01Y32075*
G02X6351Y32045I30*
G03X6277Y31989I17J98*
G02X6250Y31971I27J12*
X6223Y31989J30*
G03X6132Y32047I91J42*
G01X5817*
G03X5717Y31947J100*
G01Y31932*
G02X5687Y31902I30*
X5681J30*
G03X5650Y31905I31J147*
G01X5557*
G02X5542Y31909J30*
G01X5464Y31955*
G03X5349Y31985I115J200*
X5234Y31955J230*
G01X5156Y31909*
G02X5141Y31905I15J26*
G01X5007*
G03X4970Y31901J150*
G02X4963Y31900I7J29*
G01X4929*
G02X4899Y31930J30*
G01Y32049*
G03X4799Y32149I100*
G01X3949*
G03X3849Y32049J100*
G01Y31451*
G03X3949Y31351I100*
G01X4799*
G03X4899Y31451J100*
G01Y31570*
G02X4929Y31600I30*
G01X5001*
G03X5038Y31605J150*
G02X5045I7J30*
G01X5141*
G02X5156Y31601J30*
G01X5234Y31556*
G03X5349Y31525I115J199*
X5464Y31556J230*
G01X5542Y31601*
G02X5557Y31605I15J26*
G01X5612*
G02X5619J30*
G03X5656Y31600I37J145*
G01X5687*
G02X5717Y31570J30*
G01Y31553*
G03X5817Y31453I100*
G01X6132*
G03X6223Y31511J100*
G02X6250Y31529I27J12*
X6277Y31511J30*
G03X6351Y31455I91J42*
G02X6376Y31425I5J30*
G01Y31075*
G02X6351Y31045I30*
G03X6277Y30989I17J98*
G02X6250Y30971I27J12*
X6223Y30989J30*
G03X6132Y31047I91J42*
G01X5817*
G03X5717Y30947J100*
G01Y30930*
G02X5687Y30900I30*
G01X4929*
G02X4899Y30930J30*
G01Y31049*
G03X4799Y31149I100*
G01X3949*
G03X3849Y31049J100*
G01Y30451*
G03X3949Y30351I100*
G01X4799*
G03X4899Y30451J100*
G01Y30570*
G02X4929Y30600I30*
G01X5687*
G02X5717Y30570J30*
G01Y30553*
G03X5800Y30455I100*
G02X5825Y30428I5J30*
G03X5868Y30337I149J15*
G01X5981Y30224*
G03X6087Y30180I106J106*
G01X11943*
Y27496*
G03X12043Y27396I100*
G01X14248*
G03X14348Y27496J100*
G01Y28457*
G03X14248Y28557I100*
G01X12043*
G03X11943Y28457J100*
G01Y30180*
X15467*
G03X15573Y30224J150*
G01X19014Y33666*
Y30665*
G03X19114Y30565I100*
G01X19626*
G03X19726Y30665J100*
G01Y31335*
G03X19626Y31435I100*
G01X19114*
G03X19014Y31335J100*
G01Y31665*
G03X19114Y31565I100*
G01X19626*
G03X19726Y31665J100*
G01Y32335*
G03X19626Y32435I100*
G01X19114*
G03X19014Y32335J100*
G01Y33666*
X21505Y36157*
G02X21526Y36165I21J22*
G01X23140*
G02X23170Y36135J30*
X23161Y36114I30*
G01X22756Y35710*
G03X22713Y35604I107J106*
G01Y35339*
G02X22704Y35318I30*
G01X22323Y34937*
G02X22302Y34928I21J21*
X22278Y34941J30*
G03X22239Y34973I81J59*
G02X22221Y35000I12J27*
X22239Y35027I30*
G03X22297Y35118I42J91*
G01Y35433*
G03X22197Y35533I100*
G01X21803*
G03X21703Y35433J100*
G01Y35118*
G03X21761Y35027I100*
G02X21779Y35000I12J27*
X21761Y34973I30*
G03X21703Y34882I42J91*
G01Y34567*
G03X21803Y34467I100*
G01X21820*
G02X21850Y34437J30*
G01Y34322*
G02X21820Y34292I30*
X21807Y34295J30*
G03X21708Y34318I99J202*
X21580Y34278J225*
G02X21563Y34272I17J24*
X21533Y34302J30*
G01Y34303*
Y34697*
G03X21433Y34797I100*
G01X21118*
G03X21027Y34739J100*
G02X21000Y34721I27J12*
X20973Y34739J30*
G03X20882Y34797I91J42*
G01X20567*
G03X20467Y34697J100*
G01Y34303*
G03X20567Y34203I100*
G01X20882*
G03X20973Y34261J100*
G02X21000Y34279I27J12*
X21027Y34261J30*
G03X21101Y34205I91J42*
G02X21126Y34175I5J30*
G01Y34132*
G03X21170Y34026I150*
G01X21322Y33874*
G02X21331Y33852I21J22*
X21301Y33822I30*
G01X21293*
G03X21193Y33722J100*
G01Y33112*
G03X21293Y33012I100*
G01X21322*
G02X21352Y32982J30*
X21343Y32961I30*
G01X21276Y32893*
G02X21254Y32884I22J21*
X21244Y32886J30*
G03X21168Y32899I76J212*
X20943Y32674J225*
X20947Y32635I225*
G02Y32629I30J6*
X20917Y32599I30*
G01X20916*
G03X20896Y32600I20J349*
G01X20250*
G03X19900Y32250J350*
G01Y30500*
G03X20250Y30150I350*
G01X21237*
G02X21267Y30120J30*
X21258Y30099I30*
G01X19318Y28159*
G02X19297Y28150I21J21*
G01X17063*
G02X17033Y28180J30*
G01Y28197*
G03X16933Y28297I100*
G01X16618*
G03X16527Y28239J100*
G02X16500Y28221I27J12*
X16473Y28239J30*
G03X16382Y28297I91J42*
G01X16067*
G03X15967Y28197J100*
G01Y27928*
G02X15958Y27906I30*
G01X15596Y27545*
G02X15575Y27536I21J21*
G01X15081*
G02X15051Y27566J30*
G01Y28457*
G03X14951Y28557I100*
G01X14600*
G03X14500Y28457J100*
G01Y27496*
G03X14598Y27396I100*
G02X14627Y27369I1J30*
G03X14776Y27236I149J17*
G01X15650*
G03X15756Y27280J150*
G01X16170Y27694*
G02X16191Y27703I21J21*
G01X16234*
G02X16264Y27673J30*
X16255Y27652I30*
G01X16118Y27516*
G03X16074Y27409I106J107*
G01Y27325*
G02X16050Y27295I30*
G03X15967Y27197I17J98*
G01Y26803*
G03X16067Y26703I100*
G01X16382*
G03X16473Y26761J100*
G02X16500Y26779I27J12*
X16527Y26761J30*
G03X16601Y26705I91J42*
G02X16626Y26675I5J30*
G01Y26325*
G02X16601Y26295I30*
G03X16527Y26239I17J98*
G02X16500Y26221I27J12*
X16473Y26239J30*
G03X16382Y26297I91J42*
G01X16191*
G02X16170Y26306J30*
G01X15756Y26720*
G03X15650Y26764I106J106*
G01X14774*
G03X14633Y26666J150*
G02X14605Y26646I28J10*
X14576Y26668J30*
G03X14000Y27100I576J168*
G01X7000*
G03X6400Y26500J600*
G01Y22750*
G03X6894Y22160I600*
G02X6918Y22130I6J30*
X6888Y22100I30*
G01X6500*
G03X5900Y21500J600*
G01Y14250*
G03X6425Y13655I600*
G02X6451Y13625I4J30*
X6425Y13595I30*
G03X5900Y13000I75J595*
G01Y7500*
G03X6500Y6900I600*
G01X6908*
Y5878*
G03X7008Y5778I100*
G01X7992*
G03X8092Y5878J100*
G01Y6547*
G03X7992Y6647I100*
G01X7008*
G03X6908Y6547J100*
G01Y6900*
X8908*
Y5878*
G03X9008Y5778I100*
G01X9992*
G03X10092Y5878J100*
G01Y6547*
G03X9992Y6647I100*
G01X9008*
G03X8908Y6547J100*
G01Y6900*
X10916*
Y5543*
G03X11016Y5443I100*
G01X12984*
G03X13084Y5543J100*
G01Y6094*
G03X12984Y6194I100*
G01X11016*
G03X10916Y6094J100*
G01Y6900*
X13916*
Y5543*
G03X14016Y5443I100*
G01X14900*
Y1500*
G03X16000Y400I1100*
X17100Y1500J1100*
X16000Y2600I1100*
X14900Y1500J1100*
G01Y5443*
X15984*
G03X16084Y5543J100*
G01Y6094*
G03X15984Y6194I100*
G01X14016*
G03X13916Y6094J100*
G01Y6900*
X16916*
Y5543*
G03X17016Y5443I100*
G01X18984*
G03X19084Y5543J100*
G01Y6094*
G03X18984Y6194I100*
G01X17016*
G03X16916Y6094J100*
G01Y6900*
X19916*
Y5543*
G03X20016Y5443I100*
G01X21900*
Y1500*
G03X23000Y400I1100*
X24100Y1500J1100*
X23000Y2600I1100*
X21900Y1500J1100*
G01Y5443*
X21984*
G03X22084Y5543J100*
G01Y6094*
G03X21984Y6194I100*
G01X20016*
G03X19916Y6094J100*
G01Y6900*
X22916*
Y5543*
G03X23016Y5443I100*
G01X24984*
G03X25084Y5543J100*
G01Y6094*
G03X24984Y6194I100*
G01X23016*
G03X22916Y6094J100*
G01Y6900*
X25916*
Y5543*
G03X26016Y5443I100*
G01X27984*
G03X28084Y5543J100*
G01Y6094*
G03X27984Y6194I100*
G01X26016*
G03X25916Y6094J100*
G01Y6900*
X28900*
Y1500*
G03X30000Y400I1100*
X31100Y1500J1100*
X30000Y2600I1100*
X28900Y1500J1100*
G01Y6900*
X28916*
Y5543*
G03X29016Y5443I100*
G01X30984*
G03X31084Y5543J100*
G01Y6094*
G03X30984Y6194I100*
G01X29016*
G03X28916Y6094J100*
G01Y6900*
X31916*
Y5543*
G03X32016Y5443I100*
G01X33984*
G03X34084Y5543J100*
G01Y6094*
G03X33984Y6194I100*
G01X32016*
G03X31916Y6094J100*
G01Y6900*
X34916*
Y5543*
G03X35016Y5443I100*
G01X36984*
G03X37084Y5543J100*
G01Y6094*
G03X36984Y6194I100*
G01X35016*
G03X34916Y6094J100*
G01Y6900*
X37916*
Y5543*
G03X38016Y5443I100*
G01X39984*
G03X40084Y5543J100*
G01Y6094*
G03X39984Y6194I100*
G01X38016*
G03X37916Y6094J100*
G01Y6900*
X40916*
Y5543*
G03X41016Y5443I100*
G01X42984*
G03X43084Y5543J100*
G01Y6094*
G03X42984Y6194I100*
G01X41016*
G03X40916Y6094J100*
G01Y6900*
X44250*
G03X44850Y7500J600*
G01Y17000*
G03X44826Y17167I600*
G02X44825Y17175I29J8*
G01Y18542*
G03X44781Y18648I150*
G01X44402Y19027*
G03X44296Y19071I106J106*
G01X44276*
G02X44246Y19101J30*
G01Y19315*
G03X44146Y19415I100*
G01X42650*
G03X42550Y19315J100*
G01Y19101*
G02X42520Y19071I30*
G01X42193*
G02X42172Y19080J30*
G03X42067Y19122I105J108*
G01X41665*
G02X41635Y19152J30*
G01Y19169*
G03X41535Y19269I100*
G01X41220*
G03X41130Y19211J100*
G02X41102Y19194I28J13*
X41075Y19211J30*
G03X40984Y19269I91J42*
G01X40669*
G03X40569Y19169J100*
G01Y18776*
G03X40669Y18676I100*
G01X40984*
G03X41075Y18734J100*
G02X41102Y18751I27J13*
X41130Y18734J30*
G03X41203Y18677I90J42*
G02X41228Y18648I5J29*
G01Y18626*
G03X41272Y18520I150*
G01X41318Y18474*
G02X41326Y18453I22J21*
G01Y18192*
G02X41315Y18168I30*
G03X41278Y18091I63J77*
G01Y17854*
G03X41378Y17754I100*
G01X41575*
G03X41675Y17854J100*
G01Y18091*
G03X41638Y18168I100*
G02X41626Y18192I18J24*
G01Y18527*
G03X41582Y18633I150*
G01X41576Y18640*
G02X41567Y18661I21J21*
X41583Y18688I30*
G03X41635Y18776I48J88*
G01Y18792*
G02X41665Y18822I30*
G01X41992*
G02X42013Y18814J30*
G03X42118Y18771I105J107*
G01X42520*
G02X42550Y18741J30*
G01Y18528*
G03X42650Y18428I100*
G01X44146*
G03X44246Y18528J100*
G01Y18687*
G02X44276Y18717I30*
X44297Y18708J30*
G01X44516Y18488*
G02X44525Y18467I21J21*
G01Y17580*
G02X44495Y17550I30*
X44483Y17553J30*
G03X44250Y17600I233J553*
G01X40750*
G03X40160Y17106J600*
G02X40130Y17082I30J6*
X40100Y17112J30*
G01Y21500*
G03X39500Y22100I600*
G01X36862*
G02X36832Y22130J30*
X36856Y22160I30*
G03X37350Y22750I106J590*
G01Y26250*
G03X36750Y26850I600*
G01X30250*
G03X29846Y26693J600*
G02X29826Y26686I20J23*
X29796Y26716J30*
G01Y26902*
G03X29752Y27008I150*
G01X29425Y27335*
G02X29416Y27356I21J21*
X29425Y27378I30*
G01X29435Y27388*
G02X29457Y27397I22J21*
X29460J30*
G03X29472Y27396I12J99*
G01X29823*
G03X29923Y27496J100*
G01Y28457*
G03X29827Y28557I100*
G02X29798Y28587I1J30*
G01Y28895*
G03X29754Y29001I150*
G01X29603Y29152*
G02X29594Y29173I21J21*
X29624Y29203I30*
G01X29882*
G03X29973Y29261J100*
G02X30000Y29279I27J12*
X30027Y29261J30*
G03X30073Y29214I91J42*
G01Y27496*
G03X30173Y27396I100*
G01X32378*
G03X32478Y27496J100*
G01Y28457*
G03X32378Y28557I100*
G01X30173*
G03X30073Y28457J100*
G01Y29214*
G03X30118Y29203I45J89*
G01X30433*
G03X30533Y29303J100*
G01Y29697*
G03X30433Y29797I100*
G01X30118*
G03X30027Y29739J100*
G02X30000Y29721I27J12*
X29973Y29739J30*
G03X29882Y29797I91J42*
G01X29691*
G02X29670Y29806J30*
G01X29462Y30014*
G02X29453Y30035I21J21*
X29483Y30065I30*
G01X29886*
G03X29986Y30165J100*
G01Y30835*
G03X29886Y30935I100*
G01X29374*
G03X29274Y30835J100*
G01Y30165*
G03X29283Y30124I100*
G02X29286Y30111I27J13*
X29256Y30081I30*
G01X28880*
G02X28850Y30111J30*
G01Y31750*
G03X28750Y31850I100*
G01X28748*
G02X28720Y31870J30*
G03X28626Y31935I94J35*
G01X28114*
G03X28020Y31870J100*
G02X27992Y31850I28J10*
G01X26814*
G02X26784Y31880J30*
X26793Y31901I30*
G01X27233Y32341*
G02X27254Y32350I21J21*
G01X27740*
G02X27770Y32320J30*
G01Y32264*
G03X27870Y32164I100*
G01X28343*
G03X28443Y32264J100*
G01Y32370*
G02X28473Y32400I30*
G01X28527*
G02X28557Y32370J30*
G01Y32264*
G03X28657Y32164I100*
G01X29130*
G03X29230Y32264J100*
G01Y32370*
G02X29260Y32400I30*
G01X29274*
Y31165*
G03X29374Y31065I100*
G01X29886*
G03X29986Y31165J100*
G01Y31835*
G03X29886Y31935I100*
G01X29374*
G03X29274Y31835J100*
G01Y32400*
X30000*
G02X30150Y32250J150*
G01Y31000*
G03X30500Y30650I350*
G01X31500*
G03X31850Y31000J350*
G01Y34750*
G03X31500Y35100I350*
G01X30500*
G03X30150Y34750J350*
G01Y34604*
G02X30106Y34497I150*
G01X28753Y33144*
G02X28740Y33133I107J106*
X28722Y33126I18J23*
G01X28236*
G03X28158Y33104J150*
G02X28143Y33100I15J26*
G01X27354*
G03X27106Y32997J350*
G01X25483Y31374*
G03X25429Y31304I247J247*
G02X25403Y31289I26J15*
X25393Y31291J30*
G01X25391*
G02X25371Y31320I10J29*
G01Y32730*
G03X25271Y32830I100*
G01X22731*
G03X22716Y32829J100*
G02X22711Y32828I5J29*
X22691Y32837J30*
G01X22669Y32857*
G02X22660Y32879I21J22*
X22662Y32890I30*
G03X22674Y32949I138J59*
G01Y32982*
G02X22704Y33012I30*
G01X22770*
G03X22808Y33020J100*
G02X22819Y33022I11J28*
X22830Y33020J30*
G03X22868Y33012I38J92*
G01X22967*
G03X23004Y33020J100*
G02X23016Y33022I12J28*
X23027Y33020J30*
G03X23065Y33012I38J92*
G01X23163*
G03X23201Y33020J100*
G02X23213Y33022I12J28*
X23224Y33020J30*
G03X23262Y33012I38J92*
G01X23360*
G03X23398Y33020J100*
G02X23409Y33022I11J28*
X23421Y33020J30*
G03X23459Y33012I38J92*
G01X23557*
G03X23595Y33020J100*
G02X23606Y33022I11J28*
X23618Y33020J30*
G03X23656Y33012I38J92*
G01X23754*
G03X23792Y33020J100*
G02X23803Y33022I11J28*
X23815Y33020J30*
G03X23852Y33012I37J92*
G01X23951*
G03X23989Y33020J100*
G02X24000Y33022I11J28*
X24011Y33020J30*
G03X24049Y33012I38J92*
G01X24148*
G03X24185Y33020J100*
G02X24197Y33022I12J28*
X24208Y33020J30*
G03X24246Y33012I38J92*
G01X24344*
G03X24382Y33020J100*
G02X24394Y33022I12J28*
X24405Y33020J30*
G03X24443Y33012I38J92*
G01X24541*
G03X24579Y33020J100*
G02X24591Y33022I12J28*
X24602Y33020J30*
G03X24640Y33012I38J92*
G01X24738*
G03X24776Y33020J100*
G02X24787Y33022I11J28*
X24799Y33020J30*
G03X24837Y33012I38J92*
G01X24935*
G03X24973Y33020J100*
G02X24984Y33022I11J28*
X24996Y33020J30*
G03X25033Y33012I37J92*
G01X25132*
G03X25170Y33020J100*
G02X25181Y33022I11J28*
X25192Y33020J30*
G03X25230Y33012I38J92*
G01X25329*
G03X25367Y33020J100*
G02X25378Y33022I11J28*
X25389Y33020J30*
G03X25427Y33012I38J92*
G01X25493*
G02X25523Y32982J30*
G01Y32971*
G03X25567Y32865I150*
G01X25726Y32706*
G02X25734Y32693I21J21*
G01X25755Y32614*
G03X25973Y32447I218J58*
X26198Y32672J225*
X26031Y32889I225*
G01X25952Y32910*
G02X25938Y32918I8J29*
G01X25896Y32961*
G02X25887Y32982I21J21*
X25917Y33012I30*
G01X25919*
G03X25957Y33020J100*
G02X25969Y33022I12J28*
X25980Y33020J30*
G03X26018Y33012I38J92*
G01X26116*
G03X26154Y33020J100*
G02X26165Y33022I11J28*
X26177Y33020J30*
G03X26215Y33012I38J92*
G01X26313*
G03X26351Y33020J100*
G02X26362Y33022I11J28*
X26374Y33020J30*
G03X26411Y33012I37J92*
G01X26510*
G03X26548Y33020J100*
G02X26559Y33022I11J28*
X26570Y33020J30*
G03X26608Y33012I38J92*
G01X26707*
G03X26807Y33112J100*
G01Y33237*
G02X26837Y33267I30*
G01X27952*
G03X28058Y33311J150*
G01X28830Y34083*
G03X28874Y34177I106J106*
G02X28899Y34205I30J2*
G03X28973Y34261I17J98*
G02X29000Y34279I27J12*
X29027Y34261J30*
G03X29118Y34203I91J42*
G01X29433*
G03X29533Y34303J100*
G01Y34697*
G03X29433Y34797I100*
G01X29118*
G03X29027Y34739J100*
G02X29000Y34721I27J12*
X28973Y34739J30*
G03X28882Y34797I91J42*
G01X28567*
G03X28467Y34697J100*
G01Y34303*
G03X28503Y34226I100*
G02X28514Y34203I19J23*
X28505Y34182I30*
G01X27899Y33576*
G02X27878Y33567I21J21*
G01X26837*
G02X26807Y33597J30*
G01Y33722*
G03X26727Y33820I100*
G02X26703Y33850I6J30*
X26711Y33871I30*
G01X26907Y34067*
G02X26928Y34075I21J22*
G01X26989*
G03X27095Y34119J150*
G01X27170Y34194*
G02X27191Y34203I21J21*
G01X27382*
G03X27473Y34261J100*
G02X27500Y34279I27J12*
X27527Y34261J30*
G03X27618Y34203I91J42*
G01X27933*
G03X28033Y34303J100*
G01Y34697*
G03X27933Y34797I100*
G01X27618*
G03X27527Y34739J100*
G02X27500Y34721I27J12*
X27473Y34739J30*
G03X27399Y34795I91J42*
G02X27374Y34825I5J30*
G01Y35175*
G02X27399Y35205I30*
G03X27473Y35261I17J98*
G02X27500Y35279I27J12*
X27527Y35261J30*
G03X27618Y35203I91J42*
G01X27933*
G03X28033Y35303J100*
G01Y35320*
G02X28063Y35350I30*
G01X28437*
G02X28467Y35320J30*
G01Y35303*
G03X28567Y35203I100*
G01X28882*
G03X28973Y35261J100*
G02X29000Y35279I27J12*
X29027Y35261J30*
G03X29118Y35203I91J42*
G01X29433*
G03X29533Y35303J100*
G01Y35697*
G03X29433Y35797I100*
G01X29118*
G03X29027Y35739J100*
G02X29000Y35721I27J12*
X28973Y35739J30*
G03X28882Y35797I91J42*
G01X28567*
G03X28467Y35697J100*
G01Y35680*
G02X28437Y35650I30*
G01X28063*
G02X28033Y35680J30*
G01Y35697*
G03X27933Y35797I100*
G01X27618*
G03X27527Y35739J100*
G02X27500Y35721I27J12*
X27473Y35739J30*
G03X27382Y35797I91J42*
G01X27067*
G03X26967Y35697J100*
G01Y35303*
G03X27050Y35205I100*
G02X27074Y35175I6J30*
G01Y34825*
G02X27050Y34795I30*
G03X26967Y34697I17J98*
G01Y34428*
G02X26958Y34406I30*
G01X26936Y34384*
G02X26915Y34375I21J21*
G01X26857*
G02X26827Y34405J30*
X26831Y34420I30*
G03X26858Y34527I198J107*
X26633Y34752I225*
X26554Y34737J225*
G02X26544Y34735I10J28*
X26518Y34750J30*
G03X26433Y34797I85J53*
G01X26118*
G03X26027Y34739J100*
G02X26000Y34721I27J12*
X25973Y34739J30*
G03X25882Y34797I91J42*
G01X25567*
G03X25467Y34697J100*
G01Y34428*
G02X25458Y34406I30*
G01X25370Y34319*
G03X25327Y34220I106J106*
G02X25297Y34191I30J1*
X25283Y34195J30*
G03X25187Y34218I100J202*
G02X25158Y34248I1J30*
G03X24961Y34467I225J5*
G02X24935Y34496I4J29*
X24943Y34518I30*
G01X25347Y34922*
G02X25369Y34930I22J22*
G01X25895*
G03X26001Y34974J150*
G01X26221Y35194*
G02X26243Y35203I22J21*
G01X26433*
G03X26533Y35303J100*
G01Y35697*
G03X26450Y35795I100*
G02X26426Y35825I6J30*
G01Y35909*
G03X26382Y36016I150*
G01X26245Y36152*
G02X26236Y36173I21J21*
X26266Y36203I30*
G01X26433*
G03X26533Y36303J100*
G01Y36697*
G03X26433Y36797I100*
G01X26118*
G03X26027Y36739J100*
G02X26000Y36721I27J12*
X25973Y36739J30*
G03X25882Y36797I91J42*
G01X25567*
G03X25473Y36730J100*
G02X25444Y36710I29J10*
X25417Y36729J30*
G03X25208Y36870I209J84*
X25095Y36840J225*
G01X25024Y36799*
G02X25009Y36795I15J26*
G01X21350*
G03X21244Y36751J150*
G01X16409Y31917*
G02X16388Y31908I21J21*
G01X7712*
G02X7697Y31912J30*
G01X7618Y31957*
G03X7504Y31988I114J199*
X7274Y31758J230*
X7504Y31528I230*
X7618Y31558J230*
G01X7697Y31604*
G02X7712Y31608I15J26*
G01X16459*
G02X16489Y31578J30*
X16481Y31557I30*
G01X15413Y30489*
G02X15392Y30480I21J21*
G01X6806*
G02X6776Y30510J30*
X6778Y30520I30*
G03X6783Y30553I95J33*
G01Y30947*
G03X6700Y31045I100*
G02X6676Y31075I6J30*
G01Y31425*
G02X6700Y31455I30*
G03X6783Y31553I17J98*
G01Y31947*
G03X6700Y32045I100*
G02X6676Y32075I6J30*
G01Y32425*
G02X6700Y32455I30*
G03X6783Y32553I17J98*
G01Y32947*
G03X6700Y33045I100*
G02X6676Y33075I6J30*
G01Y33425*
G02X6700Y33455I30*
G03X6783Y33553I17J98*
G01Y33947*
G03X6700Y34045I100*
G02X6676Y34075I6J30*
G01Y34105*
G02X6680Y34120I30*
G01X6725Y34199*
G03X6756Y34314I199J115*
X6526Y34544I230*
X6296Y34314J230*
X6327Y34198I230*
G01X6372Y34120*
G02X6376Y34105I26J15*
G01Y34075*
G02X6351Y34045I30*
G03X6277Y33989I17J98*
G02X6250Y33971I27J12*
X6223Y33989J30*
G03X6132Y34047I91J42*
G01X5817*
G03X5717Y33947J100*
G01Y33930*
G02X5687Y33900I30*
G01X5677*
G02X5670Y33901J30*
G03X5632Y33906I38J145*
G01X5520*
G02X5505Y33910J30*
G01X5427Y33955*
G03X5312Y33986I115J199*
X5197Y33955J230*
G01X5119Y33910*
G02X5104Y33906I15J26*
G01X4989*
G03X4950Y33901J150*
G02X4943Y33900I7J29*
G01X4929*
G02X4899Y33930J30*
G01Y34049*
G03X4799Y34149I100*
G01X3949*
G03X3849Y34049J100*
G01Y39750*
X4601*
Y38469*
G03X4701Y38369I100*
G01X5272*
G03X5372Y38469J100*
G01Y38862*
G03X5272Y38962I100*
G01X4701*
G03X4601Y38862J100*
G01Y39138*
G03X4701Y39038I100*
G01X5272*
G03X5372Y39138J100*
G01Y39155*
G02X5402Y39185I30*
G01X6600*
G02X6630Y39155J30*
G01Y38469*
G03X6730Y38369I100*
G01X7301*
G03X7401Y38469J100*
G01Y38862*
G03X7301Y38962I100*
G01X6730*
G03X6630Y38862J100*
G01Y39138*
G03X6730Y39038I100*
G01X7301*
G03X7401Y39138J100*
G01Y39155*
G02X7431Y39185I30*
G01X7509*
G02X7530Y39176J30*
G01X7563Y39143*
G03X7669Y39099I106J106*
G01X7704*
G02X7719Y39095J30*
G01X8052Y38902*
G03X8252Y38849I200J347*
X8652Y39249J400*
X8252Y39649I400*
X8052Y39595J400*
G01X7744Y39418*
G02X7729Y39414I15J26*
X7708Y39422J30*
G01X7690Y39441*
G03X7584Y39485I106J106*
G01X7431*
G02X7401Y39515J30*
G01Y39531*
G03X7301Y39631I100*
G01X6730*
G03X6630Y39531J100*
G01Y39515*
G02X6600Y39485I30*
G01X5402*
G02X5372Y39515J30*
G01Y39531*
G03X5272Y39631I100*
G01X4701*
G03X4601Y39531J100*
G01Y39750*
X9601*
Y38469*
G03X9701Y38369I100*
G01X10272*
G03X10372Y38469J100*
G01Y38862*
G03X10272Y38962I100*
G01X9701*
G03X9601Y38862J100*
G01Y39138*
G03X9701Y39038I100*
G01X10272*
G03X10372Y39138J100*
G01Y39155*
G02X10402Y39185I30*
G01X11600*
G02X11630Y39155J30*
G01Y38469*
G03X11730Y38369I100*
G01X12301*
G03X12401Y38469J100*
G01Y38862*
G03X12301Y38962I100*
G01X11730*
G03X11630Y38862J100*
G01Y39138*
G03X11730Y39038I100*
G01X12301*
G03X12401Y39138J100*
G01Y39155*
G02X12431Y39185I30*
G01X12509*
G02X12530Y39176J30*
G01X12563Y39143*
G03X12669Y39099I106J106*
G01X12704*
G02X12719Y39095J30*
G01X12952Y38960*
G02X12963Y38949I15J26*
G01X13098Y38716*
G02X13102Y38701I26J15*
G01Y37748*
G03X13146Y37642I150*
G01X13205Y37583*
G02X13212Y37569I22J21*
G01X13236Y37482*
G03X13458Y37312I222J60*
X13688Y37542J230*
X13518Y37764I230*
G01X13430Y37787*
G02X13417Y37795I8J29*
G01X13411Y37801*
G02X13402Y37822I21J21*
G01Y38701*
G02X13406Y38716I30*
G01X13598Y39049*
G03X13652Y39249I346J200*
X13252Y39649I400*
X13052Y39595J400*
G01X12744Y39418*
G02X12729Y39414I15J26*
X12708Y39422J30*
G01X12690Y39441*
G03X12584Y39485I106J106*
G01X12431*
G02X12401Y39515J30*
G01Y39531*
G03X12301Y39631I100*
G01X11730*
G03X11630Y39531J100*
G01Y39515*
G02X11600Y39485I30*
G01X10402*
G02X10372Y39515J30*
G01Y39531*
G03X10272Y39631I100*
G01X9701*
G03X9601Y39531J100*
G01Y39750*
X15100*
Y39000*
G03X15500Y38600I400*
X15900Y39000J400*
X15500Y39400I400*
X15100Y39000J400*
G01Y39750*
X16100*
Y39000*
G03X16500Y38600I400*
X16900Y39000J400*
X16500Y39400I400*
X16100Y39000J400*
G01Y39750*
X17100*
Y39000*
G03X17500Y38600I400*
X17900Y39000J400*
X17500Y39400I400*
X17100Y39000J400*
G01Y39750*
X18100*
Y39000*
G03X18500Y38600I400*
X18900Y39000J400*
X18500Y39400I400*
X18100Y39000J400*
G01Y39750*
X19100*
Y39000*
G03X19500Y38600I400*
X19900Y39000J400*
X19500Y39400I400*
X19100Y39000J400*
G01Y39750*
X20100*
Y39000*
G03X20500Y38600I400*
X20900Y39000J400*
X20500Y39400I400*
X20100Y39000J400*
G01Y39750*
X21600*
Y39000*
G03X22000Y38600I400*
X22285Y38719J400*
G01Y37480*
G03X22510Y37255I225*
X22624Y37286J225*
G01X22625*
X22658Y37306*
G02X22673Y37310I15J26*
X22703Y37280J30*
G01Y37067*
G03X22803Y36967I100*
G01X23197*
G03X23297Y37067J100*
G01Y37326*
G02X23327Y37356I30*
X23351Y37344J30*
G03X23530Y37255I179J136*
X23656Y37294J225*
G02X23673Y37299I17J25*
X23703Y37269J30*
G01Y37067*
G03X23803Y36967I100*
G01X24197*
G03X24297Y37067J100*
G01Y37244*
G02X24327Y37274I30*
X24338Y37272J30*
G03X24424Y37255I86J208*
X24536Y37285J225*
G01X24607Y37326*
G02X24622Y37330I15J26*
G01X24665*
G03X24672J150*
G01X24673*
G02X24703Y37300J30*
G01Y37067*
G03X24803Y36967I100*
G01X25197*
G03X25297Y37067J100*
G01Y37382*
G03X25239Y37473I100*
G02X25221Y37500I12J27*
X25239Y37527I30*
G03X25297Y37618I42J91*
G01Y37933*
G03X25197Y38033I100*
G01X25180*
G02X25150Y38063J30*
G01Y38452*
G02X25154Y38467I30*
G01X25346Y38800*
G03X25400Y39000I346J200*
X25000Y39400I400*
X24600Y39000J400*
X24654Y38800I400*
G01X24846Y38467*
G02X24850Y38452I26J15*
G01Y38063*
G02X24820Y38033I30*
G01X24803*
G03X24703Y37933J100*
G01Y37743*
G02X24694Y37721I30*
G01X24623Y37650*
G02X24602Y37642I21J22*
X24587Y37646J30*
G01X24536Y37675*
G03X24424Y37705I112J195*
X24338Y37688J225*
G02X24327Y37686I11J28*
X24297Y37716J30*
G01Y37933*
G03X24197Y38033I100*
G01X24180*
G02X24150Y38063J30*
G01Y38452*
G02X24154Y38467I30*
G01X24346Y38800*
G03X24400Y39000I346J200*
X24000Y39400I400*
X23600Y39000J400*
X23654Y38800I400*
G01X23846Y38467*
G02X23850Y38452I26J15*
G01Y38063*
G02X23820Y38033I30*
G01X23803*
G03X23703Y37933J100*
G01Y37743*
G02X23694Y37721I30*
G01X23662Y37689*
G02X23640Y37680I22J21*
X23627Y37683J30*
G03X23530Y37705I97J203*
X23360Y37627J225*
G02X23338Y37617I22J20*
X23326Y37619J30*
G01X23315Y37624*
G02X23297Y37652I12J28*
G01Y37933*
G03X23197Y38033I100*
G01X23180*
G02X23150Y38063J30*
G01Y38452*
G02X23154Y38467I30*
G01X23346Y38800*
G03X23400Y39000I346J200*
X23000Y39400I400*
X22600Y39000J400*
X22654Y38800I400*
G01X22846Y38467*
G02X22850Y38452I26J15*
G01Y38063*
G02X22820Y38033I30*
G01X22803*
G03X22703Y37933J100*
G01Y37743*
G02X22694Y37721I30*
G01X22655Y37682*
G02X22634Y37673I21J21*
X22619Y37677J30*
G03X22510Y37705I109J197*
X22285Y37480J225*
G01Y38719*
G03X22400Y39000I285J281*
X22000Y39400I400*
X21600Y39000J400*
G01Y39750*
X25600*
Y39000*
G03X26000Y38600I400*
X26400Y39000J400*
X26000Y39400I400*
X25600Y39000J400*
G01Y39750*
X27100*
Y39000*
G03X27500Y38600I400*
X27900Y39000J400*
X27500Y39400I400*
X27100Y39000J400*
G01Y39750*
X28100*
Y39000*
G03X28148Y38810I400*
G01X28328Y38475*
G02X28332Y38461I26J14*
G01Y37782*
G03X28376Y37676I150*
G01X28458Y37594*
G02X28467Y37572I21J22*
G01Y37303*
G03X28567Y37203I100*
G01X28882*
G03X28973Y37261J100*
G02X29000Y37279I27J12*
X29027Y37261J30*
G03X29101Y37205I91J42*
G02X29126Y37175I5J30*
G01Y36825*
G02X29101Y36795I30*
G03X29027Y36739I17J98*
G02X29000Y36721I27J12*
X28973Y36739J30*
G03X28882Y36797I91J42*
G01X28567*
G03X28467Y36697J100*
G01Y36303*
G03X28567Y36203I100*
G01X28882*
G03X28973Y36261J100*
G02X29000Y36279I27J12*
X29027Y36261J30*
G03X29118Y36203I91J42*
G01X29433*
G03X29533Y36303J100*
G01Y36697*
G03X29450Y36795I100*
G02X29426Y36825I6J30*
G01Y37175*
G02X29450Y37205I30*
G03X29533Y37303I17J98*
G01Y37320*
G02X29563Y37350I30*
G01X29594*
G02X29611Y37345J30*
G01X29677Y37299*
G03X29808Y37258I131J189*
X30038Y37488J230*
X29808Y37718I230*
X29708Y37696J230*
G01X29618Y37653*
G02X29605Y37650I13J27*
G01X29563*
G02X29533Y37680J30*
G01Y37697*
G03X29433Y37797I100*
G01X29118*
G03X29027Y37739J100*
G02X29000Y37721I27J12*
X28973Y37739J30*
G03X28882Y37797I91J42*
G01X28691*
G02X28670Y37806J30*
G01X28641Y37835*
G02X28632Y37856I21J21*
G01Y38456*
G02X28637Y38472I30*
G01X28837Y38784*
G03X28900Y39000I337J216*
X28500Y39400I400*
X28100Y39000J400*
G01Y39750*
X29100*
Y39000*
G03X29500Y38600I400*
X29900Y39000J400*
X29500Y39400I400*
X29100Y39000J400*
G01Y39750*
X30600*
Y39000*
G03X30654Y38800I400*
G01X30846Y38467*
G02X30850Y38452I26J15*
G01Y38063*
G02X30820Y38033I30*
G01X30803*
G03X30703Y37933J100*
G01Y37618*
G03X30761Y37527I100*
G02X30779Y37500I12J27*
X30761Y37473I30*
G03X30703Y37382I42J91*
G01Y37067*
G03X30803Y36967I100*
G01X30820*
G02X30850Y36937J30*
G01Y36563*
G02X30820Y36533I30*
G01X30803*
G03X30703Y36433J100*
G01Y36118*
G03X30761Y36027I100*
G02X30779Y36000I12J27*
X30761Y35973I30*
G03X30703Y35882I42J91*
G01Y35567*
G03X30803Y35467I100*
G01X31197*
G03X31297Y35567J100*
G01Y35882*
G03X31239Y35973I100*
G02X31221Y36000I12J27*
X31239Y36027I30*
G03X31286Y36073I42J91*
G02X31313Y36089I27J14*
X31329Y36084J30*
G03X31454Y36047I125J193*
X31619Y36117J230*
G02X31641Y36126I22J21*
G01X31675*
G02X31705Y36101J30*
G03X31761Y36027I98J17*
G02X31779Y36000I12J27*
X31761Y35973I30*
G03X31703Y35882I42J91*
G01Y35567*
G03X31803Y35467I100*
G01X32150*
Y31000*
G03X32500Y30650I350*
G01X32588*
Y28370*
G03X32818Y28140I230*
X32933Y28171J230*
G01X33011Y28216*
G02X33026Y28220I15J26*
G01X33035*
G02X33065Y28190J30*
G01Y28114*
G03X33165Y28014I100*
G01X33835*
G03X33935Y28114J100*
G01Y28501*
G02X33943Y28523I30*
G01X33973Y28552*
G02X33994Y28561I21J21*
G01X34092*
G02X34113Y28552J30*
G01X34177Y28488*
G03X34283Y28444I106J106*
G01X34520*
G02X34550Y28414J30*
G01Y28299*
G03X34650Y28199I100*
G01X35634*
G03X35734Y28299J100*
G01Y28890*
G03X35634Y28990I100*
G01X34650*
G03X34550Y28890J100*
G01Y28774*
G02X34520Y28744I30*
G01X34357*
G02X34336Y28753J30*
G01X34272Y28817*
G03X34166Y28861I106J106*
G01X33919*
G03X33813Y28817J150*
G01X33731Y28735*
G02X33710Y28726I21J21*
G01X33165*
G03X33065Y28626J100*
G01Y28550*
G02X33035Y28520I30*
G01X33026*
G02X33011Y28524J30*
G01X32933Y28569*
G03X32818Y28600I115J199*
X32588Y28370J230*
G01Y30650*
X33065*
Y29374*
G03X33165Y29274I100*
G01X33835*
G03X33935Y29374J100*
G01Y29886*
G03X33835Y29986I100*
G01X33165*
G03X33065Y29886J100*
G01Y30650*
X34000*
G02X34150Y30500J150*
G01Y30250*
G03X34500Y29900I350*
G01X35750*
G03X36100Y30250J350*
G01Y34000*
G03X35750Y34350I350*
G01X34854*
G02X34747Y34394J150*
G01X34144Y34997*
G03X33896Y35100I248J247*
G01X32500*
G03X32150Y34750J350*
G01Y35467*
X32197*
G03X32297Y35567J100*
G01Y35882*
G03X32239Y35973I100*
G02X32221Y36000I12J27*
X32239Y36027I30*
G03X32297Y36118I42J91*
G01Y36433*
G03X32197Y36533I100*
G01X32180*
G02X32150Y36563J30*
G01Y36937*
G02X32180Y36967I30*
G01X32197*
G03X32297Y37067J100*
G01Y37382*
G03X32239Y37473I100*
G02X32221Y37500I12J27*
X32239Y37527I30*
G03X32297Y37618I42J91*
G01Y37933*
G03X32197Y38033I100*
G01X32180*
G02X32150Y38063J30*
G01Y38452*
G02X32154Y38467I30*
G01X32346Y38800*
G03X32400Y39000I346J200*
X32000Y39400I400*
X31600Y39000J400*
X31654Y38800I400*
G01X31846Y38467*
G02X31850Y38452I26J15*
G01Y38063*
G02X31820Y38033I30*
G01X31803*
G03X31703Y37933J100*
G01Y37618*
G03X31761Y37527I100*
G02X31779Y37500I12J27*
X31761Y37473I30*
G03X31703Y37382I42J91*
G01Y37067*
G03X31803Y36967I100*
G01X31820*
G02X31850Y36937J30*
G01Y36563*
G02X31820Y36533I30*
G01X31803*
G03X31705Y36450J100*
G02X31675Y36426I30J6*
G01X31644*
G02X31622Y36435J30*
G03X31454Y36507I168J158*
X31328Y36469J230*
G02X31311Y36464I17J25*
X31285Y36480J30*
G03X31197Y36533I88J47*
G01X31180*
G02X31150Y36563J30*
G01Y36937*
G02X31180Y36967I30*
G01X31197*
G03X31297Y37067J100*
G01Y37382*
G03X31239Y37473I100*
G02X31221Y37500I12J27*
X31239Y37527I30*
G03X31297Y37618I42J91*
G01Y37933*
G03X31197Y38033I100*
G01X31180*
G02X31150Y38063J30*
G01Y38452*
G02X31154Y38467I30*
G01X31346Y38800*
G03X31400Y39000I346J200*
X31000Y39400I400*
X30600Y39000J400*
G01Y39750*
X32600*
Y39000*
G03X33000Y38600I400*
X33400Y39000J400*
X33000Y39400I400*
X32600Y39000J400*
G01Y39750*
X34100*
Y39000*
G03X34154Y38800I400*
G01X34346Y38467*
G02X34350Y38452I26J15*
G01Y38063*
G02X34320Y38033I30*
G01X34303*
G03X34203Y37933J100*
G01Y37618*
G03X34261Y37527I100*
G02X34279Y37500I12J27*
X34261Y37473I30*
G03X34203Y37382I42J91*
G01Y37067*
G03X34303Y36967I100*
G01X34320*
G02X34350Y36937J30*
G01Y36563*
G02X34320Y36533I30*
G01X34303*
G03X34203Y36433J100*
G01Y36118*
G03X34261Y36027I100*
G02X34279Y36000I12J27*
X34261Y35973I30*
G03X34203Y35882I42J91*
G01Y35567*
G03X34303Y35467I100*
G01X34697*
G03X34797Y35567J100*
G01Y35882*
G03X34739Y35973I100*
G02X34721Y36000I12J27*
X34739Y36027I30*
G03X34795Y36101I42J91*
G02X34825Y36126I30J5*
G01X35175*
G02X35205Y36101J30*
G03X35261Y36027I98J17*
G02X35279Y36000I12J27*
X35261Y35973I30*
G03X35203Y35882I42J91*
G01Y35567*
G03X35303Y35467I100*
G01X35697*
G03X35797Y35567J100*
G01Y35882*
G03X35739Y35973I100*
G02X35721Y36000I12J27*
X35739Y36027I30*
G03X35797Y36118I42J91*
G01Y36433*
G03X35697Y36533I100*
G01X35680*
G02X35650Y36563J30*
G01Y36590*
G02X35659Y36611I30*
G03X35731Y36778I158J167*
X35683Y36919I230*
G02X35677Y36937I24J18*
X35705Y36967I30*
G03X35797Y37067I8J100*
G01Y37382*
G03X35739Y37473I100*
G02X35721Y37500I12J27*
X35739Y37527I30*
G03X35797Y37618I42J91*
G01Y37933*
G03X35697Y38033I100*
G01X35680*
G02X35650Y38063J30*
G01Y38452*
G02X35654Y38467I30*
G01X35846Y38800*
G03X35900Y39000I346J200*
X35500Y39400I400*
X35100Y39000J400*
X35154Y38800I400*
G01X35346Y38467*
G02X35350Y38452I26J15*
G01Y38063*
G02X35320Y38033I30*
G01X35303*
G03X35203Y37933J100*
G01Y37618*
G03X35261Y37527I100*
G02X35279Y37500I12J27*
X35261Y37473I30*
G03X35203Y37382I42J91*
G01Y37067*
G03X35297Y36967I100*
G02X35325Y36937I2J30*
X35319Y36919I30*
G03X35271Y36778I182J141*
X35341Y36613I230*
G02X35350Y36592I21J21*
G01Y36563*
G02X35320Y36533I30*
G01X35303*
G03X35205Y36450J100*
G02X35175Y36426I30J6*
G01X34825*
G02X34795Y36450J30*
G03X34697Y36533I98J17*
G01X34680*
G02X34650Y36563J30*
G01Y36937*
G02X34680Y36967I30*
G01X34697*
G03X34797Y37067J100*
G01Y37382*
G03X34739Y37473I100*
G02X34721Y37500I12J27*
X34739Y37527I30*
G03X34797Y37618I42J91*
G01Y37933*
G03X34697Y38033I100*
G01X34680*
G02X34650Y38063J30*
G01Y38452*
G02X34654Y38467I30*
G01X34846Y38800*
G03X34900Y39000I346J200*
X34500Y39400I400*
X34100Y39000J400*
G01Y39750*
X36100*
Y39000*
G03X36274Y38670I400*
G01Y31665*
G03X36374Y31565I100*
G01X36380*
Y28122*
G03X36480Y28022I100*
G01X38030*
Y24327*
G03X38130Y24227I100*
G01X38917*
G03X39017Y24327J100*
G01Y25823*
G03X38917Y25923I100*
G01X38130*
G03X38030Y25823J100*
G01Y28022*
X39236*
G03X39336Y28122J100*
G01Y30878*
G03X39236Y30978I100*
G01X36480*
G03X36380Y30878J100*
G01Y31565*
X36886*
G03X36986Y31665J100*
G01Y32335*
G03X36886Y32435I100*
G01X36374*
G03X36274Y32335J100*
G01Y33165*
G03X36374Y33065I100*
G01X36886*
G03X36986Y33165J100*
G01Y33835*
G03X36886Y33935I100*
G01X36374*
G03X36274Y33835J100*
G01Y38670*
G03X36500Y38600I226J330*
X36900Y39000J400*
X36500Y39400I400*
X36100Y39000J400*
G01Y39750*
X37872*
Y38758*
G03X38071Y38559I199*
G01X38119*
Y38000*
G03X38504Y37615I385*
X38757Y37709J385*
G02X38777Y37717I20J22*
X38805Y37698J30*
G03X38898Y37634I93J36*
G01X39055*
G03X39093Y37642J100*
G02X39104Y37644I11J28*
X39116Y37642J30*
G03X39154Y37634I38J92*
G01X39308*
G02X39338Y37604J30*
G01Y37558*
G02X39329Y37537I30*
G01X39300Y37507*
G03X39256Y37401I106J106*
G01Y37133*
G02X39252Y37118I30*
G01X39207Y37040*
G03X39176Y36924I199J116*
X39406Y36694I230*
X39636Y36924J230*
X39605Y37039I230*
G01X39560Y37118*
G02X39556Y37133I26J15*
G01Y37157*
G02X39586Y37187I30*
X39603Y37182J30*
G03X39731Y37143I128J191*
X39810Y37156J230*
G02X39820Y37158I10J28*
X39850Y37128J30*
G01Y35575*
G02X39841Y35553I30*
G01X39782Y35494*
G02X39768Y35486I22J21*
G01X39397Y35386*
G03X39100Y35000I103J386*
X39500Y34600I400*
X39886Y34897J400*
G01X39986Y35268*
G02X39994Y35282I29J8*
G01X40106Y35394*
G03X40150Y35500I106J106*
G01Y37653*
G02X40157Y37672I30*
G03X40172Y37698I78J62*
G02X40200Y37717I28J11*
X40219Y37709J30*
G03X40472Y37615I253J291*
X40858Y38000J385*
X40472Y38385I386*
X40219Y38291J385*
G02X40200Y38283I19J22*
X40172Y38302J30*
G03X40079Y38366I93J36*
G01X39921*
G03X39883Y38358J100*
G02X39872Y38356I11J28*
X39861Y38358J30*
G03X39823Y38366I38J92*
G01X39665*
G03X39627Y38358J100*
G02X39616Y38356I11J28*
X39605Y38358J30*
G03X39567Y38366I38J92*
G01X39409*
G03X39372Y38358J100*
G02X39360Y38356I12J28*
X39349Y38358J30*
G03X39311Y38366I38J92*
G01X39154*
G03X39116Y38358J100*
G02X39104Y38356I12J28*
X39093Y38358J30*
G03X39055Y38366I38J92*
G01X38898*
G03X38805Y38302J100*
G02X38777Y38283I28J11*
X38757Y38291J30*
G03X38504Y38385I253J291*
X38119Y38000J385*
G01Y38559*
X38622*
G03X38765Y38620J199*
G02X38787Y38629I22J21*
X38799Y38627J30*
G03X38839Y38619I40J92*
G01X39350*
G03X39450Y38719J100*
G01Y39388*
G03X39350Y39488I100*
G01X38839*
G03X38799Y39479J100*
G02X38787Y39477I12J28*
X38765Y39486J30*
G03X38622Y39547I143J138*
G01X38071*
G03X37872Y39348J199*
G01Y39750*
X39526*
Y38719*
G03X39626Y38619I100*
G01X40138*
G03X40177Y38626J100*
G02X40189Y38629I12J27*
X40210Y38619J30*
G03X40354Y38557I144J137*
G01X40906*
G03X41100Y38717J199*
G01Y35000*
G03X41500Y34600I400*
X41900Y35000J400*
X41500Y35400I400*
X41100Y35000J400*
G01Y38717*
G03X41104Y38756I194J39*
G01Y39346*
G03X40906Y39545I198*
G01X40354*
G03X40213Y39485J199*
G02X40191Y39476I22J21*
X40179Y39479J30*
G03X40138Y39488I41J91*
G01X39626*
G03X39526Y39388J100*
G01Y39750*
X44010*
G02X44040Y39720J30*
X44027Y39696I30*
G03X44011Y39682I90J120*
G01X43894Y39565*
G03X43850Y39463I106J106*
G02X43828Y39435I30J1*
G03X43774Y39398I26J96*
G02X43750Y39386I24J18*
X43726Y39398J30*
G03X43646Y39439I80J59*
G01X43354*
G03X43254Y39339J100*
G01Y38236*
G03X43354Y38136I100*
G01X43646*
G03X43726Y38177J100*
G02X43750Y38189I24J18*
X43774Y38177J30*
G03X43854Y38136I80J59*
G01X44146*
G03X44226Y38177J100*
G02X44250Y38189I24J18*
X44274Y38177J30*
G03X44354Y38136I80J59*
G01X44646*
G03X44726Y38177J100*
G02X44750Y38189I24J18*
X44774Y38177J30*
G03X44854Y38136I80J59*
G01X45146*
G03X45226Y38177J100*
G02X45250Y38189I24J18*
X45274Y38177J30*
G03X45354Y38136I80J59*
G01X45646*
G03X45746Y38236J100*
G01Y38523*
G02X45776Y38553I30*
X45797Y38544J30*
G01X46129Y38212*
G02X46138Y38190I21J22*
G01Y38067*
G02X46108Y38037I30*
X46100Y38038J30*
G03X46038Y38047I62J216*
X45821Y37880J225*
G01X45800Y37801*
G02X45792Y37788I29J8*
G01X45790Y37786*
G02X45768Y37777I22J21*
X45740Y37797J30*
G03X45646Y37864I94J33*
G01X45354*
G03X45274Y37823J100*
G02X45250Y37811I24J18*
X45226Y37823J30*
G03X45146Y37864I80J59*
G01X44854*
G03X44774Y37823J100*
G02X44750Y37811I24J18*
X44726Y37823J30*
G03X44646Y37864I80J59*
G01X44354*
G03X44274Y37823J100*
G02X44250Y37811I24J18*
X44226Y37823J30*
G03X44146Y37864I80J59*
G01X43854*
G03X43774Y37823J100*
G02X43750Y37811I24J18*
X43726Y37823J30*
G03X43646Y37864I80J59*
G01X43354*
G03X43254Y37764J100*
G01Y36661*
G03X43328Y36565I100*
G02X43350Y36536I8J29*
G01Y35597*
G03X43394Y35491I150*
G01X43440Y35445*
G02X43449Y35424I21J21*
X43424Y35394I30*
G03X43101Y35002I77J392*
X43155Y34802I400*
G01X43347Y34469*
G02X43351Y34454I26J15*
G01Y34239*
G03X43395Y34133I150*
G01X43579Y33949*
G02X43587Y33928I22J21*
X43557Y33898I30*
X43553J30*
G03X43501Y33902I52J396*
X43101Y33502J400*
X43501Y33102I400*
X43718Y33166J400*
G01X43943Y33311*
G02X43959Y33316I16J25*
X43981Y33307J30*
G01X44436Y32851*
G03X44439Y32849I106J106*
G02X44448Y32827I21J22*
X44418Y32797I30*
G01X44118*
G03X44027Y32739J100*
G02X44000Y32721I27J12*
X43973Y32739J30*
G03X43882Y32797I91J42*
G01X43567*
G03X43467Y32697J100*
G01Y32680*
G02X43437Y32650I30*
G01X43075*
G02X43053Y32659J30*
G01X40994Y34718*
G02X40986Y34732I21J22*
G01X40886Y35103*
G03X40500Y35400I386J103*
X40100Y35000J400*
X40397Y34614I400*
G01X40530Y34578*
Y17854*
G03X40630Y17754I100*
G01X40827*
G03X40927Y17854J100*
G01Y18091*
G03X40827Y18191I100*
G01X40630*
G03X40530Y18091J100*
G01Y34578*
X40768Y34514*
G02X40782Y34506I8J29*
G01X42894Y32394*
G03X43000Y32350I106J106*
G01X43437*
G02X43467Y32320J30*
G01Y32303*
G03X43567Y32203I100*
G01X43882*
G03X43899Y32205J100*
G02X43904I5J30*
X43934Y32175J30*
X43930Y32160I30*
G03X43899Y32046I194J114*
X44066Y31829I225*
G01X44145Y31808*
G02X44158Y31800I8J29*
G01X44223Y31735*
G03X44329Y31691I106J106*
G01X45209*
G03X45312Y31732J150*
G02X45332Y31740I20J22*
G01X45373*
G03X45387Y31741J150*
G02X45390I3J30*
X45420Y31711J30*
G01Y31652*
G03X45422Y31629I100*
G02X45423Y31622I29J7*
X45422Y31615I30*
G03X45420Y31593I98J22*
G01Y31455*
G03X45520Y31355I100*
G01X45635*
G02X45665Y31325J30*
X45656Y31304I30*
G01X45348Y30995*
G02X45327Y30986I21J21*
X45297Y31016J30*
G01Y31183*
G03X45197Y31283I100*
G01X44803*
G03X44703Y31183J100*
G01Y30868*
G03X44761Y30777I100*
G02X44779Y30750I12J27*
X44761Y30723I30*
G03X44719Y30687I42J91*
G02X44694Y30673I25J16*
X44680Y30677J30*
G03X44570Y30704I110J203*
X44340Y30474J230*
X44570Y30244I230*
X44680Y30272J230*
G02X44694Y30276I14J26*
X44719Y30262J30*
G03X44803Y30217I84J55*
G01X45197*
G03X45297Y30317J100*
G01Y30507*
G02X45306Y30529I30*
G01X45813Y31036*
G02X45835Y31045I22J21*
X45856Y31036J30*
G01X46164Y30729*
G03X46270Y30685I106J106*
G01X46325*
G02X46355Y30655J30*
G01Y30520*
G03X46455Y30420I100*
G01X46456*
G02X46486Y30390J30*
X46477Y30368I30*
G01X46269Y30161*
G02X46248Y30152I21J21*
G01X44049*
G02X44034Y30156J30*
G01X43701Y30348*
G03X43501Y30402I200J346*
X43101Y30002J400*
X43501Y29602I400*
X43701Y29655J400*
G01X44034Y29848*
G02X44049Y29852I15J26*
G01X46323*
G03X46429Y29896J150*
G01X46827Y30294*
G03X46870Y30391I107J106*
G02X46900Y30420I30J1*
G01X46986*
G03X47009Y30422J100*
G02X47016Y30423I7J29*
X47023Y30422J30*
G03X47045Y30420I22J98*
G01X47131*
G02X47161Y30390J30*
G01Y29459*
G03Y29456I150*
G01Y29455*
G02X47131Y29425I30*
G01X45275*
G03X45175Y29325J100*
G01Y29155*
G02X45145Y29125I30*
G01X44933*
G02X44918Y29129J30*
G03X44842Y29150I76J129*
G01X44563*
G02X44533Y29180J30*
G01Y29197*
G03X44433Y29297I100*
G01X44118*
G03X44027Y29239J100*
G02X44000Y29221I27J12*
X43973Y29239J30*
G03X43882Y29297I91J42*
G01X43567*
G03X43467Y29197J100*
G01Y28803*
G03X43567Y28703I100*
G01X43882*
G03X43973Y28761J100*
G02X44000Y28779I27J12*
X44027Y28761J30*
G03X44118Y28703I91J42*
G01X44433*
G03X44533Y28803J100*
G01Y28820*
G02X44563Y28850I30*
G01X44775*
G02X44790Y28846J30*
G03X44867Y28825I77J129*
G01X44973*
Y5984*
G03X46448Y4509I1475*
X47923Y5984J1475*
X46448Y7459I1475*
X44973Y5984J1475*
G01Y25984*
G03X45353Y24996I1475*
G01Y7758*
G03X45453Y7658I100*
G01X46122*
G03X46222Y7758J100*
G01Y8742*
G03X46122Y8842I100*
G01X45453*
G03X45353Y8742J100*
G01Y9258*
G03X45453Y9158I100*
G01X46122*
G03X46222Y9258J100*
G01Y10242*
G03X46122Y10342I100*
G01X45453*
G03X45353Y10242J100*
G01Y24996*
G03X46448Y24509I1095J988*
X47923Y25984J1475*
X46448Y27459I1475*
X44973Y25984J1475*
G01Y28825*
X45145*
G02X45175Y28795J30*
G01Y28625*
G03X45275Y28525I100*
G01X47275*
G03X47375Y28625J100*
G01Y28795*
G02X47403Y28825I30*
G03X47545Y28975I8J150*
G01Y29375*
G03X47501Y29481I150*
G01X47470Y29512*
G02X47461Y29533I21J21*
G01Y29834*
G02X47491Y29864I30*
X47512Y29856J30*
G01X48499Y28869*
G03X48597Y28825I106J106*
G02X48625Y28795I2J30*
G01Y28625*
G03X48725Y28525I100*
G01X50725*
G03X50825Y28625J100*
G01Y28795*
G02X50855Y28825I30*
G01X51258*
G03X51335Y28846J150*
G02X51350Y28850I15J26*
G01X51687*
G02X51717Y28820J30*
G01Y28803*
G03X51817Y28703I100*
G01X52132*
G03X52223Y28761J100*
G02X52250Y28779I27J12*
X52277Y28761J30*
G03X52368Y28703I91J42*
G01X52683*
G03X52783Y28803J100*
G01Y29197*
G03X52683Y29297I100*
G01X52368*
G03X52277Y29239J100*
G02X52250Y29221I27J12*
X52223Y29239J30*
G03X52132Y29297I91J42*
G01X51817*
G03X51717Y29197J100*
G01Y29180*
G02X51687Y29150I30*
G01X51283*
G03X51207Y29129J150*
G02X51192Y29125I15J26*
G01X50855*
G02X50825Y29155J30*
G01Y29325*
G03X50725Y29425I100*
G01X48725*
G03X48625Y29325J100*
G01Y29240*
G02X48595Y29210I30*
X48574Y29218J30*
G01X47667Y30125*
G02X47658Y30147I21J22*
G01Y30390*
G02X47688Y30420I30*
G01X47774*
G03X47796Y30422J100*
G02X47803Y30423I7J29*
X47810Y30422J30*
G03X47833Y30420I23J98*
G01X47970*
G03X47993Y30422J100*
G02X48000Y30423I7J29*
X48007Y30422J30*
G03X48030Y30420I23J98*
G01X48167*
G03X48190Y30422J100*
G02X48197Y30423I7J29*
X48204Y30422J30*
G03X48226Y30420I22J98*
G01X48364*
G03X48387Y30422J100*
G02X48394Y30423I7J29*
X48401Y30422J30*
G03X48423Y30420I22J98*
G01X48472*
G02X48502Y30390J30*
X48489Y30365I30*
G03X48407Y30204I118J161*
X48482Y30047I200*
G02X48493Y30024I19J23*
X48490Y30009I30*
G03X48462Y29900I202J109*
X48692Y29670I230*
X48914Y29841J230*
G01X48920Y29863*
G02X48949Y29885I29J8*
X48978Y29864J30*
G03X49170Y29719I192J55*
X49270Y29746J200*
G01X49303Y29765*
G02X49318Y29769I15J26*
G01X49490*
G03X49596Y29813J150*
G01X49776Y29994*
G03X49820Y30100I106J106*
G01Y30830*
G03X49776Y30936I150*
G01X49771Y30941*
G03X49674Y30984I106J106*
G02X49645Y31014I1J30*
G01Y31150*
G03X49545Y31250I100*
G01X49407*
G03X49385Y31247J100*
G02X49378Y31246I7J29*
X49371Y31247J30*
G03X49348Y31250I23J97*
G01X49211*
G03X49188Y31247J100*
G02X49181Y31246I7J29*
X49174Y31247J30*
G03X49152Y31250I22J97*
G01X49014*
G03X48991Y31247J100*
G02X48984Y31246I7J29*
X48977Y31247J30*
G03X48955Y31250I22J97*
G01X48817*
G03X48794Y31247J100*
G02X48787Y31246I7J29*
X48781Y31247J30*
G03X48758Y31250I23J97*
G01X48672*
G02X48642Y31278J30*
G03X48640Y31297I150J8*
G02X48639Y31303I29J6*
X48659Y31331I30*
G03X48792Y31520I67J189*
X48592Y31720I200*
X48399Y31572J200*
G01X48389Y31534*
G02X48381Y31521I29J8*
G01X48361Y31501*
G03X48317Y31395I106J106*
G01Y31295*
G03X48318Y31282I150*
G02Y31280I30J2*
X48288Y31250I30*
G01X48226*
G03X48204Y31247J100*
G02X48197Y31246I7J29*
X48190Y31247J30*
G03X48167Y31250I23J97*
G01X48030*
G03X48007Y31247J100*
G02X48000Y31246I7J29*
X47993Y31247J30*
G03X47970Y31250I23J97*
G01X47885*
G02X47855Y31280J30*
G01Y33096*
G03X47811Y33202I150*
G01X47495Y33518*
G02X47486Y33539I21J21*
X47516Y33569I30*
G01X47796*
G02X47826Y33539J30*
Y33536I30*
G03X47824Y33512I223J24*
X48049Y33287I225*
X48267Y33454J225*
G01X48288Y33533*
G02X48296Y33546I29J8*
G01X48342Y33592*
G02X48363Y33601I21J21*
X48391Y33582J30*
G03X48601Y33437I210J80*
X48772Y33516J225*
G01Y32738*
G03X48799Y32638I200*
G01X48818Y32605*
G02X48822Y32590I26J15*
G01Y32282*
G03X48866Y32176I150*
G01X49624Y31418*
G03X49730Y31374I106J106*
G01X49783*
G02X49798Y31369J30*
G03X49850Y31355I52J86*
G01X50480*
G03X50580Y31455J100*
G01Y31593*
G03X50578Y31615I100*
G02X50577Y31622I29J7*
X50578Y31629I30*
G03X50580Y31652I98J23*
G01Y31688*
G02X50610Y31718I30*
X50632Y31709J30*
G01X50769Y31572*
G02X50778Y31551I21J21*
X50761Y31524I30*
G03X50703Y31433I42J91*
G01Y31118*
G03X50761Y31027I100*
G02X50779Y31000I12J27*
X50761Y30973I30*
G03X50703Y30882I42J91*
G01Y30567*
G03X50803Y30467I100*
G01X51197*
G03X51297Y30567J100*
G01Y30882*
G03X51239Y30973I100*
G02X51221Y31000I12J27*
X51239Y31027I30*
G03X51285Y31071I42J91*
G02X51312Y31087I27J14*
X51327Y31083J30*
G01X51339Y31076*
G03X51453Y31046I114J200*
X51651Y31157J230*
G02X51676Y31172I25J15*
X51683Y31171J30*
G01X51694Y31169*
G02X51717Y31139I7J30*
G01Y30803*
G03X51800Y30705I100*
G02X51824Y30675I6J30*
G01Y30325*
G02X51800Y30295I30*
G03X51717Y30197I17J98*
G01Y29803*
G03X51817Y29703I100*
G01X52132*
G03X52223Y29761J100*
G02X52250Y29779I27J12*
X52277Y29761J30*
G03X52368Y29703I91J42*
G01X52683*
G03X52783Y29803J100*
G01Y29820*
G02X52813Y29850I30*
G01X52842*
G03X52857Y29851J150*
G02X52860I3J30*
G01X52924*
G02X52939Y29847J30*
G01X53017Y29802*
G03X53132Y29771I115J199*
X53362Y30001J230*
X53132Y30231I230*
X53017Y30200J230*
G01X52939Y30155*
G02X52924Y30151I15J26*
G01X52843*
G03X52828Y30150J150*
G02X52824I4J30*
G01X52813*
G02X52783Y30180J30*
G01Y30197*
G03X52683Y30297I100*
G01X52368*
G03X52277Y30239J100*
G02X52250Y30221I27J12*
X52223Y30239J30*
G03X52149Y30295I91J42*
G02X52124Y30325I5J30*
G01Y30675*
G02X52149Y30705I30*
G03X52223Y30761I17J98*
G02X52250Y30779I27J12*
X52277Y30761J30*
G03X52368Y30703I91J42*
G01X52683*
G03X52783Y30803J100*
G01Y31197*
G03X52683Y31297I100*
G01X52368*
G03X52277Y31239J100*
G02X52250Y31221I27J12*
X52223Y31239J30*
G03X52149Y31295I91J42*
G02X52124Y31324I5J30*
G03X52080Y31423I150J7*
G01X51851Y31652*
G02X51843Y31673I22J21*
X51873Y31703I30*
G01X52132*
G03X52223Y31761J100*
G02X52250Y31779I27J12*
X52277Y31761J30*
G03X52368Y31703I91J42*
G01X52683*
G03X52783Y31803J100*
G01Y32197*
G03X52683Y32297I100*
G01X52368*
G03X52277Y32239J100*
G02X52250Y32221I27J12*
X52223Y32239J30*
G03X52149Y32295I91J42*
G02X52124Y32325I5J30*
G01Y32675*
G02X52149Y32705I30*
G03X52223Y32761I17J98*
G02X52250Y32779I27J12*
X52277Y32761J30*
G03X52368Y32703I91J42*
G01X52683*
G03X52783Y32803J100*
G01Y32820*
G02X52813Y32850I30*
G01X52841*
G02X52857Y32846J30*
G01X52931Y32800*
G03X53051Y32766I120J196*
X53281Y32996J230*
X53051Y33226I230*
X52941Y33198J230*
G01X52859Y33154*
G02X52844Y33150I15J26*
G01X52813*
G02X52783Y33180J30*
G01Y33197*
G03X52683Y33297I100*
G01X52368*
G03X52277Y33239J100*
G02X52250Y33221I27J12*
X52223Y33239J30*
G03X52132Y33297I91J42*
G01X51895*
G02X51865Y33327J30*
X51873Y33348I30*
G01X52367Y33841*
G02X52388Y33850I21J21*
G01X52937*
G02X52967Y33820J30*
G01Y33803*
G03X53067Y33703I100*
G01X53382*
G03X53473Y33761J100*
G02X53500Y33779I27J12*
X53527Y33761J30*
G03X53618Y33703I91J42*
G01X53933*
G03X54033Y33803J100*
G01Y33820*
G02X54061Y33850I30*
G03X54159Y33894I8J150*
G01X54176Y33910*
G02X54197Y33919I21J21*
X54227Y33889J30*
G01Y33839*
G03X54327Y33739I100*
G01X54416*
Y28406*
G03X54516Y28306I100*
G01X56484*
G03X56584Y28406J100*
G01Y28957*
G03X56484Y29057I100*
G01X54516*
G03X54416Y28957J100*
G01Y33739*
X55311*
G03X55411Y33839J100*
G01Y34508*
G03X55391Y34568I100*
G02X55384Y34587I23J19*
X55391Y34605I30*
G03X55411Y34665I80J60*
G01Y35335*
G03X55391Y35395I100*
G02X55384Y35413I23J18*
X55391Y35432I30*
G03X55411Y35492I80J60*
G01Y36161*
G03X55311Y36261I100*
G01X54327*
G03X54227Y36161J100*
G01Y36007*
G02X54197Y35977I30*
G01X54116*
G02X54095Y35986J30*
G01X53974Y36106*
G03X53868Y36150I106J106*
G01X53813*
G02X53783Y36180J30*
G01Y36197*
G03X53683Y36297I100*
G01X53368*
G03X53277Y36239J100*
G02X53250Y36221I27J12*
X53223Y36239J30*
G03X53132Y36297I91J42*
G01X52817*
G03X52717Y36197J100*
G01Y36180*
G02X52689Y36150I30*
G03X52591Y36106I8J150*
G01X52460Y35975*
G03X52416Y35869I106J106*
G01Y34905*
G02X52407Y34884I30*
G01X51561Y34038*
G02X51540Y34029I21J21*
X51510Y34059J30*
X51514Y34074I30*
G03X51540Y34179I199J105*
X51315Y34404I225*
X51203Y34374J225*
G01X51132Y34333*
G02X51117Y34329I15J26*
G01X51075*
G02X51045Y34359J30*
X51054Y34380I30*
G01X51757Y35084*
G02X51768Y35091I21J22*
G03X51824Y35126I50J141*
G01X51906Y35208*
G02X51928Y35217I22J21*
G01X52197*
G03X52297Y35317J100*
G01Y35632*
G03X52239Y35723I100*
G02X52221Y35750I12J27*
X52239Y35777I30*
G03X52297Y35868I42J91*
G01Y36183*
G03X52197Y36283I100*
G01X51803*
G03X51703Y36183J100*
G01Y35868*
G03X51761Y35777I100*
G02X51779Y35750I12J27*
X51761Y35723I30*
G03X51703Y35632I42J91*
G01Y35441*
G02X51694Y35420I30*
G01X51655Y35381*
G02X51643Y35374I21J21*
G03X51587Y35338I50J142*
G01X51201Y34952*
G02X51180Y34943I21J21*
X51150Y34973J30*
G01Y35187*
G02X51180Y35217I30*
G01X51197*
G03X51297Y35317J100*
G01Y35632*
G03X51239Y35723I100*
G02X51221Y35750I12J27*
X51239Y35777I30*
G03X51297Y35868I42J91*
G01Y36183*
G03X51197Y36283I100*
G01X50803*
G03X50703Y36183J100*
G01Y35868*
G03X50761Y35777I100*
G02X50779Y35750I12J27*
X50761Y35723I30*
G03X50711Y35670I42J91*
G02X50683Y35652I28J12*
X50668Y35656J30*
G01X50638Y35674*
G03X50523Y35704I115J200*
X50293Y35474J230*
X50523Y35244I230*
X50638Y35275J230*
G01X50668Y35293*
G02X50683Y35297I15J26*
X50711Y35278J30*
G03X50803Y35217I92J39*
G01X50820*
G02X50850Y35187J30*
G01Y34951*
G02X50841Y34929I30*
G01X50555Y34643*
G02X50533Y34634I22J21*
X50521Y34637J30*
G03X50480Y34645I41J92*
G01X49850*
G03X49750Y34545J100*
G01Y34407*
G03X49753Y34385I100*
G02X49754Y34378I29J7*
X49753Y34371I30*
G03X49750Y34348I97J23*
G01Y34211*
G03X49753Y34188I100*
G02X49754Y34181I29J7*
X49753Y34174I30*
G03X49750Y34152I97J22*
G01Y34014*
G03X49753Y33991I100*
G02X49754Y33984I29J7*
X49753Y33977I30*
G03X49750Y33955I97J22*
G01Y33817*
G03X49753Y33794I100*
G02X49754Y33787I29J7*
X49753Y33781I30*
G03X49750Y33758I97J23*
G01Y33672*
G02X49720Y33642I30*
G01X49647*
G02X49623Y33655J30*
G03X49460Y33738I163J117*
X49260Y33538J200*
X49365Y33362I200*
G02X49380Y33336I15J26*
X49350Y33306I30*
G01X49349*
G02X49334Y33310J30*
G01X49300Y33329*
G03X49201Y33356I99J173*
X49001Y33156J200*
X49201Y32956I200*
X49300Y32983J200*
G01X49334Y33002*
G02X49349Y33006I15J26*
G01X49547*
G03X49653Y33050J150*
G01X49699Y33097*
G02X49720Y33105I21J22*
X49750Y33075J30*
G01Y33030*
G03X49753Y33007I100*
G02X49754Y33000I29J7*
X49753Y32993I30*
G03X49750Y32970I97J23*
G01Y32833*
G03X49753Y32810I100*
G02X49754Y32803I29J7*
X49753Y32796I30*
G03X49750Y32774I97J22*
G01Y32636*
G03X49753Y32613I100*
G02X49754Y32606I29J7*
X49753Y32599I30*
G03X49750Y32577I97J22*
G01Y32439*
G03X49753Y32416I100*
G02X49754Y32409I29J7*
X49753Y32403I30*
G03X49750Y32380I97J23*
G01Y32242*
G03X49753Y32219I100*
G02X49754Y32213I29J6*
X49753Y32206I30*
G03X49750Y32183I97J23*
G01Y32045*
G03X49753Y32023I100*
G02X49754Y32016I29J7*
X49753Y32009I30*
G03X49750Y31986I97J23*
G01Y31848*
G03X49753Y31826I100*
G02X49754Y31819I29J7*
X49753Y31812I30*
G03X49750Y31789I97J23*
G01Y31788*
G02X49720Y31758I30*
X49699Y31767J30*
G01X49131Y32336*
G02X49122Y32357I21J21*
G01Y32590*
G02X49126Y32605I30*
G01X49145Y32638*
G03X49172Y32738I173J100*
X48972Y32938I200*
X48772Y32738J200*
G01Y33516*
G03X48826Y33662I171J146*
X48796Y33774I225*
G01X48755Y33845*
G02X48751Y33860I26J15*
G01Y33890*
G02X48760Y33911I30*
G01X48977Y34129*
G02X48998Y34138I21J21*
X49025Y34122J30*
G03X49221Y34006I196J109*
X49439Y34173J225*
G01X49460Y34252*
G02X49467Y34266I29J8*
G01X49582Y34380*
G03X49626Y34487I106J107*
G01Y34783*
G02X49631Y34798I30*
G03X49645Y34850I86J52*
G01Y35480*
G03X49545Y35580I100*
G01X49407*
G03X49405J100*
G02X49375Y35610J30*
X49384Y35632I30*
G03X49387Y35635I103J109*
G01X50427Y36675*
G02X50448Y36683I21J22*
G01X52333*
G03X52439Y36727J150*
G01X54218Y38506*
G02X54232Y38514I22J21*
G01X54603Y38614*
G03X54900Y39000I103J386*
X54500Y39400I400*
X54114Y39103J400*
G01X54014Y38732*
G02X54006Y38718I29J8*
G01X52280Y36992*
G02X52259Y36983I21J21*
G01X51768*
G02X51738Y37013J30*
X51747Y37035I30*
G01X53218Y38506*
G02X53232Y38514I22J21*
G01X53603Y38614*
G03X53900Y39000I103J386*
X53500Y39400I400*
X53114Y39103J400*
G01X53014Y38732*
G02X53006Y38718I29J8*
G01X51476Y37188*
G02X51454Y37179I22J21*
G01X50329*
G03X50222Y37135J150*
G01X49848Y36761*
G02X49827Y36752I21J21*
X49797Y36782J30*
G01Y36882*
G03X49739Y36973I100*
G02X49721Y37000I12J27*
X49739Y37027I30*
G03X49797Y37118I42J91*
G01Y37433*
G03X49697Y37533I100*
G01X49303*
G03X49216Y37482J100*
G02X49190Y37467I26J15*
X49173Y37473J30*
G01X49168Y37476*
G03X49035Y37518I133J188*
X48851Y37425J230*
G02X48826Y37413I25J18*
X48797Y37440J30*
G03X48716Y37531I100J7*
G02X48692Y37561I6J30*
X48696Y37576I30*
G01X48699Y37581*
G03X48730Y37696I199J115*
X48500Y37926I230*
X48270Y37696J230*
X48301Y37580I230*
G01X48304Y37576*
G02X48308Y37561I26J15*
X48284Y37531I30*
G03X48203Y37433I19J98*
G01Y37118*
G03X48261Y37027I100*
G02X48279Y37000I12J27*
X48261Y36973I30*
G03X48205Y36899I42J91*
G02X48176Y36874I30J5*
G03X48077Y36830I7J150*
G01X48018Y36771*
G02X47997Y36763I21J22*
X47967Y36793J30*
G01Y37483*
G03X47923Y37589I150*
G01X45947Y39565*
G03X45841Y39609I106J106*
G01X45000*
G03X44963Y39604J150*
G02X44956Y39603I7J29*
X44927Y39626J30*
G03X44893Y39703I219J50*
G02X44888Y39720I25J17*
X44918Y39750I30*
G01X46996*
Y39335*
G03X47226Y39105I230*
X47340Y39135J230*
G01X47419Y39181*
G02X47434Y39185I15J26*
G01X47571*
G02X47601Y39155J30*
G01Y38469*
G03X47701Y38369I100*
G01X48272*
G03X48372Y38469J100*
G01Y38862*
G03X48272Y38962I100*
G01X47701*
G03X47601Y38862J100*
G01Y39138*
G03X47701Y39038I100*
G01X48272*
G03X48372Y39138J100*
G01Y39155*
G02X48402Y39185I30*
G01X49600*
G02X49630Y39155J30*
G01Y38469*
G03X49730Y38369I100*
G01X50301*
G03X50401Y38469J100*
G01Y38862*
G03X50301Y38962I100*
G01X49730*
G03X49630Y38862J100*
G01Y39138*
G03X49730Y39038I100*
G01X50301*
G03X50401Y39138J100*
G01Y39531*
G03X50301Y39631I100*
G01X49730*
G03X49630Y39531J100*
G01Y39515*
G02X49600Y39485I30*
G01X48402*
G02X48372Y39515J30*
G01Y39531*
G03X48272Y39631I100*
G01X47701*
G03X47601Y39531J100*
G01Y39515*
G02X47571Y39485I30*
G01X47434*
G02X47419Y39489J30*
G01X47340Y39534*
G03X47226Y39565I114J199*
X46996Y39335J230*
G01Y39750*
X52100*
Y39000*
G03X52500Y38600I400*
X52900Y39000J400*
X52500Y39400I400*
X52100Y39000J400*
G01Y39750*
X55100*
Y39000*
G03X55500Y38600I400*
X55900Y39000J400*
X55500Y39400I400*
X55100Y39000J400*
G01Y39750*
X56004*
Y32000*
G03X56234Y31770I230*
X56349Y31801J230*
G01X56422Y31843*
G02X56437Y31847I15J26*
X56467Y31817J30*
G01Y31803*
G03X56567Y31703I100*
G01X56882*
G03X56973Y31761J100*
G02X57000Y31779I27J12*
X57027Y31761J30*
G03X57118Y31703I91J42*
G01X57372*
Y29398*
G03X58472Y28298I1100*
X59572Y29398J1100*
X58472Y30498I1100*
X57372Y29398J1100*
G01Y31703*
X57433*
G03X57533Y31803J100*
G01Y31820*
G02X57563Y31850I30*
G01X58000*
G03X58106Y31894J150*
G01X58600Y32388*
Y32000*
G03X59000Y31600I400*
X59400Y32000J400*
X59000Y32400I400*
X58600Y32000J400*
G01Y32388*
X58718Y32506*
G02X58732Y32514I22J21*
G01X59103Y32614*
G03X59400Y33000I103J386*
X59000Y33400I400*
X58614Y33103J400*
G01X58514Y32732*
G02X58506Y32718I29J8*
G01X57947Y32159*
G02X57925Y32150I22J21*
G01X57563*
G02X57533Y32180J30*
G01Y32197*
G03X57433Y32297I100*
G01X57118*
G03X57027Y32239J100*
G02X57000Y32221I27J12*
X56973Y32239J30*
G03X56899Y32295I91J42*
G02X56874Y32325I5J30*
G01Y32675*
G02X56899Y32705I30*
G03X56973Y32761I17J98*
G02X57000Y32779I27J12*
X57027Y32761J30*
G03X57118Y32703I91J42*
G01X57433*
G03X57533Y32803J100*
G01Y32820*
G02X57563Y32850I30*
G01X58000*
G03X58106Y32894J150*
G01X58718Y33506*
G02X58732Y33514I22J21*
G01X59103Y33614*
G03X59400Y34000I103J386*
X59000Y34400I400*
X58614Y34103J400*
G01X58514Y33732*
G02X58506Y33718I29J8*
G01X57947Y33159*
G02X57925Y33150I22J21*
G01X57563*
G02X57533Y33180J30*
G01Y33197*
G03X57433Y33297I100*
G01X57118*
G03X57027Y33239J100*
G02X57000Y33221I27J12*
X56973Y33239J30*
G03X56882Y33297I91J42*
G01X56567*
G03X56467Y33197J100*
G01Y32803*
G03X56550Y32705I100*
G02X56574Y32675I6J30*
G01Y32325*
G02X56550Y32295I30*
G03X56467Y32197I17J98*
G01Y32183*
G02X56437Y32153I30*
X56422Y32157J30*
G01X56349Y32199*
G03X56234Y32230I115J199*
X56004Y32000J230*
G01Y39750*
X56525*
Y38000*
G03X56589Y37570I1475*
G01Y35492*
G03X56609Y35432I100*
G02X56616Y35413I23J19*
X56609Y35395I30*
G03X56589Y35335I80J60*
G01Y34665*
G03X56609Y34605I100*
G02X56616Y34587I23J18*
X56609Y34568I30*
G03X56589Y34508I80J60*
G01Y33839*
G03X56689Y33739I100*
G01X57673*
G03X57773Y33839J100*
G01Y34508*
G03X57753Y34568I100*
G02X57747Y34587I24J19*
X57753Y34605I30*
G03X57773Y34665I80J60*
G01Y35335*
G03X57753Y35395I100*
G02X57747Y35413I24J18*
X57753Y35432I30*
G03X57773Y35492I80J60*
G01Y36161*
G03X57673Y36261I100*
G01X56689*
G03X56589Y36161J100*
G01Y37570*
G03X58000Y36525I1411J430*
X58600Y36653J1475*
G01Y35000*
G03X59000Y34600I400*
X59400Y35000J400*
X59000Y35400I400*
X58600Y35000J400*
G01Y36653*
G03X59475Y38000I600J1347*
X58000Y39475I1475*
X56525Y38000J1475*
G01Y39750*
X59720*
G02X59750Y39720J30*
G01Y26920*
G02X59720Y26890I30*
X59698Y26900J30*
G03X59250Y27100I448J400*
G01X51957*
G03X51533Y26924J600*
G01X46326Y21717*
G03X46150Y21293I424J424*
G01Y11000*
G03X46750Y10400I600*
G01X52250*
G03X52850Y11000J600*
G01Y19043*
G02X52967Y19326I400*
G01X54530Y20889*
Y7000*
G03X55024Y6506I494*
X55517Y7000J494*
X55024Y7494I493*
X54530Y7000J494*
G01Y13750*
G03X55024Y13256I494*
X55517Y13750J494*
X55024Y14244I493*
X54530Y13750J494*
G01Y20500*
G03X55024Y20006I494*
X55517Y20500J494*
X55024Y20994I493*
X54530Y20500J494*
G01Y20889*
X54924Y21283*
G02X55207Y21400I283J283*
G01X56525*
Y2000*
G03X58000Y525I1475*
X59475Y2000J1475*
X58000Y3475I1475*
X56525Y2000J1475*
G01Y21400*
X57483*
Y7000*
G03X57976Y6506I493*
X58470Y7000J494*
X57976Y7494I494*
X57483Y7000J494*
G01Y13750*
G03X57976Y13256I493*
X58470Y13750J494*
X57976Y14244I494*
X57483Y13750J494*
G01Y20500*
G03X57976Y20006I493*
X58470Y20500J494*
X57976Y20994I494*
X57483Y20500J494*
G01Y21400*
X59250*
G03X59698Y21600J600*
G02X59720Y21610I22J20*
X59750Y21580J30*
G01Y280*
G02X59720Y250I30*
G01X280*
G02X250Y280J30*
G01Y39720*
X5247Y33868D02*
Y33643D01*
X5139Y33706*
Y33806*
X5247Y33868*
X5284Y31868D02*
Y31643D01*
X5176Y31705*
Y31805*
X5284Y31868*
X5377Y33643D02*
Y33868D01*
X5485Y33806*
Y33706*
X5377Y33643*
X5414Y31643D02*
Y31868D01*
X5522Y31805*
Y31705*
X5414Y31643*
X6000Y13000D02*
G02X6280Y13449I500D01*
G01Y9407*
G03X6380Y9307I100*
G01X6908*
Y7453*
G03X7008Y7353I100*
G01X7992*
G03X8092Y7453J100*
G01Y8122*
G03X7992Y8222I100*
G01X7008*
G03X6908Y8122J100*
G01Y9307*
X8908*
Y7453*
G03X9008Y7353I100*
G01X9992*
G03X10092Y7453J100*
G01Y8122*
G03X9992Y8222I100*
G01X9008*
G03X8908Y8122J100*
G01Y9307*
X10620*
G03X10720Y9407J100*
G01Y12506*
G03X10620Y12606I100*
G01X6380*
G03X6280Y12506J100*
G01Y13449*
G02X6500Y13500I220J449*
G01X10916*
Y7906*
G03X11016Y7806I100*
G01X12984*
G03X13084Y7906J100*
G01Y8457*
G03X12984Y8557I100*
G01X11016*
G03X10916Y8457J100*
G01Y13500*
X11780*
Y9841*
G03X11880Y9741I100*
G01X13916*
Y7906*
G03X14016Y7806I100*
G01X15984*
G03X16084Y7906J100*
G01Y8457*
G03X15984Y8557I100*
G01X14016*
G03X13916Y8457J100*
G01Y9741*
X16120*
G03X16220Y9841J100*
G01Y12939*
G03X16120Y13039I100*
G01X11880*
G03X11780Y12939J100*
G01Y13500*
X16916*
Y7906*
G03X17016Y7806I100*
G01X18984*
G03X19084Y7906J100*
G01Y8457*
G03X18984Y8557I100*
G01X17016*
G03X16916Y8457J100*
G01Y13500*
X17780*
Y9841*
G03X17880Y9741I100*
G01X19916*
Y7906*
G03X20016Y7806I100*
G01X21984*
G03X22084Y7906J100*
G01Y8457*
G03X21984Y8557I100*
G01X20016*
G03X19916Y8457J100*
G01Y9741*
X22120*
G03X22220Y9841J100*
G01Y12939*
G03X22120Y13039I100*
G01X17880*
G03X17780Y12939J100*
G01Y13500*
X22916*
Y7906*
G03X23016Y7806I100*
G01X24984*
G03X25084Y7906J100*
G01Y8457*
G03X24984Y8557I100*
G01X23016*
G03X22916Y8457J100*
G01Y13500*
X23780*
Y9407*
G03X23880Y9307I100*
G01X25916*
Y7906*
G03X26016Y7806I100*
G01X27984*
G03X28084Y7906J100*
G01Y8457*
G03X27984Y8557I100*
G01X26016*
G03X25916Y8457J100*
G01Y9307*
X28120*
G03X28220Y9407J100*
G01Y12506*
G03X28120Y12606I100*
G01X23880*
G03X23780Y12506J100*
G01Y13500*
X28780*
Y9841*
G03X28880Y9741I100*
G01X28916*
Y7906*
G03X29016Y7806I100*
G01X30984*
G03X31084Y7906J100*
G01Y8457*
G03X30984Y8557I100*
G01X29016*
G03X28916Y8457J100*
G01Y9741*
X31916*
Y7906*
G03X32016Y7806I100*
G01X33984*
G03X34084Y7906J100*
G01Y8457*
G03X33984Y8557I100*
G01X32016*
G03X31916Y8457J100*
G01Y9741*
X33120*
G03X33220Y9841J100*
G01Y12939*
G03X33120Y13039I100*
G01X28880*
G03X28780Y12939J100*
G01Y13500*
X34916*
Y7906*
G03X35016Y7806I100*
G01X36984*
G03X37084Y7906J100*
G01Y8457*
G03X36984Y8557I100*
G01X35016*
G03X34916Y8457J100*
G01Y13500*
X35280*
Y9407*
G03X35380Y9307I100*
G01X37916*
Y7906*
G03X38016Y7806I100*
G01X39984*
G03X40084Y7906J100*
G01Y8457*
G03X39984Y8557I100*
G01X38016*
G03X37916Y8457J100*
G01Y9307*
X39620*
G03X39720Y9407J100*
G01Y12506*
G03X39620Y12606I100*
G01X35380*
G03X35280Y12506J100*
G01Y13500*
X39750*
G03X40250Y14000J500*
G01Y17000*
G02X40750Y17500I500*
G01X40904*
Y17067*
G03X40916Y17020I100*
G01Y7906*
G03X41016Y7806I100*
G01X42984*
G03X43084Y7906J100*
G01Y8457*
G03X42984Y8557I100*
G01X41016*
G03X40916Y8457J100*
G01Y17020*
G03X41004Y16967I88J47*
G01X41201*
G03X41301Y17067J100*
G01Y17303*
G03X41201Y17403I100*
G01X41004*
G03X40904Y17303J100*
G01Y17500*
X42550*
Y16480*
G03X42650Y16380I100*
G01X44146*
G03X44246Y16480J100*
G01Y17268*
G03X44146Y17368I100*
G01X42650*
G03X42550Y17268J100*
G01Y17500*
X44250*
G02X44404Y17476J500*
X44425Y17447I9J29*
G01Y14417*
G02X44416Y14395I30*
G01X44386Y14365*
G02X44364Y14356I22J21*
X44336Y14377J30*
G03X44146Y14515I190J62*
G01X42650*
G03X42450Y14315J200*
G01Y13528*
G03X42550Y13354I200*
G01Y11480*
G03X42650Y11380I100*
G01X43778*
Y7758*
G03X43878Y7658I100*
G01X44547*
G03X44647Y7758J100*
G01Y8742*
G03X44547Y8842I100*
G01X43878*
G03X43778Y8742J100*
G01Y9258*
G03X43878Y9158I100*
G01X44547*
G03X44647Y9258J100*
G01Y10242*
G03X44547Y10342I100*
G01X43878*
G03X43778Y10242J100*
G01Y11380*
X44146*
G03X44246Y11480J100*
G01Y12268*
G03X44146Y12368I100*
G01X42650*
G03X42550Y12268J100*
G01Y13354*
G03X42650Y13328I100J174*
G01X44146*
G03X44346Y13528J200*
G01Y13653*
G02X44367Y13682I30*
G03X44472Y13744I71J239*
G01X44699Y13971*
G02X44720Y13980I21J21*
X44750Y13950J30*
G01Y7500*
G02X44250Y7000I500*
G01X6500*
G02X6000Y7500J500*
G01Y13000*
Y21500D02*
G02X6280Y21949I500D01*
G01Y18407*
G03X6380Y18307I100*
G01X6983*
Y15327*
G03X7083Y15227I100*
G01X7870*
G03X7970Y15327J100*
G01Y16823*
G03X7870Y16923I100*
G01X7083*
G03X6983Y16823J100*
G01Y18307*
X8930*
Y15327*
G03X9130Y15127I200*
G01X9917*
G03X10117Y15327J200*
G01Y16823*
G03X9917Y17023I200*
G01X9130*
G03X8930Y16823J200*
G01Y18307*
X10620*
G03X10720Y18407J100*
G01Y21506*
G03X10620Y21606I100*
G01X6380*
G03X6280Y21506J100*
G01Y21949*
G02X6500Y22000I220J449*
G01X11780*
Y18341*
G03X11880Y18241I100*
G01X12203*
Y14321*
G03X12303Y14221I100*
G01X12697*
G03X12738Y14230J100*
G02X12750Y14232I12J28*
X12762Y14230J30*
G03X12803Y14221I41J91*
G01X13197*
G03X13238Y14230J100*
G02X13250Y14232I12J28*
X13262Y14230J30*
G03X13303Y14221I41J91*
G01X13697*
G03X13797Y14321J100*
G01Y15679*
G03X13697Y15779I100*
G01X13303*
G03X13262Y15770J100*
G02X13250Y15768I12J28*
X13238Y15770J30*
G03X13197Y15779I41J91*
G01X12803*
G03X12762Y15770J100*
G02X12750Y15768I12J28*
X12738Y15770J30*
G03X12697Y15779I41J91*
G01X12303*
G03X12203Y15679J100*
G01Y18241*
X16120*
G03X16220Y18341J100*
G01Y21439*
G03X16120Y21539I100*
G01X11880*
G03X11780Y21439J100*
G01Y22000*
X16000*
G02X16500Y21500J500*
G01Y15504*
G02X16470Y15474I30*
G01X16362*
G03X16185Y15401J250*
G01X16043Y15259*
G02X16022Y15250I21J21*
G01X15927*
G02X15897Y15280J30*
G01Y15679*
G03X15697Y15879I200*
G01X15303*
G03X15138Y15792J200*
G02X15113Y15779I25J17*
G01X14803*
G03X14762Y15770J100*
G02X14750Y15768I12J28*
X14738Y15770J30*
G03X14697Y15779I41J91*
G01X14303*
G03X14203Y15679J100*
G01Y14321*
G03X14303Y14221I100*
G01X14697*
G03X14738Y14230J100*
G02X14750Y14232I12J28*
X14762Y14230J30*
G03X14803Y14221I41J91*
G01X15113*
G02X15138Y14208J30*
G03X15303Y14121I165J113*
G01X15697*
G03X15897Y14321J200*
G01Y14720*
G02X15927Y14750I30*
G01X16138*
G03X16315Y14823J250*
G01X16449Y14957*
G02X16470Y14966I21J21*
X16500Y14936J30*
G01Y14250*
G02X16000Y13750I500*
G01X6500*
G02X6000Y14250J500*
G01Y21500*
X6250Y10500D02*
X11000D01*
Y11500*
X6250*
Y10500*
Y19250D02*
X16250D01*
Y20250*
X6250*
Y19250*
X6413Y34249D02*
X6638D01*
X6576Y34140*
X6476*
X6413Y34249*
X6500Y26500D02*
G02X6983Y27000I500D01*
G01Y24327*
G03X7083Y24227I100*
G01X7870*
G03X7970Y24327J100*
G01Y25823*
G03X7870Y25923I100*
G01X7083*
G03X6983Y25823J100*
G01Y27000*
G02X7000I17J500*
G01X8930*
Y24327*
G03X9130Y24127I200*
G01X9917*
G03X10117Y24327J200*
G01Y25823*
G03X9917Y26023I200*
G01X9130*
G03X8930Y25823J200*
G01Y27000*
X14000*
G02X14466Y26680J500*
X14468Y26669I28J11*
X14459Y26648I30*
G03X14401Y26538I139J144*
G02X14372Y26514I29J6*
X14343Y26534J30*
G03X14248Y26604I95J30*
G01X12043*
G03X11943Y26504J100*
G01Y25543*
G03X12043Y25443I100*
G01X12203*
Y22821*
G03X12303Y22721I100*
G01X12697*
G03X12738Y22730J100*
G02X12750Y22732I12J28*
X12762Y22730J30*
G03X12803Y22721I41J91*
G01X13197*
G03X13238Y22730J100*
G02X13250Y22732I12J28*
X13262Y22730J30*
G03X13303Y22721I41J91*
G01X13697*
G03X13797Y22821J100*
G01Y24179*
G03X13697Y24279I100*
G01X13303*
G03X13262Y24270J100*
G02X13250Y24268I12J28*
X13238Y24270J30*
G03X13197Y24279I41J91*
G01X12803*
G03X12762Y24270J100*
G02X12750Y24268I12J28*
X12738Y24270J30*
G03X12697Y24279I41J91*
G01X12303*
G03X12203Y24179J100*
G01Y25443*
X14248*
G03X14343Y25513J100*
G02X14372Y25534I29J9*
X14401Y25509J30*
G03X14598Y25343I197J34*
G01X14700*
G02X14717Y25338J30*
G03X15000Y25250I283J412*
G01X16750*
G02X17250Y24750J500*
G01Y24561*
G02X17220Y24531I30*
X17215J30*
G03X17197Y24533I18J98*
G01X16803*
G03X16703Y24433J100*
G01Y24118*
G03X16708Y24086I100*
G02X16710Y24076I28J10*
X16696Y24051I30*
G03X16634Y23988I107J169*
G02X16608Y23974I26J16*
G01X16362*
G03X16185Y23901J250*
G01X16043Y23759*
G02X16022Y23750I21J21*
G01X15927*
G02X15897Y23780J30*
G01Y24179*
G03X15697Y24379I200*
G01X15303*
G03X15138Y24292J200*
G02X15113Y24279I25J17*
G01X14803*
G03X14762Y24270J100*
G02X14750Y24268I12J28*
X14738Y24270J30*
G03X14697Y24279I41J91*
G01X14303*
G03X14203Y24179J100*
G01Y22821*
G03X14303Y22721I100*
G01X14697*
G03X14738Y22730J100*
G02X14750Y22732I12J28*
X14762Y22730J30*
G03X14803Y22721I41J91*
G01X15113*
G02X15138Y22708J30*
G03X15303Y22621I165J113*
G01X15697*
G03X15897Y22821J200*
G01Y23220*
G02X15927Y23250I30*
G01X16138*
G03X16315Y23323J250*
G01X16457Y23466*
G02X16478Y23474I21J22*
G01X16608*
G02X16634Y23460J30*
G03X16803Y23367I169J107*
G01X17197*
G03X17217Y23368J200*
G02X17220I3J30*
X17250Y23338J30*
G01Y22935*
G02X17241Y22914I30*
G01X16586Y22259*
G02X16565Y22250I21J21*
G01X7000*
G02X6500Y22750J500*
G01Y26500*
X6750Y24750D02*
X8250D01*
Y25500*
X6750*
Y24750*
X7569Y31645D02*
Y31870D01*
X7677Y31808*
Y31708*
X7569Y31645*
X8102Y39509D02*
Y38989D01*
X7738Y39199*
Y39299*
X8102Y39509*
X10425Y17630D02*
Y17370D01*
X10287Y17450*
Y17550*
X10425Y17630*
X10575Y17370D02*
Y17630D01*
X10713Y17550*
Y17450*
X10575Y17370*
X10750Y5650D02*
X43250D01*
Y5950*
X10750*
Y5650*
X10925Y17630D02*
Y17370D01*
X10787Y17450*
Y17550*
X10925Y17630*
X11075Y17370D02*
Y17630D01*
X11213Y17550*
Y17450*
X11075Y17370*
X11425Y17630D02*
Y17370D01*
X11287Y17450*
Y17550*
X11425Y17630*
X11500Y11000D02*
X16500D01*
Y12000*
X11500*
Y11000*
X11575Y17370D02*
Y17630D01*
X11713Y17550*
Y17450*
X11575Y17370*
X11750Y27750D02*
X14500D01*
Y28250*
X11750*
Y27750*
X11925Y17630D02*
Y17370D01*
X11787Y17450*
Y17550*
X11925Y17630*
X12075Y17370D02*
Y17630D01*
X12213Y17550*
Y17450*
X12075Y17370*
X12425Y17630D02*
Y17370D01*
X12287Y17450*
Y17550*
X12425Y17630*
X12575Y17370D02*
Y17630D01*
X12713Y17550*
Y17450*
X12575Y17370*
X12750Y25250D02*
X13500D01*
Y26750*
X12750*
Y25250*
Y27250D02*
X13500D01*
Y28750*
X12750*
Y27250*
X12925Y17630D02*
Y17370D01*
X12787Y17450*
Y17550*
X12925Y17630*
X12961Y17855D02*
X13145Y18039D01*
X13186Y17884*
X13116Y17814*
X12961Y17855*
X12992Y39099D02*
X13512D01*
X13302Y38735*
X13202*
X12992Y39099*
X13102Y39509D02*
Y38989D01*
X12738Y39199*
Y39299*
X13102Y39509*
X13370Y17425D02*
X13630D01*
X13550Y17287*
X13450*
X13370Y17425*
X13461Y17855D02*
X13645Y18039D01*
X13686Y17884*
X13616Y17814*
X13461Y17855*
X13492Y37667D02*
X13332Y37508D01*
X13300Y37629*
X13371Y37700*
X13492Y37667*
X13500Y18000D02*
X14500D01*
Y21750*
X13500*
Y18000*
X13539Y17645D02*
X13355Y17461D01*
X13314Y17616*
X13384Y17686*
X13539Y17645*
X13645Y17461D02*
X13461Y17645D01*
X13616Y17686*
X13686Y17616*
X13645Y17461*
X13870Y17925D02*
X14130D01*
X14050Y17787*
X13950*
X13870Y17925*
X14075Y17370D02*
Y17630D01*
X14213Y17550*
Y17450*
X14075Y17370*
X14130Y17575D02*
X13870D01*
X13950Y17713*
X14050*
X14130Y17575*
Y18075D02*
X13870D01*
X13950Y18213*
X14050*
X14130Y18075*
X14425Y17630D02*
Y17370D01*
X14287Y17450*
Y17550*
X14425Y17630*
X14575Y17370D02*
Y17630D01*
X14713Y17550*
Y17450*
X14575Y17370*
X14925Y17630D02*
Y17370D01*
X14787Y17450*
Y17550*
X14925Y17630*
X15075Y17370D02*
Y17630D01*
X15213Y17550*
Y17450*
X15075Y17370*
X15425Y17630D02*
Y17370D01*
X15287Y17450*
Y17550*
X15425Y17630*
X16576Y21671D02*
G02X16585Y21692I30D01*
G01X17888Y22995*
G03X17932Y23101I106J106*
G01Y24750*
G02X17941Y24772I30*
G01X18203Y25034*
Y22821*
G03X18303Y22721I100*
G01X18697*
G03X18738Y22730J100*
G02X18750Y22732I12J28*
X18762Y22730J30*
G03X18803Y22721I41J91*
G01X19197*
G03X19238Y22730J100*
G02X19250Y22732I12J28*
X19262Y22730J30*
G03X19303Y22721I41J91*
G01X19697*
G03X19797Y22821J100*
G01Y24179*
G03X19697Y24279I100*
G01X19303*
G03X19262Y24270J100*
G02X19250Y24268I12J28*
X19238Y24270J30*
G03X19197Y24279I41J91*
G01X18803*
G03X18762Y24270J100*
G02X18750Y24268I12J28*
X18738Y24270J30*
G03X18697Y24279I41J91*
G01X18303*
G03X18203Y24179J100*
G01Y25034*
X21431Y28262*
G02X21453Y28271I22J21*
X21479Y28255J30*
G03X21567Y28203I88J48*
G01X21882*
G03X21973Y28261J100*
G02X22000Y28279I27J12*
X22027Y28261J30*
G03X22101Y28205I91J42*
G02X22126Y28175I5J30*
G01Y28148*
G03X22149Y28068I150*
G02X22152Y28060I26J16*
G01X22160Y28031*
G02X22161Y28024I29J7*
X22160Y28016I30*
G01X22152Y27987*
G02X22149Y27979I29J8*
G03X22126Y27899I127J80*
G01Y27825*
G02X22101Y27795I30*
G03X22027Y27739I17J98*
G02X22000Y27721I27J12*
X21973Y27739J30*
G03X21882Y27797I91J42*
G01X21567*
G03X21467Y27697J100*
G01Y27303*
G03X21567Y27203I100*
G01X21882*
G03X21973Y27261J100*
G02X22000Y27279I27J12*
X22027Y27261J30*
G03X22118Y27203I91J42*
G01X22218*
G02X22248Y27173J30*
X22239Y27152I30*
G01X22227Y27140*
G03X22183Y27034I106J106*
G01Y24903*
G03X22227Y24797I150*
G01X22694Y24330*
G02X22703Y24309I21J21*
G01Y24118*
G03X22761Y24027I100*
G02X22779Y24000I12J27*
X22761Y23973I30*
G03X22705Y23899I42J91*
G02X22675Y23874I30J5*
G01X22362*
G03X22256Y23830J150*
G01X22084Y23659*
G02X22063Y23650I21J21*
G01X21827*
G02X21797Y23680J30*
G01Y24179*
G03X21697Y24279I100*
G01X21303*
G03X21262Y24270J100*
G02X21250Y24268I12J28*
X21238Y24270J30*
G03X21197Y24279I41J91*
G01X20803*
G03X20762Y24270J100*
G02X20750Y24268I12J28*
X20738Y24270J30*
G03X20697Y24279I41J91*
G01X20303*
G03X20203Y24179J100*
G01Y22821*
G03X20303Y22721I100*
G01X20697*
G03X20738Y22730J100*
G02X20750Y22732I12J28*
X20762Y22730J30*
G03X20803Y22721I41J91*
G01X21197*
G03X21238Y22730J100*
G02X21250Y22732I12J28*
X21262Y22730J30*
G03X21303Y22721I41J91*
G01X21697*
G03X21797Y22821J100*
G01Y23320*
G02X21827Y23350I30*
G01X22138*
G03X22244Y23394J150*
G01X22416Y23566*
G02X22437Y23574I21J22*
G01X22675*
G02X22705Y23550J30*
G03X22803Y23467I98J17*
G01X23197*
G03X23295Y23550J100*
G02X23324Y23575I30J5*
G03X23423Y23618I7J149*
G01X23575Y23770*
G03X23619Y23877I106J107*
G01Y25572*
G03X23575Y25678I150*
G01X23423Y25830*
G03X23324Y25874I106J106*
G02X23295Y25899I1J30*
G03X23239Y25973I98J17*
G02X23221Y26000I12J27*
X23239Y26027I30*
G03X23295Y26101I42J91*
G02X23325Y26126I30J5*
G01X24483*
Y23827*
G03X24583Y23727I100*
G01X25370*
G03X25470Y23827J100*
G01Y25323*
G03X25370Y25423I100*
G01X24583*
G03X24483Y25323J100*
G01Y26126*
X26530*
Y23827*
G03X26630Y23727I100*
G01X27417*
G03X27517Y23827J100*
G01Y25323*
G03X27417Y25423I100*
G01X26630*
G03X26530Y25323J100*
G01Y26126*
X27142*
G02X27163Y26117J30*
G01X28711Y24569*
G02X28720Y24548I21J21*
X28704Y24522I30*
G03X28400Y24000I296J522*
G01Y22750*
G03X28925Y22155I600*
G02X28951Y22125I4J30*
X28925Y22095I30*
G03X28524Y21865I75J595*
G02X28500Y21853I24J18*
X28476Y21865J30*
G03X28000Y22100I476J365*
G01X18000*
G03X17400Y21500J600*
G01Y16396*
G02X17370Y16366I30*
X17344Y16380J30*
G03X17149Y16490I195J120*
X16926Y16319J230*
G01X16903Y16232*
G02X16895Y16218I29J8*
G01X16894Y16217*
G03X16850Y16111I106J106*
G01Y16063*
G02X16820Y16033I30*
G01X16803*
G03X16703Y15933J100*
G01Y15618*
G03X16761Y15527I100*
G02X16779Y15500I12J27*
X16761Y15473I30*
G03X16705Y15399I42J91*
G02X16675Y15374I30J5*
G01X16630*
G02X16600Y15404J30*
G01Y21500*
G03X16578Y21663I600*
G02X16576Y21671I28J8*
G01X16886Y24668D02*
X17111Y24672D01*
X17050Y24562*
X16950*
X16886Y24668*
X17023Y16293D02*
X17182Y16134D01*
X17061Y16102*
X16991Y16172*
X17023Y16293*
X17500Y11000D02*
X22500D01*
Y12000*
X17500*
Y11000*
Y21500D02*
G02X17780Y21949I500D01*
G01Y18341*
G03X17880Y18241I100*
G01X18203*
Y14321*
G03X18303Y14221I100*
G01X18697*
G03X18738Y14230J100*
G02X18750Y14232I12J28*
X18762Y14230J30*
G03X18803Y14221I41J91*
G01X19197*
G03X19238Y14230J100*
G02X19250Y14232I12J28*
X19262Y14230J30*
G03X19303Y14221I41J91*
G01X19697*
G03X19797Y14321J100*
G01Y15679*
G03X19697Y15779I100*
G01X19303*
G03X19262Y15770J100*
G02X19250Y15768I12J28*
X19238Y15770J30*
G03X19197Y15779I41J91*
G01X18803*
G03X18762Y15770J100*
G02X18750Y15768I12J28*
X18738Y15770J30*
G03X18697Y15779I41J91*
G01X18303*
G03X18203Y15679J100*
G01Y18241*
X20203*
Y14321*
G03X20303Y14221I100*
G01X20697*
G03X20738Y14230J100*
G02X20750Y14232I12J28*
X20762Y14230J30*
G03X20803Y14221I41J91*
G01X21113*
G02X21138Y14208J30*
G03X21303Y14121I165J113*
G01X21697*
G03X21897Y14321J200*
G01Y14720*
G02X21927Y14750I30*
G01X22138*
G03X22315Y14823J250*
G01X22457Y14966*
G02X22478Y14974I21J22*
G01X22608*
G02X22634Y14960J30*
G03X22803Y14867I169J107*
G01X23197*
G03X23397Y15067J200*
G01Y15382*
G03X23368Y15485I200*
G02X23364Y15500I26J15*
X23368Y15515I30*
G03X23397Y15618I171J103*
G01Y15933*
G03X23269Y16120I200*
G02X23250Y16148I11J28*
G01Y16265*
G02X23254Y16280I30*
G01X23286Y16335*
G03X23330Y16500I286J165*
X23000Y16830I330*
X22670Y16500J330*
X22714Y16335I330*
G01X22746Y16280*
G02X22750Y16265I26J15*
G01Y16148*
G02X22731Y16120I30*
G03X22603Y15933I72J187*
G01Y15618*
G03X22629Y15519I200*
G02X22633Y15504I26J15*
X22603Y15474I30*
G01X22362*
G03X22185Y15401J250*
G01X22043Y15259*
G02X22022Y15250I21J21*
G01X21927*
G02X21897Y15280J30*
G01Y15679*
G03X21697Y15879I200*
G01X21303*
G03X21138Y15792J200*
G02X21113Y15779I25J17*
G01X20803*
G03X20762Y15770J100*
G02X20750Y15768I12J28*
X20738Y15770J30*
G03X20697Y15779I41J91*
G01X20303*
G03X20203Y15679J100*
G01Y18241*
X22120*
G03X22220Y18341J100*
G01Y21439*
G03X22120Y21539I100*
G01X17880*
G03X17780Y21439J100*
G01Y21949*
G02X18000Y22000I220J449*
G01X23780*
Y17907*
G03X23880Y17807I100*
G01X24483*
Y15327*
G03X24583Y15227I100*
G01X25370*
G03X25470Y15327J100*
G01Y16823*
G03X25370Y16923I100*
G01X24583*
G03X24483Y16823J100*
G01Y17807*
X26430*
Y15327*
G03X26630Y15127I200*
G01X27417*
G03X27617Y15327J200*
G01Y16823*
G03X27417Y17023I200*
G01X26630*
G03X26430Y16823J200*
G01Y17807*
X28120*
G03X28220Y17907J100*
G01Y21006*
G03X28120Y21106I100*
G01X23880*
G03X23780Y21006J100*
G01Y22000*
X28000*
G02X28438Y21741J500*
X28442Y21726I26J15*
X28440Y21715I30*
G03X28400Y21500I560J215*
G01Y14250*
G03X28440Y14035I600*
G02X28442Y14024I28J11*
X28438Y14009I30*
X28000Y13750I438J241*
G01X18000*
G02X17500Y14250J500*
G01Y21500*
X17750Y19250D02*
X28250D01*
Y20250*
X17750*
Y19250*
X19500Y18000D02*
X20500D01*
Y21750*
X19500*
Y18000*
X20000Y32250D02*
G02X20250Y32500I250D01*
G01X20314*
Y30665*
G03X20374Y30605I60*
G01X20886*
G03X20946Y30665J60*
G01Y31335*
G03X20886Y31395I60*
G01X20374*
G03X20314Y31335J60*
G01Y31665*
G03X20374Y31605I60*
G01X20886*
G03X20946Y31665J60*
G01Y32335*
G03X20886Y32395I60*
G01X20374*
G03X20314Y32335J60*
G01Y32500*
X20896*
G02X21073Y32427J250*
G01X21427Y32073*
G02X21500Y31896I177J177*
G01Y31016*
G02X21475Y30987I30*
G03X21418Y30957I15J99*
G02X21396Y30948I22J21*
G01X21395*
G03X21392I3J60*
G01X21293*
G03X21233Y30888J60*
G01Y30280*
G02X21203Y30250I30*
G01X20250*
G02X20000Y30500J250*
G01Y32250*
X20130Y17575D02*
X19870D01*
X19950Y17713*
X20050*
X20130Y17575*
X20539Y17645D02*
X20355Y17461D01*
X20314Y17616*
X20384Y17686*
X20539Y17645*
X20575Y17370D02*
Y17630D01*
X20713Y17550*
Y17450*
X20575Y17370*
X20870Y16925D02*
X21130D01*
X21050Y16787*
X20950*
X20870Y16925*
Y17425D02*
X21130D01*
X21050Y17287*
X20950*
X20870Y17425*
X20925Y17630D02*
Y17370D01*
X20787Y17450*
Y17550*
X20925Y17630*
X21130Y17075D02*
X20870D01*
X20950Y17213*
X21050*
X21130Y17075*
X21259Y32588D02*
X21221Y32788D01*
X21283Y32759*
X21354Y32688*
X21259Y32588*
X21644Y32586D02*
X21456Y32686D01*
X21568Y32752*
X21639Y32682*
X21644Y32586*
X21676Y33972D02*
X21829Y34125D01*
X21859Y34013*
X21789Y33942*
X21676Y33972*
X21747Y31024D02*
X21862Y31206D01*
X21920Y31092*
X21849Y31021*
X21747Y31024*
X21948Y32494D02*
X21731D01*
X21790Y32595*
X21890*
X21948Y32494*
X22028Y31100D02*
X22243Y31082D01*
X22180Y30991*
X22080*
X22028Y31100*
X22185Y34165D02*
X22395Y34154D01*
X22343Y34083*
X22243Y34064*
X22185Y34165*
X22262Y32597D02*
X22109Y32751D01*
X22221Y32781*
X22292Y32710*
X22262Y32597*
X22275Y28057D02*
X22423Y27896D01*
X22326Y27878*
X22242Y27936*
X22275Y28057*
X22286Y29978D02*
X22140Y30138D01*
X22251Y30163*
X22322Y30092*
X22286Y29978*
X22423Y28152D02*
X22275Y27990D01*
X22242Y28111*
X22326Y28169*
X22423Y28152*
X22573Y37372D02*
X22591Y37575D01*
X22644Y37530*
X22706Y37451*
X22573Y37372*
X22593Y21399D02*
X22434Y21239D01*
X22402Y21360*
X22472Y21431*
X22593Y21399*
X22716Y34709D02*
X22893Y34814D01*
X22884Y34678*
X22784*
X22716Y34709*
X22740Y38850D02*
X23260D01*
X23050Y38487*
X22950*
X22740Y38850*
X22772Y25012D02*
X22613Y24853D01*
X22580Y24974*
X22651Y25044*
X22772Y25012*
X22887Y16435D02*
X23113D01*
X23050Y16327*
X22950*
X22887Y16435*
X23037Y30084D02*
X22826Y30042D01*
X22867Y30161*
X22967*
X23037Y30084*
X23087Y34448D02*
X23213Y34601D01*
X23247Y34453*
X23147Y34446*
X23087Y34448*
X23500Y10250D02*
X28500D01*
Y11250*
X23500*
Y10250*
X23596Y33879D02*
X23813Y33880D01*
X23755Y33779*
X23655*
X23596Y33879*
X23626Y27864D02*
G03X23616Y27886I30D01*
G02X23540Y28056I154J170*
X23574Y28177I230*
G03X23579Y28193I25J16*
X23565Y28219I30*
G02X23527Y28261I53J84*
G03X23500Y28279I27J12*
X23473Y28261J30*
G02X23382Y28203I91J42*
G01X23191*
G03X23170Y28194J30*
G01X23048Y28072*
G03X23039Y28051I21J21*
G01Y27827*
G03X23069Y27797I30*
G01X23382*
G02X23473Y27739J100*
G03X23500Y27721I27J12*
X23527Y27739J30*
G02X23601Y27795I91J42*
G03X23626Y27825I5J30*
G01Y27864*
X23734Y27173D02*
G03X23704Y27203I30D01*
G01X23618*
G02X23527Y27261J100*
G03X23500Y27279I27J12*
X23473Y27261J30*
G02X23382Y27203I91J42*
G01X23069*
G03X23039Y27173J30*
G01Y27170*
G02X22995Y27064I150*
G01X22662Y26731*
G03X22653Y26709I21J22*
G01Y26483*
G03X22683Y26453I30*
X22711Y26472J30*
G02X22803Y26533I92J39*
G01X23072*
G03X23094Y26542J30*
G01X23169Y26617*
G02X23220Y26651I106J106*
G03X23231Y26657I10J28*
G01X23725Y27152*
G03X23734Y27173I21J21*
G01X23740Y38850D02*
X24260D01*
X24050Y38487*
X23950*
X23740Y38850*
X24153Y35109D02*
G03X24144Y35130I30D01*
G01X24080Y35194*
G03X24059Y35203I21J21*
G01X23868*
G02X23777Y35261J100*
G03X23750Y35279I27J12*
X23723Y35261J30*
G02X23632Y35203I91J42*
G01X23317*
G02X23217Y35303J100*
G01Y35673*
G03X23187Y35703I30*
X23166Y35695J30*
G01X23021Y35550*
G03X23013Y35529I22J21*
G01Y35264*
G02X22969Y35158I150*
G01X22875Y35064*
G03X22866Y35043I21J21*
X22881Y35017I30*
G02X22993Y34822I113J195*
Y34819I225*
G01Y34818*
G03X23023Y34788I30*
X23031Y34789J30*
G02X23091Y34797I60J217*
X23210Y34764J225*
G03X23225Y34759I15J25*
X23246Y34768J30*
G02X23317Y34797I71J71*
G01X23632*
G02X23723Y34739J100*
G03X23750Y34721I27J12*
X23777Y34739J30*
G02X23868Y34797I91J42*
G01X24123*
G03X24153Y34827J30*
G01Y35109*
X24250Y24250D02*
X25750D01*
Y25000*
X24250*
Y24250*
X24487Y37372D02*
Y37588D01*
X24588Y37530*
Y37430*
X24487Y37372*
X24604Y30034D02*
X24388Y30021D01*
X24442Y30128*
X24542*
X24604Y30034*
X24740Y38850D02*
X25260D01*
X25050Y38487*
X24950*
X24740Y38850*
X24824Y34181D02*
X25041D01*
X24983Y34080*
X24883*
X24824Y34181*
X24840Y35855D02*
G03X24810Y35885I30D01*
G01X23369*
G03X23347Y35876J30*
G01X23319Y35848*
G03X23310Y35827I21J21*
X23340Y35797I30*
G01X23632*
G02X23723Y35739J100*
G03X23750Y35721I27J12*
X23777Y35739J30*
G02X23868Y35797I91J42*
G01X24183*
G02X24283Y35697J100*
G01Y35428*
G03X24292Y35406I30*
G01X24355Y35343*
G03X24376Y35334I21J21*
X24398Y35343J30*
G01X24811Y35756*
G03X24818Y35770I22J21*
G01X24839Y35847*
G03X24840Y35855I29J8*
G01X24876Y27843D02*
G03X24867Y27864I30D01*
G02X24798Y28028I161J164*
X24843Y28165I230*
G03X24849Y28183I24J18*
X24830Y28211I30*
G02X24777Y28261I38J92*
G03X24750Y28279I27J12*
X24723Y28261J30*
G02X24632Y28203I91J42*
G01X24317*
G02X24308Y28204J100*
G03X24305I3J30*
X24275Y28174J30*
G01Y27826*
G03X24305Y27796I30*
X24308J30*
G02X24317Y27797I9J99*
G01X24632*
G02X24723Y27739J100*
G03X24750Y27721I27J12*
X24777Y27739J30*
G02X24851Y27795I91J42*
G03X24876Y27825I5J30*
G01Y27843*
X24936Y35823D02*
X25089Y35669D01*
X24977Y35639*
X24906Y35710*
X24936Y35823*
X25058Y33989D02*
X25244Y33884D01*
X25133Y33822*
X25061Y33891*
X25058Y33989*
X25140Y36424D02*
Y36207D01*
X25039Y36265*
Y36365*
X25140Y36424*
X25145Y36754D02*
Y36537D01*
X25044Y36595*
Y36695*
X25145Y36754*
X25381Y31168D02*
G03X25361Y31196I30D01*
G01X25358Y31197*
G03X25348Y31199I10J28*
X25330Y31193J30*
G02X25271Y31173I59J80*
G01X22731*
G02X22631Y31273J100*
G01Y32730*
G02X22632Y32739I100*
G03Y32742I30J3*
X22622Y32764I30*
G01X22607Y32778*
G03X22586Y32787I21J21*
X22565Y32778J30*
G01X22503Y32716*
G02X22407Y32673I106J106*
G03X22380Y32650I2J30*
G01X22359Y32572*
G02X22141Y32405I218J58*
X22095Y32410J225*
G03X22089I6J30*
X22060Y32386J30*
G02X21840Y32207I220J46*
X21631Y32348J225*
G03X21603Y32367I28J11*
X21593Y32366J30*
G02X21519Y32353I74J212*
X21323Y32469J225*
G03X21297Y32484I26J15*
X21282Y32480J30*
G02X21241Y32462I114J194*
G03X21221Y32433I10J29*
X21229Y32412I30*
G01X21497Y32144*
G02X21600Y31896I247J248*
G01Y31374*
G03X21630Y31344I30*
X21644Y31347J30*
G02X21750Y31374I106J198*
X21921Y31296J225*
G03X21943Y31285I22J19*
X21967Y31296J30*
G02X22141Y31379I174J142*
X22366Y31154J225*
X22331Y31034I225*
G03X22327Y31018I26J16*
X22357Y30988I30*
G01X22376*
G02X22414Y30980J100*
G03X22425Y30978I11J28*
X22437Y30980J30*
G02X22474Y30988I37J92*
G01X22573*
G02X22611Y30980J100*
G03X22622Y30978I11J28*
X22633Y30980J30*
G02X22671Y30988I38J92*
G01X22770*
G02X22808Y30980J100*
G03X22819Y30978I11J28*
X22830Y30980J30*
G02X22868Y30988I38J92*
G01X22967*
G02X23004Y30980J100*
G03X23016Y30978I12J28*
X23027Y30980J30*
G02X23065Y30988I38J92*
G01X23163*
G02X23201Y30980J100*
G03X23213Y30978I12J28*
X23224Y30980J30*
G02X23262Y30988I38J92*
G01X23360*
G02X23398Y30980J100*
G03X23409Y30978I11J28*
X23421Y30980J30*
G02X23459Y30988I38J92*
G01X23557*
G02X23595Y30980J100*
G03X23606Y30978I11J28*
X23618Y30980J30*
G02X23656Y30988I38J92*
G01X23754*
G02X23792Y30980J100*
G03X23803Y30978I11J28*
X23815Y30980J30*
G02X23852Y30988I37J92*
G01X23951*
G02X23989Y30980J100*
G03X24000Y30978I11J28*
X24011Y30980J30*
G02X24049Y30988I38J92*
G01X24148*
G02X24185Y30980J100*
G03X24197Y30978I12J28*
X24208Y30980J30*
G02X24246Y30988I38J92*
G01X24344*
G02X24382Y30980J100*
G03X24394Y30978I12J28*
X24405Y30980J30*
G02X24443Y30988I38J92*
G01X24541*
G02X24579Y30980J100*
G03X24591Y30978I12J28*
X24602Y30980J30*
G02X24640Y30988I38J92*
G01X24738*
G02X24776Y30980J100*
G03X24787Y30978I11J28*
X24799Y30980J30*
G02X24837Y30988I38J92*
G01X24935*
G02X24973Y30980J100*
G03X24984Y30978I11J28*
X24996Y30980J30*
G02X25033Y30988I37J92*
G01X25132*
G02X25170Y30980J100*
G03X25181Y30978I11J28*
X25192Y30980J30*
G02X25230Y30988I38J92*
G01X25321*
G03X25350Y31012J30*
G01X25380Y31162*
G03X25381Y31168I29J6*
G01X25447Y30984D02*
X25485Y31176D01*
G02X25554Y31304I245J49*
G01X27177Y32927*
G02X27354Y33000I177J177*
G01X28646*
G03X28823Y33073J250*
G01X30177Y34427*
G03X30250Y34604I177J177*
G01Y34750*
G02X30365Y34961I250*
G01Y31795*
G03X30819Y31342I454*
G01X31094*
G03X31548Y31795J453*
G01Y34157*
G03X31094Y34611I454*
G01X30819*
G03X30365Y34157J454*
G01Y34961*
G02X30500Y35000I135J211*
G01X31500*
G02X31750Y34750J250*
G01Y31000*
G02X31500Y30750I250*
G01X30500*
G02X30250Y31000J250*
G01Y32250*
G03X30000Y32500I250*
G01X29260*
G02X29230Y32530J30*
G01Y32736*
G03X29130Y32836I100*
G01X28657*
G03X28557Y32736J100*
G01Y32530*
G02X28527Y32500I30*
G01X28433*
G02X28403Y32530J30*
G01Y32736*
G03X28343Y32796I60*
G01X27870*
G03X27810Y32736J60*
G01Y32530*
G02X27780Y32500I30*
G01X27354*
G03X27177Y32427J250*
G01X25823Y31073*
G03X25763Y30975I177J177*
G02X25754Y30962I29J10*
G03X25749Y30957I67J74*
G02X25727Y30948I22J21*
G01X25725*
G03X25722I3J60*
G01X25624*
G03X25591Y30938J60*
G02X25575Y30933I16J25*
X25558Y30938J30*
G03X25526Y30948I32J50*
G01X25476*
G02X25446Y30978J30*
X25447Y30984I30*
G01X25772Y34046D02*
X25986Y34019D01*
X25920Y33933*
X25820*
X25772Y34046*
X26005Y32793D02*
X25852Y32640D01*
X25822Y32752*
X25892Y32823*
X26005Y32793*
X26312Y30030D02*
G03Y30034I30D01*
G02X26311Y30053I149J19*
G01Y30188*
G03X26281Y30218I30*
G01X26215*
G02X26182Y30227J60*
G03X26165Y30232I17J25*
X26149Y30227J30*
G02X26116Y30218I33J51*
G01X26050*
G03X26020Y30188J30*
G01Y30030*
G03X26050Y30000I30*
G01X26282*
G03X26312Y30030J30*
G01X26525Y34464D02*
X26741D01*
X26683Y34363*
X26583*
X26525Y34464*
X27234Y29986D02*
X27081Y30139D01*
X27194Y30169*
X27265Y30098*
X27234Y29986*
X27715Y29173D02*
G03X27685Y29203I30D01*
G01X27683*
X27368*
G02X27277Y29261J100*
G03X27250Y29279I27J12*
X27223Y29261J30*
G02X27149Y29205I91J42*
G03X27124Y29175I5J30*
G01Y28825*
G03X27149Y28795I30*
G02X27223Y28739I17J98*
G03X27250Y28721I27J12*
X27277Y28739J30*
G02X27368Y28797I91J42*
G01X27559*
G03X27580Y28806J30*
G01X27707Y28932*
G03X27715Y28954I22J22*
G01Y29173*
Y29932D02*
G03X27707Y29953I30D01*
G01X27649Y30010*
G03X27628Y30019I21J21*
G01X27370*
G03X27341Y29997J30*
G01X27331Y29960*
G02X27211Y29815I217J58*
G03X27194Y29788I13J27*
X27203Y29767I30*
G02X27223Y29739I71J70*
G03X27250Y29721I27J12*
X27277Y29739J30*
G02X27368Y29797I91J42*
G01X27683*
X27685*
G03X27715Y29827J30*
G01Y29932*
X28236Y38858D02*
X28753Y38838D01*
X28532Y38494*
X28432*
X28236Y38858*
X28500Y11000D02*
X33500D01*
Y12000*
X28500*
Y11000*
Y21500D02*
G02X28780Y21949I500D01*
G01Y18341*
G03X28880Y18241I100*
G01X29203*
Y14321*
G03X29303Y14221I100*
G01X29697*
G03X29738Y14230J100*
G02X29750Y14232I12J28*
X29762Y14230J30*
G03X29803Y14221I41J91*
G01X30197*
G03X30238Y14230J100*
G02X30250Y14232I12J28*
X30262Y14230J30*
G03X30303Y14221I41J91*
G01X30697*
G03X30797Y14321J100*
G01Y15679*
G03X30697Y15779I100*
G01X30303*
G03X30262Y15770J100*
G02X30250Y15768I12J28*
X30238Y15770J30*
G03X30197Y15779I41J91*
G01X29803*
G03X29762Y15770J100*
G02X29750Y15768I12J28*
X29738Y15770J30*
G03X29697Y15779I41J91*
G01X29303*
G03X29203Y15679J100*
G01Y18241*
X31203*
Y14321*
G03X31303Y14221I100*
G01X31697*
G03X31738Y14230J100*
G02X31750Y14232I12J28*
X31762Y14230J30*
G03X31803Y14221I41J91*
G01X32113*
G02X32138Y14208J30*
G03X32303Y14121I165J113*
G01X32697*
G03X32897Y14321J200*
G01Y14720*
G02X32927Y14750I30*
G01X33138*
G03X33315Y14823J250*
G01X33457Y14966*
G02X33478Y14974I21J22*
G01X33608*
G02X33634Y14960J30*
G03X33803Y14867I169J107*
G01X34197*
G03X34397Y15067J200*
G01Y15382*
G03X34393Y15422I200*
G02X34392Y15428I29J6*
X34422Y15458I30*
X34427Y15457J30*
G03X34477Y15454I50J327*
X34807Y15784J330*
X34477Y16114I330*
X34349Y16088J330*
G02X34337Y16085I12J27*
X34319Y16092J30*
G03X34197Y16133I122J159*
G01X33803*
G03X33603Y15933J200*
G01Y15618*
G03X33629Y15519I200*
G02X33633Y15504I26J15*
X33603Y15474I30*
G01X33362*
G03X33185Y15401J250*
G01X33043Y15259*
G02X33022Y15250I21J21*
G01X32927*
G02X32897Y15280J30*
G01Y15679*
G03X32697Y15879I200*
G01X32303*
G03X32138Y15792J200*
G02X32113Y15779I25J17*
G01X31803*
G03X31762Y15770J100*
G02X31750Y15768I12J28*
X31738Y15770J30*
G03X31697Y15779I41J91*
G01X31303*
G03X31203Y15679J100*
G01Y18241*
X33120*
G03X33220Y18341J100*
G01Y21439*
G03X33120Y21539I100*
G01X28880*
G03X28780Y21439J100*
G01Y21949*
G02X29000Y22000I220J449*
G01X35280*
Y18407*
G03X35380Y18307I100*
G01X35983*
Y15327*
G03X36083Y15227I100*
G01X36870*
G03X36970Y15327J100*
G01Y16823*
G03X36870Y16923I100*
G01X36083*
G03X35983Y16823J100*
G01Y18307*
X37930*
Y15327*
G03X38130Y15127I200*
G01X38917*
G03X39117Y15327J200*
G01Y16823*
G03X38917Y17023I200*
G01X38130*
G03X37930Y16823J200*
G01Y18307*
X39620*
G03X39720Y18407J100*
G01Y21506*
G03X39620Y21606I100*
G01X35380*
G03X35280Y21506J100*
G01Y22000*
X39500*
G02X40000Y21500J500*
G01Y14250*
G02X39500Y13750I500*
G01X29000*
G02X28500Y14250J500*
G01Y21500*
Y24000D02*
G02X29000Y24500I500D01*
G01X29203*
Y22821*
G03X29303Y22721I100*
G01X29697*
G03X29738Y22730J100*
G02X29750Y22732I12J28*
X29762Y22730J30*
G03X29803Y22721I41J91*
G01X30197*
G03X30238Y22730J100*
G02X30250Y22732I12J28*
X30262Y22730J30*
G03X30303Y22721I41J91*
G01X30697*
G03X30797Y22821J100*
G01Y24179*
G03X30697Y24279I100*
G01X30303*
G03X30262Y24270J100*
G02X30250Y24268I12J28*
X30238Y24270J30*
G03X30197Y24279I41J91*
G01X29803*
G03X29762Y24270J100*
G02X29750Y24268I12J28*
X29738Y24270J30*
G03X29697Y24279I41J91*
G01X29303*
G03X29203Y24179J100*
G01Y24500*
X29250*
G03X29750Y25000J500*
G01Y25313*
G02X29780Y25343I30*
G01X29821*
G03X30018Y25513J200*
G02X30048Y25538I30J5*
X30077Y25516J30*
G03X30173Y25443I96J27*
G01X31203*
Y22821*
G03X31303Y22721I100*
G01X31697*
G03X31738Y22730J100*
G02X31750Y22732I12J28*
X31762Y22730J30*
G03X31803Y22721I41J91*
G01X32113*
G02X32138Y22708J30*
G03X32303Y22621I165J113*
G01X32697*
G03X32897Y22821J200*
G01Y23220*
G02X32927Y23250I30*
G01X33146*
G02X33158Y23247J30*
G03X33263Y23224I105J227*
G01X33608*
G02X33634Y23210J30*
G03X33803Y23117I169J107*
G01X34197*
G03X34368Y23214J200*
G02X34389Y23228I26J16*
G03X34524Y23298I42J246*
G01X34738Y23512*
G03X34811Y23689I177J177*
G01Y24760*
G03X34738Y24937I250*
G01X34524Y25151*
G03X34389Y25221I177J177*
G02X34368Y25235I5J29*
G03X34304Y25301I171J103*
G02X34290Y25326I16J25*
X34292Y25336I30*
G03X34297Y25368I95J32*
G01Y25683*
G03X34197Y25783I100*
G01X33803*
G03X33703Y25683J100*
G01Y25368*
G03X33708Y25336I100*
G02X33710Y25326I28J10*
X33696Y25301I30*
G03X33603Y25132I107J169*
G01Y24817*
G03X33803Y24617I200*
G01X34197*
G03X34270Y24631J200*
G02X34281Y24633I11J28*
X34311Y24603J30*
G01Y24397*
G02X34281Y24367I30*
X34270Y24369J30*
G03X34197Y24383I73J186*
G01X33803*
G03X33641Y24300J200*
G02X33616Y24287I25J17*
X33601Y24291J30*
G01X33567Y24311*
G03X33401Y24356I166J285*
X33071Y24026J330*
X33160Y23800I330*
G02X33168Y23780I22J20*
X33138Y23750I30*
G01X32927*
G02X32897Y23780J30*
G01Y24179*
G03X32697Y24379I200*
G01X32303*
G03X32138Y24292J200*
G02X32113Y24279I25J17*
G01X31803*
G03X31762Y24270J100*
G02X31750Y24268I12J28*
X31738Y24270J30*
G03X31697Y24279I41J91*
G01X31303*
G03X31203Y24179J100*
G01Y25443*
X32378*
G03X32478Y25543J100*
G01Y26504*
G03X32378Y26604I100*
G01X30173*
G03X30077Y26531J100*
G02X30048Y26509I29J8*
X30018Y26535J30*
G03X29977Y26629I197J31*
G02X29970Y26648I23J19*
X29984Y26673I30*
X30250Y26750I266J423*
G01X35983*
Y24327*
G03X36083Y24227I100*
G01X36870*
G03X36970Y24327J100*
G01Y25823*
G03X36870Y25923I100*
G01X36083*
G03X35983Y25823J100*
G01Y26750*
X36750*
G02X37250Y26250J500*
G01Y22750*
G02X36750Y22250I500*
G01X29000*
G02X28500Y22750J500*
G01Y24000*
X28750Y19250D02*
X39750D01*
Y20250*
X28750*
Y19250*
Y31720D02*
G03X28720Y31750I30D01*
G01X28716*
G03X28686Y31720J30*
G01Y31165*
G02X28626Y31105I60*
G01X28114*
G02X28054Y31165J60*
G01Y31720*
G03X28024Y31750I30*
G01X26762*
G03X26741Y31741J30*
G01X26009Y31009*
G03X26000Y30988I21J21*
G01Y30978*
G03X26030Y30948I30*
G01X26116*
G02X26149Y30938J60*
G03X26165Y30933I16J25*
X26182Y30938J30*
G02X26215Y30948I33J50*
G01X26313*
G02X26316J60*
G01X26318*
G03X26339Y30957J30*
G02X26411Y30988I72J69*
G01X26510*
G02X26548Y30980J100*
G03X26559Y30978I11J28*
X26570Y30980J30*
G02X26608Y30988I38J92*
G01X26707*
G02X26807Y30888J100*
G01Y30780*
G03X26837Y30750I30*
G01X27250*
X27488Y30512*
G03X27510Y30503I22J21*
G01X27771*
G02X27877Y30459J150*
G01X28003Y30333*
G03X28024Y30324I21J21*
X28054Y30354J30*
G01Y30835*
G02X28114Y30895I60*
G01X28626*
G02X28686Y30835J60*
G01Y30165*
G02X28674Y30129I60*
G03X28668Y30111I24J18*
X28698Y30081I30*
G01X28720*
G03X28750Y30111J30*
G01Y31720*
X28897Y28179D02*
X28723Y28059D01*
X28726Y28204*
X28826*
X28897Y28179*
X29346Y25039D02*
X29187Y24880D01*
X29154Y25001*
X29225Y25072*
X29346Y25039*
X29370Y15925D02*
X29630D01*
X29550Y15787*
X29450*
X29370Y15925*
X29650Y25413D02*
G03X29620Y25443I30D01*
G01X29470*
G02X29370Y25543J100*
G01Y26504*
G02X29467Y26604I100*
G03X29496Y26634I1J30*
G01Y26827*
G03X29487Y26849I30*
G01X29070Y27265*
G03X29049Y27274I21J21*
X29022Y27258J30*
G02X28933Y27203I89J45*
G01X28618*
G02X28527Y27261J100*
G03X28500Y27279I27J12*
X28473Y27261J30*
G02X28382Y27203I91J42*
G01X28067*
G02X27967Y27303J100*
G01Y27697*
G02X28050Y27795I100*
G03X28074Y27825I6J30*
G01Y27905*
G03X28068Y27923I30*
G02X28020Y28064I182J141*
X28046Y28169I230*
G03X28049Y28182I27J13*
X28030Y28210I30*
G02X27967Y28303I37J93*
G01Y28696*
G03X27937Y28726I30*
X27916Y28717J30*
G01X27792Y28594*
G03X27783Y28572I21J22*
G01Y28303*
G02X27683Y28203I100*
G01X27368*
G02X27277Y28261J100*
G03X27250Y28279I27J12*
X27223Y28261J30*
G02X27132Y28203I91J42*
G01X26817*
G02X26717Y28303J100*
G01Y28697*
G02X26800Y28795I100*
G03X26824Y28825I6J30*
G01Y29175*
G03X26800Y29205I30*
G02X26717Y29303I17J98*
G01Y29572*
G03X26708Y29594I30*
G01X26584Y29717*
G03X26563Y29726I21J21*
X26533Y29696J30*
G01Y29303*
G02X26433Y29203I100*
G01X26118*
G02X26027Y29261J100*
G03X26000Y29279I27J12*
X25973Y29261J30*
G02X25882Y29203I91J42*
G01X25782*
G03X25752Y29173J30*
X25761Y29152I30*
G01X25830Y29082*
G02X25874Y28976I106J106*
G01Y28825*
G03X25899Y28795I30*
G02X25973Y28739I17J98*
G03X26000Y28721I27J12*
X26027Y28739J30*
G02X26118Y28797I91J42*
G01X26433*
G02X26533Y28697J100*
G01Y28303*
G02X26433Y28203I100*
G01X26118*
G02X26027Y28261J100*
G03X26000Y28279I27J12*
X25973Y28261J30*
G02X25882Y28203I91J42*
G01X25714*
G03X25684Y28173J30*
X25693Y28152I30*
G01X25977Y27868*
G03X25999Y27859I22J21*
G01X26517*
G02X26623Y27815J150*
G01X29271Y25167*
G03X29284Y25159I21J21*
G01X29372Y25136*
G02X29542Y24914I60J222*
X29312Y24684I230*
X29090Y24854J230*
G01X29067Y24941*
G03X29059Y24955I29J7*
G01X26464Y27550*
G03X26443Y27559I21J21*
G01X25924*
G02X25818Y27603J150*
G01X25298Y28122*
G03X25277Y28131I21J21*
X25247Y28101J30*
X25248Y28093I30*
G02X25258Y28028I220J65*
X25185Y27861I230*
G03X25176Y27839I21J22*
G01Y27825*
G03X25200Y27795I30*
G02X25283Y27697I17J98*
G01Y27303*
G02X25183Y27203I100*
G01X24868*
G02X24777Y27261J100*
G03X24750Y27279I27J12*
X24723Y27261J30*
G02X24632Y27203I91J42*
G01X24317*
G02X24257Y27223J100*
G03X24239Y27229I18J24*
X24218Y27220J30*
G01X23474Y26477*
G03X23466Y26456I22J21*
X23496Y26426I30*
G01X27217*
G02X27323Y26382J150*
G01X29096Y24609*
G03X29117Y24600I21J21*
G01X29250*
G03X29650Y25000J400*
G01Y25413*
X29752Y37606D02*
X29734Y37382D01*
X29635Y37450*
Y37550*
X29752Y37606*
X30000Y27750D02*
X32500D01*
Y28250*
X30000*
Y27750*
X30370Y15925D02*
X30630D01*
X30550Y15787*
X30450*
X30370Y15925*
Y16425D02*
X30630D01*
X30550Y16287*
X30450*
X30370Y16425*
X30500Y18000D02*
X31500D01*
Y21750*
X30500*
Y18000*
X30630Y16075D02*
X30370D01*
X30450Y16213*
X30550*
X30630Y16075*
Y16575D02*
X30370D01*
X30450Y16713*
X30550*
X30630Y16575*
X30740Y38850D02*
X31260D01*
X31050Y38487*
X30950*
X30740Y38850*
X31000Y27250D02*
X31500D01*
Y28750*
X31000*
Y27250*
X31740Y38850D02*
X32260D01*
X32050Y38487*
X31950*
X31740Y38850*
X32250Y34750D02*
G02X32412Y34984I250D01*
G01Y31768*
G03X32906Y31274I494*
G01X33181*
G03X33675Y31768J494*
G01Y34130*
G03X33181Y34624I494*
G01X32906*
G03X32412Y34130J494*
G01Y34984*
G02X32500Y35000I88J234*
G01X33896*
G02X34073Y34927J250*
G01X34677Y34323*
G03X34854Y34250I177J177*
G01X35014*
Y31665*
G03X35114Y31565I100*
G01X35626*
G03X35726Y31665J100*
G01Y32335*
G03X35626Y32435I100*
G01X35114*
G03X35014Y32335J100*
G01Y33165*
G03X35114Y33065I100*
G01X35626*
G03X35726Y33165J100*
G01Y33835*
G03X35626Y33935I100*
G01X35114*
G03X35014Y33835J100*
G01Y34250*
X35750*
G02X36000Y34000J250*
G01Y32968*
G02X35994Y32950I30*
G03X35925Y32750I256J200*
X35994Y32550I325*
G02X36000Y32532I24J18*
G01Y30250*
G02X35750Y30000I250*
G01X35736*
G02X35706Y30030J30*
X35713Y30049I30*
G03X35734Y30110I79J61*
G01Y30701*
G03X35634Y30801I100*
G01X34650*
G03X34550Y30701J100*
G01Y30110*
G03X34571Y30049I100*
G02X34577Y30030I24J19*
X34547Y30000I30*
G01X34500*
G02X34460Y30003J250*
X34446Y30009I4J30*
G03X34339Y30062I196J259*
G02X34327Y30070I9J29*
X34250Y30250I173J180*
G01Y30500*
G03X34000Y30750I250*
G01X32500*
G02X32250Y31000J250*
G01Y34750*
X32883Y28257D02*
Y28483D01*
X32991Y28420*
Y28320*
X32883Y28257*
X33466Y23913D02*
Y24138D01*
X33575Y24076*
Y23976*
X33466Y23913*
X34240Y38850D02*
X34760D01*
X34550Y38487*
X34450*
X34240Y38850*
X34405Y15892D02*
X34418Y15668D01*
X34303Y15726*
Y15826*
X34405Y15892*
X35240Y38850D02*
X35760D01*
X35550Y38487*
X35450*
X35240Y38850*
X35250Y10500D02*
X39750D01*
Y11500*
X35250*
Y10500*
X35750Y24750D02*
X37000D01*
Y25500*
X35750*
Y24750*
X36250Y29250D02*
X39500D01*
Y29750*
X36250*
Y29250*
X37500Y27750D02*
X38250D01*
Y31000*
X37500*
Y27750*
X39519Y36989D02*
X39293D01*
X39356Y37098*
X39456*
X39519Y36989*
X39790Y34922D02*
X39422Y35290D01*
X39828Y35398*
X39898Y35328*
X39790Y34922*
X39849Y37427D02*
X39625Y37448D01*
X39694Y37545*
X39794*
X39849Y37427*
X40422Y34710D02*
X40790Y35078D01*
X40898Y34672*
X40828Y34602*
X40422Y34710*
X43000Y11250D02*
X43750D01*
Y12500*
X43000*
Y11250*
Y16250D02*
X43750D01*
Y17500*
X43000*
Y16250*
X43241Y34852D02*
X43761D01*
X43551Y34488*
X43451*
X43241Y34852*
X43651Y29742D02*
Y30262D01*
X44015Y30052*
Y29952*
X43651Y29742*
X43664Y33250D02*
X43656Y33759D01*
X44045Y33525*
X43977Y33452*
X43664Y33250*
X44092Y31925D02*
X44245Y32079D01*
X44275Y31966*
X44204Y31895*
X44092Y31925*
X44564Y31983D02*
Y32199D01*
X44665Y32141*
Y32041*
X44564Y31983*
X44635Y30362D02*
Y30587D01*
X44744Y30524*
Y30424*
X44635Y30362*
X44645Y39684D02*
Y39467D01*
X44544Y39526*
Y39626*
X44645Y39684*
X44689Y32553D02*
X44863Y32680D01*
X44874Y32574*
X44803Y32503*
X44689Y32553*
X44852Y33435D02*
Y33660D01*
X44960Y33597*
Y33497*
X44852Y33435*
X45154Y32570D02*
X45137Y32767D01*
X45185Y32735*
X45246Y32655*
X45154Y32570*
X45295Y33844D02*
X45426Y33988D01*
X45434Y33936*
Y33836*
X45295Y33844*
X45422Y36386D02*
X45639D01*
X45581Y36285*
X45481*
X45422Y36386*
X45917Y37854D02*
X46070Y37701D01*
X45958Y37671*
X45887Y37742*
X45917Y37854*
X46156Y36604D02*
X46133Y36828D01*
X46252Y36774*
Y36674*
X46156Y36604*
X46192Y36774D02*
X45967D01*
X46029Y36883*
X46129*
X46192Y36774*
X46250Y21293D02*
G02X46396Y21646I500D01*
G01X46867Y22117*
Y10778*
G03X46967Y10678I100*
G01X50065*
G03X50165Y10778J100*
G01Y15018*
G03X50065Y15118I100*
G01X46967*
G03X46867Y15018J100*
G01Y15778*
G03X46967Y15678I100*
G01X50065*
G03X50165Y15778J100*
G01Y20018*
G03X50065Y20118I100*
G01X46967*
G03X46867Y20018J100*
G01Y22117*
X51604Y26854*
G02X51957Y27000I353J354*
G01X54416*
Y26043*
G03X54516Y25943I100*
G01X56484*
G03X56584Y26043J100*
G01Y26594*
G03X56484Y26694I100*
G01X54516*
G03X54416Y26594J100*
G01Y27000*
X57372*
Y25398*
G03X58472Y24298I1100*
X59572Y25398J1100*
X58472Y26498I1100*
X57372Y25398J1100*
G01Y27000*
X59250*
G02X59750Y26500J500*
G01Y22000*
G02X59250Y21500I500*
G01X55207*
G03X54854Y21354J500*
G01X52896Y19396*
G03X52750Y19043I354J353*
G01Y11000*
G02X52250Y10500I500*
G01X46750*
G02X46250Y11000J500*
G01Y21293*
X46451Y32253D02*
X46604Y32406D01*
X46634Y32294*
X46563Y32223*
X46451Y32253*
X46586Y33571D02*
X46433Y33418D01*
X46403Y33531*
X46474Y33602*
X46586Y33571*
X46703Y32512D02*
X46856Y32665D01*
X46886Y32552*
X46816Y32482*
X46703Y32512*
X46750Y12500D02*
X50250D01*
Y13250*
X46750*
Y12500*
Y17500D02*
X50250D01*
Y18250*
X46750*
Y17500*
X46996Y33547D02*
X46843Y33394D01*
X46813Y33506*
X46884Y33577*
X46996Y33547*
X47149Y33908D02*
X47302Y34061D01*
X47333Y33949*
X47262Y33878*
X47149Y33908*
X47291Y39222D02*
Y39447D01*
X47399Y39385*
Y39285*
X47291Y39222*
X47512Y37563D02*
G03X47503Y37584I30D01*
G01X45797Y39291*
G03X45776Y39299I21J22*
X45746Y39269J30*
G01Y38967*
G03X45774Y38937I30*
G02X45872Y38893I8J150*
G01X46394Y38371*
G02X46438Y38265I106J106*
G01Y37653*
G02X46418Y37578I150*
G03X46414Y37563I26J15*
X46444Y37533I30*
G01X46697*
G02X46797Y37433J100*
G01Y37118*
G02X46739Y37027I100*
G03X46721Y37000I12J27*
X46739Y36973I30*
G02X46797Y36882I42J91*
G01Y36567*
G02X46702Y36467I100*
G03X46673Y36437I1J30*
Y36435I30*
G02X46674Y36423I149J12*
G01Y35890*
G03X46704Y35860I30*
X46725Y35869J30*
G01X47279Y36424*
G03X47288Y36445I21J21*
X47269Y36473I30*
G02X47203Y36567I34J94*
G01Y36882*
G02X47261Y36973I100*
G03X47279Y37000I12J27*
X47261Y37027I30*
G02X47203Y37118I42J91*
G01Y37433*
G02X47303Y37533I100*
G01X47482*
G03X47512Y37563J30*
G01X47612Y34241D02*
X47395D01*
X47453Y34342*
X47553*
X47612Y34241*
X47867Y34032D02*
X47651D01*
X47709Y34132*
X47809*
X47867Y34032*
X47976Y35592D02*
X48179Y35657D01*
X48148Y35530*
X48048*
X47976Y35592*
X48000Y10500D02*
X49000D01*
Y20500*
X48000*
Y10500*
X48170Y33480D02*
X48017Y33633D01*
X48130Y33663*
X48200Y33592*
X48170Y33480*
X48195Y34378D02*
X47978D01*
X48036Y34478*
X48136*
X48195Y34378*
X48241Y35787D02*
X48437Y35708D01*
X48365Y35656*
X48265*
X48241Y35787*
X48387Y37631D02*
X48613D01*
X48550Y37522*
X48450*
X48387Y37631*
X48496Y31545D02*
X48618Y31423D01*
X48547Y31404*
X48477Y31475*
X48496Y31545*
X48703Y30178D02*
X48581Y30300D01*
X48651Y30319*
X48722Y30248*
X48703Y30178*
X48709Y33725D02*
X48493D01*
X48551Y33826*
X48651*
X48709Y33725*
X48818Y29867D02*
X48658Y30026D01*
X48779Y30058*
X48850Y29988*
X48818Y29867*
X48885Y32688D02*
X49058D01*
X49022Y32625*
X48922*
X48885Y32688*
X49091Y37170D02*
X49110Y37394D01*
X49208Y37326*
Y37226*
X49091Y37170*
X49220Y29833D02*
Y30006D01*
X49284Y29969*
Y29869*
X49220Y29833*
X49251Y33070D02*
Y33243D01*
X49314Y33206*
Y33106*
X49251Y33070*
X49342Y34199D02*
X49189Y34352D01*
X49301Y34382*
X49372Y34312*
X49342Y34199*
X49446Y30300D02*
X49324Y30177D01*
X49305Y30248*
X49375Y30319*
X49446Y30300*
X49464Y33438D02*
X49557Y33563D01*
X49562Y33542*
Y33442*
X49464Y33438*
X50588Y35362D02*
Y35587D01*
X50696Y35524*
Y35424*
X50588Y35362*
X50764Y33694D02*
X50706Y33495D01*
X50619Y33599*
X50690Y33670*
X50764Y33694*
X50889Y32063D02*
X50872Y31866D01*
X50770Y31961*
X50841Y32032*
X50889Y32063*
X51177Y33966D02*
Y33750D01*
X51076Y33808*
Y33908*
X51177Y33966*
X51252Y34288D02*
Y34071D01*
X51152Y34129*
Y34229*
X51252Y34288*
X51388Y31388D02*
Y31163D01*
X51280Y31226*
Y31326*
X51388Y31388*
X52989Y33111D02*
X52983Y32886D01*
X52878Y32950*
Y33050*
X52989Y33111*
X53067Y30114D02*
Y29888D01*
X52958Y29951*
Y30051*
X53067Y30114*
X53210Y39078D02*
X53578Y38710D01*
X53172Y38602*
X53102Y38672*
X53210Y39078*
X54210D02*
X54578Y38710D01*
X54172Y38602*
X54102Y38672*
X54210Y39078*
X56299Y31887D02*
Y32113D01*
X56407Y32050*
Y31950*
X56299Y31887*
X57000Y25000D02*
X59750D01*
Y25750*
X57000*
Y25000*
X58250Y24250D02*
X58750D01*
Y26750*
X58250*
Y24250*
X58710Y33078D02*
X59078Y32710D01*
X58672Y32602*
X58602Y32672*
X58710Y33078*
Y34078D02*
X59078Y33710D01*
X58672Y33602*
X58602Y33672*
X58710Y34078*
G37*
G54D10*
X20399Y31000D02*
X20284D01*
X20399Y32000D02*
X20284D01*
X20630Y30690D02*
Y30575D01*
Y31310D02*
Y31425D01*
Y31690D02*
Y31575D01*
Y32310D02*
Y32425D01*
X20861Y31000D02*
X20976D01*
X20861Y32000D02*
X20976D01*
X21318Y30583D02*
X21203D01*
X21343Y30863D02*
Y30978D01*
X25476Y30863D02*
Y30978D01*
X25673Y30863D02*
Y30978D01*
X26067Y30303D02*
Y30188D01*
Y30863D02*
Y30978D01*
X26264Y30303D02*
Y30188D01*
Y30863D02*
Y30978D01*
X27895Y32621D02*
X27780D01*
X28106Y32711D02*
Y32826D01*
X28139Y30500D02*
X28024D01*
X28139Y31500D02*
X28024D01*
X28318Y32621D02*
X28433D01*
X28370Y30810D02*
Y30925D01*
Y31190D02*
Y31075D01*
X28601Y30500D02*
X28716D01*
X28601Y31500D02*
X28716D01*
X30819Y32976D02*
X30335D01*
X30957Y31795D02*
Y31312D01*
Y34157D02*
Y34641D01*
X31094Y32976D02*
X31578D01*
G54D11*
X6480Y10957D02*
X6250D01*
X6480Y19957D02*
X6250D01*
X7108Y7787D02*
X6878D01*
X7183Y16075D02*
X6953D01*
X7183Y25075D02*
X6953D01*
X7476Y15427D02*
Y15197D01*
Y16723D02*
Y16953D01*
Y24427D02*
Y24197D01*
Y25723D02*
Y25953D01*
X7500Y7553D02*
Y7323D01*
Y8022D02*
Y8252D01*
X7770Y16075D02*
X8000D01*
X7770Y25075D02*
X8000D01*
X7892Y7787D02*
X8122D01*
X8500Y9507D02*
Y9277D01*
Y12406D02*
Y12636D01*
Y18507D02*
Y18277D01*
Y21406D02*
Y21636D01*
X9108Y7787D02*
X8878D01*
X9500Y7553D02*
Y7323D01*
Y8022D02*
Y8252D01*
X9892Y7787D02*
X10122D01*
X10520Y10957D02*
X10750D01*
X10520Y19957D02*
X10750D01*
X11116Y8181D02*
X10886D01*
X11980Y11390D02*
X11750D01*
X11980Y19890D02*
X11750D01*
X12000Y8006D02*
Y7776D01*
Y8357D02*
Y8587D01*
X12143Y25643D02*
X11951Y25451D01*
X12143Y26404D02*
X11951Y26596D01*
X12403Y14421D02*
X12211Y14229D01*
X12403Y15579D02*
X12211Y15771D01*
X12403Y22921D02*
X12211Y22729D01*
X12403Y24079D02*
X12211Y24271D01*
X12597Y14421D02*
X12638Y14191D01*
X12597Y15579D02*
X12638Y15809D01*
X12597Y22921D02*
X12638Y22691D01*
X12597Y24079D02*
X12638Y24309D01*
X12884Y8181D02*
X13114D01*
X12903Y14421D02*
X12862Y14191D01*
X12903Y15579D02*
X12862Y15809D01*
X12903Y22921D02*
X12862Y22691D01*
X12903Y24079D02*
X12862Y24309D01*
X13097Y14421D02*
X13138Y14191D01*
X13097Y15579D02*
X13138Y15809D01*
X13097Y22921D02*
X13138Y22691D01*
X13097Y24079D02*
X13138Y24309D01*
X13403Y14421D02*
X13362Y14191D01*
X13403Y15579D02*
X13362Y15809D01*
X13403Y22921D02*
X13362Y22691D01*
X13403Y24079D02*
X13362Y24309D01*
X13597Y14421D02*
X13789Y14229D01*
X13597Y15579D02*
X13789Y15771D01*
X13597Y22921D02*
X13789Y22729D01*
X13597Y24079D02*
X13789Y24271D01*
X14000Y9941D02*
Y9711D01*
Y12839D02*
Y13069D01*
Y18441D02*
Y18211D01*
Y21339D02*
Y21569D01*
X14116Y8181D02*
X13886D01*
X14148Y25643D02*
X14254Y25413D01*
X14148Y26404D02*
X14254Y26634D01*
X14403Y14421D02*
X14211Y14229D01*
X14403Y15579D02*
X14211Y15771D01*
X14403Y22921D02*
X14211Y22729D01*
X14403Y24079D02*
X14211Y24271D01*
X14597Y14421D02*
X14638Y14191D01*
X14597Y15579D02*
X14638Y15809D01*
X14597Y22921D02*
X14638Y22691D01*
X14597Y24079D02*
X14638Y24309D01*
X15000Y8006D02*
Y7776D01*
Y8357D02*
Y8587D01*
Y14421D02*
Y14191D01*
Y15579D02*
Y15809D01*
Y22921D02*
Y22691D01*
Y24079D02*
Y24309D01*
X15884Y8181D02*
X16114D01*
X16020Y11390D02*
X16250D01*
X16020Y19890D02*
X16250D01*
X16903Y24218D02*
X16673Y24183D01*
X16903Y24333D02*
X16711Y24525D01*
X17097Y24333D02*
X17135Y24563D01*
X17116Y8181D02*
X16886D01*
X17980Y11390D02*
X17750D01*
X17980Y19890D02*
X17750D01*
X18000Y8006D02*
Y7776D01*
Y8357D02*
Y8587D01*
X18403Y14421D02*
X18211Y14229D01*
X18403Y15579D02*
X18211Y15771D01*
X18597Y14421D02*
X18638Y14191D01*
X18597Y15579D02*
X18638Y15809D01*
X18884Y8181D02*
X19114D01*
X18903Y14421D02*
X18862Y14191D01*
X18903Y15579D02*
X18862Y15809D01*
X19097Y14421D02*
X19138Y14191D01*
X19097Y15579D02*
X19138Y15809D01*
X19403Y14421D02*
X19362Y14191D01*
X19403Y15579D02*
X19362Y15809D01*
X19597Y14421D02*
X19789Y14229D01*
X19597Y15579D02*
X19789Y15771D01*
X20000Y9941D02*
Y9711D01*
Y12839D02*
Y13069D01*
Y18441D02*
Y18211D01*
Y21339D02*
Y21569D01*
X20116Y8181D02*
X19886D01*
X20403Y14421D02*
X20211Y14229D01*
X20403Y15579D02*
X20211Y15771D01*
X20597Y14421D02*
X20638Y14191D01*
X20597Y15579D02*
X20638Y15809D01*
X21000Y8006D02*
Y7776D01*
Y8357D02*
Y8587D01*
Y14421D02*
Y14191D01*
Y15579D02*
Y15809D01*
X21884Y8181D02*
X22114D01*
X22020Y11390D02*
X22250D01*
X22020Y19890D02*
X22250D01*
X23116Y8181D02*
X22886D01*
X23980Y10957D02*
X23750D01*
X23980Y19457D02*
X23750D01*
X24000Y8006D02*
Y7776D01*
Y8357D02*
Y8587D01*
X24683Y16075D02*
X24453D01*
X24884Y8181D02*
X25114D01*
X24976Y15427D02*
Y15197D01*
Y16723D02*
Y16953D01*
X25270Y16075D02*
X25500D01*
X26000Y9507D02*
Y9277D01*
Y12406D02*
Y12636D01*
Y18007D02*
Y17777D01*
Y20906D02*
Y21136D01*
X26116Y8181D02*
X25886D01*
X27000Y8006D02*
Y7776D01*
Y8357D02*
Y8587D01*
X27884Y8181D02*
X28114D01*
X28020Y10957D02*
X28250D01*
X28020Y19457D02*
X28250D01*
X28980Y11390D02*
X28750D01*
X28980Y19890D02*
X28750D01*
X29116Y8181D02*
X28886D01*
X29403Y14421D02*
X29211Y14229D01*
X29403Y15579D02*
X29211Y15771D01*
X29403Y22921D02*
X29211Y22729D01*
X29403Y24079D02*
X29211Y24271D01*
X29597Y14421D02*
X29638Y14191D01*
X29597Y15579D02*
X29638Y15809D01*
X29597Y22921D02*
X29638Y22691D01*
X29597Y24079D02*
X29638Y24309D01*
X29903Y14421D02*
X29862Y14191D01*
X29903Y15579D02*
X29862Y15809D01*
X29903Y22921D02*
X29862Y22691D01*
X29903Y24079D02*
X29862Y24309D01*
X30000Y8006D02*
Y7776D01*
Y8357D02*
Y8587D01*
X30097Y14421D02*
X30138Y14191D01*
X30097Y15579D02*
X30138Y15809D01*
X30097Y22921D02*
X30138Y22691D01*
X30097Y24079D02*
X30138Y24309D01*
X30273Y25643D02*
X30164Y25414D01*
X30273Y26404D02*
X30164Y26634D01*
X30403Y14421D02*
X30362Y14191D01*
X30403Y15579D02*
X30362Y15809D01*
X30403Y22921D02*
X30362Y22691D01*
X30403Y24079D02*
X30362Y24309D01*
X30597Y14421D02*
X30789Y14229D01*
X30597Y15579D02*
X30789Y15771D01*
X30597Y22921D02*
X30789Y22729D01*
X30597Y24079D02*
X30789Y24271D01*
X30884Y8181D02*
X31114D01*
X31000Y9941D02*
Y9711D01*
Y12839D02*
Y13069D01*
Y18441D02*
Y18211D01*
Y21339D02*
Y21569D01*
X31403Y14421D02*
X31211Y14229D01*
X31403Y15579D02*
X31211Y15771D01*
X31403Y22921D02*
X31211Y22729D01*
X31403Y24079D02*
X31211Y24271D01*
X31597Y14421D02*
X31638Y14191D01*
X31597Y15579D02*
X31638Y15809D01*
X31597Y22921D02*
X31638Y22691D01*
X31597Y24079D02*
X31638Y24309D01*
X32000Y14421D02*
Y14191D01*
Y15579D02*
Y15809D01*
Y22921D02*
Y22691D01*
Y24079D02*
Y24309D01*
X32116Y8181D02*
X31886D01*
X32278Y25643D02*
X32470Y25451D01*
X32278Y26404D02*
X32470Y26596D01*
X32906Y32949D02*
X32382D01*
X33000Y8006D02*
Y7776D01*
Y8357D02*
Y8587D01*
X33020Y11390D02*
X33250D01*
X33020Y19890D02*
X33250D01*
X33043Y31768D02*
Y31244D01*
Y34130D02*
Y34654D01*
X33181Y32949D02*
X33705D01*
X33884Y8181D02*
X34114D01*
X33903Y25468D02*
X33673Y25433D01*
X33903Y25583D02*
X33711Y25775D01*
X34097Y25468D02*
X34327Y25433D01*
X34097Y25583D02*
X34289Y25775D01*
X34750Y30210D02*
X34520Y30153D01*
X34750Y30601D02*
X34558Y30793D01*
X35116Y8181D02*
X34886D01*
X35214Y32000D02*
X34984D01*
X35214Y33500D02*
X34984D01*
X35370Y31765D02*
Y31535D01*
Y32235D02*
Y32465D01*
Y33265D02*
Y33035D01*
Y33735D02*
Y33965D01*
X35480Y10957D02*
X35250D01*
X35480Y19957D02*
X35250D01*
X35526Y32000D02*
X35756D01*
X35526Y33500D02*
X35756D01*
X35534Y30210D02*
X35764Y30154D01*
X35534Y30601D02*
X35726Y30793D01*
X36000Y8006D02*
Y7776D01*
Y8357D02*
Y8587D01*
X36183Y16075D02*
X35953D01*
X36183Y25075D02*
X35953D01*
X36476Y15427D02*
Y15197D01*
Y16723D02*
Y16953D01*
Y24427D02*
Y24197D01*
Y25723D02*
Y25953D01*
X36770Y16075D02*
X37000D01*
X36770Y25075D02*
X37000D01*
X36884Y8181D02*
X37114D01*
X37500Y9507D02*
Y9277D01*
Y12406D02*
Y12636D01*
Y18507D02*
Y18277D01*
Y21406D02*
Y21636D01*
X38116Y8181D02*
X37886D01*
X39000Y8006D02*
Y7776D01*
Y8357D02*
Y8587D01*
X39520Y10957D02*
X39750D01*
X39520Y19957D02*
X39750D01*
X39884Y8181D02*
X40114D01*
X41004Y17067D02*
X40912Y16975D01*
X41004Y17303D02*
X40912Y17395D01*
X41116Y8181D02*
X40886D01*
X41201Y17067D02*
X41293Y16975D01*
X41201Y17303D02*
X41293Y17395D01*
X42000Y8006D02*
Y7776D01*
Y8357D02*
Y8587D01*
X42750Y11874D02*
X42520D01*
X42750Y16874D02*
X42520D01*
X42884Y8181D02*
X43114D01*
X43398Y11580D02*
Y11350D01*
Y12168D02*
Y12398D01*
Y16580D02*
Y16350D01*
Y17168D02*
Y17398D01*
X43978Y7858D02*
X43786Y7666D01*
X43978Y8642D02*
X43786Y8834D01*
X43978Y9358D02*
X43786Y9166D01*
X43978Y10142D02*
X43786Y10334D01*
X44046Y11874D02*
X44276D01*
X44046Y16874D02*
X44276D01*
X44447Y7858D02*
X44639Y7666D01*
X44447Y8642D02*
X44639Y8834D01*
X44447Y9358D02*
X44639Y9166D01*
X44447Y10142D02*
X44639Y10334D01*
X47067Y12898D02*
X46837D01*
X47067Y17898D02*
X46837D01*
X48516Y10878D02*
Y10648D01*
Y14918D02*
Y15148D01*
Y15878D02*
Y15648D01*
Y19918D02*
Y20148D01*
X48592Y31520D03*
X48607Y30204D03*
X48972Y32738D03*
X49170Y29919D03*
X49201Y33156D03*
X49420Y30203D03*
X49460Y33538D03*
X49965Y12898D02*
X50195D01*
X49965Y17898D02*
X50195D01*
X54616Y26319D02*
X54386D01*
X55500Y26143D02*
Y25913D01*
Y26494D02*
Y26724D01*
X56384Y26319D02*
X56614D01*
X58472Y25398D02*
Y26528D01*
Y25398D02*
X57342D01*
X58472D02*
Y24268D01*
Y25398D02*
X59602D01*
G54D12*
X751Y30750D02*
X571D01*
X751Y31750D02*
X571D01*
X751Y32750D02*
X571D01*
X751Y33750D02*
X571D01*
X1126Y30501D02*
Y30321D01*
Y30999D02*
Y31179D01*
Y31501D02*
Y31321D01*
Y31999D02*
Y32179D01*
Y32501D02*
Y32321D01*
Y32999D02*
Y33179D01*
Y33501D02*
Y33321D01*
Y33999D02*
Y34179D01*
X1501Y30750D02*
X1681D01*
X1501Y31750D02*
X1681D01*
X1501Y32750D02*
X1681D01*
X1501Y33750D02*
X1681D01*
X2000Y2000D02*
Y3505D01*
Y2000D02*
X3505D01*
X2000D02*
Y495D01*
Y2000D02*
X495D01*
X2000Y38000D02*
Y36495D01*
Y38000D02*
X495D01*
X2000D02*
Y39505D01*
Y38000D02*
X3505D01*
X4374Y30750D02*
X5974D01*
X4374Y32750D02*
X5974D01*
X4440Y5984D02*
Y4479D01*
Y5984D02*
X2935D01*
X4440D02*
Y7489D01*
Y5984D02*
X5945D01*
X4440Y25984D02*
Y24479D01*
Y25984D02*
X2935D01*
X4440D02*
Y27489D01*
Y25984D02*
X5945D01*
X4751Y38519D02*
X4609Y38377D01*
X4751Y38812D02*
X4609Y38954D01*
X5222Y38519D02*
X5364Y38377D01*
X5222Y38812D02*
X5364Y38954D01*
X5312Y33756D02*
X5632D01*
X5637Y33750*
X5974*
X5312Y33756D02*
X4989D01*
X4983Y33750*
X4374*
X5349Y31755D02*
X5007D01*
X5001Y31750*
X4374*
X5349Y31755D02*
X5650D01*
X5656Y31750*
X5974*
X6526D02*
Y30750D01*
Y32750D02*
Y31750D01*
Y33750D02*
Y32750D01*
Y33750D02*
Y34314D01*
X6780Y38519D02*
X6638Y38377D01*
X6780Y38812D02*
X6638Y38954D01*
X7016Y39335D02*
X4986D01*
X7016D02*
X7584D01*
X7669Y39249*
X8252*
X7058Y6213D02*
X6878D01*
X7251Y38519D02*
X7393Y38377D01*
X7251Y38812D02*
X7393Y38954D01*
X7476Y16075D02*
Y17099D01*
X8500Y18122*
X7500Y5928D02*
Y5748D01*
Y6497D02*
Y6677D01*
X7942Y6213D02*
X8122D01*
X8500Y18122D02*
X9122Y17500D01*
X9500*
X8500Y19957D02*
Y20000D01*
X11500*
X11610Y19890*
X14000*
X8500Y19957D02*
Y18122D01*
X9058Y6213D02*
X8878D01*
X9500Y5928D02*
Y5748D01*
Y6497D02*
Y6677D01*
X9751Y38519D02*
X9609Y38377D01*
X9751Y38812D02*
X9609Y38954D01*
X9942Y6213D02*
X10122D01*
X10000Y17500D02*
X10500D01*
X10222Y38519D02*
X10364Y38377D01*
X10222Y38812D02*
X10364Y38954D01*
X10500Y17500D02*
X11000D01*
X11500*
X11066Y5819D02*
X10886D01*
X11500Y17500D02*
X12000D01*
X11780Y38519D02*
X11638Y38377D01*
X11780Y38812D02*
X11638Y38954D01*
X12000Y5593D02*
Y5413D01*
Y6044D02*
Y6224D01*
Y17500D02*
X12500D01*
X12016Y39335D02*
X9986D01*
X12016D02*
X12584D01*
X12669Y39249*
X13252*
X12093Y27976D02*
X11913D01*
X12251Y38519D02*
X12393Y38377D01*
X12251Y38812D02*
X12393Y38954D01*
X12500Y17500D02*
X13000D01*
X12934Y5819D02*
X13114D01*
X13146Y27546D02*
Y27366D01*
Y28407D02*
Y28587D01*
X13458Y37542D02*
X13252Y37748D01*
Y39249*
X13500Y15000D02*
Y17500D01*
X13000Y18000*
X13500D02*
X13750Y17750D01*
X13500Y17500*
X14000D02*
Y18000D01*
Y19890*
X14066Y5819D02*
X13886D01*
X14198Y27976D02*
X14378D01*
X14500Y17500D02*
X14000D01*
X14500D02*
X15000D01*
Y5593D02*
Y5413D01*
Y6044D02*
Y6224D01*
Y17500D02*
X15500D01*
Y15000D02*
X16138D01*
X16362Y15224*
X17000*
X15500Y23500D02*
X16138D01*
X16362Y23724*
X17000*
X15934Y5819D02*
X16114D01*
X16224Y26000D02*
Y26039D01*
X15650Y26614*
X14774*
Y26024*
X16224Y28000D02*
Y27961D01*
X15650Y27386*
X14776*
Y27976*
X16776Y26000D02*
Y27000D01*
Y28000D02*
Y27961D01*
X16224Y27409*
Y27000*
X16998Y24735D02*
X17000Y24733D01*
Y24276*
Y23724D02*
X17039D01*
X17526Y24211*
Y24859*
X18000Y25333*
Y25724*
X17000Y24276D02*
X16083D01*
X15805Y24554*
X15071*
X15000Y24483*
Y23500*
X17066Y5819D02*
X16886D01*
X17149Y16260D02*
X17000Y16111D01*
Y15776*
X18000Y5593D02*
Y5413D01*
Y6044D02*
Y6224D01*
X18353Y22871D02*
X18211Y22729D01*
X18353Y24129D02*
X18211Y24271D01*
X18500Y15000D02*
Y16125D01*
X18647Y22871D02*
X18690Y22691D01*
X18647Y24129D02*
X18690Y24309D01*
X18853Y22871D02*
X18810Y22691D01*
X18853Y24129D02*
X18810Y24309D01*
X18934Y5819D02*
X19114D01*
X19000Y15000D02*
X18500D01*
X19147Y22871D02*
X19190Y22691D01*
X19147Y24129D02*
X19190Y24309D01*
X19164Y31000D02*
X18984D01*
X19164Y32000D02*
X18984D01*
X19353Y22871D02*
X19310Y22691D01*
X19353Y24129D02*
X19310Y24309D01*
X19370Y30715D02*
Y30535D01*
Y31285D02*
Y31465D01*
Y31715D02*
Y31535D01*
Y32285D02*
Y32465D01*
X19576Y31000D02*
X19756D01*
X19576Y32000D02*
X19756D01*
X19647Y22871D02*
X19789Y22729D01*
X19647Y24129D02*
X19789Y24271D01*
X20000Y18000D02*
Y17500D01*
Y19890D02*
Y18000D01*
Y19890D02*
X20571D01*
X22205Y21524*
X22309*
X22560Y21273*
X20066Y5819D02*
X19886D01*
X20353Y22871D02*
X20211Y22729D01*
X20353Y24129D02*
X20211Y24271D01*
X20500Y17500D02*
X20000Y18000D01*
X20500Y39000D02*
Y38570D01*
Y39000D02*
X20070D01*
X20500D02*
Y39430D01*
Y39000D02*
X20930D01*
X20617Y34353D02*
X20475Y34211D01*
X20617Y34647D02*
X20475Y34789D01*
X20630Y30463D02*
Y30921D01*
Y31000*
Y32000*
X20647Y22871D02*
X20690Y22691D01*
X20647Y24129D02*
X20690Y24309D01*
X20832Y34353D02*
X20974Y34211D01*
X20832Y34647D02*
X20974Y34789D01*
X20853Y22871D02*
X20810Y22691D01*
X20853Y24129D02*
X20810Y24309D01*
X21000Y5593D02*
Y5413D01*
Y6044D02*
Y6224D01*
Y17000D02*
Y17500D01*
Y17000D02*
Y15000D01*
Y17500D02*
X20500D01*
X21147Y22871D02*
X21158Y22691D01*
X21147Y24129D02*
X21158Y24309D01*
X21168Y32674D02*
X21269D01*
X21507Y32913*
X21545*
X21736Y33104*
Y33417*
X21224Y32928D02*
X21268D01*
X21343Y33002*
Y33417*
Y30583D02*
X21073D01*
X21071Y30581*
X20971*
X20630Y30921*
X21500Y15000D02*
X22138D01*
X22362Y15224*
X23000*
X21500Y23500D02*
X22138D01*
X22362Y23724*
X23000*
X21539Y30583D02*
Y30168D01*
X19372Y28000*
X16776*
X21539Y33417D02*
Y33868D01*
X21276Y34132*
Y34500*
X21617Y27353D02*
X21475Y27211D01*
X21617Y27647D02*
X21475Y27789D01*
X21708Y34093D02*
X21959Y33842D01*
X22032*
X22130Y33745*
Y33417*
X21724Y28500D02*
X21457D01*
X17782Y24825*
Y23101*
X14571Y19890*
X14000*
X21724Y29250D02*
Y28500D01*
X21736Y30583D02*
Y30114D01*
X18622Y27000*
X16776*
X21832Y27353D02*
X21974Y27211D01*
X21832Y27647D02*
X21974Y27789D01*
X21840Y32432D02*
Y32682D01*
X22150Y32992*
X22327*
Y33417*
X21853Y35168D02*
X21711Y35026D01*
X21853Y35383D02*
X21711Y35525D01*
X21933Y30583D02*
Y31008D01*
X21792Y31149*
X21750*
X21933Y33417D02*
Y33047D01*
X21519Y32633*
Y32578*
X21934Y5819D02*
X22114D01*
X22000Y34724D02*
X22323D01*
X22863Y35264*
Y35604*
X23294Y36035*
X25496*
X25724Y35807*
Y35500*
X22000Y34724D02*
Y34115D01*
X22327Y33788*
Y33417*
X22130Y30583D02*
Y31143D01*
X22141Y31154*
Y32630D02*
X22333Y32822D01*
X22397*
X22524Y32949*
Y33417*
X22147Y35168D02*
X22289Y35026D01*
X22147Y35383D02*
X22289Y35525D01*
X22167Y30016D02*
X22175D01*
X22327Y30168*
Y30583*
X22276Y28500D02*
Y28148D01*
X22400Y28024*
X22276Y27899*
Y27500*
X22524Y30583D02*
Y30026D01*
X22268Y29771*
X21735*
X21457Y29492*
Y29426*
X18307Y26276*
X18000*
X22720Y30583D02*
Y30131D01*
X22694Y30104*
Y29956*
X22339Y29601*
X22036*
X21724Y29289*
Y29250*
X22720Y33417D02*
Y33745D01*
X22618Y33847*
X22508*
X22293Y34062*
Y34227*
X22738Y24886D02*
X22503Y25121D01*
Y26784*
X22889Y27170*
Y28126*
X23224Y28461*
Y28500*
X22768Y34822D02*
X22834Y34757D01*
Y34469*
X23027Y34276*
Y34172*
X23284Y33915*
Y33444*
X23311Y33417*
X22781Y32002D02*
X22601D01*
X22853Y37224D02*
X22673D01*
X22917Y30583D02*
Y30027D01*
X22944Y30001*
X22917Y33417D02*
Y33791D01*
X22607Y34102*
X23000Y15776D02*
Y16500D01*
Y23724D02*
X23317D01*
X23469Y23877*
Y25572*
X23317Y25724*
X23000*
Y26276D02*
X23039D01*
X23000Y37117D02*
Y36937D01*
Y37776D02*
Y39000D01*
Y37776D02*
X22961D01*
X22665Y37480*
X22510*
X23039Y26276D02*
X23275Y26511D01*
X23296*
X24125Y27340*
Y29587*
X24234Y29696*
Y30053*
X24295Y30114*
Y30583*
X23039Y26276D02*
X27217D01*
X29051Y24442*
X29429*
X29500Y24371*
Y23500*
X23066Y5819D02*
X22886D01*
X23091Y34572D02*
X23197Y34466D01*
Y34242*
X23454Y33985*
Y33811*
X23508Y33758*
Y33417*
X23114Y30583D02*
Y30220D01*
X23194Y30140*
Y29897*
X23047Y29751*
X22737*
X22276Y29289*
Y29250*
X23114Y33417D02*
Y33844D01*
X22857Y34102*
Y34205*
X22626Y34436*
X22584*
X23117Y27353D02*
X23103Y27173D01*
X23117Y27647D02*
X23103Y27827D01*
X23147Y37224D02*
X23327D01*
X23224Y29250D02*
Y28500D01*
X23311Y30583D02*
Y31020D01*
X23332Y27353D02*
X23474Y27211D01*
X23332Y27647D02*
X23474Y27789D01*
X23367Y35500D02*
X23187D01*
X23474Y34500D02*
Y34461D01*
X23743Y34192*
X23808*
X23954Y34046*
Y33818*
X23902Y33765*
Y33417*
X23474Y35353D02*
Y35173D01*
Y35647D02*
Y35827D01*
X23508Y30583D02*
Y30158D01*
X23364Y30013*
Y29827*
X23118Y29581*
X23031*
X22683Y29233*
Y27384*
X22333Y27034*
Y24903*
X22961Y24276*
X23000*
X23530Y37480D02*
X23665D01*
X23961Y37776*
X24000*
X23704Y33942D02*
X23705Y33941D01*
Y33417*
Y30583D02*
Y30114D01*
X23534Y29943*
Y29599*
X23224Y29289*
Y29250*
X23770Y28002D02*
Y28056D01*
Y28002D02*
X23776Y27996D01*
Y27500*
Y28500D02*
Y28007D01*
X23770Y28002*
X23794Y29850D02*
X23894Y29950D01*
Y30576*
X23902Y30583*
X23853Y37224D02*
X23673D01*
X24000Y5593D02*
Y5413D01*
Y6044D02*
Y6224D01*
Y37117D02*
Y36937D01*
Y37776D02*
Y39000D01*
X24001Y31323D02*
Y31143D01*
Y32680D02*
Y32860D01*
X24026Y34500D02*
X24133D01*
Y34183*
X24124Y34174*
Y33443*
X24098Y33417*
X24026Y35500D02*
Y35461D01*
X24303Y35183*
Y34113*
X24295Y34105*
Y33417*
X24098Y30583D02*
Y30158D01*
X24064Y30124*
Y29767*
X23898Y29600*
X23808*
X23776Y29567*
Y29250*
X24147Y37167D02*
X24327D01*
X24367Y27353D02*
X24311Y27173D01*
X24367Y27647D02*
X24346Y27827D01*
X24474Y28500D02*
Y28539D01*
X24742Y28807*
X25229*
X25375Y28660*
Y28258*
X25924Y27709*
X26517*
X29312Y24914*
X24474Y28539D02*
Y29250D01*
X24492Y30583D02*
Y29973D01*
X24500Y29965*
X24582Y27353D02*
X24724Y27211D01*
X24582Y27647D02*
X24724Y27789D01*
X24633Y24575D02*
X24453D01*
X24689Y30583D02*
Y30129D01*
X24750Y30069*
Y29861*
X24474Y29586*
Y29250*
X24853Y37224D02*
X24673D01*
X24886Y30583D02*
Y30173D01*
X24929Y30129*
Y29688*
X24886Y33417D02*
Y33886D01*
X24933Y33933*
Y34243*
X24934Y5819D02*
X25114D01*
X24976Y16075D02*
Y16429D01*
X26000Y17453*
Y19457*
X24976Y23877D02*
Y23697D01*
Y25273D02*
Y25453D01*
X25000Y37117D02*
Y36937D01*
Y37776D02*
Y39000D01*
Y37776D02*
X24961D01*
X24665Y37480*
X24424*
X25026Y29250D02*
Y29289D01*
X25268Y29532*
Y29929*
X25110Y30087*
Y30556*
X25083Y30583*
X25057Y35790D02*
X24492Y35226D01*
Y33417*
X25083D02*
Y33842D01*
X25183Y33942*
Y33993*
X25104Y28028D02*
X25026Y28107D01*
Y28500*
X25104Y28028D02*
X25026Y27950D01*
Y27500*
X25104Y28028D02*
X25028D01*
X25147Y37224D02*
X25327D01*
X25202Y36315D02*
X21452D01*
X15467Y30330*
X6087*
X5974Y30443*
Y30750*
X25208Y36645D02*
X21350D01*
X16463Y31758*
X7504*
X25221Y32002D02*
X25401D01*
X25280Y30583D02*
Y30158D01*
X25447Y29990*
Y29253*
X25724Y28976*
Y28500*
X25280Y33417D02*
Y32971D01*
X25320Y24575D02*
X25500D01*
X25476Y30583D02*
X25673D01*
X25476Y33417D02*
Y34213D01*
X25724Y34461*
Y34500*
X25673Y30583D02*
Y29868D01*
X25724Y29817*
Y29500*
Y36500D02*
Y36461D01*
X26276Y35909*
Y35500*
X25870Y30583D02*
Y29945D01*
X26276Y29539*
Y29500*
X25870Y33417D02*
Y34078D01*
X25887Y34095*
X25973Y32672D02*
X25673Y32971D01*
Y33417*
X26000Y39000D02*
Y38570D01*
Y39000D02*
X25570D01*
X26000D02*
Y39430D01*
Y39000D02*
X26430D01*
X26066Y5819D02*
X25886D01*
X26168Y28353D02*
X26026Y28211D01*
X26168Y28647D02*
X26026Y28789D01*
X26168Y34647D02*
X26026Y34789D01*
X26264Y30583D02*
Y30158D01*
X26067*
Y30583*
X26276Y35500D02*
Y35461D01*
X25895Y35080*
X25294*
X24688Y34474*
Y33834*
X24689Y33832*
Y33417*
X26276Y36647D02*
Y36827D01*
X26345Y36353D02*
Y36173D01*
X26383Y28353D02*
X26525Y28211D01*
X26383Y28647D02*
X26525Y28789D01*
X26383Y34647D02*
X26454Y34825D01*
X26383Y36500D02*
X26563D01*
X26633Y34527D02*
Y34282D01*
X26535Y34183*
X26418*
X26067Y33832*
Y33417*
X26657D02*
X27952D01*
X28724Y34189*
Y34500*
X26974Y29500D02*
Y28500D01*
Y29500D02*
Y29539D01*
X26461Y30053*
Y30583*
X27000Y5593D02*
Y5413D01*
Y6044D02*
Y6224D01*
X27114Y30018D02*
X27265Y30169D01*
X27703*
X27865Y30007*
Y28879*
X27526Y28539*
Y28500*
X27224Y34500D02*
Y35500D01*
Y34500D02*
Y34461D01*
X26989Y34225*
X26854*
X26461Y33832*
Y33417*
X27418Y29353D02*
X27276Y29211D01*
X27418Y29647D02*
X27276Y29789D01*
X27633Y29353D02*
X27649Y29173D01*
X27633Y29647D02*
X27649Y29827D01*
X27668Y34353D02*
X27526Y34211D01*
X27668Y34647D02*
X27526Y34789D01*
X27776Y35500D02*
X28724D01*
X27778Y30603D02*
X27881Y30500D01*
X28370*
X27883Y34353D02*
X28025Y34211D01*
X27883Y34647D02*
X28025Y34789D01*
X27934Y5819D02*
X28114D01*
X28106Y32500D02*
Y32846D01*
X28236Y32976*
X30957*
X28106Y32500D02*
X27165D01*
X25673Y31008*
Y30583*
X28224Y27500D02*
Y28064D01*
Y28500*
X28250Y28064D02*
X28224D01*
X28370Y30500D02*
Y31500D01*
X26559*
X26067Y31008*
Y30583*
X28617Y36353D02*
X28475Y36211D01*
X28617Y36647D02*
X28475Y36789D01*
X28707Y32332D02*
X28527D01*
X28724Y37500D02*
Y37539D01*
X28482Y37782*
Y38562*
X28500Y38580*
Y39000*
X28776Y28500D02*
Y28539D01*
X28224Y29091*
Y29500*
X28776Y28500D02*
Y28134D01*
X28853Y28056*
X28832Y36353D02*
X28974Y36211D01*
X28832Y36647D02*
X28974Y36789D01*
X28894Y32314D02*
Y32134D01*
X29066Y5819D02*
X28886D01*
X29080Y32332D02*
X29260D01*
X29168Y34353D02*
X29026Y34211D01*
X29168Y34647D02*
X29026Y34789D01*
X29168Y35353D02*
X29026Y35211D01*
X29168Y35647D02*
X29026Y35789D01*
X29276Y37500D02*
X29796D01*
X29808Y37488*
X29276Y37500D02*
Y36500D01*
X29383Y34353D02*
X29525Y34211D01*
X29383Y34647D02*
X29525Y34789D01*
X29383Y35353D02*
X29525Y35211D01*
X29383Y35647D02*
X29525Y35789D01*
X29424Y30500D02*
X29244D01*
X29424Y31500D02*
X29244D01*
X29500Y15000D02*
Y16000D01*
Y23500D02*
X30000D01*
X29500Y39000D02*
Y38570D01*
Y39000D02*
X29070D01*
X29500D02*
Y39430D01*
Y39000D02*
X29930D01*
X29630Y30215D02*
Y30035D01*
Y30785D02*
Y30965D01*
Y31215D02*
Y31035D01*
Y31785D02*
Y31965D01*
X29646Y26024D02*
Y26902D01*
X29048Y27500*
X28776*
X29648Y27976D02*
Y28895D01*
X29043Y29500*
X28776*
X29724D02*
Y29539D01*
X29333Y29931*
X28193*
X27771Y30353*
X27051*
X26822Y30583*
X26657*
X29836Y30500D02*
X30016D01*
X29836Y31500D02*
X30016D01*
X30000Y5593D02*
Y5413D01*
Y6044D02*
Y6224D01*
Y15000D02*
X30500D01*
X30000D02*
X29500D01*
X30000Y23500D02*
X30500D01*
X30168Y29353D02*
X30026Y29211D01*
X30168Y29647D02*
X30026Y29789D01*
X30223Y27976D02*
X30043D01*
X30383Y29353D02*
X30525Y29211D01*
X30383Y29647D02*
X30525Y29789D01*
X30500Y15000D02*
Y16000D01*
Y16500*
Y17721*
X31000Y18221*
Y19890*
X30853Y35617D02*
X30711Y35475D01*
X30853Y35832D02*
X30711Y35974D01*
X30934Y5819D02*
X31114D01*
X31000Y36276D02*
X31454D01*
X31000Y37224D02*
Y36276D01*
Y39000D02*
Y37776D01*
X31147Y35617D02*
X31289Y35475D01*
X31147Y35832D02*
X31289Y35974D01*
X31276Y27546D02*
Y27366D01*
Y28407D02*
Y28587D01*
X31454Y36276D02*
X32000D01*
X31454Y36277D02*
Y36276D01*
X31500Y23500D02*
X30500D01*
X31853Y35617D02*
X31711Y35475D01*
X31853Y35832D02*
X31711Y35974D01*
X32000Y23500D02*
X31500D01*
X32000Y37224D02*
Y36276D01*
Y37776D02*
Y39000D01*
X32066Y5819D02*
X31886D01*
X32147Y35617D02*
X32289Y35475D01*
X32147Y35832D02*
X32289Y35974D01*
X32328Y27976D02*
X32508D01*
X32498Y25526D02*
Y25494D01*
X31500Y24496*
Y23500*
X32498Y25526D02*
Y26024D01*
X31276*
X32498Y25526D02*
X34000D01*
X32500Y15000D02*
X33138D01*
X33362Y15224*
X34000*
X32500Y23500D02*
X33237D01*
X33263Y23474*
X34000*
X33000Y5593D02*
Y5413D01*
Y6044D02*
Y6224D01*
Y39000D02*
Y38570D01*
Y39000D02*
X32570D01*
X33000D02*
Y39430D01*
Y39000D02*
X33430D01*
X33043Y32949D02*
Y34644D01*
X33394*
X34538Y33500*
X35370*
X33215Y29630D02*
X33035D01*
X33500Y28370D02*
X33579D01*
X33919Y28711*
X34166*
X34283Y28594*
X35142*
X33500Y28370D02*
X32818D01*
X33500Y29424D02*
Y29244D01*
Y29836D02*
Y30016D01*
X33785Y29630D02*
X33965D01*
X33934Y5819D02*
X34114D01*
X34000Y24026D02*
X33401D01*
X34000Y24974D02*
X34347D01*
X34561Y24760*
Y23689*
X34347Y23474*
X34000*
Y25526D02*
X34039D01*
X34490Y25075*
X36476*
X34353Y35617D02*
X34211Y35475D01*
X34353Y35832D02*
X34211Y35974D01*
X34477Y15784D02*
X34468Y15776D01*
X34000*
X34500Y37224D02*
Y36276D01*
Y37776D02*
Y39000D01*
X34647Y35617D02*
X34789Y35475D01*
X34647Y35832D02*
X34789Y35974D01*
X35066Y5819D02*
X34886D01*
X35353Y35617D02*
X35211Y35475D01*
X35353Y35832D02*
X35211Y35974D01*
X35370Y32000D02*
Y31921D01*
X35029Y31581*
Y30933*
X35142Y30821*
Y30406*
X35500Y36276D02*
X34500D01*
X35500D02*
Y36778D01*
Y37224*
Y37776D02*
Y39000D01*
X35501Y36778D02*
X35500D01*
X35647Y35617D02*
X35789Y35475D01*
X35647Y35832D02*
X35789Y35974D01*
X36000Y5593D02*
Y5413D01*
Y6044D02*
Y6224D01*
X36424Y32000D02*
X36244D01*
X36424Y33500D02*
X36244D01*
X36476Y16075D02*
X35386D01*
X31571Y19890*
X31000*
X36500Y39000D02*
Y38570D01*
Y39000D02*
X36070D01*
X36500D02*
Y39430D01*
Y39000D02*
X36930D01*
X36530Y29500D02*
X36350D01*
X36630Y31715D02*
Y31535D01*
Y32285D02*
Y32465D01*
Y33215D02*
Y33035D01*
Y33785D02*
Y33965D01*
X36836Y32000D02*
X37016D01*
X36836Y33500D02*
X37016D01*
X36934Y5819D02*
X37114D01*
X37858Y28172D02*
Y27992D01*
Y30828D02*
Y31008D01*
X38066Y5819D02*
X37886D01*
X38071Y38758D02*
X37909Y38596D01*
X38071Y39348D02*
X37909Y39510D01*
X38504Y38000D02*
X38750Y37665D01*
X38504Y38000D02*
X38210Y37706D01*
X38504Y38000D02*
X38210Y38294D01*
X38504Y38000D02*
X38750Y38335D01*
X38622Y38758D02*
X38713Y38548D01*
X38622Y39348D02*
X38713Y39558D01*
X38889Y38769D02*
X38846Y38589D01*
X38889Y39338D02*
X38846Y39518D01*
X38976Y37784D02*
Y37604D01*
Y38216D02*
Y38396D01*
X39000Y5593D02*
Y5413D01*
Y6044D02*
Y6224D01*
X39186Y29500D02*
X39366D01*
X39300Y38769D02*
X39442Y38627D01*
X39300Y39338D02*
X39442Y39480D01*
X39488Y38000D02*
Y37483D01*
X39406Y37401*
Y36924*
X39676Y38769D02*
X39534Y38627D01*
X39676Y39338D02*
X39534Y39480D01*
X39744Y38000D02*
Y37386D01*
X39731Y37373*
X39934Y5819D02*
X40114D01*
X40000Y38000D02*
Y35500D01*
X39500Y35000*
X40088Y38769D02*
X40130Y38589D01*
X40088Y39338D02*
X40131Y39518D01*
X40354Y38756D02*
X40262Y38547D01*
X40354Y39346D02*
X40264Y39556D01*
X40472Y38000D02*
X40766Y37706D01*
X40472Y38000D02*
X40226Y37665D01*
X40472Y38000D02*
X40226Y38335D01*
X40472Y38000D02*
X40766Y38294D01*
X40719Y18826D02*
X40577Y18684D01*
X40719Y19119D02*
X40577Y19261D01*
X40906Y38756D02*
X41067Y38594D01*
X40906Y39346D02*
X41067Y39508D01*
X40934Y18826D02*
X41076Y18684D01*
X40934Y19119D02*
X41076Y19261D01*
X41066Y5819D02*
X40886D01*
X41378Y18972D02*
X42067D01*
X42118Y18921*
X43398*
X41476Y17972D02*
Y18527D01*
X41378Y18626*
Y18972*
X41500Y35000D02*
Y34570D01*
Y35000D02*
X41070D01*
X41500D02*
Y35430D01*
Y35000D02*
X41930D01*
X42000Y5593D02*
Y5413D01*
Y6044D02*
Y6224D01*
X42934Y5819D02*
X43114D01*
X43398Y13921D02*
X44296D01*
X44675Y14301*
Y18542*
X44296Y18921*
X43398*
X43404Y38286D02*
X43262Y38144D01*
X43404Y39289D02*
X43262Y39431D01*
X43501Y30002D02*
X46323D01*
X46720Y30400*
Y30835*
X43596Y38286D02*
X43682Y38111D01*
X43596Y39289D02*
X43682Y39463D01*
X43617Y28853D02*
X43475Y28711D01*
X43617Y29147D02*
X43475Y29289D01*
X43724Y32500D02*
X43000D01*
X40500Y35000*
X43832Y28853D02*
X43974Y28711D01*
X43832Y29147D02*
X43974Y29289D01*
X44276Y32500D02*
X44553D01*
X44792Y32261*
X44822*
X44842Y32241*
X45243*
X45313Y32311*
X45835*
X44404Y38286D02*
X44318Y38111D01*
X44500Y37213D02*
Y35179D01*
X45400Y34280*
X45835*
X44502Y32091D02*
X44752D01*
X44771Y32071*
X45313*
X45356Y32114*
X45835*
X44596Y38286D02*
X44682Y38111D01*
X44708Y39576D02*
X44117D01*
X44000Y39459*
Y38787*
X44739Y32668D02*
Y32638D01*
X44965Y32411*
X45173*
X45269Y32508*
X45835*
X44750Y30474D02*
X44570D01*
X44853Y31026D02*
X44673D01*
X45000Y30474D02*
X44750D01*
X45000Y31133D02*
Y31313D01*
Y38787D02*
Y39459D01*
X45841*
X47817Y37483*
Y36509*
X46917Y35609*
Y35165*
X45147Y31095D02*
X45327D01*
X45279Y31671D02*
X45328Y31720D01*
X45835*
X45500Y38787D02*
X45766D01*
X46288Y38265*
Y37653*
X46079Y37444*
Y36709*
X45503Y8250D02*
X45323D01*
X45503Y9750D02*
X45323D01*
X45531Y36449D02*
Y35364D01*
X45835Y35060*
Y34476*
X45766Y37213D02*
X45500D01*
X45766D02*
Y37550D01*
X46038Y37822*
X45766Y37213D02*
X45805Y37173D01*
Y35331*
X46601Y34535*
Y34200*
X47705Y33096*
Y30835*
X45787Y7808D02*
Y7628D01*
Y8692D02*
Y8872D01*
Y9308D02*
Y9128D01*
Y10192D02*
Y10372D01*
X45835Y31270D02*
X46270Y30835D01*
X46524*
X45835Y31270D02*
Y31524D01*
Y31270D02*
X45039Y30474D01*
X45000*
X45835Y31917D02*
X45400D01*
X45373Y31890*
X45258*
X45209Y31841*
X44329*
X44124Y32046*
X45835Y32705D02*
X45225D01*
X45182Y32661*
X45069*
X45835Y32902D02*
X45269D01*
X45213Y32957*
X44542*
X43998Y33502*
X43501*
X45835Y33098D02*
X45313D01*
X45284Y33127*
X44613*
X43501Y34239*
Y35002*
X45835Y33295D02*
X45356D01*
X45354Y33297*
X44683*
X44229Y33751*
Y34868*
X43500Y35597*
Y37213*
X45835Y33492D02*
X45246D01*
X45191Y33547*
X44787*
X45835Y33886D02*
X45386D01*
X45302Y33969*
X45835Y34083D02*
X46307D01*
X46964Y33426*
X46072Y8250D02*
X46252D01*
X46072Y9750D02*
X46252D01*
X46079Y36709D02*
X46094Y36724D01*
X46500*
X46275Y28975D02*
X44867D01*
X44842Y29000*
X44276*
X46448Y5984D02*
Y4479D01*
Y5984D02*
X44943D01*
X46448D02*
Y7489D01*
Y5984D02*
X47953D01*
X46448Y25984D02*
Y24479D01*
Y25984D02*
X44943D01*
X46448D02*
Y27489D01*
Y25984D02*
X47953D01*
X46483Y32374D02*
X46917Y31940D01*
Y30835*
X46500Y36724D02*
Y36447D01*
X46524Y36423*
Y35165*
X46500Y37383D02*
Y37563D01*
X46554Y33451D02*
X46316Y33689D01*
X45835*
X46647Y37276D02*
X46827D01*
X47114Y30835D02*
Y32254D01*
X46735Y32633*
X47311Y30835D02*
Y29459D01*
X47395Y29375*
Y28975*
X46275*
X47353Y37276D02*
X47173D01*
X47398Y37383D02*
Y37563D01*
X47500Y36724D02*
Y36432D01*
X46720Y35653*
Y35165*
X47508D02*
Y34730D01*
X47503Y34726*
Y34178*
X47751Y38519D02*
X47609Y38377D01*
X47751Y38812D02*
X47609Y38954D01*
X47759Y33969D02*
Y34633D01*
X47705Y34687*
Y35165*
X47902D02*
Y34730D01*
X48086Y34546*
Y34315*
X47986Y39335D02*
X47226D01*
X47986D02*
X50016D01*
X48098Y35165D02*
Y35646D01*
X48058Y35686*
X48222Y38519D02*
X48364Y38377D01*
X48222Y38812D02*
X48364Y38954D01*
X48295Y35165D02*
Y35546D01*
X48315Y35566*
Y35761*
X48364Y35810*
X48492Y30835D02*
Y31270D01*
X48467Y31295*
Y31395*
X48592Y31520*
X48500Y36724D02*
X48183D01*
X47987Y36528*
Y36438*
X47114Y35566*
Y35165*
X48500Y37276D02*
Y37696D01*
X48516Y17898D02*
Y20439D01*
X54396Y26319*
X55500*
X48516Y17898D02*
Y12898D01*
X48607Y30204D02*
X48803Y30400D01*
X48808*
X48886Y30478*
Y30835*
X48689D02*
Y31260D01*
X48761Y31332*
X48833*
X48886Y35165D02*
Y34730D01*
X47875Y33719*
X47492*
X47182Y34029*
X48972Y32738D02*
Y32282D01*
X49730Y31524*
X50165*
X49083Y30835D02*
Y30291D01*
X48692Y29900*
X49083Y35165D02*
Y34687D01*
X48431Y34035*
Y33893*
X48049Y33512*
X49170Y29919D02*
X49490D01*
X49670Y30100*
Y30830*
X49665Y30835*
X49476*
X49201Y33156D02*
X49547D01*
X49686Y33295*
X50165*
X49280Y30835D02*
Y30344D01*
X49420Y30203*
X49280Y35165D02*
Y34643D01*
X48601Y33965*
Y33662*
X49460Y33538D02*
X49506Y33492D01*
X50165*
X49476Y35165D02*
Y34487D01*
X49221Y34231*
X49500Y36724D02*
X49461D01*
X49007Y36270*
X48059*
X47311Y35522*
Y35165*
X49500Y37276D02*
X49048D01*
X49035Y37288*
X49725Y28975D02*
X51258D01*
X51283Y29000*
X51974*
X49725Y28975D02*
X48605D01*
X47508Y30072*
Y30835*
X49780Y38519D02*
X49638Y38377D01*
X49780Y38812D02*
X49638Y38954D01*
X50165Y32311D02*
X50957D01*
X51438Y31830*
X51461*
X51974Y31317*
Y31000*
X50165Y32508D02*
X51001D01*
X51509Y32000*
X51974*
X50165Y34083D02*
X50784D01*
X50881Y34179*
X51315*
X50165Y34280D02*
X50741D01*
X51693Y35232*
X51718*
X51961Y35474*
X52000*
X50165Y34476D02*
X50600D01*
X51000Y34876*
Y35474*
X50204Y31270D02*
X50451D01*
X50590Y31409*
Y31720*
X50165*
X50251Y38519D02*
X50393Y38377D01*
X50251Y38812D02*
X50393Y38954D01*
X50802Y33575D02*
X50715D01*
X50600Y33689*
X50165*
X50853Y30617D02*
X50711Y30475D01*
X50853Y30832D02*
X50711Y30974D01*
X50853Y35918D02*
X50711Y35776D01*
X50853Y36133D02*
X50711Y36275D01*
X50957Y31958D02*
X50844D01*
X50687Y32114*
X50165*
X51000Y31276D02*
X51453D01*
X51000D02*
Y31553D01*
X50636Y31917*
X50165*
X51000Y35474D02*
X50523D01*
X51147Y30617D02*
X51289Y30475D01*
X51147Y30832D02*
X51289Y30974D01*
X51147Y35918D02*
X51289Y35776D01*
X51147Y36133D02*
X51289Y36275D01*
X51240Y33858D02*
X50672D01*
X50644Y33886*
X50165*
X51853Y35918D02*
X51711Y35776D01*
X51853Y36133D02*
X51711Y36275D01*
X51974Y31000D02*
Y30000D01*
Y32000D02*
Y33000D01*
X52147Y35918D02*
X52289Y35776D01*
X52147Y36133D02*
X52289Y36275D01*
X52418Y28853D02*
X52276Y28711D01*
X52418Y29147D02*
X52276Y29289D01*
X52418Y30853D02*
X52276Y30711D01*
X52418Y31147D02*
X52276Y31289D01*
X52418Y31853D02*
X52276Y31711D01*
X52418Y32147D02*
X52276Y32289D01*
X52500Y39000D02*
Y39430D01*
Y39000D02*
X52930D01*
X52500D02*
Y38570D01*
Y39000D02*
X52070D01*
X52526Y33000D02*
X53047D01*
X53051Y32996*
X52633Y28853D02*
X52775Y28711D01*
X52633Y29147D02*
X52775Y29289D01*
X52633Y30853D02*
X52775Y30711D01*
X52633Y31147D02*
X52775Y31289D01*
X52633Y31853D02*
X52775Y31711D01*
X52633Y32147D02*
X52775Y32289D01*
X52974Y35000D02*
Y34961D01*
X50915Y32902*
X50165*
X52974Y36000D02*
X52697D01*
X52566Y35869*
Y34831*
X50834Y33098*
X50165*
X53132Y30001D02*
X52843D01*
X52842Y30000*
X52526*
X53224Y34000D02*
X52313D01*
X51018Y32705*
X50165*
X53500Y39000D02*
X51529Y37029D01*
X50329*
X49211Y35911*
X48838*
X48492Y35566*
Y35165*
X53526Y35000D02*
X54819D01*
X53526Y36000D02*
X53868D01*
X54042Y35827*
X54819*
X54500Y39000D02*
X52333Y36833D01*
X50373*
X49281Y35741*
X48908*
X48689Y35522*
Y35165*
X54566Y28681D02*
X54386D01*
X54819Y34173D02*
X54207D01*
Y34154*
X54053Y34000*
X53776*
X55500Y28456D02*
Y28276D01*
Y28907D02*
Y29087D01*
X56434Y28681D02*
X56614D01*
X56724Y32000D02*
X56234D01*
X56724Y33000D02*
Y32000D01*
X56739Y33889D02*
X56597Y33747D01*
X56739Y34458D02*
X56559Y34519D01*
X56739Y34715D02*
X56559Y34654D01*
X56739Y35285D02*
X56559Y35346D01*
X56739Y35542D02*
X56559Y35481D01*
X56739Y36111D02*
X56597Y36253D01*
X57276Y32000D02*
X58000D01*
X59000Y33000*
X57276D02*
X58000D01*
X59000Y34000*
X57623Y33889D02*
X57765Y33747D01*
X57623Y34458D02*
X57803Y34519D01*
X57623Y34715D02*
X57803Y34654D01*
X57623Y35285D02*
X57803Y35346D01*
X57623Y35542D02*
X57803Y35481D01*
X57623Y36111D02*
X57765Y36253D01*
X57976Y7000D02*
Y6476D01*
Y7000D02*
X57453D01*
X57976D02*
Y7524D01*
Y7000D02*
X58500D01*
X57976Y13750D02*
Y13226D01*
Y13750D02*
X57453D01*
X57976D02*
Y14274D01*
Y13750D02*
X58500D01*
X57976Y20500D02*
Y19976D01*
Y20500D02*
X57453D01*
X57976D02*
Y21024D01*
Y20500D02*
X58500D01*
X58000Y2000D02*
Y495D01*
Y2000D02*
X56495D01*
X58000D02*
Y3505D01*
Y2000D02*
X59505D01*
X58000Y38000D02*
Y36495D01*
Y38000D02*
X56495D01*
X58000D02*
Y39505D01*
Y38000D02*
X59505D01*
X58472Y25398D02*
X57352D01*
Y25571*
X56604Y26319*
X55500*
X58472Y29398D02*
Y30528D01*
Y29398D02*
X57342D01*
X58472D02*
Y28268D01*
Y29398D02*
X59602D01*
X59000Y35000D02*
X59430D01*
X59000D02*
Y34570D01*
Y35000D02*
X58570D01*
X59000D02*
Y35430D01*
G54D13*
X1000Y5000D03*
Y8000D03*
Y11000D03*
Y14000D03*
Y17000D03*
Y20000D03*
Y23000D03*
Y26000D03*
Y29000D03*
Y36000D03*
X5000Y1000D03*
X7000Y5000D03*
Y28000D03*
X8000Y1000D03*
X9000Y28000D03*
Y30000D03*
X10500Y17500D03*
Y18000D03*
Y34500D03*
X11000Y1000D03*
Y17500D03*
Y18000D03*
Y28000D03*
Y30000D03*
X11500Y17500D03*
Y18000D03*
X12000Y17500D03*
Y18000D03*
X12500Y17500D03*
Y18000D03*
X13000Y17500D03*
Y18000D03*
Y30000D03*
X13500Y17500D03*
Y18000D03*
X14000Y1000D03*
Y17500D03*
Y18000D03*
X14500Y17500D03*
Y18000D03*
X15000Y17500D03*
Y18000D03*
Y30000D03*
X15500Y17500D03*
Y18000D03*
X17000Y4000D03*
Y4500D03*
Y5000D03*
Y9500D03*
Y10000D03*
Y10500D03*
Y11000D03*
Y11500D03*
Y12000D03*
Y12500D03*
Y13000D03*
Y30000D03*
X17500Y4000D03*
Y4500D03*
Y5000D03*
Y9500D03*
Y10000D03*
Y10500D03*
Y11000D03*
Y11500D03*
Y12000D03*
Y12500D03*
Y13000D03*
X18000Y1000D03*
Y17000D03*
Y17500D03*
X18500Y17000D03*
Y17500D03*
X19000Y17000D03*
Y17500D03*
X19500Y17000D03*
Y17500D03*
X20000Y17000D03*
Y17500D03*
X20500Y17000D03*
Y17500D03*
X21000Y1000D03*
Y17000D03*
Y17500D03*
X21500Y17000D03*
Y17500D03*
X22000Y17000D03*
Y17500D03*
X22500Y17000D03*
Y17500D03*
X25000Y1000D03*
Y4000D03*
Y4500D03*
Y5000D03*
Y9000D03*
Y13000D03*
X25500Y4000D03*
Y4500D03*
Y5000D03*
Y9000D03*
Y13000D03*
X28000Y1000D03*
X29000Y16000D03*
Y16500D03*
X29500Y16000D03*
Y16500D03*
X30000Y16000D03*
Y16500D03*
X30500Y16000D03*
Y16500D03*
X31000Y16000D03*
Y16500D03*
X31500Y16000D03*
Y16500D03*
X32000Y1000D03*
Y16000D03*
Y16500D03*
X32500Y16000D03*
Y16500D03*
X33000Y16000D03*
Y16500D03*
X33500Y16000D03*
Y16500D03*
X34500Y4000D03*
Y4500D03*
Y5000D03*
Y9500D03*
Y10000D03*
Y10500D03*
Y11000D03*
Y11500D03*
Y12000D03*
Y12500D03*
Y13000D03*
X35000Y1000D03*
Y4000D03*
Y4500D03*
Y5000D03*
Y9500D03*
Y10000D03*
Y10500D03*
Y11000D03*
Y11500D03*
Y12000D03*
Y12500D03*
Y13000D03*
X36000Y4000D03*
Y4500D03*
Y5000D03*
X38000Y1000D03*
X39000Y4000D03*
Y4500D03*
Y5000D03*
X41000Y1000D03*
Y20000D03*
Y22000D03*
Y24000D03*
Y26000D03*
Y28000D03*
X41500Y10500D03*
Y11000D03*
Y11500D03*
Y12000D03*
Y15500D03*
Y16000D03*
Y16500D03*
Y17000D03*
X42000Y4000D03*
Y4500D03*
Y5000D03*
Y10500D03*
Y11000D03*
Y11500D03*
Y12000D03*
Y15500D03*
Y16000D03*
Y16500D03*
Y17000D03*
Y39000D03*
X42500Y10500D03*
Y11000D03*
Y15500D03*
Y16000D03*
X43000Y10500D03*
Y11000D03*
Y15500D03*
Y16000D03*
X43500Y10500D03*
Y11000D03*
Y15500D03*
Y16000D03*
X44000Y1000D03*
Y20000D03*
Y28000D03*
X47000Y1000D03*
X49500Y26000D03*
Y28000D03*
X50000Y1000D03*
Y6000D03*
X51000Y39000D03*
X53000Y1000D03*
Y6000D03*
X56000Y1000D03*
X59000Y4000D03*
Y6000D03*
Y9000D03*
Y12000D03*
Y15000D03*
Y18000D03*
Y21000D03*
Y28000D03*
G54D14*
X1250Y30000D03*
Y34500D03*
X5000Y38000D03*
X7000D03*
X10000D03*
X11500Y27750D03*
Y28250D03*
Y28750D03*
X11750Y27500D03*
Y28000D03*
Y28500D03*
Y29000D03*
X12000Y28750D03*
Y38000D03*
X12250Y29000D03*
X12500Y28750D03*
X12750Y29000D03*
X13000Y28750D03*
X13250Y29000D03*
X13500Y28750D03*
X13750Y29000D03*
X14000Y28750D03*
X14250Y29000D03*
X18500Y24500D03*
X18750Y24750D03*
Y30500D03*
Y31000D03*
Y31500D03*
Y32000D03*
Y32500D03*
X19000Y24500D03*
X19250Y24750D03*
X19500Y24500D03*
X19750Y24750D03*
X20000Y23000D03*
Y23500D03*
Y24000D03*
Y24500D03*
X20250Y24750D03*
Y34500D03*
X20500Y24500D03*
X20750Y24750D03*
X21000Y24500D03*
X21168Y32674D03*
X21250Y24750D03*
X21325Y26008D03*
X21500Y24500D03*
Y35250D03*
X21519Y32578D03*
X21708Y34093D03*
X21750Y31149D03*
X21840Y32432D03*
X22141Y31154D03*
Y32630D03*
X22167Y30016D03*
X22293Y34227D03*
X22510Y37480D03*
X22584Y34436D03*
X22607Y34102D03*
X22768Y34822D03*
X22944Y30001D03*
X23091Y34572D03*
X23250Y32250D03*
X23530Y37480D03*
X23704Y33942D03*
X23750Y32250D03*
X23794Y29850D03*
X24250Y23500D03*
Y24000D03*
Y24500D03*
X24424Y37480D03*
X24500Y29965D03*
Y25750D03*
X24750Y23500D03*
X24929Y29688D03*
X24933Y34243D03*
X25000Y25750D03*
X25057Y35790D03*
X25183Y33993D03*
X25202Y36315D03*
X25208Y36645D03*
X25250Y23500D03*
X25500Y25750D03*
Y37250D03*
X25887Y34095D03*
X25973Y32672D03*
X26633Y34527D03*
X27114Y30018D03*
X27527Y29919D03*
X27750Y34000D03*
Y35000D03*
X27778Y30603D03*
X28750Y37000D03*
X29750Y34500D03*
X30000Y29000D03*
X30250Y28750D03*
X30500Y29000D03*
X30750Y28750D03*
X31000Y29000D03*
X31250Y28750D03*
X31500Y29000D03*
X31750Y28750D03*
X32000Y29000D03*
X32250Y28750D03*
X32750Y27500D03*
Y28000D03*
X34250Y29750D03*
X34500Y35000D03*
X35500D03*
X36250Y32750D03*
X36750D03*
X37250Y29750D03*
Y32750D03*
Y33500D03*
X37500Y27750D03*
X37750Y29750D03*
X38000Y27750D03*
X38250Y29750D03*
X38500Y27750D03*
X39000Y37500D03*
X39750Y29500D03*
X43000Y38750D03*
X44124Y32046D03*
X44502Y32091D03*
X44708Y39576D03*
X44739Y32668D03*
X45069Y32661D03*
X45302Y33969D03*
X45531Y36449D03*
X46038Y37822D03*
X46483Y32374D03*
X46500Y7750D03*
Y8250D03*
Y8750D03*
Y9250D03*
Y9750D03*
X46554Y33451D03*
X46735Y32633D03*
X46750Y8000D03*
Y8500D03*
Y9500D03*
X46964Y33426D03*
X47182Y34029D03*
X47503Y34178D03*
X47759Y33969D03*
X48049Y33512D03*
X48058Y35686D03*
X48086Y34315D03*
X48364Y35810D03*
X48500Y32000D03*
X48601Y33662D03*
X49221Y34231D03*
X49250Y31500D03*
X50000Y38250D03*
X50802Y33575D03*
X50957Y31958D03*
X51240Y33858D03*
X51315Y34179D03*
X51500Y36000D03*
Y36500D03*
X53250Y29000D03*
X54500Y29250D03*
X55000D03*
X55500D03*
X56000D03*
X56500D03*
X58000Y35000D03*
G54D15*
X5312Y33756D03*
X5349Y31755D03*
X6526Y34314D03*
X7504Y31758D03*
X13458Y37542D03*
X16998Y24735D03*
X17149Y16260D03*
X20630Y30463D03*
X22400Y28024D03*
X22560Y21273D03*
X22738Y24886D03*
X23000Y16500D03*
X23113Y35500D03*
X23275Y27023D03*
X23770Y28056D03*
X24515Y27037D03*
X25028Y28028D03*
X25938Y28049D03*
X28250Y28064D03*
X28853Y28056D03*
X29312Y24914D03*
X29329Y21822D03*
X29808Y37488D03*
X31454Y36277D03*
X32818Y28370D03*
X33401Y24026D03*
X34477Y15784D03*
X35501Y36778D03*
X39406Y36924D03*
X39731Y37373D03*
X44570Y30474D03*
X44787Y33547D03*
X46079Y36709D03*
X46545Y37757D03*
X47226Y39335D03*
X48500Y37696D03*
X48692Y29900D03*
X49035Y37288D03*
X50523Y35474D03*
X51453Y31276D03*
X53051Y32996D03*
X53132Y30001D03*
X56234Y32000D03*
G54D16*
X4986Y38665D03*
Y39335D03*
X7016Y38665D03*
Y39335D03*
X9986Y38665D03*
Y39335D03*
X12016Y38665D03*
Y39335D03*
X47986Y38665D03*
Y39335D03*
X50016Y38665D03*
Y39335D03*
G54D17*
X1126Y30750D03*
Y31750D03*
Y32750D03*
Y33750D03*
X4374Y30750D03*
Y31750D03*
Y32750D03*
Y33750D03*
G54D18*
X17000Y15224D03*
Y15776D03*
Y23724D03*
Y24276D03*
X18000Y25724D03*
Y26276D03*
X22000Y34724D03*
Y35276D03*
X23000Y15224D03*
Y15776D03*
Y23724D03*
Y24276D03*
Y25724D03*
Y26276D03*
Y37224D03*
Y37776D03*
X24000Y37224D03*
Y37776D03*
X25000Y37224D03*
Y37776D03*
X31000Y35724D03*
Y36276D03*
Y37224D03*
Y37776D03*
X32000Y35724D03*
Y36276D03*
Y37224D03*
Y37776D03*
X34000Y15224D03*
Y15776D03*
Y23474D03*
Y24026D03*
Y24974D03*
Y25526D03*
X34500Y35724D03*
Y36276D03*
Y37224D03*
Y37776D03*
X35500Y35724D03*
Y36276D03*
Y37224D03*
Y37776D03*
X45000Y30474D03*
Y31026D03*
X46500Y36724D03*
Y37276D03*
X47500Y36724D03*
Y37276D03*
X48500Y36724D03*
Y37276D03*
X49500Y36724D03*
Y37276D03*
X51000Y30724D03*
Y31276D03*
Y35474D03*
Y36026D03*
X52000Y35474D03*
Y36026D03*
G54D19*
X28106Y32500D03*
X28894D03*
G54D20*
X12500Y15000D03*
Y23500D03*
X13000Y15000D03*
Y23500D03*
X13500Y15000D03*
Y23500D03*
X14500Y15000D03*
Y23500D03*
X15000Y15000D03*
Y23500D03*
X15500Y15000D03*
Y23500D03*
X18500Y15000D03*
Y23500D03*
X19000Y15000D03*
Y23500D03*
X19500Y15000D03*
Y23500D03*
X20500Y15000D03*
Y23500D03*
X21000Y15000D03*
Y23500D03*
X21500Y15000D03*
Y23500D03*
X29500Y15000D03*
Y23500D03*
X30000Y15000D03*
Y23500D03*
X30500Y15000D03*
Y23500D03*
X31500Y15000D03*
Y23500D03*
X32000Y15000D03*
Y23500D03*
X32500Y15000D03*
Y23500D03*
G54D21*
X8500Y10957D03*
Y19957D03*
X14000Y11390D03*
Y19890D03*
X20000Y11390D03*
Y19890D03*
X26000Y10957D03*
Y19457D03*
X31000Y11390D03*
Y19890D03*
X37500Y10957D03*
Y19957D03*
G54D22*
X43500Y37213D03*
Y38787D03*
X44000Y37213D03*
Y38787D03*
X44500Y37213D03*
Y38787D03*
X45000Y37213D03*
Y38787D03*
X45500Y37213D03*
Y38787D03*
G54D23*
X46275Y28975D03*
X49725D03*
G54D24*
X7476Y16075D03*
Y25075D03*
X9524Y16075D03*
Y25075D03*
X24976Y16075D03*
Y24575D03*
X27024Y16075D03*
Y24575D03*
X36476Y16075D03*
Y25075D03*
X38524Y16075D03*
Y25075D03*
G54D25*
X54819Y34173D03*
Y35000D03*
Y35827D03*
X57181Y34173D03*
Y35000D03*
Y35827D03*
G54D26*
X5974Y30750D03*
Y31750D03*
Y32750D03*
Y33750D03*
X6526Y30750D03*
Y31750D03*
Y32750D03*
Y33750D03*
X16224Y26000D03*
Y27000D03*
Y28000D03*
X16776Y26000D03*
Y27000D03*
Y28000D03*
X20724Y34500D03*
X21276D03*
X21724Y27500D03*
Y28500D03*
Y29250D03*
X22276Y27500D03*
Y28500D03*
Y29250D03*
X23224Y27500D03*
Y28500D03*
Y29250D03*
X23474Y34500D03*
Y35500D03*
X23776Y27500D03*
Y28500D03*
Y29250D03*
X24026Y34500D03*
Y35500D03*
X24474Y27500D03*
Y28500D03*
Y29250D03*
X25026Y27500D03*
Y28500D03*
Y29250D03*
X25724Y28500D03*
Y29500D03*
Y34500D03*
Y35500D03*
Y36500D03*
X26276Y28500D03*
Y29500D03*
Y34500D03*
Y35500D03*
Y36500D03*
X26974Y28500D03*
Y29500D03*
X27224Y34500D03*
Y35500D03*
X27526Y28500D03*
Y29500D03*
X27776Y34500D03*
Y35500D03*
X28224Y27500D03*
Y28500D03*
Y29500D03*
X28724Y34500D03*
Y35500D03*
Y36500D03*
Y37500D03*
X28776Y27500D03*
Y28500D03*
Y29500D03*
X29276Y34500D03*
Y35500D03*
Y36500D03*
Y37500D03*
X29724Y29500D03*
X30276D03*
X40827Y18972D03*
X41378D03*
X43724Y29000D03*
Y32500D03*
X44276Y29000D03*
Y32500D03*
X51974Y29000D03*
Y30000D03*
Y31000D03*
Y32000D03*
Y33000D03*
X52526Y29000D03*
Y30000D03*
Y31000D03*
Y32000D03*
Y33000D03*
X52974Y35000D03*
Y36000D03*
X53224Y34000D03*
X53526Y35000D03*
Y36000D03*
X53776Y34000D03*
X56724Y32000D03*
Y33000D03*
X57276Y32000D03*
Y33000D03*
G54D27*
X30957Y32976D03*
X33043Y32949D03*
G54D28*
X46524Y30835D03*
Y35165D03*
X46720Y30835D03*
Y35165D03*
X46917Y30835D03*
Y35165D03*
X47114Y30835D03*
Y35165D03*
X47311Y30835D03*
Y35165D03*
X47508Y30835D03*
Y35165D03*
X47705Y30835D03*
Y35165D03*
X47902Y30835D03*
Y35165D03*
X48098Y30835D03*
Y35165D03*
X48295Y30835D03*
Y35165D03*
X48492Y30835D03*
Y35165D03*
X48689Y30835D03*
Y35165D03*
X48886Y30835D03*
Y35165D03*
X49083Y30835D03*
Y35165D03*
X49280Y30835D03*
Y35165D03*
X49476Y30835D03*
Y35165D03*
G54D29*
X45835Y31524D03*
Y31720D03*
Y31917D03*
Y32114D03*
Y32311D03*
Y32508D03*
Y32705D03*
Y32902D03*
Y33098D03*
Y33295D03*
Y33492D03*
Y33689D03*
Y33886D03*
Y34083D03*
Y34280D03*
Y34476D03*
X50165Y31524D03*
Y31720D03*
Y31917D03*
Y32114D03*
Y32311D03*
Y32508D03*
Y32705D03*
Y32902D03*
Y33098D03*
Y33295D03*
Y33492D03*
Y33689D03*
Y33886D03*
Y34083D03*
Y34280D03*
Y34476D03*
G54D30*
X24001Y32002D03*
G54D31*
X37858Y29500D03*
G54D32*
X35142Y28594D03*
Y30406D03*
G54D33*
X44213Y8250D03*
Y9750D03*
X45787Y8250D03*
Y9750D03*
G54D34*
X7500Y6213D03*
Y7787D03*
X9500Y6213D03*
Y7787D03*
G54D35*
X19370Y31000D03*
Y32000D03*
X20630Y31000D03*
Y32000D03*
X28370Y30500D03*
Y31500D03*
X29630Y30500D03*
Y31500D03*
X35370Y32000D03*
Y33500D03*
X36630Y32000D03*
Y33500D03*
X39094Y39053D03*
X39882D03*
G54D36*
X43398Y11874D03*
Y13921D03*
Y16874D03*
Y18921D03*
G54D37*
X48516Y12898D03*
Y17898D03*
G54D38*
X16000Y1500D03*
X23000D03*
X30000D03*
X58472Y25398D03*
Y29398D03*
G54D39*
X38976Y38000D03*
X39232D03*
X39488D03*
X39744D03*
X40000D03*
G54D40*
X38504D03*
X40472D03*
G54D41*
X38346Y39053D03*
X40630Y39051D03*
G54D42*
X33500Y28370D03*
Y29630D03*
G54D43*
X12000Y5819D03*
Y8181D03*
X15000Y5819D03*
Y8181D03*
X18000Y5819D03*
Y8181D03*
X21000Y5819D03*
Y8181D03*
X24000Y5819D03*
Y8181D03*
X27000Y5819D03*
Y8181D03*
X30000Y5819D03*
Y8181D03*
X33000Y5819D03*
Y8181D03*
X36000Y5819D03*
Y8181D03*
X39000Y5819D03*
Y8181D03*
X42000Y5819D03*
Y8181D03*
X55500Y26319D03*
Y28681D03*
G54D44*
X55024Y7000D03*
Y13750D03*
Y20500D03*
X57976Y7000D03*
Y13750D03*
Y20500D03*
G54D45*
X13146Y26024D03*
Y27976D03*
X31276Y26024D03*
Y27976D03*
G54D46*
X14774Y26024D03*
X14776Y27976D03*
X29646Y26024D03*
X29648Y27976D03*
G54D70*
X2000Y2000D03*
Y38000D03*
X4440Y5984D03*
Y25984D03*
X46448Y5984D03*
Y25984D03*
X58000Y2000D03*
Y38000D03*
G54D71*
X8252Y39249D03*
X13252D03*
X15500Y39000D03*
X16500D03*
X17500D03*
X18500D03*
X19500D03*
X20500D03*
X22000D03*
X23000D03*
X24000D03*
X25000D03*
X26000D03*
X27500D03*
X28500D03*
X29500D03*
X31000D03*
X32000D03*
X33000D03*
X34500D03*
X35500D03*
X36500D03*
X39500Y35000D03*
X40500D03*
X41500D03*
X43501Y30002D03*
Y33502D03*
Y35002D03*
X52500Y39000D03*
X53500D03*
X54500D03*
X55500D03*
X59000Y32000D03*
Y33000D03*
Y34000D03*
Y35000D03*
G54D72*
X40728Y17972D03*
X41102Y17185D03*
X41476Y17972D03*
G54D73*
X21343Y30583D03*
Y33417D03*
X21539Y30583D03*
Y33417D03*
X21736Y30583D03*
Y33417D03*
X21933Y30583D03*
Y33417D03*
X22130Y30583D03*
Y33417D03*
X22327Y30583D03*
Y33417D03*
X22524Y30583D03*
Y33417D03*
X22720Y30583D03*
Y33417D03*
X22917Y30583D03*
Y33417D03*
X23114Y30583D03*
Y33417D03*
X23311Y30583D03*
Y33417D03*
X23508Y30583D03*
Y33417D03*
X23705Y30583D03*
Y33417D03*
X23902Y30583D03*
Y33417D03*
X24098Y30583D03*
Y33417D03*
X24295Y30583D03*
Y33417D03*
X24492Y30583D03*
Y33417D03*
X24689Y30583D03*
Y33417D03*
X24886Y30583D03*
Y33417D03*
X25083Y30583D03*
Y33417D03*
X25280Y30583D03*
Y33417D03*
X25476Y30583D03*
Y33417D03*
X25673Y30583D03*
Y33417D03*
X25870Y30583D03*
Y33417D03*
X26067Y30583D03*
Y33417D03*
X26264Y30583D03*
Y33417D03*
X26461Y30583D03*
Y33417D03*
X26657Y30583D03*
Y33417D03*
M02*
