*
G04 Job   : E:\PCBDESIGN\PROJECT\XDX\JOHNENGLISH\JOHNENGLISH\PCB\Board1.pcb*
G04 User  : BES-WIN7-VM:BES*
G04 Layer : EtchLayer2.gdo*
G04 Date  : Sun Nov 23 15:41:46 2014*
G04 Mentor Graphics Example Gerber Output Definition*
%ICAS*%
%MOIN*%
%FSLAX24Y24*%
%OFA0.0000B0.0000*%
G90*
G74*
%AMVB_RCRECTANGLE*
$3=$3X2*
21,1,$1-$3,$2,0,0,0*
21,1,$1,$2-$3,0,0,0*
$1=$1/2*
$2=$2/2*
$3=$3/2*
$1=$1-$3*
$2=$2-$3*
1,1,$3X2,0-$1,0-$2*
1,1,$3X2,0-$1,$2*
1,1,$3X2,$1,$2*
1,1,$3X2,$1,0-$2*
%
%ADD10C,0.00500*%
%ADD14C,0.02000*%
%ADD12C,0.02500*%
%ADD13C,0.02600*%
%ADD11C,0.03000*%
%ADD18C,0.05709*%
%ADD16C,0.06000*%
%ADD70C,0.07874*%
%ADD17C,0.20000*%
%ADD15C,0.27500*%
%ADD19VB_RCRECTANGLE,0.07480X0.07874X0.00984*%
G01*
G36*
Y39970D02*
G02X30Y40000I30D01*
G01X565*
Y2000*
G03X2000Y565I1435*
X3435Y2000J1435*
X2000Y3435I1435*
X565Y2000J1435*
G01Y38000*
G03X2000Y36565I1435*
X3005Y36976J1435*
G01Y5984*
G03X4440Y4549I1435*
X5875Y5984J1435*
X4440Y7419I1435*
X3005Y5984J1435*
G01Y25984*
G03X4440Y24549I1435*
X5875Y25984J1435*
X4440Y27419I1435*
X3005Y25984J1435*
G01Y36976*
G03X3435Y38000I1005J1024*
X2000Y39435I1435*
X565Y38000J1435*
G01Y40000*
X5082*
Y33756*
G03X5119Y33631I230*
G01Y31755*
G03X5349Y31525I230*
X5579Y31755J230*
X5349Y31985I230*
X5119Y31755J230*
G01Y33631*
G03X5312Y33526I193J125*
X5542Y33756J230*
X5312Y33986I230*
X5082Y33756J230*
G01Y40000*
X6296*
Y34314*
G03X6526Y34084I230*
X6756Y34314J230*
X6526Y34544I230*
X6296Y34314J230*
G01Y40000*
X7274*
Y31758*
G03X7504Y31528I230*
X7734Y31758J230*
X7504Y31988I230*
X7274Y31758J230*
G01Y40000*
X7852*
Y39249*
G03X8252Y38849I400*
X8652Y39249J400*
X8252Y39649I400*
X7852Y39249J400*
G01Y40000*
X10250*
Y18000*
G03X10387Y17777I250*
G02X10404Y17750I13J27*
X10387Y17723I30*
G03X10250Y17500I113J223*
X10500Y17250I250*
X10723Y17387J250*
G02X10750Y17404I27J13*
X10777Y17387J30*
G03X11000Y17250I223J113*
X11223Y17387J250*
G02X11250Y17404I27J13*
X11277Y17387J30*
G03X11500Y17250I223J113*
X11723Y17387J250*
G02X11750Y17404I27J13*
X11777Y17387J30*
G03X12000Y17250I223J113*
X12223Y17387J250*
G02X12250Y17404I27J13*
X12277Y17387J30*
G03X12500Y17250I223J113*
X12723Y17387J250*
G02X12750Y17404I27J13*
X12777Y17387J30*
G03X13000Y17250I223J113*
X13223Y17387J250*
G02X13250Y17404I27J13*
X13277Y17387J30*
G03X13500Y17250I223J113*
X13723Y17387J250*
G02X13750Y17404I27J13*
X13777Y17387J30*
G03X14000Y17250I223J113*
X14223Y17387J250*
G02X14250Y17404I27J13*
X14277Y17387J30*
G03X14500Y17250I223J113*
X14723Y17387J250*
G02X14750Y17404I27J13*
X14777Y17387J30*
G03X14900Y17271I223J113*
G01Y1500*
G03X16000Y400I1100*
X17100Y1500J1100*
X16000Y2600I1100*
X14900Y1500J1100*
G01Y17271*
G03X15000Y17250I100J229*
X15223Y17387J250*
G02X15250Y17404I27J13*
X15277Y17387J30*
G03X15500Y17250I223J113*
X15750Y17500J250*
X15613Y17723I250*
G02X15596Y17750I13J27*
X15613Y17777I30*
G03X15750Y18000I113J223*
X15500Y18250I250*
X15277Y18113J250*
G02X15250Y18096I27J13*
X15223Y18113J30*
G03X15000Y18250I223J113*
X14777Y18113J250*
G02X14750Y18096I27J13*
X14723Y18113J30*
G03X14500Y18250I223J113*
X14277Y18113J250*
G02X14250Y18096I27J13*
X14223Y18113J30*
G03X14000Y18250I223J113*
X13777Y18113J250*
G02X13750Y18096I27J13*
X13723Y18113J30*
G03X13500Y18250I223J113*
X13277Y18113J250*
G02X13250Y18096I27J13*
X13223Y18113J30*
G03X13000Y18250I223J113*
X12777Y18113J250*
G02X12750Y18096I27J13*
X12723Y18113J30*
G03X12500Y18250I223J113*
X12277Y18113J250*
G02X12250Y18096I27J13*
X12223Y18113J30*
G03X12000Y18250I223J113*
X11777Y18113J250*
G02X11750Y18096I27J13*
X11723Y18113J30*
G03X11500Y18250I223J113*
X11277Y18113J250*
G02X11250Y18096I27J13*
X11223Y18113J30*
G03X11000Y18250I223J113*
X10777Y18113J250*
G02X10750Y18096I27J13*
X10723Y18113J30*
G03X10500Y18250I223J113*
X10250Y18000J250*
G01Y40000*
X12852*
Y39249*
G03X13228Y38849I400*
G01Y37542*
G03X13458Y37312I230*
X13688Y37542J230*
X13458Y37772I230*
X13228Y37542J230*
G01Y38849*
G03X13252I24J400*
X13652Y39249J400*
X13252Y39649I400*
X12852Y39249J400*
G01Y40000*
X15100*
Y39000*
G03X15500Y38600I400*
X15900Y39000J400*
X15500Y39400I400*
X15100Y39000J400*
G01Y40000*
X16100*
Y39000*
G03X16500Y38600I400*
X16750Y38688J400*
G01Y13000*
G03X16887Y12777I250*
G02X16904Y12750I13J27*
X16887Y12723I30*
G03X16750Y12500I113J223*
X16887Y12277I250*
G02X16904Y12250I13J27*
X16887Y12223I30*
G03X16750Y12000I113J223*
X16887Y11777I250*
G02X16904Y11750I13J27*
X16887Y11723I30*
G03X16750Y11500I113J223*
X16887Y11277I250*
G02X16904Y11250I13J27*
X16887Y11223I30*
G03X16750Y11000I113J223*
X16887Y10777I250*
G02X16904Y10750I13J27*
X16887Y10723I30*
G03X16750Y10500I113J223*
X16887Y10277I250*
G02X16904Y10250I13J27*
X16887Y10223I30*
G03X16750Y10000I113J223*
X16887Y9777I250*
G02X16904Y9750I13J27*
X16887Y9723I30*
G03X16750Y9500I113J223*
X17000Y9250I250*
X17223Y9387J250*
G02X17250Y9404I27J13*
X17277Y9387J30*
G03X17500Y9250I223J113*
X17750Y9500J250*
X17613Y9723I250*
G02X17596Y9750I13J27*
X17613Y9777I30*
G03X17750Y10000I113J223*
X17613Y10223I250*
G02X17596Y10250I13J27*
X17613Y10277I30*
G03X17750Y10500I113J223*
X17613Y10723I250*
G02X17596Y10750I13J27*
X17613Y10777I30*
G03X17750Y11000I113J223*
X17613Y11223I250*
G02X17596Y11250I13J27*
X17613Y11277I30*
G03X17750Y11500I113J223*
X17613Y11723I250*
G02X17596Y11750I13J27*
X17613Y11777I30*
G03X17750Y12000I113J223*
X17613Y12223I250*
G02X17596Y12250I13J27*
X17613Y12277I30*
G03X17750Y12500I113J223*
X17613Y12723I250*
G02X17596Y12750I13J27*
X17613Y12777I30*
G03X17750Y13000I113J223*
X17500Y13250I250*
X17277Y13113J250*
G02X17250Y13096I27J13*
X17223Y13113J30*
G03X17000Y13250I223J113*
X16750Y13000J250*
G01Y38688*
G03X16768Y38703I250J312*
G01Y24735*
G03X16919Y24519I230*
G01Y16260*
G03X17149Y16030I230*
X17379Y16260J230*
X17149Y16490I230*
X16919Y16260J230*
G01Y24519*
G03X16998Y24505I79J216*
X17228Y24735J230*
X16998Y24965I230*
X16768Y24735J230*
G01Y38703*
G03X16900Y39000I268J297*
X16500Y39400I400*
X16100Y39000J400*
G01Y40000*
X17100*
Y39000*
G03X17500Y38600I400*
X17750Y38688J400*
G01Y17500*
G03X17887Y17277I250*
G02X17904Y17250I13J27*
X17887Y17223I30*
G03X17750Y17000I113J223*
X18000Y16750I250*
X18223Y16887J250*
G02X18250Y16904I27J13*
X18277Y16887J30*
G03X18500Y16750I223J113*
X18723Y16887J250*
G02X18750Y16904I27J13*
X18777Y16887J30*
G03X19000Y16750I223J113*
X19223Y16887J250*
G02X19250Y16904I27J13*
X19277Y16887J30*
G03X19500Y16750I223J113*
X19723Y16887J250*
G02X19750Y16904I27J13*
X19777Y16887J30*
G03X20000Y16750I223J113*
X20223Y16887J250*
G02X20250Y16904I27J13*
X20277Y16887J30*
G03X20500Y16750I223J113*
X20723Y16887J250*
G02X20750Y16904I27J13*
X20777Y16887J30*
G03X21000Y16750I223J113*
X21223Y16887J250*
G02X21250Y16904I27J13*
X21277Y16887J30*
G03X21500Y16750I223J113*
X21723Y16887J250*
G02X21750Y16904I27J13*
X21777Y16887J30*
G03X21900Y16771I223J113*
G01Y1500*
G03X23000Y400I1100*
X24100Y1500J1100*
X23000Y2600I1100*
X21900Y1500J1100*
G01Y16771*
G03X22000Y16750I100J229*
X22223Y16887J250*
G02X22250Y16904I27J13*
X22277Y16887J30*
G03X22500Y16750I223J113*
X22750Y17000J250*
X22613Y17223I250*
G02X22596Y17250I13J27*
X22613Y17277I30*
G03X22750Y17500I113J223*
X22500Y17750I250*
X22277Y17613J250*
G02X22250Y17596I27J13*
X22223Y17613J30*
G03X22000Y17750I223J113*
X21777Y17613J250*
G02X21750Y17596I27J13*
X21723Y17613J30*
G03X21500Y17750I223J113*
X21277Y17613J250*
G02X21250Y17596I27J13*
X21223Y17613J30*
G03X21000Y17750I223J113*
X20777Y17613J250*
G02X20750Y17596I27J13*
X20723Y17613J30*
G03X20500Y17750I223J113*
X20277Y17613J250*
G02X20250Y17596I27J13*
X20223Y17613J30*
G03X20000Y17750I223J113*
X19777Y17613J250*
G02X19750Y17596I27J13*
X19723Y17613J30*
G03X19500Y17750I223J113*
X19277Y17613J250*
G02X19250Y17596I27J13*
X19223Y17613J30*
G03X19000Y17750I223J113*
X18777Y17613J250*
G02X18750Y17596I27J13*
X18723Y17613J30*
G03X18500Y17750I223J113*
X18277Y17613J250*
G02X18250Y17596I27J13*
X18223Y17613J30*
G03X18000Y17750I223J113*
X17750Y17500J250*
G01Y38688*
G03X17900Y39000I250J312*
X17500Y39400I400*
X17100Y39000J400*
G01Y40000*
X18100*
Y39000*
G03X18500Y38600I400*
X18900Y39000J400*
X18500Y39400I400*
X18100Y39000J400*
G01Y40000*
X19100*
Y39000*
G03X19500Y38600I400*
X19900Y39000J400*
X19500Y39400I400*
X19100Y39000J400*
G01Y40000*
X20140*
Y39000*
G03X20400Y38654I360*
G01Y30463*
G03X20630Y30233I230*
X20860Y30463J230*
X20630Y30693I230*
X20400Y30463J230*
G01Y38654*
G03X20500Y38640I100J346*
X20860Y39000J360*
X20500Y39360I360*
X20140Y39000J360*
G01Y40000*
X20943*
Y32674*
G03X21168Y32449I225*
X21282Y32480J225*
G02X21297Y32484I15J26*
X21323Y32469J30*
G03X21519Y32353I196J109*
X21525J225*
G01Y31149*
G03X21750Y30924I225*
X21924Y31006J225*
G02X21942Y31017I24J19*
G01Y30016*
G03X22167Y29791I225*
X22170J225*
G01Y28024*
G03X22330Y27805I230*
G01Y21273*
G03X22560Y21043I230*
X22770Y21180J230*
G01Y16500*
G03X23000Y16270I230*
X23230Y16500J230*
X23000Y16730I230*
X22770Y16500J230*
G01Y21180*
G03X22790Y21273I210J93*
X22560Y21503I230*
X22330Y21273J230*
G01Y27805*
G03X22400Y27794I70J219*
X22508Y27821J230*
G01Y24886*
G03X22738Y24656I230*
X22968Y24886J230*
X22738Y25116I230*
X22508Y24886J230*
G01Y27821*
G03X22630Y28024I108J203*
X22400Y28254I230*
X22170Y28024J230*
G01Y29791*
G03X22392Y30016I3J225*
X22167Y30241I225*
X21942Y30016J225*
G01Y31017*
G02X21948I6J30*
X21970Y31007J30*
G03X22141Y30929I171J147*
X22366Y31154J225*
X22141Y31379I225*
X21967Y31296J225*
G02X21943Y31285I24J19*
X21921Y31296J30*
G03X21750Y31374I171J147*
X21525Y31149J225*
G01Y32353*
G03X21593Y32366I6J225*
G02X21603Y32367I10J29*
X21631Y32348J30*
G03X21840Y32207I209J84*
X22060Y32386J225*
G02X22089Y32410I29J6*
X22095J30*
G03X22141Y32405I46J220*
X22366Y32630J225*
X22141Y32855I225*
X21921Y32675J225*
G02X21891Y32651I30J6*
X21885Y32652J30*
G03X21840Y32657I45J220*
X21766Y32644J225*
G02X21756Y32643I10J29*
X21728Y32662J30*
G03X21519Y32803I209J84*
X21406Y32773J225*
G02X21391Y32769I15J26*
X21365Y32784J30*
G03X21168Y32899I197J110*
X20943Y32674J225*
G01Y40000*
X21483*
Y34093*
G03X21708Y33868I225*
X21933Y34093J225*
X21708Y34318I225*
X21483Y34093J225*
G01Y40000*
X21600*
Y39000*
G03X22000Y38600I400*
X22068Y38606J400*
G01Y34227*
G03X22293Y34002I225*
X22369Y34016J225*
G02X22379Y34017I10J29*
X22406Y34001J30*
G03X22607Y33877I201J101*
X22719Y33907J225*
G01Y30001*
G03X22944Y29776I225*
X23169Y30001J225*
X22944Y30226I225*
X22719Y30001J225*
G01Y33907*
G03X22832Y34102I112J195*
X22766Y34261I225*
G02X22757Y34282I21J21*
X22763Y34300I30*
G03X22809Y34436I179J136*
X22776Y34554I225*
G02X22771Y34570I25J16*
X22797Y34599I30*
G03X22828Y34606I29J223*
G02X22836Y34607I8J29*
X22866Y34577J30*
G01Y34576*
G03Y34572I225J4*
X23091Y34347I225*
X23316Y34572J225*
X23091Y34797I225*
X23031Y34789J225*
G02X23023Y34788I8J29*
X22993Y34818J30*
G01Y34819*
G03Y34822I225J3*
X22768Y35047I225*
X22543Y34822J225*
X22577Y34705I225*
G02X22581Y34689I26J16*
X22555Y34659I30*
G03X22362Y34474I29J223*
G02X22333Y34449I29J5*
X22328Y34450J30*
G03X22293Y34452I35J223*
X22068Y34227J225*
G01Y38606*
G03X22285Y38719I68J394*
G01Y37480*
G03X22510Y37255I225*
X22735Y37480J225*
X22510Y37705I225*
X22285Y37480J225*
G01Y38719*
G03X22400Y39000I285J281*
X22000Y39400I400*
X21600Y39000J400*
G01Y40000*
X22600*
Y39000*
G03X23000Y38600I400*
X23305Y38741J400*
G01Y37480*
G03X23479Y37261I225*
G01Y33942*
G03X23540Y33788I225*
G01Y28056*
G03X23770Y27826I230*
X24000Y28056J230*
X23770Y28286I230*
X23540Y28056J230*
G01Y33788*
G03X23569Y33762I164J154*
G01Y29850*
G03X23794Y29625I225*
X24019Y29850J225*
X23794Y30075I225*
X23569Y29850J225*
G01Y33762*
G03X23704Y33717I135J180*
X23929Y33942J225*
X23704Y34167I225*
X23479Y33942J225*
G01Y37261*
G03X23530Y37255I51J219*
X23755Y37480J225*
X23530Y37705I225*
X23305Y37480J225*
G01Y38741*
G03X23400Y39000I305J259*
X23000Y39400I400*
X22600Y39000J400*
G01Y40000*
X23600*
Y39000*
G03X24000Y38600I400*
X24199Y38653J400*
G01Y37480*
G03X24275Y37312I225*
G01Y29965*
G03X24500Y29740I225*
X24704Y29871J225*
G01Y29688*
G03X24750Y29552I225*
G01Y9000*
G03X25000Y8750I250*
X25223Y8887J250*
G02X25250Y8904I27J13*
X25277Y8887J30*
G03X25500Y8750I223J113*
X25750Y9000J250*
X25500Y9250I250*
X25277Y9113J250*
G02X25250Y9096I27J13*
X25223Y9113J30*
G03X25000Y9250I223J113*
X24750Y9000J250*
G01Y13000*
G03X25000Y12750I250*
X25223Y12887J250*
G02X25250Y12904I27J13*
X25277Y12887J30*
G03X25500Y12750I223J113*
X25750Y13000J250*
X25500Y13250I250*
X25277Y13113J250*
G02X25250Y13096I27J13*
X25223Y13113J30*
G03X25000Y13250I223J113*
X24750Y13000J250*
G01Y29552*
G03X24798Y29505I179J136*
G01Y28028*
G03X25028Y27798I230*
X25258Y28028J230*
X25028Y28258I230*
X24798Y28028J230*
G01Y29505*
G03X24929Y29463I131J183*
X25154Y29688J225*
X24929Y29913I225*
X24704Y29688J225*
G01Y29871*
G03X24725Y29965I204J94*
X24500Y30190I225*
X24275Y29965J225*
G01Y37312*
G03X24424Y37255I149J168*
X24649Y37480J225*
X24424Y37705I225*
X24199Y37480J225*
G01Y38653*
G03X24400Y39000I199J347*
X24000Y39400I400*
X23600Y39000J400*
G01Y40000*
X24600*
Y39000*
G03X24708Y38727I400*
G01Y34243*
G03X24928Y34018I225*
G02X24958Y33989J30*
G03X25183Y33768I225J4*
X25408Y33993J225*
X25187Y34218I225*
G02X25158Y34248I1J30*
G03X24933Y34468I225J5*
X24708Y34243J225*
G01Y38727*
G03X24832Y38637I292J273*
G01Y35790*
G03X25057Y35565I225*
X25282Y35790J225*
X25057Y36015I225*
X24832Y35790J225*
G01Y38637*
G03X24977Y38601I168J363*
G01Y36315*
G03X25202Y36090I225*
X25427Y36315J225*
X25376Y36458I225*
G02X25369Y36477I23J19*
X25377Y36497I30*
G03X25433Y36645I169J148*
X25208Y36870I225*
X24983Y36645J225*
X25034Y36503I225*
G02X25041Y36484I23J19*
X25033Y36464I30*
G03X24977Y36315I169J149*
G01Y38601*
G03X25000Y38600I23J399*
X25400Y39000J400*
X25000Y39400I400*
X24600Y39000J400*
G01Y40000*
X25640*
Y39000*
G03X25662Y38875I360*
G01Y34095*
G03X25748Y33919I225*
G01Y32672*
G03X25973Y32447I225*
X26198Y32672J225*
X25973Y32897I225*
X25748Y32672J225*
G01Y33919*
G03X25887Y33870I139J176*
X26112Y34095J225*
X25887Y34320I225*
X25662Y34095J225*
G01Y38875*
G03X26000Y38640I338J125*
X26360Y39000J360*
X26000Y39360I360*
X25640Y39000J360*
G01Y40000*
X26408*
Y34527*
G03X26633Y34302I225*
X26858Y34527J225*
X26633Y34752I225*
X26408Y34527J225*
G01Y40000*
X26889*
Y30018*
G03X27114Y29793I225*
X27339Y30018J225*
X27114Y30243I225*
X26889Y30018J225*
G01Y40000*
X27100*
Y39000*
G03X27500Y38600I400*
X27553Y38604J400*
G01Y30603*
G03X27778Y30378I225*
X28003Y30603J225*
X27778Y30828I225*
X27553Y30603J225*
G01Y38604*
G03X27900Y39000I53J396*
X27500Y39400I400*
X27100Y39000J400*
G01Y40000*
X28020*
Y28064*
G03X28250Y27834I230*
X28480Y28064J230*
X28250Y28294I230*
X28020Y28064J230*
G01Y40000*
X28100*
Y39000*
G03X28500Y38600I400*
X28623Y38619J400*
G01Y28056*
G03X28750Y27851I230*
G01Y16500*
G03X28887Y16277I250*
G02X28904Y16250I13J27*
X28887Y16223I30*
G03X28750Y16000I113J223*
X28900Y15771I250*
G01Y1500*
G03X30000Y400I1100*
X31100Y1500J1100*
X30000Y2600I1100*
X28900Y1500J1100*
G01Y15771*
G03X29000Y15750I100J229*
X29223Y15887J250*
G02X29250Y15904I27J13*
X29277Y15887J30*
G03X29500Y15750I223J113*
X29723Y15887J250*
G02X29750Y15904I27J13*
X29777Y15887J30*
G03X30000Y15750I223J113*
X30223Y15887J250*
G02X30250Y15904I27J13*
X30277Y15887J30*
G03X30500Y15750I223J113*
X30723Y15887J250*
G02X30750Y15904I27J13*
X30777Y15887J30*
G03X31000Y15750I223J113*
X31223Y15887J250*
G02X31250Y15904I27J13*
X31277Y15887J30*
G03X31500Y15750I223J113*
X31723Y15887J250*
G02X31750Y15904I27J13*
X31777Y15887J30*
G03X32000Y15750I223J113*
X32223Y15887J250*
G02X32250Y15904I27J13*
X32277Y15887J30*
G03X32500Y15750I223J113*
X32723Y15887J250*
G02X32750Y15904I27J13*
X32777Y15887J30*
G03X33000Y15750I223J113*
X33223Y15887J250*
G02X33250Y15904I27J13*
X33277Y15887J30*
G03X33500Y15750I223J113*
X33750Y16000J250*
X33613Y16223I250*
G02X33596Y16250I13J27*
X33613Y16277I30*
G03X33750Y16500I113J223*
X33500Y16750I250*
X33277Y16613J250*
G02X33250Y16596I27J13*
X33223Y16613J30*
G03X33000Y16750I223J113*
X32777Y16613J250*
G02X32750Y16596I27J13*
X32723Y16613J30*
G03X32500Y16750I223J113*
X32277Y16613J250*
G02X32250Y16596I27J13*
X32223Y16613J30*
G03X32000Y16750I223J113*
X31777Y16613J250*
G02X31750Y16596I27J13*
X31723Y16613J30*
G03X31500Y16750I223J113*
X31277Y16613J250*
G02X31250Y16596I27J13*
X31223Y16613J30*
G03X31000Y16750I223J113*
X30777Y16613J250*
G02X30750Y16596I27J13*
X30723Y16613J30*
G03X30500Y16750I223J113*
X30277Y16613J250*
G02X30250Y16596I27J13*
X30223Y16613J30*
G03X30000Y16750I223J113*
X29777Y16613J250*
G02X29750Y16596I27J13*
X29723Y16613J30*
G03X29500Y16750I223J113*
X29277Y16613J250*
G02X29250Y16596I27J13*
X29223Y16613J30*
G03X29000Y16750I223J113*
X28750Y16500J250*
G01Y27851*
G03X28853Y27826I103J205*
X29082Y28040J230*
G01Y24914*
G03X29099Y24829I230*
G01Y21822*
G03X29329Y21592I230*
X29559Y21822J230*
X29329Y22052I230*
X29099Y21822J230*
G01Y24829*
G03X29312Y24684I213J85*
X29542Y24914J230*
X29312Y25144I230*
X29082Y24914J230*
G01Y28040*
G03X29083Y28056I229J16*
X28853Y28286I230*
X28623Y28056J230*
G01Y38619*
G03X28900Y39000I123J381*
X28500Y39400I400*
X28100Y39000J400*
G01Y40000*
X29140*
Y39000*
G03X29500Y38640I360*
X29578Y38649J360*
G01Y37488*
G03X29808Y37258I230*
X30038Y37488J230*
X29808Y37718I230*
X29578Y37488J230*
G01Y38649*
G03X29860Y39000I78J351*
X29500Y39360I360*
X29140Y39000J360*
G01Y40000*
X30600*
Y39000*
G03X31000Y38600I400*
X31224Y38669J400*
G01Y36277*
G03X31454Y36047I230*
X31684Y36277J230*
X31454Y36507I230*
X31224Y36277J230*
G01Y38669*
G03X31400Y39000I224J331*
X31000Y39400I400*
X30600Y39000J400*
G01Y40000*
X31600*
Y39000*
G03X32000Y38600I400*
X32400Y39000J400*
X32000Y39400I400*
X31600Y39000J400*
G01Y40000*
X32588*
Y28370*
G03X32818Y28140I230*
X33048Y28370J230*
X32818Y28600I230*
X32588Y28370J230*
G01Y40000*
X32640*
Y39000*
G03X33000Y38640I360*
X33171Y38683J360*
G01Y24026*
G03X33401Y23796I230*
X33631Y24026J230*
X33401Y24256I230*
X33171Y24026J230*
G01Y38683*
G03X33360Y39000I171J317*
X33000Y39360I360*
X32640Y39000J360*
G01Y40000*
X34100*
Y39000*
G03X34247Y38691I400*
G01Y15784*
G03X34250Y15744I230*
G01Y13000*
G03X34387Y12777I250*
G02X34404Y12750I13J27*
X34387Y12723I30*
G03X34250Y12500I113J223*
X34387Y12277I250*
G02X34404Y12250I13J27*
X34387Y12223I30*
G03X34250Y12000I113J223*
X34387Y11777I250*
G02X34404Y11750I13J27*
X34387Y11723I30*
G03X34250Y11500I113J223*
X34387Y11277I250*
G02X34404Y11250I13J27*
X34387Y11223I30*
G03X34250Y11000I113J223*
X34387Y10777I250*
G02X34404Y10750I13J27*
X34387Y10723I30*
G03X34250Y10500I113J223*
X34387Y10277I250*
G02X34404Y10250I13J27*
X34387Y10223I30*
G03X34250Y10000I113J223*
X34387Y9777I250*
G02X34404Y9750I13J27*
X34387Y9723I30*
G03X34250Y9500I113J223*
X34500Y9250I250*
X34723Y9387J250*
G02X34750Y9404I27J13*
X34777Y9387J30*
G03X35000Y9250I223J113*
X35250Y9500J250*
X35113Y9723I250*
G02X35096Y9750I13J27*
X35113Y9777I30*
G03X35250Y10000I113J223*
X35113Y10223I250*
G02X35096Y10250I13J27*
X35113Y10277I30*
G03X35250Y10500I113J223*
X35113Y10723I250*
G02X35096Y10750I13J27*
X35113Y10777I30*
G03X35250Y11000I113J223*
X35113Y11223I250*
G02X35096Y11250I13J27*
X35113Y11277I30*
G03X35250Y11500I113J223*
X35113Y11723I250*
G02X35096Y11750I13J27*
X35113Y11777I30*
G03X35250Y12000I113J223*
X35113Y12223I250*
G02X35096Y12250I13J27*
X35113Y12277I30*
G03X35250Y12500I113J223*
X35113Y12723I250*
G02X35096Y12750I13J27*
X35113Y12777I30*
G03X35250Y13000I113J223*
X35000Y13250I250*
X34777Y13113J250*
G02X34750Y13096I27J13*
X34723Y13113J30*
G03X34500Y13250I223J113*
X34250Y13000J250*
G01Y15744*
G03X34477Y15554I227J40*
X34707Y15784J230*
X34477Y16014I230*
X34247Y15784J230*
G01Y38691*
G03X34500Y38600I253J309*
X34900Y39000J400*
X34500Y39400I400*
X34100Y39000J400*
G01Y40000*
X35100*
Y39000*
G03X35271Y38672I400*
G01Y36778*
G03X35501Y36548I230*
X35731Y36778J230*
X35501Y37008I230*
X35271Y36778J230*
G01Y38672*
G03X35500Y38600I229J328*
X35900Y39000J400*
X35500Y39400I400*
X35100Y39000J400*
G01Y40000*
X36140*
Y39000*
G03X36500Y38640I360*
X36860Y39000J360*
X36500Y39360I360*
X36140Y39000J360*
G01Y40000*
X37912*
Y38758*
G03X38071Y38599I159*
G01X38159*
Y38000*
G03X38504Y37655I345*
X38849Y38000J345*
X38504Y38345I345*
X38159Y38000J345*
G01Y38599*
X38622*
G03X38780Y38758J159*
G01Y39348*
G03X38622Y39507I158*
G01X38071*
G03X37912Y39348J159*
G01Y40000*
X39100*
Y35000*
G03X39500Y34600I400*
X39900Y35000J400*
X39500Y35400I400*
X39100Y35000J400*
G01Y40000*
X39176*
Y36924*
G03X39406Y36694I230*
X39636Y36924J230*
X39406Y37154I230*
X39176Y36924J230*
G01Y40000*
X39501*
Y37373*
G03X39731Y37143I230*
X39961Y37373J230*
X39731Y37603I230*
X39501Y37373J230*
G01Y40000*
X40100*
Y35000*
G03X40500Y34600I400*
X40900Y35000J400*
X40500Y35400I400*
X40100Y35000J400*
G01Y40000*
X40127*
Y38000*
G03X40472Y37655I345*
X40818Y38000J345*
X40472Y38345I346*
X40127Y38000J345*
G01Y40000*
X40196*
Y38756*
G03X40354Y38597I158*
G01X40906*
G03X41064Y38756J159*
G01Y39346*
G03X40906Y39505I158*
G01X40354*
G03X40196Y39346J159*
G01Y40000*
X41140*
Y35000*
G03X41250Y34741I360*
G01Y17000*
G03X41387Y16777I250*
G02X41404Y16750I13J27*
X41387Y16723I30*
G03X41250Y16500I113J223*
X41387Y16277I250*
G02X41404Y16250I13J27*
X41387Y16223I30*
G03X41250Y16000I113J223*
X41387Y15777I250*
G02X41404Y15750I13J27*
X41387Y15723I30*
G03X41250Y15500I113J223*
G01Y12000*
G03X41387Y11777I250*
G02X41404Y11750I13J27*
X41387Y11723I30*
G03X41250Y11500I113J223*
X41387Y11277I250*
G02X41404Y11250I13J27*
X41387Y11223I30*
G03X41250Y11000I113J223*
X41387Y10777I250*
G02X41404Y10750I13J27*
X41387Y10723I30*
G03X41250Y10500I113J223*
X41500Y10250I250*
X41723Y10387J250*
G02X41750Y10404I27J13*
X41777Y10387J30*
G03X42000Y10250I223J113*
X42223Y10387J250*
G02X42250Y10404I27J13*
X42277Y10387J30*
G03X42500Y10250I223J113*
X42723Y10387J250*
G02X42750Y10404I27J13*
X42777Y10387J30*
G03X43000Y10250I223J113*
X43223Y10387J250*
G02X43250Y10404I27J13*
X43277Y10387J30*
G03X43500Y10250I223J113*
X43750Y10500J250*
X43613Y10723I250*
G02X43596Y10750I13J27*
X43613Y10777I30*
G03X43750Y11000I113J223*
X43500Y11250I250*
X43277Y11113J250*
G02X43250Y11096I27J13*
X43223Y11113J30*
G03X43000Y11250I223J113*
X42777Y11113J250*
G02X42750Y11096I27J13*
X42723Y11113J30*
G03X42500Y11250I223J113*
X42277Y11113J250*
G02X42250Y11096I27J13*
X42223Y11113J30*
G03X42113Y11223I223J113*
G02X42096Y11250I13J27*
X42113Y11277I30*
G03X42250Y11500I113J223*
X42113Y11723I250*
G02X42096Y11750I13J27*
X42113Y11777I30*
G03X42250Y12000I113J223*
X42000Y12250I250*
X41777Y12113J250*
G02X41750Y12096I27J13*
X41723Y12113J30*
G03X41500Y12250I223J113*
X41250Y12000J250*
G01Y15500*
G03X41500Y15250I250*
X41723Y15387J250*
G02X41750Y15404I27J13*
X41777Y15387J30*
G03X42000Y15250I223J113*
X42223Y15387J250*
G02X42250Y15404I27J13*
X42277Y15387J30*
G03X42500Y15250I223J113*
X42723Y15387J250*
G02X42750Y15404I27J13*
X42777Y15387J30*
G03X43000Y15250I223J113*
X43223Y15387J250*
G02X43250Y15404I27J13*
X43277Y15387J30*
G03X43500Y15250I223J113*
X43750Y15500J250*
X43613Y15723I250*
G02X43596Y15750I13J27*
X43613Y15777I30*
G03X43750Y16000I113J223*
X43500Y16250I250*
X43277Y16113J250*
G02X43250Y16096I27J13*
X43223Y16113J30*
G03X43000Y16250I223J113*
X42777Y16113J250*
G02X42750Y16096I27J13*
X42723Y16113J30*
G03X42500Y16250I223J113*
X42277Y16113J250*
G02X42250Y16096I27J13*
X42223Y16113J30*
G03X42113Y16223I223J113*
G02X42096Y16250I13J27*
X42113Y16277I30*
G03X42250Y16500I113J223*
X42113Y16723I250*
G02X42096Y16750I13J27*
X42113Y16777I30*
G03X42250Y17000I113J223*
X42000Y17250I250*
X41777Y17113J250*
G02X41750Y17096I27J13*
X41723Y17113J30*
G03X41500Y17250I223J113*
X41250Y17000J250*
G01Y34741*
G03X41500Y34640I250J259*
X41860Y35000J360*
X41500Y35360I360*
X41140Y35000J360*
G01Y40000*
X43101*
Y30002*
G03X43501Y29602I400*
X43901Y30002J400*
X43501Y30402I400*
X43101Y30002J400*
G01Y33502*
G03X43501Y33102I400*
X43899Y33460J400*
G01Y32046*
G03X44124Y31821I225*
X44308Y31917J225*
G02X44333Y31930I25J17*
X44340Y31929J30*
G01Y30474*
G03X44570Y30244I230*
X44800Y30474J230*
X44570Y30704I230*
X44340Y30474J230*
G01Y31929*
G02X44353Y31922I7J29*
G03X44502Y31866I149J169*
X44727Y32091J225*
X44502Y32316I225*
X44317Y32220J225*
G02X44293Y32207I24J17*
X44273Y32215J30*
G03X44124Y32271I149J169*
X43899Y32046J225*
G01Y33460*
G03X43901Y33502I398J42*
X43501Y33902I400*
X43101Y33502J400*
G01Y35002*
G03X43501Y34602I400*
X43901Y35002J400*
X43501Y35402I400*
X43101Y35002J400*
G01Y40000*
X44483*
Y39576*
G03X44514Y39461I225*
G01Y32668*
G03X44739Y32443I225*
X44881Y32493J225*
G02X44900Y32500I19J23*
X44920Y32493J30*
G03X45013Y32444I149J168*
G01Y5984*
G03X46448Y4549I1435*
X47883Y5984J1435*
X46448Y7419I1435*
X45013Y5984J1435*
G01Y25984*
G03X46448Y24549I1435*
X47883Y25984J1435*
X46448Y27419I1435*
X45013Y25984J1435*
G01Y32444*
G03X45069Y32436I56J217*
X45294Y32661J225*
X45069Y32886I225*
X44927Y32836J225*
G02X44908Y32829I19J23*
X44888Y32836J30*
G03X44739Y32893I149J168*
X44514Y32668J225*
G01Y39461*
G03X44557Y39409I194J115*
G01Y33547*
G03X44787Y33317I230*
X45017Y33547J230*
X44787Y33777I230*
X44557Y33547J230*
G01Y39409*
G03X44708Y39351I151J167*
X44933Y39576J225*
X44708Y39801I225*
X44483Y39576J225*
G01Y40000*
X45077*
Y33969*
G03X45302Y33744I225*
X45527Y33969J225*
X45302Y34194I225*
X45077Y33969J225*
G01Y40000*
X45306*
Y36449*
G03X45531Y36224I225*
X45756Y36449J225*
X45531Y36674I225*
X45306Y36449J225*
G01Y40000*
X45813*
Y37822*
G03X45849Y37700I225*
G01Y36709*
G03X46079Y36479I230*
X46258Y36565J230*
G01Y32374*
G03X46483Y32149I225*
X46708Y32374J225*
Y32377I225*
G01Y32378*
G02X46738Y32408I30*
G03X46960Y32633I3J225*
X46735Y32858I225*
X46510Y32633J225*
Y32629I225*
G02X46481Y32599I30*
G03X46258Y32374I2J225*
G01Y36565*
G03X46309Y36709I179J144*
X46079Y36939I230*
X45849Y36709J230*
G01Y37700*
G03X46038Y37597I189J122*
X46263Y37822J225*
X46038Y38047I225*
X45813Y37822J225*
G01Y40000*
X46329*
Y33451*
G03X46554Y33226I225*
X46727Y33307J225*
G02X46750Y33318I23J19*
X46775Y33304J30*
G03X46964Y33201I189J122*
X47189Y33426J225*
X46964Y33651I225*
X46791Y33570J225*
G02X46768Y33559I23J19*
X46743Y33573J30*
G03X46554Y33676I189J122*
X46329Y33451J225*
G01Y40000*
X46957*
Y34029*
G03X47182Y33804I225*
X47392Y33948J225*
G02X47420Y33967I28J11*
X47429Y33966J30*
G03X47503Y33953I74J212*
X47507J225*
G01X47508*
G02X47537Y33929J30*
G03X47759Y33744I222J40*
X47824Y33754J225*
G01Y33512*
G03X48049Y33287I225*
X48274Y33512J225*
X48049Y33737I225*
X47824Y33512J225*
G01Y33754*
G03X47984Y33969I65J215*
X47962Y34067I225*
G02X47959Y34079I27J12*
X47989Y34109I30*
X48000Y34107J30*
G03X48086Y34090I86J208*
X48311Y34315J225*
X48086Y34540I225*
X47861Y34315J225*
X47884Y34218I225*
G02X47887Y34205I27J13*
X47857Y34175I30*
X47845Y34177J30*
G03X47759Y34194I86J208*
X47755J225*
G01X47754*
G02X47725Y34219J30*
G03X47503Y34403I222J41*
X47294Y34259J225*
G02X47266Y34240I28J11*
X47256Y34242J30*
G03X47182Y34254I74J213*
X46957Y34029J225*
G01Y40000*
X46996*
Y39335*
G03X47226Y39105I230*
X47456Y39335J230*
X47226Y39565I230*
X46996Y39335J230*
G01Y40000*
X47833*
Y35686*
G03X48058Y35461I225*
X48257Y35582J225*
G02X48284Y35598I27J14*
X48293Y35596J30*
G03X48364Y35585I71J214*
X48376J225*
G01Y33662*
G03X48392Y33578I225*
G01Y31520*
G03X48407Y31445I200*
G01Y30204*
G03X48482Y30047I200*
G02X48493Y30024I19J23*
X48490Y30009I30*
G03X48462Y29900I202J109*
X48692Y29670I230*
X48914Y29838J230*
G02X48941Y29860I29J8*
G01X48957Y29861*
X48958*
G02X48986Y29842J30*
G03X49170Y29719I184J77*
X49370Y29919J200*
X49364Y29968I200*
G02X49363Y29975I29J7*
X49393Y30005I30*
X49397J30*
G03X49420Y30003I23J198*
X49620Y30203J200*
X49420Y30403I200*
X49220Y30203J200*
X49226Y30155I200*
G02X49227Y30148I29J7*
X49197Y30118I30*
X49194J30*
G03X49170Y30119I24J199*
X48980Y29981J200*
G02X48953Y29961I28J10*
G01X48937Y29960*
X48936*
G02X48908Y29980J30*
G03X48808Y30099I216J80*
G02X48793Y30125I15J26*
X48795Y30135I30*
G03X48807Y30204I188J69*
X48607Y30404I200*
X48407Y30204J200*
G01Y31445*
G03X48592Y31320I185J75*
X48792Y31520J200*
X48592Y31720I200*
X48392Y31520J200*
G01Y33578*
G03X48601Y33437I209J84*
X48772Y33516J225*
G01Y32738*
G03X48972Y32538I200*
X49172Y32738J200*
X48972Y32938I200*
X48772Y32738J200*
G01Y33516*
G03X48826Y33662I171J146*
X48601Y33887I225*
X48376Y33662J225*
G01Y35585*
G03X48589Y35810I12J225*
X48364Y36035I225*
X48165Y35914J225*
G02X48138Y35898I27J14*
X48129Y35900J30*
G03X48058Y35911I71J214*
X47833Y35686J225*
G01Y40000*
X48270*
Y37696*
G03X48500Y37466I230*
X48730Y37696J230*
X48500Y37926I230*
X48270Y37696J230*
G01Y40000*
X48805*
Y37288*
G03X48996Y37061I230*
G01Y34231*
G03X49001Y34187I225*
G01Y33156*
G03X49201Y32956I200*
X49401Y33156J200*
X49201Y33356I200*
X49001Y33156J200*
G01Y34187*
G03X49221Y34006I220J44*
X49260Y34010J225*
G01Y33538*
G03X49460Y33338I200*
X49660Y33538J200*
X49460Y33738I200*
X49260Y33538J200*
G01Y34010*
G03X49446Y34231I39J221*
X49221Y34456I225*
X48996Y34231J225*
G01Y37061*
G03X49035Y37058I39J227*
X49265Y37288J230*
X49035Y37518I230*
X48805Y37288J230*
G01Y40000*
X50293*
Y35474*
G03X50523Y35244I230*
X50577Y35251J230*
G01Y33575*
G03X50732Y33361I225*
G01Y31958*
G03X50957Y31733I225*
X51182Y31958J225*
X50957Y32183I225*
X50732Y31958J225*
G01Y33361*
G03X50802Y33350I70J214*
X51027Y33575J225*
X50802Y33800I225*
X50577Y33575J225*
G01Y35251*
G03X50753Y35474I54J223*
X50523Y35704I230*
X50293Y35474J230*
G01Y40000*
X51015*
Y33858*
G03X51223Y33634I225*
G01Y31276*
G03X51453Y31046I230*
X51683Y31276J230*
X51453Y31506I230*
X51223Y31276J230*
G01Y33634*
G03X51240Y33633I17J224*
X51465Y33858J225*
X51440Y33961I225*
G02X51437Y33974I27J13*
X51449Y33998I30*
G03X51540Y34179I134J181*
X51315Y34404I225*
X51090Y34179J225*
X51115Y34077I225*
G02X51118Y34063I27J14*
X51106Y34039I30*
G03X51015Y33858I134J181*
G01Y40000*
X52140*
Y39000*
G03X52500Y38640I360*
X52821Y38837J360*
G01Y32996*
G03X52902Y32821I230*
G01Y30001*
G03X53132Y29771I230*
X53362Y30001J230*
X53132Y30231I230*
X52902Y30001J230*
G01Y32821*
G03X53051Y32766I149J175*
X53281Y32996J230*
X53051Y33226I230*
X52821Y32996J230*
G01Y38837*
G03X52860Y39000I321J163*
X52500Y39360I360*
X52140Y39000J360*
G01Y40000*
X53100*
Y39000*
G03X53500Y38600I400*
X53900Y39000J400*
X53500Y39400I400*
X53100Y39000J400*
G01Y40000*
X54100*
Y39000*
G03X54500Y38600I400*
X54530Y38601J400*
G01Y7000*
G03X55024Y6506I494*
X55517Y7000J494*
X55024Y7494I493*
X54530Y7000J494*
G01Y13750*
G03X55024Y13256I494*
X55517Y13750J494*
X55024Y14244I493*
X54530Y13750J494*
G01Y20500*
G03X55024Y20006I494*
X55517Y20500J494*
X55024Y20994I493*
X54530Y20500J494*
G01Y38601*
G03X54900Y39000I30J399*
X54500Y39400I400*
X54100Y39000J400*
G01Y40000*
X55100*
Y39000*
G03X55500Y38600I400*
X55900Y39000J400*
X55500Y39400I400*
X55100Y39000J400*
G01Y40000*
X56004*
Y32000*
G03X56234Y31770I230*
X56464Y32000J230*
X56234Y32230I230*
X56004Y32000J230*
G01Y40000*
X56565*
Y2000*
G03X58000Y565I1435*
X59435Y2000J1435*
X58000Y3435I1435*
X56565Y2000J1435*
G01Y38000*
G03X57372Y36709I1435*
G01Y25398*
G03X57523Y24843I1100*
G01Y7000*
G03X57976Y6546I453*
X58430Y7000J454*
X57976Y7454I454*
X57523Y7000J454*
G01Y13750*
G03X57976Y13296I453*
X58430Y13750J454*
X57976Y14204I454*
X57523Y13750J454*
G01Y20500*
G03X57976Y20046I453*
X58430Y20500J454*
X57976Y20954I454*
X57523Y20500J454*
G01Y24843*
G03X58472Y24298I949J555*
X59572Y25398J1100*
X58472Y26498I1100*
X57372Y25398J1100*
G01Y36709*
G03X57412Y36691I628J1291*
G01Y29398*
G03X58472Y28338I1060*
X59532Y29398J1060*
X58472Y30458I1060*
X57412Y29398J1060*
G01Y36691*
G03X58000Y36565I588J1309*
X58600Y36696J1435*
G01Y32000*
G03X59000Y31600I400*
X59400Y32000J400*
X59000Y32400I400*
X58600Y32000J400*
G01Y33000*
G03X59000Y32600I400*
X59400Y33000J400*
X59000Y33400I400*
X58600Y33000J400*
G01Y34000*
G03X59000Y33600I400*
X59400Y34000J400*
X59000Y34400I400*
X58600Y34000J400*
G01Y36696*
G03X58640Y36716I600J1304*
G01Y35000*
G03X59000Y34640I360*
X59360Y35000J360*
X59000Y35360I360*
X58640Y35000J360*
G01Y36716*
G03X59435Y38000I640J1284*
X58000Y39435I1435*
X56565Y38000J1435*
G01Y40000*
X59970*
G02X60000Y39970J30*
G01Y30*
G02X59970Y0I30*
G01X30*
G02X0Y30J30*
G01Y39970*
X57250Y29200D02*
X59750D01*
Y29600*
X57250*
Y29200*
X58200Y28000D02*
X58750D01*
Y30750*
X58200*
Y28000*
G37*
G54D10*
X2000Y2000D02*
X535D01*
X2000D02*
Y535D01*
Y2000D02*
X3465D01*
X2000D02*
Y3465D01*
Y38000D02*
X3465D01*
X2000D02*
Y39465D01*
Y38000D02*
X535D01*
X2000D02*
Y36535D01*
X4440Y5984D02*
X5905D01*
X4440D02*
Y7449D01*
Y5984D02*
X2975D01*
X4440D02*
Y4519D01*
Y25984D02*
X5905D01*
X4440D02*
Y27449D01*
Y25984D02*
X2975D01*
X4440D02*
Y24519D01*
X20500Y39000D02*
X20890D01*
X20500D02*
Y39390D01*
Y39000D02*
X20110D01*
X20500D02*
Y38610D01*
X26000Y39000D02*
X26390D01*
X26000D02*
Y39390D01*
Y39000D02*
X25610D01*
X26000D02*
Y38610D01*
X29500Y39000D02*
X29890D01*
X29500D02*
Y39390D01*
Y39000D02*
X29110D01*
X29500D02*
Y38610D01*
X33000Y39000D02*
Y39390D01*
Y39000D02*
X33390D01*
X33000D02*
Y38610D01*
Y39000D02*
X32610D01*
X36500D02*
X36890D01*
X36500D02*
Y38610D01*
Y39000D02*
X36110D01*
X36500D02*
Y39390D01*
X38071Y39053D02*
X37882D01*
X38346Y38758D02*
Y38569D01*
Y39348D02*
Y39537D01*
X38504Y38000D02*
Y37625D01*
Y38000D02*
X38879D01*
X38504D02*
Y38375D01*
Y38000D02*
X38129D01*
X38622Y39053D02*
X38810D01*
X40354Y39051D02*
X40166D01*
X40472Y38000D02*
Y38375D01*
Y38000D02*
Y37625D01*
Y38000D02*
X40848D01*
X40472D02*
X40097D01*
X40630Y38756D02*
Y38567D01*
Y39346D02*
Y39535D01*
X40906Y39051D02*
X41094D01*
X41500Y35000D02*
Y34610D01*
Y35000D02*
Y35390D01*
Y35000D02*
X41890D01*
X41500D02*
X41110D01*
X46448Y5984D02*
X47913D01*
X46448D02*
Y7449D01*
Y5984D02*
X44983D01*
X46448D02*
Y4519D01*
Y25984D02*
X47913D01*
X46448D02*
Y27449D01*
Y25984D02*
X44983D01*
X46448D02*
Y24519D01*
X52500Y39000D02*
X52890D01*
X52500D02*
Y38610D01*
Y39000D02*
X52110D01*
X52500D02*
Y39390D01*
X57976Y7000D02*
Y6516D01*
Y7000D02*
X58460D01*
X57976D02*
X57493D01*
X57976D02*
Y7484D01*
Y13750D02*
X57493D01*
X57976D02*
X58460D01*
X57976D02*
Y14234D01*
Y13750D02*
Y13266D01*
Y20500D02*
X57493D01*
X57976D02*
X58460D01*
X57976D02*
Y20984D01*
Y20500D02*
Y20016D01*
X58000Y2000D02*
X59465D01*
X58000D02*
Y3465D01*
Y2000D02*
X56535D01*
X58000D02*
Y535D01*
Y38000D02*
X59465D01*
X58000D02*
Y39465D01*
Y38000D02*
X56535D01*
X58000D02*
Y36535D01*
X58472Y29398D02*
X59562D01*
X58472D02*
X57382D01*
X58472D02*
Y28308D01*
Y29398D02*
Y30488D01*
X59000Y35000D02*
X58610D01*
X59000D02*
X59390D01*
X59000D02*
Y35390D01*
Y35000D02*
Y34610D01*
G54D11*
X1000Y5000D03*
Y8000D03*
Y11000D03*
Y14000D03*
Y17000D03*
Y20000D03*
Y23000D03*
Y26000D03*
Y29000D03*
Y36000D03*
X5000Y1000D03*
X7000Y5000D03*
Y28000D03*
X8000Y1000D03*
X9000Y28000D03*
Y30000D03*
X10500Y17500D03*
Y18000D03*
Y34500D03*
X11000Y1000D03*
Y17500D03*
Y18000D03*
Y28000D03*
Y30000D03*
X11500Y17500D03*
Y18000D03*
X12000Y17500D03*
Y18000D03*
X12500Y17500D03*
Y18000D03*
X13000Y17500D03*
Y18000D03*
Y30000D03*
X13500Y17500D03*
Y18000D03*
X14000Y1000D03*
Y17500D03*
Y18000D03*
X14500Y17500D03*
Y18000D03*
X15000Y17500D03*
Y18000D03*
Y30000D03*
X15500Y17500D03*
Y18000D03*
X17000Y4000D03*
Y4500D03*
Y5000D03*
Y9500D03*
Y10000D03*
Y10500D03*
Y11000D03*
Y11500D03*
Y12000D03*
Y12500D03*
Y13000D03*
Y30000D03*
X17500Y4000D03*
Y4500D03*
Y5000D03*
Y9500D03*
Y10000D03*
Y10500D03*
Y11000D03*
Y11500D03*
Y12000D03*
Y12500D03*
Y13000D03*
X18000Y1000D03*
Y17000D03*
Y17500D03*
X18500Y17000D03*
Y17500D03*
X19000Y17000D03*
Y17500D03*
X19500Y17000D03*
Y17500D03*
X20000Y17000D03*
Y17500D03*
X20500Y17000D03*
Y17500D03*
X21000Y1000D03*
Y17000D03*
Y17500D03*
X21500Y17000D03*
Y17500D03*
X22000Y17000D03*
Y17500D03*
X22500Y17000D03*
Y17500D03*
X25000Y1000D03*
Y4000D03*
Y4500D03*
Y5000D03*
Y9000D03*
Y13000D03*
X25500Y4000D03*
Y4500D03*
Y5000D03*
Y9000D03*
Y13000D03*
X28000Y1000D03*
X29000Y16000D03*
Y16500D03*
X29500Y16000D03*
Y16500D03*
X30000Y16000D03*
Y16500D03*
X30500Y16000D03*
Y16500D03*
X31000Y16000D03*
Y16500D03*
X31500Y16000D03*
Y16500D03*
X32000Y1000D03*
Y16000D03*
Y16500D03*
X32500Y16000D03*
Y16500D03*
X33000Y16000D03*
Y16500D03*
X33500Y16000D03*
Y16500D03*
X34500Y4000D03*
Y4500D03*
Y5000D03*
Y9500D03*
Y10000D03*
Y10500D03*
Y11000D03*
Y11500D03*
Y12000D03*
Y12500D03*
Y13000D03*
X35000Y1000D03*
Y4000D03*
Y4500D03*
Y5000D03*
Y9500D03*
Y10000D03*
Y10500D03*
Y11000D03*
Y11500D03*
Y12000D03*
Y12500D03*
Y13000D03*
X36000Y4000D03*
Y4500D03*
Y5000D03*
X38000Y1000D03*
X39000Y4000D03*
Y4500D03*
Y5000D03*
X41000Y1000D03*
Y20000D03*
Y22000D03*
Y24000D03*
Y26000D03*
Y28000D03*
X41500Y10500D03*
Y11000D03*
Y11500D03*
Y12000D03*
Y15500D03*
Y16000D03*
Y16500D03*
Y17000D03*
X42000Y4000D03*
Y4500D03*
Y5000D03*
Y10500D03*
Y11000D03*
Y11500D03*
Y12000D03*
Y15500D03*
Y16000D03*
Y16500D03*
Y17000D03*
Y39000D03*
X42500Y10500D03*
Y11000D03*
Y15500D03*
Y16000D03*
X43000Y10500D03*
Y11000D03*
Y15500D03*
Y16000D03*
X43500Y10500D03*
Y11000D03*
Y15500D03*
Y16000D03*
X44000Y1000D03*
Y20000D03*
Y28000D03*
X47000Y1000D03*
X49500Y26000D03*
Y28000D03*
X50000Y1000D03*
Y6000D03*
X51000Y39000D03*
X53000Y1000D03*
Y6000D03*
X56000Y1000D03*
X59000Y4000D03*
Y6000D03*
Y9000D03*
Y12000D03*
Y15000D03*
Y18000D03*
Y21000D03*
Y28000D03*
G54D12*
X1250Y30000D03*
Y34500D03*
X5000Y38000D03*
X7000D03*
X10000D03*
X11500Y27750D03*
Y28250D03*
Y28750D03*
X11750Y27500D03*
Y28000D03*
Y28500D03*
Y29000D03*
X12000Y28750D03*
Y38000D03*
X12250Y29000D03*
X12500Y28750D03*
X12750Y29000D03*
X13000Y28750D03*
X13250Y29000D03*
X13500Y28750D03*
X13750Y29000D03*
X14000Y28750D03*
X14250Y29000D03*
X18500Y24500D03*
X18750Y24750D03*
Y30500D03*
Y31000D03*
Y31500D03*
Y32000D03*
Y32500D03*
X19000Y24500D03*
X19250Y24750D03*
X19500Y24500D03*
X19750Y24750D03*
X20000Y23000D03*
Y23500D03*
Y24000D03*
Y24500D03*
X20250Y24750D03*
Y34500D03*
X20500Y24500D03*
X20750Y24750D03*
X21000Y24500D03*
X21168Y32674D03*
X21250Y24750D03*
X21325Y26008D03*
X21500Y24500D03*
Y35250D03*
X21519Y32578D03*
X21708Y34093D03*
X21750Y31149D03*
X21840Y32432D03*
X22141Y31154D03*
Y32630D03*
X22167Y30016D03*
X22293Y34227D03*
X22510Y37480D03*
X22584Y34436D03*
X22607Y34102D03*
X22768Y34822D03*
X22944Y30001D03*
X23091Y34572D03*
X23250Y32250D03*
X23530Y37480D03*
X23704Y33942D03*
X23750Y32250D03*
X23794Y29850D03*
X24250Y23500D03*
Y24000D03*
Y24500D03*
X24424Y37480D03*
X24500Y29965D03*
Y25750D03*
X24750Y23500D03*
X24929Y29688D03*
X24933Y34243D03*
X25000Y25750D03*
X25057Y35790D03*
X25183Y33993D03*
X25202Y36315D03*
X25208Y36645D03*
X25250Y23500D03*
X25500Y25750D03*
Y37250D03*
X25887Y34095D03*
X25973Y32672D03*
X26633Y34527D03*
X27114Y30018D03*
X27527Y29919D03*
X27750Y34000D03*
Y35000D03*
X27778Y30603D03*
X28750Y37000D03*
X29750Y34500D03*
X30000Y29000D03*
X30250Y28750D03*
X30500Y29000D03*
X30750Y28750D03*
X31000Y29000D03*
X31250Y28750D03*
X31500Y29000D03*
X31750Y28750D03*
X32000Y29000D03*
X32250Y28750D03*
X32750Y27500D03*
Y28000D03*
X34250Y29750D03*
X34500Y35000D03*
X35500D03*
X36250Y32750D03*
X36750D03*
X37250Y29750D03*
Y32750D03*
Y33500D03*
X37500Y27750D03*
X37750Y29750D03*
X38000Y27750D03*
X38250Y29750D03*
X38500Y27750D03*
X39000Y37500D03*
X39750Y29500D03*
X43000Y38750D03*
X44124Y32046D03*
X44502Y32091D03*
X44708Y39576D03*
X44739Y32668D03*
X45069Y32661D03*
X45302Y33969D03*
X45531Y36449D03*
X46038Y37822D03*
X46483Y32374D03*
X46500Y7750D03*
Y8250D03*
Y8750D03*
Y9250D03*
Y9750D03*
X46554Y33451D03*
X46735Y32633D03*
X46750Y8000D03*
Y8500D03*
Y9500D03*
X46964Y33426D03*
X47182Y34029D03*
X47503Y34178D03*
X47759Y33969D03*
X48049Y33512D03*
X48058Y35686D03*
X48086Y34315D03*
X48364Y35810D03*
X48500Y32000D03*
X48601Y33662D03*
X49221Y34231D03*
X49250Y31500D03*
X50000Y38250D03*
X50802Y33575D03*
X50957Y31958D03*
X51240Y33858D03*
X51315Y34179D03*
X51500Y36000D03*
Y36500D03*
X53250Y29000D03*
X54500Y29250D03*
X55000D03*
X55500D03*
X56000D03*
X56500D03*
X58000Y35000D03*
G54D13*
X5312Y33756D03*
X5349Y31755D03*
X6526Y34314D03*
X7504Y31758D03*
X13458Y37542D03*
X16998Y24735D03*
X17149Y16260D03*
X20630Y30463D03*
X22400Y28024D03*
X22560Y21273D03*
X22738Y24886D03*
X23000Y16500D03*
X23113Y35500D03*
X23275Y27023D03*
X23770Y28056D03*
X24515Y27037D03*
X25028Y28028D03*
X25938Y28049D03*
X28250Y28064D03*
X28853Y28056D03*
X29312Y24914D03*
X29329Y21822D03*
X29808Y37488D03*
X31454Y36277D03*
X32818Y28370D03*
X33401Y24026D03*
X34477Y15784D03*
X35501Y36778D03*
X39406Y36924D03*
X39731Y37373D03*
X44570Y30474D03*
X44787Y33547D03*
X46079Y36709D03*
X46545Y37757D03*
X47226Y39335D03*
X48500Y37696D03*
X48692Y29900D03*
X49035Y37288D03*
X50523Y35474D03*
X51453Y31276D03*
X53051Y32996D03*
X53132Y30001D03*
X56234Y32000D03*
G54D14*
X48592Y31520D03*
X48607Y30204D03*
X48972Y32738D03*
X49170Y29919D03*
X49201Y33156D03*
X49420Y30203D03*
X49460Y33538D03*
G54D15*
X2000Y2000D03*
Y38000D03*
X4440Y5984D03*
Y25984D03*
X46448Y5984D03*
Y25984D03*
X58000Y2000D03*
Y38000D03*
G54D16*
X8252Y39249D03*
X13252D03*
X15500Y39000D03*
X16500D03*
X17500D03*
X18500D03*
X19500D03*
X20500D03*
X22000D03*
X23000D03*
X24000D03*
X25000D03*
X26000D03*
X27500D03*
X28500D03*
X29500D03*
X31000D03*
X32000D03*
X33000D03*
X34500D03*
X35500D03*
X36500D03*
X39500Y35000D03*
X40500D03*
X41500D03*
X43501Y30002D03*
Y33502D03*
Y35002D03*
X52500Y39000D03*
X53500D03*
X54500D03*
X55500D03*
X59000Y32000D03*
Y33000D03*
Y34000D03*
Y35000D03*
G54D17*
X16000Y1500D03*
X23000D03*
X30000D03*
X58472Y25398D03*
Y29398D03*
G54D18*
X38504Y38000D03*
X40472D03*
G54D19*
X38346Y39053D03*
X40630Y39051D03*
G54D70*
X55024Y7000D03*
Y13750D03*
Y20500D03*
X57976Y7000D03*
Y13750D03*
Y20500D03*
M02*
