*
G04 Job   : E:\PCBDESIGN\PROJECT\XDX\JOHNENGLISH\JOHNENGLISH\PCB\Board1.pcb*
G04 User  : BES-WIN7-VM:BES*
G04 Layer : EtchLayer4Bottom.gdo*
G04 Date  : Sun Nov 23 15:41:45 2014*
G04 Mentor Graphics Example Gerber Output Definition*
%ICAS*%
%MOIN*%
%FSLAX24Y24*%
%OFA0.0000B0.0000*%
G90*
G74*
%AMVB_RCRECTANGLE*
$3=$3X2*
21,1,$1-$3,$2,0,0,0*
21,1,$1,$2-$3,0,0,0*
$1=$1/2*
$2=$2/2*
$3=$3/2*
$1=$1-$3*
$2=$2-$3*
1,1,$3X2,0-$1,0-$2*
1,1,$3X2,0-$1,$2*
1,1,$3X2,$1,$2*
1,1,$3X2,$1,0-$2*
%
%ADD10C,0.01000*%
%ADD11C,0.02000*%
%ADD13C,0.02500*%
%ADD14C,0.02600*%
%ADD12C,0.03000*%
%ADD18C,0.05709*%
%ADD16C,0.06000*%
%ADD70C,0.07874*%
%ADD17C,0.20000*%
%ADD15C,0.27500*%
%ADD19VB_RCRECTANGLE,0.07480X0.07874X0.00984*%
G01*
G36*
X250Y39720D02*
G02X280Y39750I30D01*
G01X525*
Y2000*
G03X2000Y525I1475*
X3475Y2000J1475*
X2000Y3475I1475*
X525Y2000J1475*
G01Y38000*
G03X2000Y36525I1475*
X2965Y36885J1475*
G01Y5984*
G03X4440Y4509I1475*
X5915Y5984J1475*
X4440Y7459I1475*
X2965Y5984J1475*
G01Y25984*
G03X4440Y24509I1475*
X5915Y25984J1475*
X4440Y27459I1475*
X2965Y25984J1475*
G01Y36885*
G03X3475Y38000I965J1115*
X2000Y39475I1475*
X525Y38000J1475*
G01Y39750*
X12852*
Y39249*
G03X13252Y38849I400*
X13652Y39249J400*
X13252Y39649I400*
X12852Y39249J400*
G01Y39750*
X15100*
Y39000*
G03X15500Y38600I400*
X15900Y39000J400*
X15500Y39400I400*
X15100Y39000J400*
G01Y39750*
X32600*
Y39000*
G03X33000Y38600I400*
X33400Y39000J400*
X33000Y39400I400*
X32600Y39000J400*
G01Y39750*
X34100*
Y39000*
G03X34500Y38600I400*
X34900Y39000J400*
X34500Y39400I400*
X34100Y39000J400*
G01Y39750*
X35100*
Y39000*
G03X35500Y38600I400*
X35900Y39000J400*
X35500Y39400I400*
X35100Y39000J400*
G01Y39750*
X36100*
Y39000*
G03X36500Y38600I400*
X36900Y39000J400*
X36500Y39400I400*
X36100Y39000J400*
G01Y39750*
X37872*
Y38758*
G03X38071Y38559I199*
G01X38119*
Y38000*
G03X38504Y37615I385*
X38889Y38000J385*
X38504Y38385I385*
X38119Y38000J385*
G01Y38559*
X38622*
G03X38820Y38758J199*
G01Y39348*
G03X38622Y39547I198*
G01X38071*
G03X37872Y39348J199*
G01Y39750*
X40087*
Y38000*
G03X40472Y37615I385*
X40858Y38000J385*
X40472Y38385I386*
X40087Y38000J385*
G01Y39750*
X40156*
Y38756*
G03X40354Y38557I198*
G01X40906*
G03X41104Y38756J199*
G01Y39346*
G03X40906Y39545I198*
G01X40354*
G03X40156Y39346J199*
G01Y39750*
X44498*
G02X44528Y39720J30*
X44522Y39703I30*
G03X44483Y39576I186J127*
X44649Y39358I225*
G01X44728Y39337*
G02X44742Y39329I7J29*
G01X45372Y38699*
G02X45381Y38678I21J21*
G01Y36647*
G02X45377Y36632I30*
G01X45336Y36562*
G02X45310Y36547I26J15*
X45289Y36556J30*
G01X44366Y37479*
G03X44260Y37523I106J106*
G01X39939*
G02X39924Y37527J30*
G01X39846Y37572*
G03X39731Y37603I115J199*
X39501Y37373J230*
X39731Y37143I230*
X39846Y37173J230*
G01X39924Y37219*
G02X39939Y37223I15J26*
G01X44186*
G02X44207Y37214J30*
G01X44295Y37125*
G02X44304Y37104I21J21*
X44274Y37074I30*
G01X39614*
G02X39599Y37078J30*
G01X39521Y37124*
G03X39406Y37154I115J200*
X39176Y36924J230*
X39208Y36807I230*
G02X39212Y36792I26J15*
X39182Y36762I30*
G01X35992*
G02X35971Y36771J30*
G01X35857Y36884*
G03X35751Y36928I106J106*
G01X35709*
G02X35694Y36932J30*
G01X35616Y36978*
G03X35501Y37008I115J200*
X35271Y36778J230*
X35318Y36640I230*
G02X35324Y36622I24J18*
X35294Y36592I30*
G01X34188*
G02X34166Y36601J30*
G01X32172Y38595*
G02X32163Y38616I21J21*
X32180Y38643I30*
G03X32400Y39000I180J357*
X32000Y39400I400*
X31600Y39000J400*
X31668Y38777I400*
G02X31673Y38760I25J17*
X31643Y38730I30*
G01X31357*
G02X31327Y38760J30*
X31332Y38777I30*
G03X31400Y39000I332J223*
X31000Y39400I400*
X30600Y39000J400*
X30668Y38777I400*
G02X30673Y38760I25J17*
X30643Y38730I30*
G01X29857*
G02X29827Y38760J30*
X29832Y38777I30*
G03X29900Y39000I332J223*
X29500Y39400I400*
X29100Y39000J400*
X29168Y38777I400*
G02X29173Y38760I25J17*
X29143Y38730I30*
G01X28857*
G02X28827Y38760J30*
X28832Y38777I30*
G03X28900Y39000I332J223*
X28500Y39400I400*
X28100Y39000J400*
X28168Y38777I400*
G02X28173Y38760I25J17*
X28143Y38730I30*
G01X27857*
G02X27827Y38760J30*
X27832Y38777I30*
G03X27900Y39000I332J223*
X27500Y39400I400*
X27100Y39000J400*
X27168Y38777I400*
G02X27173Y38760I25J17*
X27143Y38730I30*
G01X26357*
G02X26327Y38760J30*
X26332Y38777I30*
G03X26400Y39000I332J223*
X26000Y39400I400*
X25600Y39000J400*
X25668Y38777I400*
G02X25673Y38760I25J17*
X25643Y38730I30*
G01X25357*
G02X25327Y38760J30*
X25332Y38777I30*
G03X25400Y39000I332J223*
X25000Y39400I400*
X24600Y39000J400*
X24668Y38777I400*
G02X24673Y38760I25J17*
X24643Y38730I30*
G01X24357*
G02X24327Y38760J30*
X24332Y38777I30*
G03X24400Y39000I332J223*
X24000Y39400I400*
X23600Y39000J400*
X23668Y38777I400*
G02X23673Y38760I25J17*
X23643Y38730I30*
G01X23357*
G02X23327Y38760J30*
X23332Y38777I30*
G03X23400Y39000I332J223*
X23000Y39400I400*
X22600Y39000J400*
X22668Y38777I400*
G02X22673Y38760I25J17*
X22643Y38730I30*
G01X22357*
G02X22327Y38760J30*
X22332Y38777I30*
G03X22400Y39000I332J223*
X22000Y39400I400*
X21600Y39000J400*
X21668Y38777I400*
G02X21673Y38760I25J17*
X21643Y38730I30*
G01X20857*
G02X20827Y38760J30*
X20832Y38777I30*
G03X20900Y39000I332J223*
X20500Y39400I400*
X20100Y39000J400*
X20168Y38777I400*
G02X20173Y38760I25J17*
X20143Y38730I30*
G01X20009*
G02X19980Y38752J30*
G01X19886Y39103*
G03X19500Y39400I386J103*
X19100Y39000J400*
X19379Y38619I400*
G02X19400Y38590I9J29*
X19370Y38560I30*
G01X19165*
G02X19143Y38569J30*
G01X18994Y38718*
G02X18986Y38732I21J22*
G01X18886Y39103*
G03X18500Y39400I386J103*
X18100Y39000J400*
X18397Y38614I400*
G01X18768Y38514*
G02X18782Y38506I8J29*
G01X18847Y38441*
G02X18855Y38420I22J21*
X18825Y38390I30*
G01X18335*
G02X18313Y38399J30*
G01X17994Y38718*
G02X17986Y38732I21J22*
G01X17886Y39103*
G03X17500Y39400I386J103*
X17100Y39000J400*
X17397Y38614I400*
G01X17768Y38514*
G02X17782Y38506I8J29*
G01X18017Y38271*
G02X18025Y38250I22J21*
X17995Y38220I30*
G01X17505*
G02X17483Y38229J30*
G01X16994Y38718*
G02X16986Y38732I21J22*
G01X16886Y39103*
G03X16500Y39400I386J103*
X16100Y39000J400*
X16397Y38614I400*
G01X16768Y38514*
G02X16782Y38506I8J29*
G01X17192Y38096*
G02X17200Y38075I22J21*
X17170Y38045I30*
G01X12850*
G03X12744Y38001J150*
G01X12656Y37914*
G02X12635Y37905I21J21*
G01X9820*
G02X9799Y37914J30*
G01X8746Y38967*
G02X8738Y38981I21J21*
G01X8638Y39352*
G03X8252Y39649I386J103*
X7852Y39249J400*
X8149Y38862I400*
G01X8520Y38763*
G02X8533Y38755I8J29*
G01X9640Y37649*
G03X9746Y37605I106J106*
G01X12710*
G03X12816Y37649J150*
G01X12903Y37736*
G02X12924Y37745I21J21*
G01X13264*
G02X13294Y37715J30*
X13287Y37695I30*
G03X13228Y37542I171J153*
X13458Y37312I230*
X13680Y37482J230*
G01X13699Y37553*
G02X13728Y37575I29J8*
G01X22263*
G02X22293Y37545J30*
X22292Y37537I30*
G03X22285Y37480I218J57*
X22315Y37368I225*
G01X22356Y37297*
G02X22360Y37282I26J15*
G01Y36988*
G03X22404Y36882I150*
G01X23334Y35951*
G02X23343Y35930I21J21*
X23313Y35900I30*
G01X7306*
G03X7200Y35856J150*
G01X5353Y34009*
G02X5340Y34001I21J21*
G01X5253Y33978*
G03X5082Y33756I59J222*
X5119Y33631I230*
G01Y31755*
G03X5349Y31525I230*
X5464Y31556J230*
G01X5542Y31601*
G02X5557Y31605I15J26*
G01X7251*
G03X7275Y31607J150*
G02X7280Y31608I5J29*
G01X7295*
G02X7310Y31604J30*
G01X7389Y31558*
G03X7504Y31528I115J200*
X7734Y31758J230*
X7504Y31988I230*
X7389Y31957J230*
G01X7310Y31912*
G02X7295Y31908I15J26*
G01X7254*
G03X7229Y31906J150*
G02X7225Y31905I4J29*
G01X5557*
G02X5542Y31909J30*
G01X5464Y31955*
G03X5349Y31985I115J200*
X5119Y31755J230*
G01Y33631*
G03X5312Y33526I193J125*
X5534Y33697J230*
G01X5558Y33784*
G02X5565Y33797I29J8*
G01X6296Y34527*
Y34314*
G03X6526Y34084I230*
X6756Y34314J230*
X6526Y34544I230*
X6296Y34314J230*
G01Y34527*
X7360Y35591*
G02X7381Y35600I21J21*
G01X20400*
Y30463*
G03X20630Y30233I230*
X20860Y30463J230*
X20630Y30693I230*
X20400Y30463J230*
G01Y35600*
X23351*
G02X23373Y35591J30*
G01X23702Y35262*
G02X23711Y35240I21J22*
X23681Y35210I30*
X23670Y35212J30*
G03X23616Y35222I54J140*
G01X22672*
G03X22566Y35179J150*
G01X21776Y34388*
G03X21746Y34347I106J106*
G02X21727Y34331I27J13*
G01X21650Y34310*
G03X21483Y34093I58J217*
X21708Y33868I225*
X21926Y34035J225*
G01X21947Y34113*
G02X21955Y34127I29J7*
G01X21988Y34160*
G03X22015Y34198I106J106*
G02X22042Y34214I27J14*
X22071Y34189J30*
G03X22098Y34115I222J38*
G01X22139Y34044*
G02X22143Y34029I26J15*
G01Y33982*
G03X22187Y33876I150*
G01X23157Y32906*
G03X23264Y32862I107J106*
G01X24009*
G02X24031Y32853J30*
G01X24053Y32831*
G02X24062Y32810I21J21*
X24032Y32780I30*
G01X22339*
G02X22324Y32784J30*
G01X22253Y32825*
G03X22141Y32855I112J195*
X21921Y32675J225*
G02X21891Y32651I30J6*
X21885Y32652J30*
G03X21840Y32657I45J220*
X21766Y32644J225*
G02X21756Y32643I10J29*
X21728Y32662J30*
G03X21519Y32803I209J84*
X21406Y32773J225*
G02X21391Y32769I15J26*
X21365Y32784J30*
G03X21168Y32899I197J110*
X20943Y32674J225*
X20973Y32562I225*
G01X21014Y32491*
G02X21018Y32476I26J15*
G01Y32429*
G03X21062Y32323I150*
G01X21866Y31519*
G02X21875Y31498I21J21*
X21866Y31477I30*
G01X21784Y31395*
G02X21771Y31387I21J21*
G01X21692Y31366*
G03X21525Y31149I58J217*
X21750Y30924I225*
X21924Y31006J225*
G02X21948Y31017I24J19*
X21970Y31007J30*
G03X22141Y30929I171J147*
X22253Y30959J225*
G01X22324Y31000*
G02X22339Y31004I15J26*
G01X23976*
G02X23997Y30995J30*
G01X24826Y30166*
G02X24834Y30145I22J21*
X24804Y30115I30*
G01X24698*
G02X24683Y30119J30*
G01X24612Y30160*
G03X24500Y30190I112J195*
X24275Y29965J225*
X24500Y29740I225*
X24612Y29770J225*
G01X24678Y29808*
G02X24693Y29812I15J26*
X24723Y29782J30*
X24720Y29771I30*
G03X24712Y29746I209J83*
G01Y29745*
X24691Y29667*
G02X24683Y29653I29J8*
G01X24624Y29594*
G02X24603Y29585I21J21*
G01X23895*
G02X23865Y29615J30*
X23883Y29643I30*
G03X24019Y29850I89J207*
X23794Y30075I225*
X23577Y29908J225*
G01X23561Y29849*
G02X23532Y29826I29J7*
G01X23154*
G02X23124Y29856J30*
X23129Y29873I30*
G03X23169Y30001I185J128*
X22944Y30226I225*
X22831Y30196J225*
G01X22760Y30155*
G02X22745Y30151I15J26*
G01X22617*
G03X22511Y30107J150*
G01X22440Y30036*
G02X22419Y30027I21J21*
X22389Y30052J30*
G03X22167Y30241I222J36*
X21950Y30074J225*
G01X21929Y29995*
G02X21921Y29982I29J8*
G01X21888Y29949*
G03X21844Y29843I106J106*
G01Y29806*
G02X21835Y29785I30*
G01X17039Y24989*
G02X17025Y24981I21J21*
G01X16939Y24957*
X16938*
G03X16768Y24735I60J222*
X16972Y24507I230*
G02X16999Y24477I3J30*
G01Y16468*
G02X16995Y16453I30*
G01X16950Y16375*
G03X16919Y16260I199J115*
X17149Y16030I230*
X17379Y16260J230*
X17348Y16374I230*
G01X17303Y16453*
G02X17299Y16468I26J15*
G01Y24458*
G02X17307Y24479I30*
G01X21269Y28441*
G02X21290Y28450I21J21*
X21320Y28420J30*
G01Y27522*
G03X21364Y27416I150*
G01X22841Y25939*
G02X22850Y25917I21J22*
G01Y25133*
G02X22820Y25103I30*
X22811Y25105J30*
G03X22738Y25116I73J219*
X22508Y24886J230*
X22539Y24771I230*
G01X22584Y24693*
G02X22588Y24678I26J15*
G01Y21542*
G02X22566Y21513I30*
G01X22500Y21495*
G03X22330Y21273I60J222*
X22560Y21043I230*
X22782Y21214J230*
G01X22791Y21248*
G02X22820Y21270I29J8*
X22850Y21240J30*
G01Y18130*
G02X22820Y18100I30*
G01X18250*
G03X17650Y17500J600*
G01Y13253*
G02X17620Y13223I30*
X17607Y13226J30*
G03X17500Y13250I107J226*
X17277Y13113J250*
G02X17250Y13096I27J13*
X17223Y13113J30*
G03X17000Y13250I223J113*
X16893Y13226J250*
G02X16880Y13223I13J27*
X16850Y13253J30*
G01Y18000*
G03X16250Y18600I600*
G01X8500*
G03X7900Y18000J600*
G01Y1248*
G02X7884Y1221I30*
G03X7750Y1000I116J221*
X7884Y779I250*
G02X7900Y752I14J27*
G01Y750*
G03X8100Y302I600*
G02X8110Y280I20J22*
X8080Y250I30*
G01X280*
G02X250Y280J30*
G01Y39720*
X5414Y31643D02*
Y31868D01*
X5522Y31805*
Y31705*
X5414Y31643*
X5438Y33722D02*
X5278Y33881D01*
X5399Y33914*
X5470Y33843*
X5438Y33722*
X7439Y31870D02*
Y31645D01*
X7330Y31708*
Y31808*
X7439Y31870*
X8000Y18000D02*
G02X8500Y18500I500D01*
G01X10650*
Y1000*
G03X11000Y650I350*
X11350Y1000J350*
X11000Y1350I350*
X10650Y1000J350*
G01Y18500*
X13650*
Y1000*
G03X14000Y650I350*
X14350Y1000J350*
X14000Y1350I350*
X13650Y1000J350*
G01Y18500*
X16250*
G02X16750Y18000J500*
G01Y13257*
G02X16742Y13237I30*
G03X16650Y13000I258J237*
X16736Y12770I350*
G02X16744Y12750I22J20*
X16736Y12730I30*
G03X16650Y12500I264J230*
X16736Y12270I350*
G02X16744Y12250I22J20*
X16736Y12230I30*
G03X16650Y12000I264J230*
X16736Y11770I350*
G02X16744Y11750I22J20*
X16736Y11730I30*
G03X16650Y11500I264J230*
X16736Y11270I350*
G02X16744Y11250I22J20*
X16736Y11230I30*
G03X16650Y11000I264J230*
X16736Y10770I350*
G02X16744Y10750I22J20*
X16736Y10730I30*
G03X16650Y10500I264J230*
X16736Y10270I350*
G02X16744Y10250I22J20*
X16736Y10230I30*
G03X16650Y10000I264J230*
X16736Y9770I350*
G02X16744Y9750I22J20*
X16736Y9730I30*
G03X16650Y9500I264J230*
X16742Y9263I350*
G02X16750Y9243I22J20*
G01Y5257*
G02X16742Y5237I30*
G03X16650Y5000I258J237*
X16736Y4770I350*
G02X16744Y4750I22J20*
X16736Y4730I30*
G03X16650Y4500I264J230*
X16736Y4270I350*
G02X16744Y4250I22J20*
X16736Y4230I30*
G03X16650Y4000I264J230*
X16742Y3763I350*
G02X16750Y3743I22J20*
G01Y2371*
G02X16720Y2341I30*
X16701Y2348J30*
G03X16000Y2600I701J848*
X14900Y1500J1100*
X16000Y400I1100*
X16681Y636J1100*
G02X16699Y642I18J24*
X16729Y612J30*
X16728Y604I30*
X16250Y250I478J146*
G01X8500*
G02X8019Y615J500*
X8017Y623I28J8*
X8044Y653I30*
G03X8350Y1000I44J347*
X8028Y1349I350*
G02X8000Y1379I2J30*
G01Y18000*
X8174Y38959D02*
X8542Y39326D01*
X8650Y38921*
X8580Y38850*
X8174Y38959*
X13584Y37508D02*
X13424Y37667D01*
X13545Y37700*
X13616Y37629*
X13584Y37508*
X14750Y1250D02*
X16250D01*
Y1750*
X14750*
Y1250*
X15750Y250D02*
X16250D01*
Y2750*
X15750*
Y250*
X16422Y38710D02*
X16790Y39078D01*
X16898Y38672*
X16828Y38602*
X16422Y38710*
X17123Y24702D02*
X16964Y24861D01*
X17085Y24893*
X17156Y24822*
X17123Y24702*
X17261Y16325D02*
X17036D01*
X17099Y16433*
X17199*
X17261Y16325*
X17422Y38710D02*
X17790Y39078D01*
X17898Y38672*
X17828Y38602*
X17422Y38710*
X17750Y17500D02*
G02X18250Y18000I500D01*
G01X20650*
Y1000*
G03X21000Y650I350*
X21350Y1000J350*
X21000Y1350I350*
X20650Y1000J350*
G01Y18000*
X21900*
Y1500*
G03X23000Y400I1100*
X24100Y1500J1100*
X23000Y2600I1100*
X21900Y1500J1100*
G01Y18000*
X22720*
G02X22750Y17970J30*
G01Y16735*
G02X22746Y16720I30*
G01X22714Y16665*
G03X22670Y16500I286J165*
X23000Y16170I330*
X23330Y16500J330*
X23286Y16665I330*
G01X23254Y16720*
G02X23250Y16735I26J15*
G01Y17970*
G02X23280Y18000I30*
G01X24000*
G02X24500Y17500J500*
G01Y750*
G02X24000Y250I500*
G01X18250*
G02X17754Y683J500*
Y687I30J4*
X17784Y717I30*
X17801Y712J30*
G03X18000Y650I199J288*
X18350Y1000J350*
X18000Y1350I350*
X17797Y1285J350*
G02X17780Y1280I17J25*
X17750Y1310J30*
G01Y3743*
G02X17758Y3763I30*
G03X17850Y4000I258J237*
X17764Y4230I350*
G02X17756Y4250I22J20*
X17764Y4270I30*
G03X17850Y4500I264J230*
X17764Y4730I350*
G02X17756Y4750I22J20*
X17764Y4770I30*
G03X17850Y5000I264J230*
X17758Y5237I350*
G02X17750Y5257I22J20*
G01Y9243*
G02X17758Y9263I30*
G03X17850Y9500I258J237*
X17764Y9730I350*
G02X17756Y9750I22J20*
X17764Y9770I30*
G03X17850Y10000I264J230*
X17764Y10230I350*
G02X17756Y10250I22J20*
X17764Y10270I30*
G03X17850Y10500I264J230*
X17764Y10730I350*
G02X17756Y10750I22J20*
X17764Y10770I30*
G03X17850Y11000I264J230*
X17764Y11230I350*
G02X17756Y11250I22J20*
X17764Y11270I30*
G03X17850Y11500I264J230*
X17764Y11730I350*
G02X17756Y11750I22J20*
X17764Y11770I30*
G03X17850Y12000I264J230*
X17764Y12230I350*
G02X17756Y12250I22J20*
X17764Y12270I30*
G03X17850Y12500I264J230*
X17764Y12730I350*
G02X17756Y12750I22J20*
X17764Y12770I30*
G03X17850Y13000I264J230*
X17758Y13237I350*
G02X17750Y13257I22J20*
G01Y17500*
X17860Y280D02*
G03X17850Y302I30D01*
G02X17650Y750I400J448*
G01Y9247*
G03X17620Y9277I30*
X17607Y9274J30*
G02X17500Y9250I107J226*
X17277Y9387J250*
G03X17250Y9404I27J13*
X17223Y9387J30*
G02X17000Y9250I223J113*
X16893Y9274J250*
G03X16880Y9277I13J27*
X16850Y9247J30*
G01Y2209*
G03X16857Y2190I30*
G02X17100Y1500I857J690*
X16857Y810I1100*
G03X16850Y791I23J19*
G01Y750*
G02X16650Y302I600*
G03X16640Y280I20J22*
X16670Y250I30*
G01X17830*
G03X17860Y280J30*
G01X18422Y38710D02*
X18790Y39078D01*
X18898Y38672*
X18828Y38602*
X18422Y38710*
X19422D02*
X19790Y39078D01*
X19898Y38672*
X19828Y38602*
X19422Y38710*
X21060Y32612D02*
X21276D01*
X21218Y32511*
X21118*
X21060Y32612*
X21411Y32516D02*
X21628D01*
X21569Y32415*
X21469*
X21411Y32516*
X21750Y1250D02*
X24250D01*
Y1750*
X21750*
Y1250*
X21807Y32311D02*
X21960Y32464D01*
X21990Y32352*
X21920Y32281*
X21807Y32311*
X21829Y34060D02*
X21676Y34213D01*
X21789Y34244*
X21859Y34173*
X21829Y34060*
X21871Y31116D02*
X21718Y31270D01*
X21830Y31300*
X21901Y31229*
X21871Y31116*
X22046Y30048D02*
X22199Y29895D01*
X22087Y29865*
X22016Y29936*
X22046Y30048*
X22185Y34165D02*
X22401D01*
X22343Y34064*
X22243*
X22185Y34165*
X22203Y31045D02*
Y31262D01*
X22304Y31204*
Y31104*
X22203Y31045*
X22204Y32522D02*
Y32738D01*
X22305Y32680*
Y32580*
X22204Y32522*
X22402Y37418D02*
X22618D01*
X22560Y37317*
X22460*
X22402Y37418*
X22526Y27990D02*
X22367Y28149D01*
X22488Y28182*
X22558Y28111*
X22526Y27990*
X22575Y33981D02*
X22728Y34134D01*
X22758Y34022*
X22687Y33951*
X22575Y33981*
X22577Y27238D02*
G02X22607Y27268I30D01*
G01X26310*
G03X26416Y27312J150*
G01X27010Y27905*
G02X27031Y27914I21J21*
G01X28042*
G02X28057Y27910J30*
G01X28135Y27864*
G03X28250Y27834I115J200*
X28480Y28064J230*
X28472Y28126I230*
G02X28471Y28134I29J8*
X28501Y28164I30*
G01X28521*
G02X28542Y28155J30*
G01X28599Y28098*
G02X28607Y28084I21J22*
G01X28631Y27997*
G03X28853Y27826I222J59*
X29083Y28056J230*
X28913Y28279I230*
G01X28825Y28302*
G02X28812Y28310I8J29*
G01X28702Y28420*
G03X28595Y28464I107J106*
G01X26911*
G03X26805Y28420J150*
G01X26131Y27746*
G02X26110Y27738I21J22*
G01X25408*
G02X25378Y27768J30*
X25387Y27789I30*
G01X26433Y28835*
G02X26455Y28844I22J21*
G01X27981*
G03X28087Y28888J150*
G01X28403Y29203*
G02X28424Y29212I21J21*
G01X32105*
G02X32126Y29203J30*
G01X32711Y28618*
G02X32720Y28597I21J21*
X32705Y28570I30*
G03X32588Y28370I113J200*
X32818Y28140I230*
X33048Y28370J230*
X33047Y28380I230*
G01Y28382*
G02X33077Y28412I30*
G01X41250*
Y17000*
G03X41387Y16777I250*
G02X41404Y16750I13J27*
X41387Y16723I30*
G03X41250Y16500I113J223*
X41387Y16277I250*
G02X41404Y16250I13J27*
X41387Y16223I30*
G03X41250Y16000I113J223*
X41387Y15777I250*
G02X41404Y15750I13J27*
X41387Y15723I30*
G03X41250Y15500I113J223*
G01Y12000*
G03X41387Y11777I250*
G02X41404Y11750I13J27*
X41387Y11723I30*
G03X41250Y11500I113J223*
X41387Y11277I250*
G02X41404Y11250I13J27*
X41387Y11223I30*
G03X41250Y11000I113J223*
X41387Y10777I250*
G02X41404Y10750I13J27*
X41387Y10723I30*
G03X41250Y10500I113J223*
X41500Y10250I250*
X41723Y10387J250*
G02X41750Y10404I27J13*
X41777Y10387J30*
G03X42000Y10250I223J113*
X42223Y10387J250*
G02X42250Y10404I27J13*
X42277Y10387J30*
G03X42500Y10250I223J113*
X42723Y10387J250*
G02X42750Y10404I27J13*
X42777Y10387J30*
G03X43000Y10250I223J113*
X43223Y10387J250*
G02X43250Y10404I27J13*
X43277Y10387J30*
G03X43500Y10250I223J113*
X43750Y10500J250*
X43613Y10723I250*
G02X43596Y10750I13J27*
X43613Y10777I30*
G03X43750Y11000I113J223*
X43500Y11250I250*
X43277Y11113J250*
G02X43250Y11096I27J13*
X43223Y11113J30*
G03X43000Y11250I223J113*
X42777Y11113J250*
G02X42750Y11096I27J13*
X42723Y11113J30*
G03X42500Y11250I223J113*
X42277Y11113J250*
G02X42250Y11096I27J13*
X42223Y11113J30*
G03X42113Y11223I223J113*
G02X42096Y11250I13J27*
X42113Y11277I30*
G03X42250Y11500I113J223*
X42113Y11723I250*
G02X42096Y11750I13J27*
X42113Y11777I30*
G03X42250Y12000I113J223*
X42000Y12250I250*
X41777Y12113J250*
G02X41750Y12096I27J13*
X41723Y12113J30*
G03X41500Y12250I223J113*
X41250Y12000J250*
G01Y15500*
G03X41500Y15250I250*
X41723Y15387J250*
G02X41750Y15404I27J13*
X41777Y15387J30*
G03X42000Y15250I223J113*
X42223Y15387J250*
G02X42250Y15404I27J13*
X42277Y15387J30*
G03X42500Y15250I223J113*
X42723Y15387J250*
G02X42750Y15404I27J13*
X42777Y15387J30*
G03X43000Y15250I223J113*
X43223Y15387J250*
G02X43250Y15404I27J13*
X43277Y15387J30*
G03X43500Y15250I223J113*
X43750Y15500J250*
X43613Y15723I250*
G02X43596Y15750I13J27*
X43613Y15777I30*
G03X43750Y16000I113J223*
X43500Y16250I250*
X43277Y16113J250*
G02X43250Y16096I27J13*
X43223Y16113J30*
G03X43000Y16250I223J113*
X42777Y16113J250*
G02X42750Y16096I27J13*
X42723Y16113J30*
G03X42500Y16250I223J113*
X42277Y16113J250*
G02X42250Y16096I27J13*
X42223Y16113J30*
G03X42113Y16223I223J113*
G02X42096Y16250I13J27*
X42113Y16277I30*
G03X42250Y16500I113J223*
X42113Y16723I250*
G02X42096Y16750I13J27*
X42113Y16777I30*
G03X42250Y17000I113J223*
X42000Y17250I250*
X41777Y17113J250*
G02X41750Y17096I27J13*
X41723Y17113J30*
G03X41500Y17250I223J113*
X41250Y17000J250*
G01Y28412*
X44973*
Y5984*
G03X46448Y4509I1475*
X47923Y5984J1475*
X46448Y7459I1475*
X44973Y5984J1475*
G01Y25984*
G03X46448Y24509I1475*
X47923Y25984J1475*
X46448Y27459I1475*
X44973Y25984J1475*
G01Y28412*
X48166*
G03X48272Y28456J150*
G01X49526Y29710*
G03X49570Y29816I106J106*
G01Y30055*
G02X49574Y30070I30*
G01X49593Y30103*
G03X49620Y30203I173J100*
X49617Y30238I200*
G02Y30244I30J6*
X49647Y30274I30*
G01X52635*
G02X52656Y30265J30*
G01X52878Y30042*
G02X52886Y30029I21J21*
G01X52910Y29942*
G03X53132Y29771I222J59*
X53362Y30001J230*
X53192Y30223I230*
G01X53104Y30246*
G02X53091Y30254I8J29*
G01X52815Y30530*
G03X52709Y30574I106J106*
G01X47736*
G03X47630Y30530J150*
G01X46331Y29231*
G02X46310Y29222I21J21*
G01X45899*
G02X45869Y29252J30*
X45878Y29273I30*
G01X47556Y30951*
G02X47577Y30960I21J21*
G01X50463*
G03X50569Y31004J150*
G01X51223Y31658*
Y31276*
G03X51453Y31046I230*
X51683Y31276J230*
X51453Y31506I230*
X51223Y31276J230*
G01Y31658*
X52403Y32838*
G02X52424Y32846I21J22*
G01X52843*
G02X52858Y32842J30*
G01X52936Y32797*
G03X53051Y32766I115J199*
X53281Y32996J230*
X53051Y33226I230*
X52936Y33196J230*
G01X52858Y33150*
G02X52843Y33146I15J26*
G01X52349*
G03X52243Y33103J150*
G01X51201Y32060*
G02X51180Y32052I21J22*
X51154Y32067J30*
G03X51152Y32070I197J109*
G01X51111Y32141*
G02X51107Y32156I26J15*
G01Y33308*
G02X51116Y33329I30*
G01X51153Y33367*
G03X51197Y33473I106J106*
G01Y33603*
G02X51227Y33633I30*
G01X51229*
G03X51240I11J225*
X51352Y33663J225*
G01X51423Y33704*
G02X51438Y33708I15J26*
G01X54530*
Y7000*
G03X55024Y6506I494*
X55517Y7000J494*
X55024Y7494I493*
X54530Y7000J494*
G01Y13750*
G03X55024Y13256I494*
X55517Y13750J494*
X55024Y14244I493*
X54530Y13750J494*
G01Y20500*
G03X55024Y20006I494*
X55517Y20500J494*
X55024Y20994I493*
X54530Y20500J494*
G01Y33708*
X56004*
Y32000*
G03X56234Y31770I230*
X56464Y32000J230*
X56234Y32230I230*
X56004Y32000J230*
G01Y33708*
X56525*
Y2000*
G03X58000Y525I1475*
X59475Y2000J1475*
X58000Y3475I1475*
X56525Y2000J1475*
G01Y33708*
X57372*
Y25398*
G03X57483Y24918I1100*
G01Y7000*
G03X57976Y6506I493*
X58470Y7000J494*
X57976Y7494I494*
X57483Y7000J494*
G01Y13750*
G03X57976Y13256I493*
X58470Y13750J494*
X57976Y14244I494*
X57483Y13750J494*
G01Y20500*
G03X57976Y20006I493*
X58470Y20500J494*
X57976Y20994I494*
X57483Y20500J494*
G01Y24918*
G03X58472Y24298I989J480*
X59572Y25398J1100*
X58472Y26498I1100*
X57372Y25398J1100*
G01Y29398*
G03X58472Y28298I1100*
X59572Y29398J1100*
X58472Y30498I1100*
X57372Y29398J1100*
G01Y33708*
X58067*
G02X58089Y33699J30*
G01X58506Y33282*
G02X58514Y33268I21J22*
G01X58600Y32947*
Y32000*
G03X59000Y31600I400*
X59400Y32000J400*
X59000Y32400I400*
X58600Y32000J400*
G01Y32947*
X58614Y32897*
G03X59000Y32600I386J103*
X59400Y33000J400*
X59103Y33386I400*
G01X58732Y33486*
G02X58718Y33494I8J29*
G01X58413Y33799*
G02X58405Y33820I22J21*
X58435Y33850I30*
G01X58452*
G02X58467Y33846J30*
G01X58800Y33654*
G03X59000Y33600I200J346*
X59400Y34000J400*
X59000Y34400I400*
X58800Y34346J400*
G01X58467Y34154*
G02X58452Y34150I15J26*
G01X58315*
G02X58294Y34159J30*
G01X58167Y34285*
G03X58061Y34329I106J106*
G01X51513*
G02X51498Y34333J30*
G01X51427Y34374*
G03X51315Y34404I112J195*
X51187Y34364J225*
G02X51170Y34359I17J25*
X51140Y34389J30*
G01Y34502*
G03X51096Y34608I150*
G01X50511Y35193*
G02X50502Y35215I21J22*
X50531Y35245I30*
G03X50753Y35474I8J229*
X50523Y35704I230*
X50293Y35482J230*
G02X50263Y35453I30J1*
X50242Y35462J30*
G01X49618Y36086*
G02X49609Y36107I21J21*
G01Y36263*
G03X49565Y36369I150*
G01X49098Y36837*
G02X49089Y36858I21J21*
X49119Y36888I30*
G01X49139*
G03X49245Y36932J150*
G01X49391Y37078*
G03X49435Y37184I106J106*
G01Y37391*
G03X49391Y37498I150*
G01X49087Y37802*
G03X48981Y37846I106J106*
G01X48708*
G02X48693Y37850J30*
G01X48615Y37895*
G03X48500Y37926I115J199*
X48270Y37696J230*
X48389Y37494I230*
G02X48404Y37468I15J26*
X48374Y37438I30*
G01X47623*
G03X47517Y37394J150*
G01X46486Y36362*
G02X46464Y36354I22J22*
G01X45777*
G02X45747Y36384J30*
X45748Y36391I30*
G03X45756Y36449I217J58*
X45726Y36561I225*
G01X45685Y36632*
G02X45681Y36647I26J15*
G01Y38753*
G03X45637Y38859I150*
G01X44954Y39541*
G02X44946Y39555I21J22*
G01X44925Y39634*
G03X44893Y39703I217J58*
G02X44888Y39720I25J17*
X44918Y39750I30*
G01X45813*
Y37822*
G03X45849Y37700I225*
G01Y36709*
G03X46079Y36479I230*
X46309Y36709J230*
X46079Y36939I230*
X45849Y36709J230*
G01Y37700*
G03X46038Y37597I189J122*
X46263Y37822J225*
X46233Y37934I225*
G01X46192Y38005*
G02X46188Y38020I26J15*
G01Y38073*
G02X46197Y38094I30*
G01X47184Y39081*
G02X47198Y39089I22J21*
G01X47286Y39113*
G03X47456Y39335I60J222*
X47226Y39565I230*
X47003Y39394J230*
G01X46980Y39307*
G02X46972Y39293I29J8*
G01X45932Y38253*
G03X45888Y38147I106J106*
G01Y38020*
G02X45884Y38005I30*
G01X45843Y37934*
G03X45813Y37822I195J112*
G01Y39750*
X52100*
Y39000*
G03X52500Y38600I400*
X52900Y39000J400*
X52500Y39400I400*
X52100Y39000J400*
G01Y39750*
X53100*
Y39000*
G03X53500Y38600I400*
X53900Y39000J400*
X53500Y39400I400*
X53100Y39000J400*
G01Y39750*
X54100*
Y39000*
G03X54500Y38600I400*
X54900Y39000J400*
X54500Y39400I400*
X54100Y39000J400*
G01Y39750*
X55100*
Y39000*
G03X55500Y38600I400*
X55900Y39000J400*
X55500Y39400I400*
X55100Y39000J400*
G01Y39750*
X56525*
Y38000*
G03X58000Y36525I1475*
X58600Y36653J1475*
G01Y35000*
G03X59000Y34600I400*
X59400Y35000J400*
X59000Y35400I400*
X58600Y35000J400*
G01Y36653*
G03X59475Y38000I600J1347*
X58000Y39475I1475*
X56525Y38000J1475*
G01Y39750*
X59720*
G02X59750Y39720J30*
G01Y280*
G02X59720Y250I30*
G01X33920*
G02X33890Y280J30*
X33900Y302I30*
G03X34100Y750I400J448*
G01Y16500*
G03X33500Y17100I600*
G01X26500*
G03X25900Y16500J600*
G01Y280*
G02X25870Y250I30*
G01X24420*
G02X24390Y280J30*
X24400Y302I30*
G03X24600Y750I400J448*
G01Y17500*
G03X24000Y18100I600*
G01X23180*
G02X23150Y18130J30*
G01Y25915*
G02X23180Y25945I30*
X23201Y25936J30*
G01X24750Y24387*
Y9000*
G03X25000Y8750I250*
X25223Y8887J250*
G02X25250Y8904I27J13*
X25277Y8887J30*
G03X25500Y8750I223J113*
X25750Y9000J250*
X25500Y9250I250*
X25277Y9113J250*
G02X25250Y9096I27J13*
X25223Y9113J30*
G03X25000Y9250I223J113*
X24750Y9000J250*
G01Y13000*
G03X25000Y12750I250*
X25223Y12887J250*
G02X25250Y12904I27J13*
X25277Y12887J30*
G03X25500Y12750I223J113*
X25750Y13000J250*
X25500Y13250I250*
X25277Y13113J250*
G02X25250Y13096I27J13*
X25223Y13113J30*
G03X25000Y13250I223J113*
X24750Y13000J250*
G01Y24387*
X31743Y17394*
G03X31849Y17350I106J106*
G01X33719*
G02X33740Y17341J30*
G01X34318Y16764*
G02X34327Y16742I21J22*
G01Y15992*
G02X34323Y15977I30*
G01X34278Y15899*
G03X34247Y15784I199J115*
X34250Y15744I230*
G01Y13000*
G03X34387Y12777I250*
G02X34404Y12750I13J27*
X34387Y12723I30*
G03X34250Y12500I113J223*
X34387Y12277I250*
G02X34404Y12250I13J27*
X34387Y12223I30*
G03X34250Y12000I113J223*
X34387Y11777I250*
G02X34404Y11750I13J27*
X34387Y11723I30*
G03X34250Y11500I113J223*
X34387Y11277I250*
G02X34404Y11250I13J27*
X34387Y11223I30*
G03X34250Y11000I113J223*
X34387Y10777I250*
G02X34404Y10750I13J27*
X34387Y10723I30*
G03X34250Y10500I113J223*
X34387Y10277I250*
G02X34404Y10250I13J27*
X34387Y10223I30*
G03X34250Y10000I113J223*
X34387Y9777I250*
G02X34404Y9750I13J27*
X34387Y9723I30*
G03X34250Y9500I113J223*
X34500Y9250I250*
X34723Y9387J250*
G02X34750Y9404I27J13*
X34777Y9387J30*
G03X35000Y9250I223J113*
X35250Y9500J250*
X35113Y9723I250*
G02X35096Y9750I13J27*
X35113Y9777I30*
G03X35250Y10000I113J223*
X35113Y10223I250*
G02X35096Y10250I13J27*
X35113Y10277I30*
G03X35250Y10500I113J223*
X35113Y10723I250*
G02X35096Y10750I13J27*
X35113Y10777I30*
G03X35250Y11000I113J223*
X35113Y11223I250*
G02X35096Y11250I13J27*
X35113Y11277I30*
G03X35250Y11500I113J223*
X35113Y11723I250*
G02X35096Y11750I13J27*
X35113Y11777I30*
G03X35250Y12000I113J223*
X35113Y12223I250*
G02X35096Y12250I13J27*
X35113Y12277I30*
G03X35250Y12500I113J223*
X35113Y12723I250*
G02X35096Y12750I13J27*
X35113Y12777I30*
G03X35250Y13000I113J223*
X35000Y13250I250*
X34777Y13113J250*
G02X34750Y13096I27J13*
X34723Y13113J30*
G03X34500Y13250I223J113*
X34250Y13000J250*
G01Y15744*
G03X34477Y15554I227J40*
X34707Y15784J230*
X34676Y15898I230*
G01X34631Y15977*
G02X34627Y15992I26J15*
G01Y16817*
G03X34583Y16923I150*
G01X33900Y17606*
G03X33794Y17650I106J106*
G01X31924*
G02X31903Y17659J30*
G01X24524Y25037*
G02X24515Y25059I21J22*
X24545Y25089I30*
G01X29096*
G02X29126Y25059J30*
X29121Y25042I30*
G03X29082Y24914I191J128*
X29113Y24798I230*
G01X29158Y24721*
G02X29162Y24706I26J15*
G01Y23376*
G03X29176Y23314I150*
G02X29179Y23301I27J13*
G01Y22030*
G02X29175Y22015I30*
G01X29130Y21937*
G03X29099Y21822I199J115*
X29329Y21592I230*
X29559Y21822J230*
X29528Y21937I230*
G01X29483Y22015*
G02X29479Y22030I26J15*
G01Y23360*
G03X29465Y23422I150*
G02X29462Y23435I27J13*
G01Y24706*
G02X29466Y24721I30*
G01X29512Y24799*
G03X29542Y24914I200J115*
X29503Y25042I230*
G02X29498Y25059I25J17*
X29528Y25089I30*
G01X32114*
G02X32135Y25080J30*
G01X33148Y24067*
G02X33156Y24053I21J21*
G01X33179Y23966*
G03X33401Y23796I222J60*
X33631Y24026J230*
X33461Y24248I230*
G01X33374Y24271*
G02X33360Y24279I7J29*
G01X32294Y25345*
G03X32188Y25389I106J106*
G01X24426*
G02X24404Y25397J30*
G01X22585Y27216*
G02X22577Y27238I22J22*
G01X22626Y24821D02*
X22851D01*
X22788Y24713*
X22688*
X22626Y24821*
X22646Y34328D02*
Y34544D01*
X22747Y34486*
Y34386*
X22646Y34328*
X22685Y21239D02*
X22526Y21399D01*
X22647Y21431*
X22717Y21360*
X22685Y21239*
X22750Y250D02*
X23250D01*
Y2750*
X22750*
Y250*
X22831Y34714D02*
Y34931D01*
X22932Y34872*
Y34772*
X22831Y34714*
X22881Y30109D02*
Y29893D01*
X22780Y29951*
Y30051*
X22881Y30109*
X22983Y34510D02*
X23199D01*
X23141Y34409*
X23041*
X22983Y34510*
X23113Y16565D02*
X22887D01*
X22950Y16673*
X23050*
X23113Y16565*
X23422Y37418D02*
X23638D01*
X23580Y37317*
X23480*
X23422Y37418*
X23673Y29882D02*
X23826Y29729D01*
X23714Y29699*
X23643Y29770*
X23673Y29882*
X23736Y27931D02*
X23896Y28090D01*
X23928Y27969*
X23857Y27898*
X23736Y27931*
X23767Y33834D02*
Y34050D01*
X23868Y33992*
Y33892*
X23767Y33834*
X24316Y37418D02*
X24532D01*
X24474Y37317*
X24374*
X24316Y37418*
X24535Y32089D02*
G03X24527Y32110I30D01*
G01X24165Y32471*
G03X24144Y32480I21J21*
G01X22339*
G03X22324Y32476J30*
G01X22253Y32435*
G02X22150Y32405I112J195*
G03X22121Y32375I1J30*
X22130Y32354I30*
G01X22416Y32067*
G03X22437Y32059I21J22*
G01X24505*
G03X24535Y32089J30*
G01X24562Y29857D02*
Y30073D01*
X24663Y30015*
Y29915*
X24562Y29857*
X24809Y29720D02*
X24962Y29567D01*
X24849Y29537*
X24779Y29607*
X24809Y29720*
X24965Y34364D02*
X24812Y34211D01*
X24782Y34324*
X24852Y34394*
X24965Y34364*
X25119Y35682D02*
Y35898D01*
X25220Y35840*
Y35740*
X25119Y35682*
X25120Y34102D02*
Y33885D01*
X25019Y33943*
Y34043*
X25120Y34102*
X25140Y28093D02*
X24915D01*
X24978Y28202*
X25078*
X25140Y28093*
X25265Y36207D02*
Y36424D01*
X25366Y36365*
Y36265*
X25265Y36207*
X25270Y36537D02*
Y36754D01*
X25371Y36695*
Y36595*
X25270Y36537*
X25855Y33974D02*
X26008Y34127D01*
X26038Y34015*
X25967Y33944*
X25855Y33974*
X25940Y32551D02*
X26093Y32704D01*
X26123Y32592*
X26053Y32521*
X25940Y32551*
X26000Y16500D02*
G02X26500Y17000I500D01*
G01X27650*
Y1000*
G03X28000Y650I350*
X28350Y1000J350*
X28000Y1350I350*
X27650Y1000J350*
G01Y17000*
X28900*
Y1500*
G03X30000Y400I1100*
X31100Y1500J1100*
X30000Y2600I1100*
X28900Y1500J1100*
G01Y17000*
X31650*
Y1000*
G03X32000Y650I350*
X32350Y1000J350*
X32000Y1350I350*
X31650Y1000J350*
G01Y17000*
X33500*
G02X34000Y16500J500*
G01Y750*
G02X33500Y250I500*
G01X26030*
G02X26000Y280J30*
G01Y16500*
X26601Y34406D02*
X26754Y34559D01*
X26784Y34446*
X26713Y34376*
X26601Y34406*
X27051Y30126D02*
Y29910D01*
X26950Y29968*
Y30068*
X27051Y30126*
X27809Y30008D02*
G03X27779Y30038I30D01*
G01X27607*
G02X27500Y30082J150*
G01X27429Y30153*
G03X27408Y30162I21J21*
G01X27342*
G03X27312Y30132J30*
X27315Y30119I30*
G02X27339Y30018I201J101*
X27286Y29874I225*
G03X27279Y29854I23J20*
X27309Y29824I30*
G01X27625*
G03X27646Y29833J30*
G01X27800Y29987*
G03X27809Y30008I21J21*
G01X28185Y28176D02*
Y27951D01*
X28077Y28014*
Y28114*
X28185Y28176*
X28750Y1250D02*
X31250D01*
Y1750*
X28750*
Y1250*
X28886Y28182D02*
X28727Y28023D01*
X28695Y28144*
X28766Y28214*
X28886Y28182*
X29200Y24849D02*
X29425D01*
X29362Y24740*
X29262*
X29200Y24849*
X29441Y21887D02*
X29216D01*
X29279Y21995*
X29379*
X29441Y21887*
X29750Y250D02*
X30250D01*
Y2750*
X29750*
Y250*
X29873Y37376D02*
Y37601D01*
X29981Y37538*
Y37438*
X29873Y37376*
X31519Y36165D02*
Y36390D01*
X31628Y36327*
Y36227*
X31519Y36165*
X32151Y37217D02*
G03X32143Y37238I30D01*
G01X32051Y37330*
G03X32030Y37338I21J22*
G01X30016*
G03X30001Y37334J30*
G01X29923Y37289*
G02X29808Y37258I115J199*
X29578Y37488J230*
X29808Y37718I230*
X29923Y37688J230*
G01X30001Y37643*
G03X30016Y37638I15J25*
G01X31911*
G03X31941Y37668J30*
X31932Y37690I30*
G01X31710Y37911*
G03X31689Y37920I21J21*
G01X24856*
G03X24826Y37890J30*
X24834Y37869I30*
G01X24945Y37758*
G02X24989Y37652I106J106*
G01Y36817*
G03X25019Y36787I30*
X25041Y36797J30*
G02X25208Y36870I167J152*
X25320Y36840J225*
G01X25391Y36799*
G03X25406Y36795I15J26*
G01X30513*
G03X30534Y36804J30*
G01X30873Y37143*
G02X30979Y37187I106J106*
G01X32121*
G03X32151Y37217J30*
G01X33435Y24151D02*
X33276Y23992D01*
X33243Y24113*
X33314Y24184*
X33435Y24151*
X34589Y15849D02*
X34364D01*
X34427Y15957*
X34527*
X34589Y15849*
X35566Y36666D02*
Y36891D01*
X35675Y36828*
Y36728*
X35566Y36666*
X39231Y34691D02*
G03X39221Y34713I30D01*
G02X39100Y35000I279J287*
X39169Y35225I400*
G03X39174Y35242I25J17*
X39144Y35272I30*
G01X33799*
G03X33769Y35242J30*
X33778Y35221I30*
G01X34328Y34670*
G03X34349Y34661I21J21*
G01X39201*
G03X39231Y34691J30*
G01X39471Y36812D02*
Y37037D01*
X39579Y36974*
Y36874*
X39471Y36812*
X39796Y37260D02*
Y37485D01*
X39904Y37423*
Y37323*
X39796Y37260*
X41231Y34691D02*
G03X41221Y34713I30D01*
G02X41100Y35000I279J287*
X41169Y35225I400*
G03X41174Y35242I25J17*
X41144Y35272I30*
G01X40856*
G03X40826Y35242J30*
X40831Y35225I30*
G02X40900Y35000I331J225*
X40779Y34713I400*
G03X40769Y34691I20J22*
X40799Y34661I30*
G01X41201*
G03X41231Y34691J30*
G01X41618Y29422D02*
G03X41602Y29449I30D01*
G02X41565Y29476I69J133*
G01X40954Y30087*
G03X40933Y30096I21J21*
G01X32692*
G03X32662Y30066J30*
X32671Y30045I30*
G01X33315Y29401*
G03X33336Y29392I21J21*
G01X41588*
G03X41618Y29422J30*
G01X43234Y34691D02*
G03X43224Y34713I30D01*
G02X43101Y35002I277J289*
X43169Y35225I400*
G03X43174Y35242I25J17*
X43144Y35272I30*
G01X41856*
G03X41826Y35242J30*
X41831Y35225I30*
G02X41900Y35000I331J225*
X41779Y34713I400*
G03X41769Y34691I20J22*
X41799Y34661I30*
G01X43204*
G03X43234Y34691J30*
G01X44062Y32154D02*
Y31938D01*
X43961Y31996*
Y32096*
X44062Y32154*
X44534Y32212D02*
X44381Y32059D01*
X44351Y32171*
X44422Y32242*
X44534Y32212*
X44631Y32605D02*
X44847D01*
X44789Y32504*
X44689*
X44631Y32605*
X44661Y33581D02*
X44820Y33422D01*
X44700Y33389*
X44629Y33460*
X44661Y33581*
X44675Y39455D02*
X44828Y39608D01*
X44859Y39495*
X44788Y39425*
X44675Y39455*
X44961Y32599D02*
X45177D01*
X45119Y32498*
X45019*
X44961Y32599*
X45240Y34077D02*
Y33861D01*
X45139Y33919*
Y34019*
X45240Y34077*
X45639Y36511D02*
X45422D01*
X45481Y36612*
X45581*
X45639Y36511*
X46146Y37884D02*
X45930D01*
X45988Y37985*
X46088*
X46146Y37884*
X46385Y32154D02*
G03X46370Y32180I30D01*
G02X46258Y32374I113J194*
X46288Y32486I225*
G01X46329Y32557*
G03X46333Y32572I26J15*
G01Y32809*
G03X46324Y32830I30*
G01X45589Y33565*
G03X45568Y33574I21J21*
G01X45062*
G02X45049Y33575J150*
G03X45047I2J30*
X45017Y33545J30*
G02X44847Y33325I230J2*
G01X44759Y33302*
G03X44746Y33294I8J29*
G01X44428Y32976*
G02X44321Y32932I107J106*
G01X28078*
G02X27972Y32976J150*
G01X26667Y34280*
G03X26654Y34288I21J21*
G01X26575Y34309*
G02X26408Y34527I58J218*
X26633Y34752I225*
X26850Y34585J225*
G01X26872Y34506*
G03X26879Y34493I29J8*
G01X28131Y33241*
G03X28152Y33232I21J21*
G01X43144*
G03X43174Y33262J30*
X43169Y33279I30*
G02X43101Y33502I332J223*
X43169Y33725I400*
G03X43174Y33742I25J17*
X43144Y33772I30*
G01X34028*
G02X33922Y33816J150*
G01X32553Y35185*
G03X32532Y35194I21J21*
G01X25420*
G03X25390Y35164J30*
X25398Y35143I30*
G01X28004Y32537*
G03X28026Y32528I22J21*
G01X44215*
G02X44321Y32484J150*
G01X44468Y32337*
G03X44481Y32330I21J22*
G01X44551Y32311*
G03X44559Y32310I8J29*
X44589Y32340J30*
G01Y32469*
G03X44585Y32484I30*
G01X44544Y32555*
G02X44514Y32668I195J113*
X44739Y32893I225*
X44888Y32836J225*
G03X44908Y32829I20J23*
X44927Y32836J30*
G02X45069Y32886I142J175*
X45294Y32661J225*
X45264Y32549I225*
G01X45223Y32478*
G03X45219Y32463I26J15*
G01Y32071*
G02X45175Y31965I150*
G01X44872Y31662*
G03X44863Y31641I21J21*
X44893Y31611I30*
G01X45842*
G03X45863Y31620J30*
G01X46376Y32133*
G03X46385Y32154I21J21*
G01X46522Y33330D02*
X46675Y33483D01*
X46705Y33371*
X46634Y33300*
X46522Y33330*
X46591Y32437D02*
X46375D01*
X46433Y32537*
X46533*
X46591Y32437*
X46844Y32695D02*
X46627D01*
X46685Y32796*
X46785*
X46844Y32695*
X46932Y33305D02*
X47085Y33458D01*
X47115Y33346*
X47044Y33275*
X46932Y33305*
X47073Y33967D02*
X47290D01*
X47232Y33866*
X47132*
X47073Y33967*
X47100Y39368D02*
X47259Y39209D01*
X47138Y39177*
X47068Y39247*
X47100Y39368*
X47395Y34116D02*
X47612D01*
X47553Y34015*
X47453*
X47395Y34116*
X47651Y33907D02*
X47867D01*
X47809Y33806*
X47709*
X47651Y33907*
X47937Y35719D02*
X48090Y35565D01*
X47978Y35535*
X47907Y35606*
X47937Y35719*
X47941Y33449D02*
X48158D01*
X48099Y33349*
X47999*
X47941Y33449*
X48054Y34194D02*
X48207Y34347D01*
X48237Y34235*
X48167Y34164*
X48054Y34194*
X48256Y35747D02*
X48472D01*
X48414Y35646*
X48314*
X48256Y35747*
X48493Y33600D02*
X48709D01*
X48651Y33499*
X48551*
X48493Y33600*
X48565Y37583D02*
Y37808D01*
X48673Y37746*
Y37646*
X48565Y37583*
X48567Y29934D02*
X48726Y29775D01*
X48605Y29742*
X48534Y29813*
X48567Y29934*
X48689Y31494D02*
X48566Y31616D01*
X48637Y31635*
X48708Y31564*
X48689Y31494*
X48970Y37400D02*
Y37175D01*
X48862Y37238*
Y37338*
X48970Y37400*
X49058Y32788D02*
X48885D01*
X48922Y32851*
X49022*
X49058Y32788*
X49074Y29945D02*
X49196Y29823D01*
X49125Y29804*
X49055Y29875*
X49074Y29945*
X49254Y34352D02*
X49101Y34199D01*
X49070Y34312*
X49141Y34382*
X49254Y34352*
X49287Y33206D02*
X49114D01*
X49151Y33270*
X49251*
X49287Y33206*
X49334Y30153D02*
X49507D01*
X49470Y30090*
X49370*
X49334Y30153*
X49557Y33512D02*
X49434Y33635D01*
X49505Y33654*
X49576Y33583*
X49557Y33512*
X49826Y33620D02*
G03X49796Y33650I30D01*
X49775Y33641J30*
G01X49671Y33537*
G03X49663Y33524I21J21*
G01X49653Y33486*
G02X49460Y33338I193J52*
X49391Y33351J200*
G03X49381Y33352I10J29*
X49351Y33322J30*
G01Y33304*
G03X49355Y33289I30*
G01X49374Y33256*
G02X49401Y33156I173J100*
X49201Y32956I200*
X49158Y32961J200*
G03X49152I6J30*
X49122Y32931J30*
G01Y32886*
G03X49126Y32871I30*
G01X49145Y32838*
G02X49172Y32738I173J100*
X48972Y32538I200*
X48806Y32626J200*
G03X48781Y32640I25J16*
X48751Y32610J30*
G01Y32462*
G02X48707Y32356I150*
G01X47663Y31311*
G03X47654Y31290I21J21*
X47684Y31260I30*
G01X48512*
G03X48542Y31290J30*
G01Y31304*
G03X48523Y31332I30*
G02X48392Y31520I69J188*
X48541Y31713I200*
G01X48578Y31723*
G03X48591Y31730I8J29*
G01X49817Y32957*
G03X49826Y32978I21J21*
G01Y33620*
X50863Y31735D02*
G03X50848Y31761I30D01*
G02X50732Y31958I109J197*
X50762Y32070I225*
G01X50803Y32141*
G03X50807Y32156I26J15*
G01Y33321*
G03X50780Y33351I30*
G02X50577Y33575I22J224*
X50607Y33687I225*
G01X50648Y33758*
G03X50652Y33773I26J15*
G01Y33914*
G03X50644Y33936I30*
G01X50177Y34402*
G03X50156Y34411I21J21*
X50126Y34381J30*
G01Y32904*
G02X50082Y32798I150*
G01X48803Y31518*
G03X48795Y31505I21J21*
G01X48785Y31468*
G02X48662Y31332I193J52*
G03X48642Y31304I10J28*
G01Y31290*
G03X48672Y31260I30*
G01X50388*
G03X50409Y31269J30*
G01X50854Y31714*
G03X50863Y31735I21J21*
G01X50911Y33637D02*
X50694D01*
X50752Y33738*
X50852*
X50911Y33637*
X51065Y32020D02*
X50849D01*
X50907Y32121*
X51007*
X51065Y32020*
X51302Y33750D02*
Y33966D01*
X51403Y33908*
Y33808*
X51302Y33750*
X51377Y34071D02*
Y34288D01*
X51478Y34229*
Y34129*
X51377Y34071*
X52986Y33109D02*
Y32884D01*
X52878Y32946*
Y33046*
X52986Y33109*
X53165Y30127D02*
X53006Y29967D01*
X52974Y30088*
X53045Y30159*
X53165Y30127*
X58850Y34260D02*
Y33740D01*
X58487Y33950*
Y34050*
X58850Y34260*
X59078Y33290D02*
X58710Y32922D01*
X58602Y33328*
X58672Y33398*
X59078Y33290*
G37*
G54D10*
X2000Y2000D02*
Y3505D01*
Y2000D02*
Y495D01*
Y2000D02*
X495D01*
X2000D02*
X3505D01*
X2000Y38000D02*
X3505D01*
X2000D02*
X495D01*
X2000D02*
Y36495D01*
Y38000D02*
Y39505D01*
X4440Y5984D02*
Y4479D01*
Y5984D02*
Y7489D01*
Y5984D02*
X5945D01*
X4440D02*
X2935D01*
X4440Y25984D02*
Y27489D01*
Y25984D02*
X5945D01*
X4440D02*
X2935D01*
X4440D02*
Y24479D01*
X5312Y33756D02*
X7306Y35750D01*
X23426*
X24933Y34243*
X5349Y31755D02*
X7251D01*
X7254Y31758*
X7504*
X8252Y39249D02*
X9746Y37755D01*
X12710*
X12850Y37895*
X24596*
X24839Y37652*
Y35919*
X24812Y35892*
Y35689*
X24955Y35545*
X30208*
X31190Y36527*
X32019*
X34244Y34302*
X44639*
X44722Y34219*
X45399*
X46735Y32883*
Y32633*
X13458Y37542D02*
X13641Y37725D01*
X24526*
X24669Y37581*
Y35989*
X24642Y35962*
Y35618*
X24916Y35344*
X32606*
X34028Y33922*
X44538*
X44655Y33805*
X44981*
X45062Y33724*
X45643*
X46483Y32884*
Y32374*
X16500Y39000D02*
X17430Y38070D01*
X31764*
X33902Y35932*
X44248*
X44996Y35184*
X46969*
X48010Y36225*
X48536*
X48779Y35982*
Y35260*
X49636Y34403*
Y34060*
X49201Y33624*
Y33156*
X16998Y24735D02*
X21994Y29731D01*
Y29843*
X22167Y30016*
X17149Y16260D02*
Y24533D01*
X22617Y30001*
X22944*
X17500Y39000D02*
X18260Y38240D01*
X31834*
X33972Y36102*
X44318*
X45067Y35354*
X46898*
X47939Y36395*
X48606*
X48949Y36052*
Y35331*
X49806Y34474*
Y33884*
X49460Y33538*
X18500Y39000D02*
X19090Y38410D01*
X31904*
X34043Y36272*
X44389*
X45137Y35524*
X46828*
X47869Y36565*
X48677*
X49119Y36122*
Y35401*
X49976Y34544*
Y32904*
X48592Y31520*
X19500Y39000D02*
X19920Y38580D01*
X31975*
X34113Y36442*
X44459*
X45207Y35694*
X46750*
X47791Y36735*
X48747*
X49289Y36193*
Y35502*
X50802Y33989*
Y33575*
X20500Y39000D02*
Y39430D01*
Y39000D02*
X20070D01*
X20500D02*
X20930D01*
X21168Y32674D02*
Y32429D01*
X22029Y31569*
X24296*
X26360Y29504*
X27770*
X28138Y29872*
X32390*
X33191Y29072*
X46385*
X47736Y30424*
X52709*
X53132Y30001*
X21840Y32432D02*
X22363Y31909D01*
X24699*
X26583Y30025*
X26664*
X26672Y30018*
X27114*
X22141Y31154D02*
X24050D01*
X25344Y29859*
Y29516*
X24924Y29095*
X22878*
X21980Y28198*
Y27850*
X22412Y27418*
X26310*
X26957Y28064*
X28250*
X22141Y32630D02*
X24219D01*
X26537Y30312*
X27482*
X27607Y30188*
X27950*
X28008Y30246*
X41007*
X41671Y29582*
X45721*
X48601Y32462*
Y33662*
X22400Y28024D02*
X23094Y28717D01*
X25101*
X25718Y29334*
X27840*
X28208Y29702*
X32320*
X33120Y28902*
X47694*
X48692Y29900*
X22584Y34436D02*
X22829D01*
X22921Y34344*
Y34134*
X22950Y34105*
Y33869*
X23467Y33352*
X24225*
X26559Y31018*
X27950*
X28187Y30781*
X46198*
X47759Y32342*
Y33969*
X22607Y34102D02*
X22780Y33929D01*
Y33798*
X23396Y33182*
X24154*
X26489Y30848*
X27880*
X28121Y30606*
X44085*
X44467Y30224*
X45882*
X48049Y32392*
Y33512*
X22738Y24886D02*
Y21452D01*
X22560Y21273*
X22768Y34822D02*
X23187D01*
X23448Y34562*
Y33852*
X23608Y33692*
X24366*
X26700Y31358*
X28091*
X28328Y31121*
X46057*
X47320Y32384*
Y33416*
X47182Y33555*
Y34029*
X23000Y16500D02*
Y25992D01*
X21470Y27522*
Y28541*
X22605Y29676*
X23621*
X23794Y29850*
X23091Y34572D02*
Y34205D01*
X23278Y34018*
Y33781*
X23537Y33522*
X24295*
X26630Y31188*
X28021*
X28257Y30951*
X46128*
X47503Y32327*
Y34178*
X23530Y37480D02*
Y36208D01*
X25075Y34663*
X25100*
X25603Y34160*
Y34033*
X27598Y32038*
X28373*
X28609Y31801*
X44558*
X44747Y31990*
Y32193*
X44739Y32200*
Y32668*
X23770Y28056D02*
X24069Y27758D01*
X25143*
X26380Y28994*
X27981*
X28349Y29362*
X32179*
X32980Y28562*
X48166*
X49420Y29816*
Y30203*
X24500Y29965D02*
X24999D01*
X25174Y29789*
Y29586*
X24854Y29265*
X22808*
X21810Y28268*
Y27779*
X24351Y25239*
X32188*
X33401Y24026*
X24929Y29688D02*
X24677Y29435D01*
X22737*
X21640Y28339*
Y27709*
X31849Y17500*
X33794*
X34477Y16817*
Y15784*
X25028Y28028D02*
Y28404D01*
X25788Y29164*
X27911*
X28279Y29532*
X32250*
X33050Y28732*
X47983*
X49170Y29919*
X25183Y33993D02*
X24695D01*
X23616Y35072*
X22672*
X21882Y34282*
Y34266*
X21708Y34093*
X25208Y36645D02*
X30587D01*
X30979Y37037*
X32230*
X33675Y35592*
X44107*
X44855Y34844*
X47215*
X48058Y35686*
X26000Y39000D02*
Y39430D01*
Y39000D02*
X26430D01*
X26000D02*
X25570D01*
X28853Y28056D02*
X28595Y28314D01*
X26911*
X26185Y27588*
X22483*
X22150Y27920*
Y28127*
X22948Y28925*
X24995*
X25514Y29445*
Y29930*
X24046Y31399*
X22000*
X21750Y31149*
X29312Y24914D02*
Y23376D01*
X29329Y23360*
Y21822*
X29500Y39000D02*
X29930D01*
X29500D02*
X29070D01*
X29500D02*
Y39430D01*
X29808Y37488D02*
X32105D01*
X33831Y35762*
X44178*
X44926Y35014*
X47039*
X48080Y36055*
X48466*
X48609Y35911*
Y35190*
X49466Y34333*
Y34130*
X48972Y33636*
Y32738*
X33000Y39000D02*
Y38570D01*
Y39000D02*
X33430D01*
X33000D02*
Y39430D01*
Y39000D02*
X32570D01*
X35501Y36778D02*
X35751D01*
X35918Y36612*
X44530*
X45278Y35864*
X46680*
X47721Y36905*
X48818*
X49459Y36263*
Y36033*
X50990Y34502*
Y33748*
X51047Y33690*
Y33473*
X50957Y33383*
Y31958*
X36500Y39000D02*
Y38570D01*
Y39000D02*
Y39430D01*
Y39000D02*
X36930D01*
X36500D02*
X36070D01*
X38071Y39053D02*
X37842D01*
X38346Y38758D02*
Y38529D01*
Y39348D02*
Y39577D01*
X38504Y38000D02*
Y38415D01*
Y38000D02*
X38089D01*
X38504D02*
Y37585D01*
Y38000D02*
X38919D01*
X38622Y39053D02*
X38850D01*
X39406Y36924D02*
X44468D01*
X45359Y36034*
X46609*
X47650Y37075*
X48888*
X48925Y37038*
X49139*
X49285Y37184*
Y37391*
X48981Y37696*
X48500*
X39731Y37373D02*
X44260D01*
X45429Y36204*
X46539*
X47623Y37288*
X49035*
X40354Y39051D02*
X40126D01*
X40472Y38000D02*
X40888D01*
X40472D02*
X40057D01*
X40472D02*
Y38415D01*
Y38000D02*
Y37585D01*
X40630Y38756D02*
Y38527D01*
Y39346D02*
Y39575D01*
X40906Y39051D02*
X41134D01*
X41500Y35000D02*
X41148Y34752D01*
X41500Y35000D02*
X41873Y35213D01*
X41500Y35000D02*
X41827Y34721D01*
X44124Y32046D02*
X28605D01*
X28443Y32208*
X27775*
X25887Y34095*
X44502Y32091D02*
X44215Y32378D01*
X27951*
X25160Y35169*
X24810*
X24424Y35554*
Y37480*
X44787Y33547D02*
X44321Y33082D01*
X28078*
X26633Y34527*
X45069Y32661D02*
Y32071D01*
X44629Y31631*
X28539*
X28302Y31868*
X27528*
X25433Y33963*
Y34090*
X25029Y34493*
X25004*
X22510Y36988*
Y37480*
X45302Y33969D02*
X45057D01*
X45051Y33975*
X44725*
X44609Y34092*
X34213*
X32028Y36277*
X31454*
X45531Y36449D02*
Y38753D01*
X44708Y39576*
X46448Y5984D02*
X47953D01*
X46448D02*
Y7489D01*
Y5984D02*
X44943D01*
X46448D02*
Y4479D01*
Y25984D02*
X47953D01*
X46448D02*
Y27489D01*
Y25984D02*
X44943D01*
X46448D02*
Y24479D01*
X46554Y33451D02*
X46980Y33024D01*
Y32525*
X45917Y31461*
X28469*
X28232Y31698*
X26947*
X25973Y32672*
X46964Y33426D02*
X47150Y33240D01*
Y32455*
X45987Y31291*
X28398*
X28162Y31528*
X26770*
X24356Y33942*
X23704*
X47226Y39335D02*
X46038Y38147D01*
Y37822*
X48086Y34315D02*
X48294Y34107D01*
Y32397*
X45952Y30054*
X44396*
X44029Y30422*
X27944*
X27880Y30358*
X27677*
X27512Y30523*
X26573*
X24084Y33012*
X23264*
X22293Y33982*
Y34227*
X48364Y35810D02*
Y35565D01*
X47529Y34730*
X47342*
X47286Y34674*
X44785*
X44037Y35422*
X33605*
X32159Y36867*
X31050*
X30498Y36315*
X25202*
X49221Y34231D02*
X48893Y34560D01*
X47539*
X47429Y34450*
X44731*
X44670Y34511*
X34275*
X32089Y36697*
X31120*
X30213Y35790*
X25057*
X51315Y34179D02*
X58061D01*
X58240Y34000*
X59000*
X52500Y39000D02*
X52070D01*
X52500D02*
Y38570D01*
Y39000D02*
X52930D01*
X52500D02*
Y39430D01*
X53051Y32996D02*
X52349D01*
X50463Y31110*
X47503*
X45635Y29242*
X33261*
X32427Y30076*
X28101*
X27700Y29674*
X26693*
X24629Y31739*
X22109*
X21519Y32328*
Y32578*
X57976Y7000D02*
X58500D01*
X57976D02*
Y7524D01*
Y7000D02*
X57453D01*
X57976D02*
Y6476D01*
Y13750D02*
X58500D01*
X57976D02*
Y14274D01*
Y13750D02*
X57453D01*
X57976D02*
Y13226D01*
Y20500D02*
X58500D01*
X57976D02*
Y21024D01*
Y20500D02*
X57453D01*
X57976D02*
Y19976D01*
X58000Y2000D02*
X59505D01*
X58000D02*
Y3505D01*
Y2000D02*
X56495D01*
X58000D02*
Y495D01*
Y38000D02*
X59505D01*
X58000D02*
Y39505D01*
Y38000D02*
X56495D01*
X58000D02*
Y36495D01*
X58472Y29398D02*
Y30528D01*
Y29398D02*
X57342D01*
X58472D02*
Y28268D01*
Y29398D02*
X59602D01*
X59000Y33000D02*
X58142Y33858D01*
X51240*
X59000Y35000D02*
Y35430D01*
Y35000D02*
X58570D01*
X59000D02*
Y34570D01*
Y35000D02*
X59430D01*
G54D11*
X16000Y1500D02*
X14870D01*
X16000D02*
Y370D01*
Y1500D02*
Y2630D01*
X23000Y1500D02*
X21870D01*
X23000D02*
Y370D01*
Y1500D02*
X24130D01*
X23000D02*
Y2630D01*
X30000Y1500D02*
X28870D01*
X30000D02*
Y370D01*
Y1500D02*
X31130D01*
X30000D02*
Y2630D01*
X48592Y31520D03*
X48607Y30204D03*
X48972Y32738D03*
X49170Y29919D03*
X49201Y33156D03*
X49420Y30203D03*
X49460Y33538D03*
G54D12*
X1000Y5000D03*
Y8000D03*
Y11000D03*
Y14000D03*
Y17000D03*
Y20000D03*
Y23000D03*
Y26000D03*
Y29000D03*
Y36000D03*
X5000Y1000D03*
X7000Y5000D03*
Y28000D03*
X8000Y1000D03*
X9000Y28000D03*
Y30000D03*
X10500Y17500D03*
Y18000D03*
Y34500D03*
X11000Y1000D03*
Y17500D03*
Y18000D03*
Y28000D03*
Y30000D03*
X11500Y17500D03*
Y18000D03*
X12000Y17500D03*
Y18000D03*
X12500Y17500D03*
Y18000D03*
X13000Y17500D03*
Y18000D03*
Y30000D03*
X13500Y17500D03*
Y18000D03*
X14000Y1000D03*
Y17500D03*
Y18000D03*
X14500Y17500D03*
Y18000D03*
X15000Y17500D03*
Y18000D03*
Y30000D03*
X15500Y17500D03*
Y18000D03*
X17000Y4000D03*
Y4500D03*
Y5000D03*
Y9500D03*
Y10000D03*
Y10500D03*
Y11000D03*
Y11500D03*
Y12000D03*
Y12500D03*
Y13000D03*
Y30000D03*
X17500Y4000D03*
Y4500D03*
Y5000D03*
Y9500D03*
Y10000D03*
Y10500D03*
Y11000D03*
Y11500D03*
Y12000D03*
Y12500D03*
Y13000D03*
X18000Y1000D03*
Y17000D03*
Y17500D03*
X18500Y17000D03*
Y17500D03*
X19000Y17000D03*
Y17500D03*
X19500Y17000D03*
Y17500D03*
X20000Y17000D03*
Y17500D03*
X20500Y17000D03*
Y17500D03*
X21000Y1000D03*
Y17000D03*
Y17500D03*
X21500Y17000D03*
Y17500D03*
X22000Y17000D03*
Y17500D03*
X22500Y17000D03*
Y17500D03*
X25000Y1000D03*
Y4000D03*
Y4500D03*
Y5000D03*
Y9000D03*
Y13000D03*
X25500Y4000D03*
Y4500D03*
Y5000D03*
Y9000D03*
Y13000D03*
X28000Y1000D03*
X29000Y16000D03*
Y16500D03*
X29500Y16000D03*
Y16500D03*
X30000Y16000D03*
Y16500D03*
X30500Y16000D03*
Y16500D03*
X31000Y16000D03*
Y16500D03*
X31500Y16000D03*
Y16500D03*
X32000Y1000D03*
Y16000D03*
Y16500D03*
X32500Y16000D03*
Y16500D03*
X33000Y16000D03*
Y16500D03*
X33500Y16000D03*
Y16500D03*
X34500Y4000D03*
Y4500D03*
Y5000D03*
Y9500D03*
Y10000D03*
Y10500D03*
Y11000D03*
Y11500D03*
Y12000D03*
Y12500D03*
Y13000D03*
X35000Y1000D03*
Y4000D03*
Y4500D03*
Y5000D03*
Y9500D03*
Y10000D03*
Y10500D03*
Y11000D03*
Y11500D03*
Y12000D03*
Y12500D03*
Y13000D03*
X36000Y4000D03*
Y4500D03*
Y5000D03*
X38000Y1000D03*
X39000Y4000D03*
Y4500D03*
Y5000D03*
X41000Y1000D03*
Y20000D03*
Y22000D03*
Y24000D03*
Y26000D03*
Y28000D03*
X41500Y10500D03*
Y11000D03*
Y11500D03*
Y12000D03*
Y15500D03*
Y16000D03*
Y16500D03*
Y17000D03*
X42000Y4000D03*
Y4500D03*
Y5000D03*
Y10500D03*
Y11000D03*
Y11500D03*
Y12000D03*
Y15500D03*
Y16000D03*
Y16500D03*
Y17000D03*
Y39000D03*
X42500Y10500D03*
Y11000D03*
Y15500D03*
Y16000D03*
X43000Y10500D03*
Y11000D03*
Y15500D03*
Y16000D03*
X43500Y10500D03*
Y11000D03*
Y15500D03*
Y16000D03*
X44000Y1000D03*
Y20000D03*
Y28000D03*
X47000Y1000D03*
X49500Y26000D03*
Y28000D03*
X50000Y1000D03*
Y6000D03*
X51000Y39000D03*
X53000Y1000D03*
Y6000D03*
X56000Y1000D03*
X59000Y4000D03*
Y6000D03*
Y9000D03*
Y12000D03*
Y15000D03*
Y18000D03*
Y21000D03*
Y28000D03*
G54D13*
X1250Y30000D03*
Y34500D03*
X5000Y38000D03*
X7000D03*
X10000D03*
X11500Y27750D03*
Y28250D03*
Y28750D03*
X11750Y27500D03*
Y28000D03*
Y28500D03*
Y29000D03*
X12000Y28750D03*
Y38000D03*
X12250Y29000D03*
X12500Y28750D03*
X12750Y29000D03*
X13000Y28750D03*
X13250Y29000D03*
X13500Y28750D03*
X13750Y29000D03*
X14000Y28750D03*
X14250Y29000D03*
X18500Y24500D03*
X18750Y24750D03*
Y30500D03*
Y31000D03*
Y31500D03*
Y32000D03*
Y32500D03*
X19000Y24500D03*
X19250Y24750D03*
X19500Y24500D03*
X19750Y24750D03*
X20000Y23000D03*
Y23500D03*
Y24000D03*
Y24500D03*
X20250Y24750D03*
Y34500D03*
X20500Y24500D03*
X20750Y24750D03*
X21000Y24500D03*
X21168Y32674D03*
X21250Y24750D03*
X21325Y26008D03*
X21500Y24500D03*
Y35250D03*
X21519Y32578D03*
X21708Y34093D03*
X21750Y31149D03*
X21840Y32432D03*
X22141Y31154D03*
Y32630D03*
X22167Y30016D03*
X22293Y34227D03*
X22510Y37480D03*
X22584Y34436D03*
X22607Y34102D03*
X22768Y34822D03*
X22944Y30001D03*
X23091Y34572D03*
X23250Y32250D03*
X23530Y37480D03*
X23704Y33942D03*
X23750Y32250D03*
X23794Y29850D03*
X24250Y23500D03*
Y24000D03*
Y24500D03*
X24424Y37480D03*
X24500Y29965D03*
Y25750D03*
X24750Y23500D03*
X24929Y29688D03*
X24933Y34243D03*
X25000Y25750D03*
X25057Y35790D03*
X25183Y33993D03*
X25202Y36315D03*
X25208Y36645D03*
X25250Y23500D03*
X25500Y25750D03*
Y37250D03*
X25887Y34095D03*
X25973Y32672D03*
X26633Y34527D03*
X27114Y30018D03*
X27527Y29919D03*
X27750Y34000D03*
Y35000D03*
X27778Y30603D03*
X28750Y37000D03*
X29750Y34500D03*
X30000Y29000D03*
X30250Y28750D03*
X30500Y29000D03*
X30750Y28750D03*
X31000Y29000D03*
X31250Y28750D03*
X31500Y29000D03*
X31750Y28750D03*
X32000Y29000D03*
X32250Y28750D03*
X32750Y27500D03*
Y28000D03*
X34250Y29750D03*
X34500Y35000D03*
X35500D03*
X36250Y32750D03*
X36750D03*
X37250Y29750D03*
Y32750D03*
Y33500D03*
X37500Y27750D03*
X37750Y29750D03*
X38000Y27750D03*
X38250Y29750D03*
X38500Y27750D03*
X39000Y37500D03*
X39750Y29500D03*
X43000Y38750D03*
X44124Y32046D03*
X44502Y32091D03*
X44708Y39576D03*
X44739Y32668D03*
X45069Y32661D03*
X45302Y33969D03*
X45531Y36449D03*
X46038Y37822D03*
X46483Y32374D03*
X46500Y7750D03*
Y8250D03*
Y8750D03*
Y9250D03*
Y9750D03*
X46554Y33451D03*
X46735Y32633D03*
X46750Y8000D03*
Y8500D03*
Y9500D03*
X46964Y33426D03*
X47182Y34029D03*
X47503Y34178D03*
X47759Y33969D03*
X48049Y33512D03*
X48058Y35686D03*
X48086Y34315D03*
X48364Y35810D03*
X48500Y32000D03*
X48601Y33662D03*
X49221Y34231D03*
X49250Y31500D03*
X50000Y38250D03*
X50802Y33575D03*
X50957Y31958D03*
X51240Y33858D03*
X51315Y34179D03*
X51500Y36000D03*
Y36500D03*
X53250Y29000D03*
X54500Y29250D03*
X55000D03*
X55500D03*
X56000D03*
X56500D03*
X58000Y35000D03*
G54D14*
X5312Y33756D03*
X5349Y31755D03*
X6526Y34314D03*
X7504Y31758D03*
X13458Y37542D03*
X16998Y24735D03*
X17149Y16260D03*
X20630Y30463D03*
X22400Y28024D03*
X22560Y21273D03*
X22738Y24886D03*
X23000Y16500D03*
X23113Y35500D03*
X23275Y27023D03*
X23770Y28056D03*
X24515Y27037D03*
X25028Y28028D03*
X25938Y28049D03*
X28250Y28064D03*
X28853Y28056D03*
X29312Y24914D03*
X29329Y21822D03*
X29808Y37488D03*
X31454Y36277D03*
X32818Y28370D03*
X33401Y24026D03*
X34477Y15784D03*
X35501Y36778D03*
X39406Y36924D03*
X39731Y37373D03*
X44570Y30474D03*
X44787Y33547D03*
X46079Y36709D03*
X46545Y37757D03*
X47226Y39335D03*
X48500Y37696D03*
X48692Y29900D03*
X49035Y37288D03*
X50523Y35474D03*
X51453Y31276D03*
X53051Y32996D03*
X53132Y30001D03*
X56234Y32000D03*
G54D15*
X2000Y2000D03*
Y38000D03*
X4440Y5984D03*
Y25984D03*
X46448Y5984D03*
Y25984D03*
X58000Y2000D03*
Y38000D03*
G54D16*
X8252Y39249D03*
X13252D03*
X15500Y39000D03*
X16500D03*
X17500D03*
X18500D03*
X19500D03*
X20500D03*
X22000D03*
X23000D03*
X24000D03*
X25000D03*
X26000D03*
X27500D03*
X28500D03*
X29500D03*
X31000D03*
X32000D03*
X33000D03*
X34500D03*
X35500D03*
X36500D03*
X39500Y35000D03*
X40500D03*
X41500D03*
X43501Y30002D03*
Y33502D03*
Y35002D03*
X52500Y39000D03*
X53500D03*
X54500D03*
X55500D03*
X59000Y32000D03*
Y33000D03*
Y34000D03*
Y35000D03*
G54D17*
X16000Y1500D03*
X23000D03*
X30000D03*
X58472Y25398D03*
Y29398D03*
G54D18*
X38504Y38000D03*
X40472D03*
G54D19*
X38346Y39053D03*
X40630Y39051D03*
G54D70*
X55024Y7000D03*
Y13750D03*
Y20500D03*
X57976Y7000D03*
Y13750D03*
Y20500D03*
M02*
