*
G04 Job   : E:\PCBDESIGN\PROJECT\XDX\JOHNENGLISH\JOHNENGLISH\PCB\Board1.pcb*
G04 User  : BES-WIN7-VM:BES*
G04 Layer : SolderPasteTop.gdo*
G04 Date  : Sun Nov 23 15:41:45 2014*
G04 Mentor Graphics Example Gerber Output Definition*
%ICAS*%
%MOIN*%
%FSLAX24Y24*%
%OFA0.0000B0.0000*%
G90*
G74*
%AMVB_RECTANGLE*
21,1,$1,$2,0,0,$3*
%
%AMVB_RCRECTANGLE*
$3=$3X2*
21,1,$1-$3,$2,0,0,0*
21,1,$1,$2-$3,0,0,0*
$1=$1/2*
$2=$2/2*
$3=$3/2*
$1=$1-$3*
$2=$2-$3*
1,1,$3X2,0-$1,0-$2*
1,1,$3X2,0-$1,$2*
1,1,$3X2,$1,$2*
1,1,$3X2,$1,0-$2*
%
%ADD13VB_RECTANGLE,0.04724X0.04724X180.00000*%
%ADD30VB_RECTANGLE,0.01575X0.05315X180.00000*%
%ADD22VB_RECTANGLE,0.01969X0.02362X180.00000*%
%ADD70VB_RECTANGLE,0.03150X0.03937X0.00000*%
%ADD12VB_RECTANGLE,0.03150X0.03937X270.00000*%
%ADD34VB_RECTANGLE,0.03504X0.09606X0.00000*%
%ADD14VB_RECTANGLE,0.03937X0.13583X180.00000*%
%ADD29VB_RECTANGLE,0.05118X0.06693X0.00000*%
%ADD31VB_RECTANGLE,0.05118X0.06693X90.00000*%
%ADD32VB_RECTANGLE,0.05512X0.19685X90.00000*%
%ADD10VB_RECTANGLE,0.05709X0.03937X180.00000*%
%ADD26VB_RECTANGLE,0.05906X0.09843X270.00000*%
%ADD23VB_RECTANGLE,0.06102X0.00984X270.00000*%
%ADD21VB_RECTANGLE,0.06299X0.01378X0.00000*%
%ADD20VB_RECTANGLE,0.06299X0.01378X90.00000*%
%ADD27VB_RECTANGLE,0.06693X0.09843X180.00000*%
%ADD28VB_RECTANGLE,0.06693X0.09843X90.00000*%
%ADD18VB_RECTANGLE,0.07874X0.14961X180.00000*%
%ADD72VB_RECTANGLE,0.07874X0.14961X270.00000*%
%ADD11VB_RECTANGLE,0.08504X0.05984X180.00000*%
%ADD19VB_RECTANGLE,0.09843X0.06693X0.00000*%
%ADD16VB_RECTANGLE,0.11024X0.02913X270.00000*%
%ADD17VB_RECTANGLE,0.20000X0.07000X0.00000*%
%ADD24VB_RECTANGLE,0.21000X0.07500X180.00000*%
%ADD33VB_RECTANGLE,0.22047X0.09606X0.00000*%
%ADD15VB_RECTANGLE,0.25394X0.14567X180.00000*%
%ADD73VB_RECTANGLE,0.25394X0.14567X270.00000*%
%ADD25VB_RECTANGLE,0.27559X0.27559X270.00000*%
%ADD71VB_RCRECTANGLE,0.10630X0.31496X0.03937*%
G01*
G54D10*
X4986Y38665D03*
Y39335D03*
X7016Y38665D03*
Y39335D03*
X9986Y38665D03*
Y39335D03*
X12016Y38665D03*
Y39335D03*
X47986Y38665D03*
Y39335D03*
X50016Y38665D03*
Y39335D03*
G54D11*
X1126Y30750D03*
Y31750D03*
Y32750D03*
Y33750D03*
X4374Y30750D03*
Y31750D03*
Y32750D03*
Y33750D03*
G54D12*
X17000Y15224D03*
Y15776D03*
Y23724D03*
Y24276D03*
X18000Y25724D03*
Y26276D03*
X22000Y34724D03*
Y35276D03*
X23000Y15224D03*
Y15776D03*
Y23724D03*
Y24276D03*
Y25724D03*
Y26276D03*
Y37224D03*
Y37776D03*
X24000Y37224D03*
Y37776D03*
X25000Y37224D03*
Y37776D03*
X31000Y35724D03*
Y36276D03*
Y37224D03*
Y37776D03*
X32000Y35724D03*
Y36276D03*
Y37224D03*
Y37776D03*
X34000Y15224D03*
Y15776D03*
Y23474D03*
Y24026D03*
Y24974D03*
Y25526D03*
X34500Y35724D03*
Y36276D03*
Y37224D03*
Y37776D03*
X35500Y35724D03*
Y36276D03*
Y37224D03*
Y37776D03*
X45000Y30474D03*
Y31026D03*
X46500Y36724D03*
Y37276D03*
X47500Y36724D03*
Y37276D03*
X48500Y36724D03*
Y37276D03*
X49500Y36724D03*
Y37276D03*
X51000Y30724D03*
Y31276D03*
Y35474D03*
Y36026D03*
X52000Y35474D03*
Y36026D03*
G54D13*
X28106Y32500D03*
X28894D03*
G54D14*
X12500Y15000D03*
Y23500D03*
X13000Y15000D03*
Y23500D03*
X13500Y15000D03*
Y23500D03*
X14500Y15000D03*
Y23500D03*
X15000Y15000D03*
Y23500D03*
X15500Y15000D03*
Y23500D03*
X18500Y15000D03*
Y23500D03*
X19000Y15000D03*
Y23500D03*
X19500Y15000D03*
Y23500D03*
X20500Y15000D03*
Y23500D03*
X21000Y15000D03*
Y23500D03*
X21500Y15000D03*
Y23500D03*
X29500Y15000D03*
Y23500D03*
X30000Y15000D03*
Y23500D03*
X30500Y15000D03*
Y23500D03*
X31500Y15000D03*
Y23500D03*
X32000Y15000D03*
Y23500D03*
X32500Y15000D03*
Y23500D03*
G54D15*
X8500Y10957D03*
Y19957D03*
X14000Y11390D03*
Y19890D03*
X20000Y11390D03*
Y19890D03*
X26000Y10957D03*
Y19457D03*
X31000Y11390D03*
Y19890D03*
X37500Y10957D03*
Y19957D03*
G54D16*
X43500Y37213D03*
Y38787D03*
X44000Y37213D03*
Y38787D03*
X44500Y37213D03*
Y38787D03*
X45000Y37213D03*
Y38787D03*
X45500Y37213D03*
Y38787D03*
G54D17*
X46275Y28975D03*
X49725D03*
G54D18*
X7476Y16075D03*
Y25075D03*
X9524Y16075D03*
Y25075D03*
X24976Y16075D03*
Y24575D03*
X27024Y16075D03*
Y24575D03*
X36476Y16075D03*
Y25075D03*
X38524Y16075D03*
Y25075D03*
G54D19*
X54819Y34173D03*
Y35000D03*
Y35827D03*
X57181Y34173D03*
Y35000D03*
Y35827D03*
G54D20*
X46524Y30835D03*
Y35165D03*
X46720Y30835D03*
Y35165D03*
X46917Y30835D03*
Y35165D03*
X47114Y30835D03*
Y35165D03*
X47311Y30835D03*
Y35165D03*
X47508Y30835D03*
Y35165D03*
X47705Y30835D03*
Y35165D03*
X47902Y30835D03*
Y35165D03*
X48098Y30835D03*
Y35165D03*
X48295Y30835D03*
Y35165D03*
X48492Y30835D03*
Y35165D03*
X48689Y30835D03*
Y35165D03*
X48886Y30835D03*
Y35165D03*
X49083Y30835D03*
Y35165D03*
X49280Y30835D03*
Y35165D03*
X49476Y30835D03*
Y35165D03*
G54D21*
X45835Y31524D03*
Y31720D03*
Y31917D03*
Y32114D03*
Y32311D03*
Y32508D03*
Y32705D03*
Y32902D03*
Y33098D03*
Y33295D03*
Y33492D03*
Y33689D03*
Y33886D03*
Y34083D03*
Y34280D03*
Y34476D03*
X50165Y31524D03*
Y31720D03*
Y31917D03*
Y32114D03*
Y32311D03*
Y32508D03*
Y32705D03*
Y32902D03*
Y33098D03*
Y33295D03*
Y33492D03*
Y33689D03*
Y33886D03*
Y34083D03*
Y34280D03*
Y34476D03*
G54D22*
X40728Y17972D03*
X41102Y17185D03*
X41476Y17972D03*
G54D23*
X21343Y30583D03*
Y33417D03*
X21539Y30583D03*
Y33417D03*
X21736Y30583D03*
Y33417D03*
X21933Y30583D03*
Y33417D03*
X22130Y30583D03*
Y33417D03*
X22327Y30583D03*
Y33417D03*
X22524Y30583D03*
Y33417D03*
X22720Y30583D03*
Y33417D03*
X22917Y30583D03*
Y33417D03*
X23114Y30583D03*
Y33417D03*
X23311Y30583D03*
Y33417D03*
X23508Y30583D03*
Y33417D03*
X23705Y30583D03*
Y33417D03*
X23902Y30583D03*
Y33417D03*
X24098Y30583D03*
Y33417D03*
X24295Y30583D03*
Y33417D03*
X24492Y30583D03*
Y33417D03*
X24689Y30583D03*
Y33417D03*
X24886Y30583D03*
Y33417D03*
X25083Y30583D03*
Y33417D03*
X25280Y30583D03*
Y33417D03*
X25476Y30583D03*
Y33417D03*
X25673Y30583D03*
Y33417D03*
X25870Y30583D03*
Y33417D03*
X26067Y30583D03*
Y33417D03*
X26264Y30583D03*
Y33417D03*
X26461Y30583D03*
Y33417D03*
X26657Y30583D03*
Y33417D03*
G54D24*
X24001Y32002D03*
G54D25*
X37858Y29500D03*
G54D26*
X35142Y28594D03*
Y30406D03*
G54D27*
X44213Y8250D03*
Y9750D03*
X45787Y8250D03*
Y9750D03*
G54D28*
X7500Y6213D03*
Y7787D03*
X9500Y6213D03*
Y7787D03*
G54D29*
X19370Y31000D03*
Y32000D03*
X20630Y31000D03*
Y32000D03*
X28370Y30500D03*
Y31500D03*
X29630Y30500D03*
Y31500D03*
X35370Y32000D03*
Y33500D03*
X36630Y32000D03*
Y33500D03*
X39094Y39053D03*
X39882D03*
G54D30*
X38976Y38000D03*
X39232D03*
X39488D03*
X39744D03*
X40000D03*
G54D31*
X33500Y28370D03*
Y29630D03*
G54D32*
X12000Y5819D03*
Y8181D03*
X15000Y5819D03*
Y8181D03*
X18000Y5819D03*
Y8181D03*
X21000Y5819D03*
Y8181D03*
X24000Y5819D03*
Y8181D03*
X27000Y5819D03*
Y8181D03*
X30000Y5819D03*
Y8181D03*
X33000Y5819D03*
Y8181D03*
X36000Y5819D03*
Y8181D03*
X39000Y5819D03*
Y8181D03*
X42000Y5819D03*
Y8181D03*
X55500Y26319D03*
Y28681D03*
G54D33*
X13146Y26024D03*
Y27976D03*
X31276Y26024D03*
Y27976D03*
G54D34*
X14774Y26024D03*
X14776Y27976D03*
X29646Y26024D03*
X29648Y27976D03*
G54D70*
X5974Y30750D03*
Y31750D03*
Y32750D03*
Y33750D03*
X6526Y30750D03*
Y31750D03*
Y32750D03*
Y33750D03*
X16224Y26000D03*
Y27000D03*
Y28000D03*
X16776Y26000D03*
Y27000D03*
Y28000D03*
X20724Y34500D03*
X21276D03*
X21724Y27500D03*
Y28500D03*
Y29250D03*
X22276Y27500D03*
Y28500D03*
Y29250D03*
X23224Y27500D03*
Y28500D03*
Y29250D03*
X23474Y34500D03*
Y35500D03*
X23776Y27500D03*
Y28500D03*
Y29250D03*
X24026Y34500D03*
Y35500D03*
X24474Y27500D03*
Y28500D03*
Y29250D03*
X25026Y27500D03*
Y28500D03*
Y29250D03*
X25724Y28500D03*
Y29500D03*
Y34500D03*
Y35500D03*
Y36500D03*
X26276Y28500D03*
Y29500D03*
Y34500D03*
Y35500D03*
Y36500D03*
X26974Y28500D03*
Y29500D03*
X27224Y34500D03*
Y35500D03*
X27526Y28500D03*
Y29500D03*
X27776Y34500D03*
Y35500D03*
X28224Y27500D03*
Y28500D03*
Y29500D03*
X28724Y34500D03*
Y35500D03*
Y36500D03*
Y37500D03*
X28776Y27500D03*
Y28500D03*
Y29500D03*
X29276Y34500D03*
Y35500D03*
Y36500D03*
Y37500D03*
X29724Y29500D03*
X30276D03*
X40827Y18972D03*
X41378D03*
X43724Y29000D03*
Y32500D03*
X44276Y29000D03*
Y32500D03*
X51974Y29000D03*
Y30000D03*
Y31000D03*
Y32000D03*
Y33000D03*
X52526Y29000D03*
Y30000D03*
Y31000D03*
Y32000D03*
Y33000D03*
X52974Y35000D03*
Y36000D03*
X53224Y34000D03*
X53526Y35000D03*
Y36000D03*
X53776Y34000D03*
X56724Y32000D03*
Y33000D03*
X57276Y32000D03*
Y33000D03*
G54D71*
X30957Y32976D03*
X33043Y32949D03*
G54D72*
X43398Y11874D03*
Y13921D03*
Y16874D03*
Y18921D03*
G54D73*
X48516Y12898D03*
Y17898D03*
M02*
