*
G04 Job   : E:\PCBDESIGN\PROJECT\XDX\JOHNENGLISH\JOHNENGLISH\PCB\Board1.pcb*
G04 User  : BES-WIN7-VM:BES*
G04 Layer : SoldermaskBottom.gdo*
G04 Date  : Sun Nov 23 15:41:45 2014*
G04 Mentor Graphics Example Gerber Output Definition*
%ICAS*%
%MOIN*%
%FSLAX24Y24*%
%OFA0.0000B0.0000*%
G90*
G74*
%AMVB_RCRECTANGLE*
$3=$3X2*
21,1,$1-$3,$2,0,0,0*
21,1,$1,$2-$3,0,0,0*
$1=$1/2*
$2=$2/2*
$3=$3/2*
$1=$1-$3*
$2=$2-$3*
1,1,$3X2,0-$1,0-$2*
1,1,$3X2,0-$1,$2*
1,1,$3X2,$1,$2*
1,1,$3X2,$1,0-$2*
%
%ADD10C,0.03200*%
%ADD14C,0.05906*%
%ADD12C,0.06500*%
%ADD16C,0.08268*%
%ADD13C,0.21000*%
%ADD11C,0.29000*%
%ADD15VB_RCRECTANGLE,0.07874X0.08268X0.00984*%
G01*
G54D10*
X5312Y33756D03*
X5349Y31755D03*
X6526Y34314D03*
X7504Y31758D03*
X13458Y37542D03*
X16998Y24735D03*
X17149Y16260D03*
X20630Y30463D03*
X22400Y28024D03*
X22560Y21273D03*
X22738Y24886D03*
X23000Y16500D03*
X23113Y35500D03*
X23275Y27023D03*
X23770Y28056D03*
X24515Y27037D03*
X25028Y28028D03*
X25938Y28049D03*
X28250Y28064D03*
X28853Y28056D03*
X29312Y24914D03*
X29329Y21822D03*
X29808Y37488D03*
X31454Y36277D03*
X32818Y28370D03*
X33401Y24026D03*
X34477Y15784D03*
X35501Y36778D03*
X39406Y36924D03*
X39731Y37373D03*
X44570Y30474D03*
X44787Y33547D03*
X46079Y36709D03*
X46545Y37757D03*
X47226Y39335D03*
X48500Y37696D03*
X48692Y29900D03*
X49035Y37288D03*
X50523Y35474D03*
X51453Y31276D03*
X53051Y32996D03*
X53132Y30001D03*
X56234Y32000D03*
G54D11*
X2000Y2000D03*
Y38000D03*
X4440Y5984D03*
Y25984D03*
X46448Y5984D03*
Y25984D03*
X58000Y2000D03*
Y38000D03*
G54D12*
X8252Y39249D03*
X13252D03*
X15500Y39000D03*
X16500D03*
X17500D03*
X18500D03*
X19500D03*
X20500D03*
X22000D03*
X23000D03*
X24000D03*
X25000D03*
X26000D03*
X27500D03*
X28500D03*
X29500D03*
X31000D03*
X32000D03*
X33000D03*
X34500D03*
X35500D03*
X36500D03*
X39500Y35000D03*
X40500D03*
X41500D03*
X43501Y30002D03*
Y33502D03*
Y35002D03*
X52500Y39000D03*
X53500D03*
X54500D03*
X55500D03*
X59000Y32000D03*
Y33000D03*
Y34000D03*
Y35000D03*
G54D13*
X16000Y1500D03*
X23000D03*
X30000D03*
X58472Y25398D03*
Y29398D03*
G54D14*
X38504Y38000D03*
X40472D03*
G54D15*
X38346Y39053D03*
X40630Y39051D03*
G54D16*
X55024Y7000D03*
Y13750D03*
Y20500D03*
X57976Y7000D03*
Y13750D03*
Y20500D03*
M02*
