; Version : LOCAL
; Job     : E:\PCBDESIGN\PROJECT\XDX\JOHNENGLISH\JOHNENGLISH\PCB\Board1.pcb
; User    : BES-WIN7-VM:BES
; Date    : Sun Nov 23 15:02:06 2014
; Format  : 2.4 / Absolute / Inch / Trailing
; Contents: Thru / Drill / Plated
M48
INCH,LZ
FMAT,2
ICI,OFF
T08C0.0100
T09C0.0190
T07C0.0200
T06C0.0325
T04C0.0335
T02C0.0360
T03C0.1000
T01C0.1285
%
M72
G90
G93X0Y0
T08
X0465Y00775
X04675Y008
Y0085
X0465Y00825
Y00875
Y00925
Y00975
X04675Y0095
X02Y023
Y0235
X02425
X02475
X02525
X02425Y024
Y0245
X0215
X02125Y02475
X021Y0245
X02075Y02475
X0205Y0245
X02025Y02475
X02Y024
Y0245
X01975Y02475
X0195Y0245
X01925Y02475
X019Y0245
X01875Y02475
X0185Y0245
X0245Y02575
X025
X0255
X021325Y026008
X0115Y02775
X01175Y0275
X03275
X0375Y02775
X038
X0385
X03275Y028
X03225Y02875
X03175
X03125
X03075
X03025
X014
X0135
X013
X0125
X012
X01175Y028
Y0285
X0115Y02825
Y02875
X01175Y029
X01225
X01275
X01325
X01375
X01425
X023794Y02985
X0245Y029965
X024929Y029688
X027527Y029919
X03Y029
X0305
X031
X0315
X032
X03425Y02975
X03725
X03775
X03825
X03975Y0295
X04917Y029919
X05325Y029
X0545Y02925
X055
X0555
X056
X0565
X04942Y030203
X048607Y030204
X027778Y030603
X027114Y030018
X022944Y030001
X022167Y030016
X01875Y0305
X00125Y03
X01875Y031
Y0315
X02175Y031149
X022141Y031154
X048592Y03152
X04925Y0315
X050957Y031958
X048972Y032738
X0485Y032
X046735Y032633
X046483Y032374
X045069Y032661
X044739Y032668
X044502Y032091
X044124Y032046
X03725Y03275
X03675
X03625
X025973Y032672
X02375Y03225
X02325
X022141Y03263
X02184Y032432
X021519Y032578
X021168Y032674
X01875Y032
Y0325
X023704Y033942
X025183Y033993
X03725Y0335
X045302Y033969
X046554Y033451
X046964Y033426
X047759Y033969
X048049Y033512
X048601Y033662
X049201Y033156
X04946Y033538
X050802Y033575
X05124Y033858
X051315Y034179
X049221Y034231
X048086Y034315
X047503Y034178
X047182Y034029
X02975Y0345
X02775Y034
X026633Y034527
X025887Y034095
X024933Y034243
X023091Y034572
X022768Y034822
X022607Y034102
X022584Y034436
X022293Y034227
X021708Y034093
X02025Y0345
X00125
X0215Y03525
X025057Y03579
X02775Y035
X0345
X0355
X048058Y035686
X048364Y03581
X058Y035
X0515Y036
Y0365
X045531Y036449
X025208Y036645
X025202Y036315
X02251Y03748
X02353
X024424
X0255Y03725
X02875Y037
X039Y0375
X046038Y037822
X05Y03825
X043Y03875
X012Y038
X01
X007
X005
X044708Y039576
T09
X034477Y015784
X023Y0165
X017149Y01626
X02256Y021273
X029329Y021822
X033401Y024026
X029312Y024914
X022738Y024886
X016998Y024735
X023275Y027023
X024515Y027037
X032818Y02837
X028853Y028056
X02825Y028064
X025938Y028049
X025028Y028028
X02377Y028056
X0224Y028024
X048692Y0299
X053132Y030001
X04457Y030474
X02063Y030463
X005349Y031755
X007504Y031758
X051453Y031276
X056234Y032
X053051Y032996
X005312Y033756
X044787Y033547
X006526Y034314
X023113Y0355
X050523Y035474
X046079Y036709
X039406Y036924
X035501Y036778
X031454Y036277
X013458Y037542
X029808Y037488
X039731Y037373
X046545Y037757
X0485Y037696
X049035Y037288
X047226Y039335
T07
X005Y001
X008
X011
X014
X018
X021
X025
X028
X032
X035
X038
X041
X044
X047
X05
X053
X056
X059Y004
X042
Y0045
X039Y004
Y0045
X036Y004
Y0045
X035Y004
Y0045
X0345Y004
Y0045
X0255Y004
Y0045
X025Y004
Y0045
X0175Y004
Y0045
X017Y004
Y0045
X001Y005
X007
X017
X0175
X025
X0255
X0345
X035
X036
X039
X042
X059Y006
X053
X05
X001Y008
X017Y0095
X0175
X025Y009
X0255
X0345Y0095
X035
X059Y009
X0435Y0105
X043
X0425
X042
X0415
X035Y01
Y0105
X0345Y01
Y0105
X0175Y01
Y0105
X017Y01
Y0105
X001Y011
X017
Y0115
X0175Y011
Y0115
X0345Y011
Y0115
X035Y011
Y0115
X0415Y011
Y0115
X042Y011
Y0115
X0425Y011
X043
X0435
X059Y012
X042
X0415
X035
Y0125
X0345Y012
Y0125
X0175Y012
Y0125
X017Y012
Y0125
Y013
X0175
X025
X0255
X0345
X035
X001Y014
X0415Y0155
X042
X0425
X043
X0435
X059Y015
X0435Y016
X043
X0425
X042
Y0165
X0415Y016
Y0165
X0335Y016
Y0165
X033Y016
Y0165
X0325Y016
Y0165
X032Y016
Y0165
X0315Y016
Y0165
X031Y016
Y0165
X0305Y016
Y0165
X03Y016
Y0165
X0295Y016
Y0165
X029Y016
Y0165
X001Y017
X0105Y0175
X011
X0115
X012
X0125
X013
X0135
X014
X0145
X015
X0155
X018Y017
Y0175
X0185Y017
Y0175
X019Y017
Y0175
X0195Y017
Y0175
X02Y017
Y0175
X0205Y017
Y0175
X021Y017
Y0175
X0215Y017
Y0175
X022Y017
Y0175
X0225Y017
Y0175
X0415Y017
X042
X059Y018
X0155
X015
X0145
X014
X0135
X013
X0125
X012
X0115
X011
X0105
X044Y02
X041
X001
X059Y021
X041Y022
X001Y023
X041Y024
X0495Y026
X041
X001
X059Y028
X0495
X044
X041
X011
X009
X007
X001Y029
X017Y03
X015
X013
X011
X009
X0105Y0345
X001Y036
X042Y039
X051
T06
X055024Y007
X057976
X055024Y01375
X057976
Y0205
X055024
T04
X040472Y038
X038504
T02
X043501Y030002
X059Y032
X043501Y033502
X059Y033
Y034
X0395Y035
X0405
X0415
X043501Y035002
X059Y035
X008252Y039249
X013252
X0155Y039
X0165
X0175
X0185
X0195
X0205
X022
X023
X024
X025
X026
X0275
X0285
X0295
X031
X032
X033
X0345
X0355
X0365
X0525
X0535
X0545
X0555
T03
X016Y0015
X023
X03
X058472Y025398
Y029398
T01
X058Y002
X002
X00444Y005984
X046448
X00444Y025984
X046448
X058Y038
X002
T00
M30
